<?xml version="1.0" standalone="no"?>
<!DOCTYPE svg PUBLIC "-//W3C//DTD SVG 1.1//EN" "http://www.w3.org/Graphics/SVG/1.1/DTD/svg11.dtd" >
<svg xmlns="http://www.w3.org/2000/svg" xmlns:xlink="http://www.w3.org/1999/xlink" version="1.1">
<metadata>
Created by FontForge 20201107 at Sun Apr 23 04:35:11 2017
 By 
Copyright (c) 2016 by Deni Anggara. All rights reserved.
</metadata>
<defs>
<font id="Biotif-Book" horiz-adv-x="0" >
  <font-face 
    font-family="Biotif Book"
    font-weight="450"
    font-stretch="normal"
    units-per-em="1000"
    panose-1="0 0 5 0 0 0 0 0 0 0"
    ascent="756"
    descent="-244"
    x-height="489"
    cap-height="723"
    bbox="-532 -245 1488 1063"
    underline-thickness="80"
    underline-position="-195"
    unicode-range="U+0020-FB02"
  />
<missing-glyph horiz-adv-x="542" 
d="M444 -219h-343v1083h343v-1083zM182 791v-35h70v-40h-71v-36h180v36h-72v40h72v35h-179zM181 652v-113h180v37h-72v76h-108zM252 576h-35v39h35v-39zM181 510v-36h71v-40h-71v-36h108v76h72v36h-180zM325 445v-72h-144v-36h180v108h-36zM252 313v-61h37v25h36v-51h-108
v87h-36v-123h180v123h-109zM181 125v-122h180v122h-180zM325 39h-108v51h108v-51zM181 -22v-36h76l-76 -51v-35h180v35h-111l76 51h35v36h-180z" />
    <glyph glyph-name="fi" unicode="fi" horiz-adv-x="577" 
d="M501 488v-488h-94v410l-225 1v-411h-94v411h-72v78h72l-1 78q0 87 44 128t117 41q11 0 24.5 -1.5t28.5 -3.5v-84q-17 4 -41 4q-43 0 -60.5 -22t-17.5 -62v-78zM520 663q0 -28 -19 -47t-46 -19q-28 0 -47 19t-19 47t19 47t47 19q27 0 46 -19t19 -47z" />
    <glyph glyph-name="fl" unicode="fl" horiz-adv-x="568" 
d="M494 736v-736h-94v411h-218v-411h-94v411h-72v78h72l-1 78q0 87 44 128t117 41q11 0 24.5 -1.5t28.5 -3.5v-84q-17 4 -41 4q-43 0 -60.5 -22t-17.5 -62v-78h218v247h94z" />
    <glyph glyph-name="f_f" unicode="ff" horiz-adv-x="658" 
d="M588 651q-43 0 -60.5 -22t-17.5 -62v-78h101v-78h-101v-411h-94v411h-231v-411h-94l-1 411h-72v78h72v78q0 87 44 128t117 41q11 0 24.5 -1.5t28.5 -3.5v-84q-11 2 -21 3t-20 1q-43 0 -60.5 -21t-17.5 -63v-78h231l-1 78q0 87 44 128t117 41q11 0 24.5 -1.5t28.5 -3.5
v-84q-17 4 -41 4z" />
    <glyph glyph-name="f_f_i" unicode="ffi" horiz-adv-x="902" 
d="M508 489l319 -1v-488h-94v411h-225v-411h-95v411h-231v-411h-94v411h-72v78h72l-1 78q0 87 44 128t117 41q11 0 24.5 -1.5t28.5 -3.5v-84q-17 4 -41 4q-43 0 -60.5 -22t-17.5 -62v-78h231v78q0 87 43.5 128t116.5 41q12 0 25.5 -1.5t27.5 -3.5v-84q-17 4 -41 4
q-42 0 -59.5 -21t-17.5 -63v-78zM714 663q0 28 19 47t47 19t47 -19t19 -47t-19 -47t-47 -19t-47 19t-19 47z" />
    <glyph glyph-name="f_f_l" unicode="ffl" horiz-adv-x="894" 
d="M820 736v-736h-95v411h-217v-411h-95v411h-231v-411h-94v411h-72v78h72l-1 78q0 87 44 128t117 41q11 0 24.5 -1.5t28.5 -3.5v-84q-17 4 -41 4q-43 0 -60.5 -22t-17.5 -62v-78h231v78q0 87 43.5 128t116.5 41q12 0 25.5 -1.5t27.5 -3.5v-84q-17 4 -41 4q-42 0 -59.5 -21
t-17.5 -63v-78h217v247h95z" />
    <glyph glyph-name="f_t" unicode="ft" horiz-adv-x="640" 
d="M629 411h-116v-411h-93v411h-238v-411h-94v411h-72v78h72l-1 78q0 87 44 128t117 41q11 0 24.5 -1.5t28.5 -3.5v-84q-17 4 -41 4q-43 0 -60.5 -22t-17.5 -62v-78h238v153h93v-153h116v-78z" />
    <glyph glyph-name="f_y" unicode="fy" horiz-adv-x="801" 
d="M792 489l-221 -594q-25 -66 -68.5 -94.5t-95.5 -28.5q-53 0 -99 26l25 82q13 -10 31.5 -17t37.5 -7q27 0 49 14.5t33 45.5l15 41l-179 454h-138v-411h-94v411h-72v78h72l-1 78q0 87 44 128t117 41q11 0 24.5 -1.5t28.5 -3.5v-84q-17 4 -41 4q-43 0 -60.5 -22t-17.5 -62
v-78h210l154 -406l145 406h101z" />
    <glyph glyph-name="t_i" unicode="ti" horiz-adv-x="556" 
d="M503 663q0 -28 -19 -47t-47 -19t-47 19t-19 47t19 47t47 19t47 -19t19 -47zM484 0h-95v411h-184v-411h-93v411h-96v78h96v153h93v-153h279v-489z" />
    <glyph glyph-name="t_t" unicode="tt" horiz-adv-x="634" 
d="M618 411h-96v-411h-93v411h-96h-128v-411h-93v411h-96v78h96v153h93v-153h166h58v153h93v-153h96v-78z" />
    <glyph glyph-name="t_y" unicode="ty" horiz-adv-x="787" 
d="M778 489l-221 -594q-24 -66 -67.5 -94.5t-95.5 -28.5q-53 0 -99 26l25 82q13 -10 31.5 -17t37.5 -7q26 0 48 14.5t33 45.5l16 40l-180 455h-101v-411h-93v411h-96v78h96v153h93v-153h151h23l152 -411l146 411h101z" />
    <glyph glyph-name=".notdef" horiz-adv-x="542" 
d="M444 -219h-343v1083h343v-1083zM182 791v-35h70v-40h-71v-36h180v36h-72v40h72v35h-179zM181 652v-113h180v37h-72v76h-108zM252 576h-35v39h35v-39zM181 510v-36h71v-40h-71v-36h108v76h72v36h-180zM325 445v-72h-144v-36h180v108h-36zM252 313v-61h37v25h36v-51h-108
v87h-36v-123h180v123h-109zM181 125v-122h180v122h-180zM325 39h-108v51h108v-51zM181 -22v-36h76l-76 -51v-35h180v35h-111l76 51h35v36h-180z" />
    <glyph glyph-name=".null" 
 />
    <glyph glyph-name="nonmarkingreturn" horiz-adv-x="333" 
 />
    <glyph glyph-name="space" unicode=" " horiz-adv-x="273" 
 />
    <glyph glyph-name="exclam" unicode="!" horiz-adv-x="317" 
d="M119 167q-15 113 -15 259v296h109v-296q0 -39 -0.5 -73t-2.5 -64.5t-4.5 -60t-7.5 -61.5h-79zM90 53q0 29 20 48t49 19q28 0 48 -19t20 -48t-20 -47.5t-48 -18.5q-29 0 -49 18.5t-20 47.5z" />
    <glyph glyph-name="quotedbl" unicode="&#x22;" horiz-adv-x="316" 
d="M113 445h-57l-20 187q-3 29 12.5 44t37.5 15q21 0 35 -15t11 -44zM261 445h-57l-20 187q-3 29 12 44t38 15q20 0 34.5 -15t11.5 -44z" />
    <glyph glyph-name="numbersign" unicode="#" horiz-adv-x="696" 
d="M529 428l-26 -133h111l-17 -95h-112l-40 -200h-94l39 200h-151l-40 -200h-94l40 200h-101l18 95h101l26 133h-115l18 94h116l39 200h94l-39 -200h152l39 200h94l-39 -200h104l-18 -94h-105zM435 428h-152l-26 -133h152z" />
    <glyph glyph-name="dollar" unicode="$" horiz-adv-x="649" 
d="M365 -90h-74v80q-94 8 -153 58.5t-70 131.5l96 15q6 -48 39 -77.5t88 -37.5v247l-25 7q-85 23 -129 71t-44 127q0 39 14.5 73.5t40.5 61.5t62.5 45t80.5 23v70h74v-70q82 -9 138 -54.5t74 -117.5l-94 -25q-10 43 -41.5 71t-76.5 36v-241l26 -8q186 -49 186 -208
q0 -41 -15 -75t-42.5 -60t-67 -42t-87.5 -21v-80zM291 644q-46 -10 -72.5 -41t-26.5 -69q0 -43 24 -69.5t75 -40.5v220zM480 191q0 48 -29 74t-80 40l-6 2v-228q58 8 86.5 39t28.5 73z" />
    <glyph glyph-name="percent" unicode="%" horiz-adv-x="908" 
d="M48 545q0 44 11.5 80t33.5 61.5t52.5 39.5t67.5 14q75 0 118.5 -52.5t43.5 -142.5q0 -88 -45 -141t-121 -53q-36 0 -66 14t-51 39.5t-32.5 61t-11.5 79.5zM781 722l-551 -722h-97l550 722h98zM212 424q42 1 66 33.5t24 87.5t-24 87.5t-66 33.5q-42 -1 -66.5 -33.5
t-24.5 -87.5t24.5 -87.5t66.5 -33.5zM700 -16q-36 0 -66 14t-51 39.5t-32.5 61t-11.5 79.5q0 88 43.5 141t116.5 53q75 2 120 -52q46 -52 46 -142q0 -44 -11.5 -79.5t-33.5 -61t-52 -39.5t-68 -14zM793 178q0 55 -24.5 87.5t-66.5 32.5t-66.5 -32.5t-24.5 -87.5t24.5 -88
t66.5 -34q42 2 66.5 34.5t24.5 87.5z" />
    <glyph glyph-name="ampersand" unicode="&#x26;" horiz-adv-x="708" 
d="M575 0l-49 59q-82 -70 -216 -70q-60 0 -107.5 15.5t-80.5 43t-50.5 67t-17.5 87.5q0 73 40.5 124.5t127.5 100.5q-22 26 -37.5 47t-24.5 39.5t-13 36t-4 36.5q0 35 13 62.5t35.5 47t53 30t66.5 10.5q72 0 119 -41t47 -105q0 -49 -32 -92.5t-99 -86.5l170 -205
q16 45 16 109v21t-1 15h97q6 -135 -46 -224l106 -127h-113zM234 579q0 -24 14.5 -47t51.5 -66q85 51 85 115q0 31 -19.5 51.5t-54.5 20.5q-36 0 -56.5 -21t-20.5 -53zM271 368q-54 -31 -86 -72t-32 -92q0 -60 43.5 -95.5t121.5 -35.5q97 0 152 54z" />
    <glyph glyph-name="quotesingle" unicode="'" horiz-adv-x="209" 
d="M136 447h-63l-21 193q-3 31 13 47.5t39 16.5t39.5 -16t13.5 -48z" />
    <glyph glyph-name="parenleft" unicode="(" horiz-adv-x="280" 
d="M201 -78q-35 43 -63.5 93t-48.5 110q-41 120 -41 246t40 243q20 60 48 111t65 95h79q-63 -82 -99 -198.5t-37 -250.5q1 -64 10.5 -125t26.5 -121q35 -117 99 -203h-79z" />
    <glyph glyph-name="parenright" unicode=")" horiz-adv-x="279" 
d="M136 371q-1 134 -37 250.5t-99 198.5h79q37 -44 65 -95t48 -111q40 -117 40 -243t-41 -246q-20 -60 -48.5 -110t-63.5 -93h-79q32 43 56.5 93t41.5 110q37 120 38 246z" />
    <glyph glyph-name="asterisk" unicode="*" horiz-adv-x="408" 
d="M288 491l37 -56l-43 -29l-38 54q-11 15 -21 33.5t-20 41.5q-10 -34 -39 -75l-40 -54l-43 29l38 56q27 36 57 65q-49 6 -84 19l-64 23l19 49l62 -21q44 -17 78 -38q-9 45 -9 86v67h52v-67q0 -50 -9 -86q30 20 77 38l63 21l19 -49l-65 -23q-34 -13 -83 -19q24 -23 56 -65z
" />
    <glyph glyph-name="plus" unicode="+" horiz-adv-x="661" 
d="M581 295h-208v-209h-84v209h-209v84h209v208h84v-208h208v-84z" />
    <glyph glyph-name="comma" unicode="," horiz-adv-x="262" 
d="M198 30q0 -28 -10 -51.5t-26 -40t-36.5 -26t-42.5 -9.5v35q23 1 40.5 18.5t17.5 39.5q-10 -5 -22 -5q-24 0 -40.5 16t-16.5 44q0 29 18.5 47t46.5 18q31 0 51 -21.5t20 -64.5z" />
    <glyph glyph-name="hyphen" unicode="-" horiz-adv-x="520" 
d="M457 322v-86h-394v86h394z" />
    <glyph glyph-name="period" unicode="." horiz-adv-x="276" 
d="M66 56q0 29 21.5 50t50.5 21t50 -21t21 -50q0 -28 -21 -49t-50 -21t-50.5 21t-21.5 49z" />
    <glyph glyph-name="slash" unicode="/" horiz-adv-x="376" 
d="M282 722h94l-282 -722h-94z" />
    <glyph glyph-name="zero" unicode="0" horiz-adv-x="753" 
d="M376 736q73 0 131.5 -27.5t99 -77.5t62 -119.5t21.5 -152.5t-22.5 -151.5t-63.5 -117t-99 -75.5t-129 -27q-73 0 -131.5 27.5t-99 77t-62 118.5t-21.5 151q0 83 22.5 152t63.5 118.5t99 76.5t129 27zM376 76q51 0 91 20.5t68 58t43 90t15 116.5t-15 117t-43 90.5t-68 58
t-91 20.5t-91 -21t-68.5 -58.5t-43.5 -90.5t-15 -117t15 -116t43.5 -89.5t69 -58t90.5 -20.5z" />
    <glyph glyph-name="one" unicode="1" horiz-adv-x="386" 
d="M58 645l134 78h96v-723h-96v624l-134 -74v95z" />
    <glyph glyph-name="two" unicode="2" horiz-adv-x="585" 
d="M199 90h329v-89l-460 -1v100l281 248q49 45 70 81.5t21 78.5q0 63 -38.5 101t-102.5 38q-66 0 -106 -40t-40 -109h-98q0 54 18 98t50.5 75t77.5 48t99 17q57 0 101 -18t74.5 -49.5t46.5 -72.5t16 -88q0 -70 -32 -122t-92 -104z" />
    <glyph glyph-name="three" unicode="3" horiz-adv-x="584" 
d="M535 224q0 -53 -19.5 -96.5t-54 -74.5t-80.5 -48t-100 -17t-99 17t-77.5 48t-50.5 75t-18 97h98q0 -70 40 -109.5t109 -39.5t111.5 40t42.5 109q0 61 -34.5 99t-103.5 46q-10 1 -25 1.5t-37 0.5h-47v67l203 195h-322v89h449v-90l-188 -178q87 -13 145 -76q58 -61 58 -155
z" />
    <glyph glyph-name="four" unicode="4" horiz-adv-x="631" 
d="M59 237l311 486h113l-311 -486l241 -1v220h94v-220h89v-89h-89v-147h-94v147h-354v90z" />
    <glyph glyph-name="five" unicode="5" horiz-adv-x="627" 
d="M573 240q0 -55 -19 -101t-53.5 -79.5t-82.5 -52.5t-105 -19q-56 0 -103.5 18.5t-82.5 51.5t-54.5 78.5t-19.5 99.5h98q0 -72 46 -115q47 -44 117 -44q34 0 63.5 12t51 33.5t34 51.5t12.5 66q0 73 -45 118q-45 46 -116 46q-91 0 -146 -67l-91 15l91 371h359v-95h-283
l-47 -180q53 40 132 40q56 0 101 -19.5t76.5 -53t49 -78.5t17.5 -97z" />
    <glyph glyph-name="six" unicode="6" horiz-adv-x="676" 
d="M617 249q0 -56 -20 -104t-55 -83t-83 -54.5t-104 -19.5q-73 0 -127.5 28t-90.5 77t-54 115.5t-18 143.5q0 81 20 151t59.5 122t99.5 81.5t140 29.5q66 0 121.5 -21t94.5 -58l-59 -70q-35 29 -77 43.5t-85 14.5q-54 0 -94.5 -20t-68 -55.5t-41.5 -83t-14 -102.5
q26 55 80.5 84.5t120.5 29.5q54 0 100.5 -18t81 -51t54 -79t19.5 -101zM519 245q0 38 -13 69.5t-36 53.5t-54 34t-67 12q-34 0 -64 -12t-52 -34.5t-34.5 -53.5t-12.5 -69q0 -39 13 -70t35.5 -53t53 -34t65.5 -12t65 12t52.5 34t35.5 53t13 70z" />
    <glyph glyph-name="seven" unicode="7" horiz-adv-x="535" 
d="M510 723v-91q-130 -105 -192 -239q-31 -67 -49 -123.5t-25 -104.5q-12 -94 -12 -165h-96q0 35 3 74.5t8 85.5q12 92 69 225q29 67 73.5 128.5t105.5 118.5h-370v91h485z" />
    <glyph glyph-name="eight" unicode="8" horiz-adv-x="634" 
d="M574 196q0 -47 -19 -85.5t-53.5 -65.5t-81.5 -42t-103 -15t-103 15t-81.5 42t-53.5 65.5t-19 85.5q0 66 36.5 117t100.5 72q-51 22 -79 64.5t-28 97.5q0 44 17.5 79t48 59.5t72.5 37.5t90 13t89.5 -13t72 -37.5t47.5 -59.5t17 -79q-1 -57 -29 -99.5t-79 -62.5
q66 -20 102 -71.5t36 -117.5zM176 540q0 -51 37.5 -82.5t103.5 -31.5q64 0 101.5 30.5t37.5 81.5q0 54 -39 83t-100 29q-63 0 -102 -29.5t-39 -80.5zM477 208q0 61 -45 94.5t-115 33.5q-34 0 -63.5 -8.5t-51 -24.5t-33.5 -40t-12 -54q0 -63 45.5 -98t115.5 -35q69 0 114 35
t45 97z" />
    <glyph glyph-name="nine" unicode="9" horiz-adv-x="672" 
d="M610 372q0 -81 -19.5 -151t-59.5 -122t-100 -81.5t-140 -29.5q-66 0 -121.5 21t-94.5 58l59 69q70 -58 162 -58q54 0 94.5 20t68 55.5t41.5 83.5t14 103q-25 -55 -80 -84.5t-121 -29.5q-54 0 -100.5 18t-80.5 51t-53.5 79t-19.5 101q0 57 19.5 104.5t54.5 82.5t82.5 54.5
t104.5 19.5q74 0 128.5 -28t90.5 -77t53.5 -115.5t17.5 -143.5zM489 479q0 39 -13 70t-35.5 53t-53 34t-65.5 12t-65 -12t-52.5 -34t-35.5 -53t-13 -70t13 -70t35.5 -53.5t53 -34.5t66.5 -12q35 0 65 12.5t52 35t35 54t13 68.5z" />
    <glyph glyph-name="colon" unicode=":" horiz-adv-x="325" 
d="M91 428q0 29 21 50t51 21q29 0 50 -21t21 -50q0 -28 -21 -49t-50 -21q-30 0 -51 20.5t-21 49.5zM91 56q0 29 21 50t51 21q29 0 50 -21t21 -50q0 -28 -21 -49t-50 -21q-30 0 -51 20.5t-21 49.5z" />
    <glyph glyph-name="semicolon" unicode=";" horiz-adv-x="266" 
d="M62 428q0 29 21 50t50 21t50.5 -21t21.5 -50q0 -28 -21.5 -49t-50.5 -21t-50 20.5t-21 49.5zM198 30q0 -28 -10 -51.5t-26 -40t-36.5 -26t-42.5 -9.5v35q23 1 40.5 18t17.5 39q-7 -4 -21 -4q-25 0 -41.5 16t-16.5 44q0 29 18.5 47t46.5 18q31 0 51 -21.5t20 -64.5z" />
    <glyph glyph-name="less" unicode="&#x3c;" horiz-adv-x="423" 
d="M35 296l342 189v-101l-245 -137l245 -137v-101l-342 189v98z" />
    <glyph glyph-name="equal" unicode="=" horiz-adv-x="554" 
d="M464 450v-83h-384v83h384zM80 227h384v-83h-384v83z" />
    <glyph glyph-name="greater" unicode="&#x3e;" horiz-adv-x="426" 
d="M46 110l245 137l-245 137v101l341 -189v-98l-341 -189v101z" />
    <glyph glyph-name="question" unicode="?" horiz-adv-x="534" 
d="M500 514q0 -50 -18 -88q-18 -37 -42.5 -62t-64.5 -57q-43 -34 -63.5 -58t-21.5 -56v-26h-95v29q0 38 15 66q15 29 36.5 50t58.5 50q26 21 44.5 38t31.5 34t19 35.5t6 40.5q0 27 -10 51t-28 42t-43 28.5t-55 10.5t-56 -11t-44.5 -30t-29.5 -44t-11 -53h-96q0 48 18.5 90.5
t50.5 74t75.5 49.5t92.5 18q50 0 92 -16.5t72.5 -45.5t48 -70t17.5 -90zM318 53q0 -27 -20 -47t-50 -20q-31 0 -51 19.5t-20 47.5t20.5 48t50.5 20q29 0 49.5 -20t20.5 -48z" />
    <glyph glyph-name="at" unicode="@" horiz-adv-x="943" 
d="M893 366q1 -62 -15.5 -116.5t-45 -95.5t-66.5 -64t-81 -22q-48 0 -75 27.5t-24 73.5q-26 -42 -72 -66.5t-103 -24.5q-42 0 -76.5 14.5t-60 41t-39.5 64t-14 83.5q0 8 1 19.5t3 27.5q8 53 30 97.5t55 76.5t75 50t88 18q57 -1 99 -27.5t61 -74.5l16 88h58l-61 -356
q-1 -8 -1.5 -14t-0.5 -10q0 -51 45 -51q27 0 52 19.5t44 53t30.5 78t11.5 95.5q0 69 -23.5 126t-66 98t-101 63.5t-127.5 22.5q-80 2 -152 -29.5t-126 -86t-85 -127.5t-30 -155q-1 -70 22.5 -131.5t67 -107t103.5 -71.5t132 -25q66 0 133.5 20t122.5 57l27 -53
q-57 -37 -138 -58q-78 -22 -151 -22q-76 -1 -146.5 26.5t-123.5 78.5t-84 122.5t-30 159.5q-2 96 34.5 180t99.5 146.5t147 98t177 33.5q83 1 153.5 -26.5t122.5 -77t80.5 -118t27.5 -149.5zM603 367q0 72 -35.5 109.5t-96.5 37.5q-71 0 -122 -54q-50 -53 -62 -138
q-3 -21 -3 -39q0 -72 37.5 -110.5t98.5 -38.5q69 0 118 51.5t62 139.5q3 23 3 42z" />
    <glyph glyph-name="A" unicode="A" horiz-adv-x="661" 
d="M482 180h-304l-65 -180h-101l264 723h98h10l265 -723h-104zM452 263l-120 342l-124 -342h244z" />
    <glyph glyph-name="B" unicode="B" horiz-adv-x="645" 
d="M602 190q0 -45 -16.5 -80t-46.5 -59.5t-72 -37.5t-93 -13h-234h-53v722h96h186q106 0 165.5 -52.5t59.5 -140.5q0 -60 -28 -102.5t-74 -64.5q49 -22 79.5 -67t30.5 -105zM183 638v-238h181q64 0 99 33t35 84q-1 54 -36.5 87.5t-98.5 33.5h-180zM507 204q-1 54 -38 86
t-97 32h-189v-237h189q63 0 99 32.5t36 86.5z" />
    <glyph glyph-name="C" unicode="C" horiz-adv-x="738" 
d="M599 492q-22 70 -77 108.5t-133 38.5q-55 0 -99.5 -20t-76 -56.5t-49 -87.5t-17.5 -113q0 -64 17.5 -115t49.5 -87t76.5 -55.5t97.5 -19.5q77 0 136 38q59 39 81 100l93 -40q-34 -90 -119 -143q-84 -51 -192 -51q-75 -1 -138.5 25.5t-109.5 76t-71.5 118.5t-24.5 152
q0 84 25 153t71 118.5t109.5 76.5t140.5 27q115 0 195 -58t109 -153z" />
    <glyph glyph-name="D" unicode="D" horiz-adv-x="727" 
d="M684 361q1 -79 -26 -146t-76 -115t-116 -74.5t-146 -25.5h-233v723h233q78 1 145.5 -25.5t116 -75t76 -115.5t26.5 -146zM580 361q0 60 -19 109.5t-53 85t-82 55.5t-107 20h-134v-539h134q59 0 107 19.5t82 55t53 85t19 109.5z" />
    <glyph glyph-name="E" unicode="E" horiz-adv-x="588" 
d="M528 93v-93h-441v723h440v-94h-342v-221h308v-88h-308v-227h343z" />
    <glyph glyph-name="F" unicode="F" horiz-adv-x="556" 
d="M184 630v-234h284l-1 -89h-283v-307h-99v723h99h338l-1 -93h-337z" />
    <glyph glyph-name="G" unicode="G" horiz-adv-x="766" 
d="M708 404v-405h-86l-4 94q-35 -51 -99 -78t-139 -27q-74 -1 -136 26.5t-107 77t-70 118t-24 149.5q-1 81 24.5 150.5t72 120.5t112 79t144.5 27q112 0 191.5 -51.5t110.5 -141.5l-87 -38q-26 70 -82.5 104t-131.5 34q-58 0 -105 -20.5t-80 -58t-51 -90t-18 -117.5
q0 -64 18 -115.5t50.5 -87t77 -54.5t98.5 -19q81 0 151 41q69 42 78 142v53h-241v87h333z" />
    <glyph glyph-name="H" unicode="H" horiz-adv-x="723" 
d="M87 723h98v-313l352 -1v314h99v-723h-99v322l-352 1v-323h-98v723z" />
    <glyph glyph-name="I" unicode="I" horiz-adv-x="271" 
d="M87 0v723h98v-723h-98z" />
    <glyph glyph-name="J" unicode="J" horiz-adv-x="531" 
d="M453 723v-524q0 -46 -15.5 -85t-44.5 -67.5t-69.5 -44t-90.5 -15.5q-103 1 -157 59t-54 155v24h96v-24q0 -33 9 -56t25 -38t36.5 -21.5t43.5 -6.5q54 0 88 29.5t34 95.5v519h99z" />
    <glyph glyph-name="K" unicode="K" horiz-adv-x="652" 
d="M365 386l264 -386h-127l-199 309l-117 -145v-165h-99v724h99v-406l324 406h127z" />
    <glyph glyph-name="L" unicode="L" horiz-adv-x="508" 
d="M481 89v-89h-379h-15v723h99v-634h295z" />
    <glyph glyph-name="M" unicode="M" horiz-adv-x="865" 
d="M779 723v-723h-98v502l-202 -502h-95l-202 499v-499h-95v723h95l250 -607l249 607h98z" />
    <glyph glyph-name="N" unicode="N" horiz-adv-x="739" 
d="M652 723v-723h-97l-370 564v-564h-98v723h98l370 -564v564h97z" />
    <glyph glyph-name="O" unicode="O" horiz-adv-x="778" 
d="M389 736q76 1 140 -27t110.5 -78t72.5 -119t25 -150q1 -81 -25 -149.5t-72.5 -119t-111 -78.5t-140.5 -27q-77 0 -140.5 28t-109.5 77.5t-71 118.5t-25 150q-1 81 24.5 150t72 119t110.5 78t140 27zM389 84q54 0 99 20t77.5 56.5t50 87.5t17.5 114t-17.5 114t-49.5 87.5
t-77 56.5t-100 20t-100 -20t-77 -56.5t-49.5 -87.5t-17.5 -114t17.5 -114t49.5 -87.5t77 -56.5t100 -20z" />
    <glyph glyph-name="P" unicode="P" horiz-adv-x="631" 
d="M600 491q0 -51 -16 -93.5t-46.5 -74t-73.5 -49t-97 -17.5h-182v-257h-98v723h98h183q108 0 169 -63q63 -63 63 -169zM497 494q0 63 -38 101.5t-107 38.5h-167v-289h164q72 0 110 41.5t38 107.5z" />
    <glyph glyph-name="Q" unicode="Q" horiz-adv-x="779" 
d="M711 -2h-110l-32 37q-80 -47 -179 -47q-76 -1 -140 27t-110.5 78.5t-72 119t-24.5 149.5q-1 81 24.5 150t72 119t110.5 78t140 27q77 1 141 -27t110.5 -78t72 -119t24.5 -150q0 -85 -26.5 -155.5t-77.5 -121.5zM394 232h110l63 -72q33 37 50.5 88t17.5 114t-17.5 114
t-49.5 87.5t-77 56.5t-100 20t-100 -20t-77 -56.5t-49.5 -87.5t-17.5 -114t17.5 -114t49.5 -87.5t77 -56.5t100 -20q62 0 111 25z" />
    <glyph glyph-name="R" unicode="R" horiz-adv-x="659" 
d="M613 0h-111l-129 287h-188v-287h-98v723h277q120 0 184 -57t64 -160q0 -78 -37 -131t-103 -73zM508 505q0 60 -37.5 94.5t-106.5 34.5h-179v-259h179q72 0 108 35t36 95z" />
    <glyph glyph-name="S" unicode="S" horiz-adv-x="587" 
d="M292 736q100 0 163 -48t77 -126l-93 -25q-10 52 -50 80.5t-100 28.5q-64 0 -102.5 -31.5t-38.5 -83.5q0 -82 100 -107l121 -30q90 -23 134 -73.5t44 -122.5q0 -46 -17.5 -85t-50 -66.5t-79 -43t-104.5 -15.5q-105 0 -173.5 47t-82.5 132l94 25q8 -54 51.5 -83.5
t112.5 -29.5q70 0 110.5 30t40.5 84q0 84 -100 108l-120 30q-91 22 -134.5 73.5t-43.5 123.5q0 47 17.5 85t49 65.5t76 42.5t98.5 15z" />
    <glyph glyph-name="T" unicode="T" horiz-adv-x="559" 
d="M542 630h-213v-630h-98v630h-215v93h526v-93z" />
    <glyph glyph-name="U" unicode="U" horiz-adv-x="719" 
d="M78 723h100v-467q0 -89 53 -133q53 -42 129 -42q77 0 129 45q53 45 53 130v467h99v-469q0 -66 -22.5 -115.5t-61 -83.5t-89.5 -51t-108 -17q-55 0 -106 16.5t-90 49.5t-62.5 83.5t-23.5 117.5v469z" />
    <glyph glyph-name="V" unicode="V" horiz-adv-x="678" 
d="M666 723l-274 -723h-103l-277 723h107l222 -587l221 587h104z" />
    <glyph glyph-name="W" unicode="W" horiz-adv-x="1006" 
d="M991 723l-218 -723h-95l-174 554l-177 -554h-96l-215 723h106l159 -559l169 559h108l167 -561l162 561h104z" />
    <glyph glyph-name="X" unicode="X" horiz-adv-x="662" 
d="M141 723l191 -281l191 281h120l-250 -361l253 -362h-126l-188 281l-192 -281h-121l252 361l-255 362h125z" />
    <glyph glyph-name="Y" unicode="Y" horiz-adv-x="608" 
d="M121 723l185 -332l185 332h108l-244 -427v-296h-99v296l-246 427h111z" />
    <glyph glyph-name="Z" unicode="Z" horiz-adv-x="570" 
d="M529 629l-376 -535h371v-94h-480l-1 94l375 535l-374 -1v95h485v-94z" />
    <glyph glyph-name="bracketleft" unicode="[" horiz-adv-x="275" 
d="M270 -76h-211v882h211v-77h-130v-727h130v-78z" />
    <glyph glyph-name="backslash" unicode="\" horiz-adv-x="376" 
d="M283 0l-283 722h95l281 -722h-93z" />
    <glyph glyph-name="bracketright" unicode="]" horiz-adv-x="275" 
d="M134 2v727h-129v77h211v-882h-211v78h129z" />
    <glyph glyph-name="asciicircum" unicode="^" horiz-adv-x="518" 
d="M342 480l-70 144l-70 -144h-84l112 230h84l111 -230h-83z" />
    <glyph glyph-name="underscore" unicode="_" horiz-adv-x="530" 
d="M470 -18v-74h-410v74h410z" />
    <glyph glyph-name="grave" unicode="`" horiz-adv-x="217" 
d="M17 909h97l71 -141h-76z" />
    <glyph glyph-name="a" unicode="a" horiz-adv-x="527" 
d="M384 0q-2 11 -4 27.5t-4 38.5q-21 -35 -63.5 -56.5t-97.5 -21.5q-81 0 -129.5 41.5t-48.5 113.5t48.5 113t130.5 41h158v20q0 57 -31 82.5t-85 25.5q-96 0 -134 -78l-70 41q30 58 83.5 86.5t125.5 28.5q45 0 82.5 -11t64 -35t41.5 -60.5t15 -87.5v-208q0 -30 2.5 -59
t6.5 -42h-91zM375 228h-138q-51 0 -78 -22.5t-27 -61.5q0 -40 28 -61.5t76 -21.5q63 0 101 39.5t38 114.5v13z" />
    <glyph glyph-name="b" unicode="b" horiz-adv-x="608" 
d="M572 244q0 -57 -16.5 -104.5t-47.5 -81t-74 -52t-96 -18.5q-63 0 -108.5 25t-68.5 67l-5 -80h-85v736h92v-323q26 45 72.5 67.5t103.5 22.5q52 0 95 -18.5t73.5 -52.5t47.5 -81.5t17 -106.5zM477 246q0 78 -41 125t-113 47t-113.5 -47t-41.5 -125t41.5 -125t113.5 -47
t113 47t41 125z" />
    <glyph glyph-name="c" unicode="c" horiz-adv-x="547" 
d="M285 503q82 0 141 -40t83 -106l-83 -33q-16 45 -53.5 69.5t-86.5 24.5q-70 0 -111.5 -47.5t-41.5 -126.5q0 -78 42 -124.5t111 -46.5q49 0 87 24.5t54 67.5l82 -31q-27 -70 -87 -108t-138 -38q-55 0 -100.5 18.5t-77.5 52t-50 81t-18 104.5q0 58 17.5 105.5t50 81.5
t78 53t101.5 19z" />
    <glyph glyph-name="d" unicode="d" horiz-adv-x="615" 
d="M457 0q-4 20 -5.5 39t-2.5 38q-25 -43 -71 -66t-103 -23q-53 0 -97 18t-75 51t-48 80.5t-17 106.5q0 57 17.5 104.5t49 82t75.5 53.5t97 19q54 0 99.5 -21.5t71.5 -63.5v318h94v-619q0 -14 0.5 -30t1.5 -35q2 -19 3.5 -32t3.5 -20h-94zM443 245q0 78 -41.5 125.5
t-113.5 47.5q-70 0 -112 -47.5t-42 -125.5t42 -125t112 -47q72 0 113.5 47t41.5 125z" />
    <glyph glyph-name="e" unicode="e" horiz-adv-x="555" 
d="M517 206h-388q6 -69 47.5 -103t101.5 -34q51 0 86 23t54 63l79 -32q-28 -64 -86.5 -99.5t-133.5 -35.5q-53 0 -97 18.5t-75.5 52t-49 80.5t-17.5 104t17 105t48.5 82.5t76.5 53.5t100 19q53 0 96.5 -18.5t75 -52t48.5 -81t17 -106.5v-39zM421 274q-4 73 -42 111t-101 38
t-102 -38.5t-46 -110.5h291z" />
    <glyph glyph-name="f" unicode="f" horiz-adv-x="331" 
d="M263 651q-43 0 -60.5 -21t-17.5 -63v-78h116v-78h-116v-411h-94l-1 411h-72v78h72v78q0 87 44 128t117 41q11 0 24.5 -1.5t28.5 -3.5v-84q-11 2 -21 3t-20 1z" />
    <glyph glyph-name="g" unicode="g" horiz-adv-x="540" 
d="M522 -86q0 -80 -71 -115q-70 -36 -182 -37q-109 0 -177 30q-68 29 -68 98q0 35 18.5 63t50.5 42q-47 29 -47 83q0 29 16 56t51 39q-59 54 -59 137q0 42 15.5 77.5t44 61t68 40t87.5 14.5q64 0 115 -27q16 30 45.5 47t69.5 17q13 0 17 -1v-80q-4 1 -17 1q-38 0 -64 -23
q47 -53 47 -127q0 -42 -15.5 -77.5t-43.5 -60.5t-67 -39t-87 -14q-55 0 -94 16q-24 0 -37 -11t-13 -30q0 -16 12 -27.5t40 -11.5h178q79 0 123 -37.5t44 -103.5zM145 309q0 -49 33.5 -81.5t88.5 -32.5q57 0 90 32.5t33 81.5t-32.5 83.5t-89.5 34.5q-55 0 -89 -33.5
t-34 -84.5zM429 -86q0 31 -22.5 46.5t-64.5 15.5h-172q-9 0 -11 1q-27 -7 -40 -24t-13 -40q0 -44 43.5 -57.5t117.5 -13.5q79 0 120.5 15t41.5 57z" />
    <glyph glyph-name="h" unicode="h" horiz-adv-x="584" 
d="M520 295v-295h-94v275q0 142 -125 142q-26 0 -51 -9.5t-44.5 -28t-31 -46t-11.5 -63.5v-269h-94v735h95v-309q23 35 63.5 55.5t91.5 20.5q93 0 147 -51t54 -157z" />
    <glyph glyph-name="i" unicode="i" horiz-adv-x="241" 
d="M56 663q0 28 18.5 47t46.5 19t47 -19t19 -47t-19 -47t-47 -19t-46.5 19t-18.5 47zM169 489v-489h-95v489h95z" />
    <glyph glyph-name="j" unicode="j" horiz-adv-x="261" 
d="M68 663q0 28 19 47t47 19t47 -19t19 -47t-19 -47t-47 -19t-47 19t-19 47zM-35 -135q27 -9 49 -9q34 0 53.5 20t19.5 62v551h94v-549q0 -79 -41 -124t-113 -45q-41 0 -81 13z" />
    <glyph glyph-name="k" unicode="k" horiz-adv-x="510" 
d="M69 0v736h95v-473l216 226h119l-208 -218l202 -271h-114l-150 207l-65 -68v-139h-95z" />
    <glyph glyph-name="l" unicode="l" horiz-adv-x="231" 
d="M69 736h95v-736h-95v736z" />
    <glyph glyph-name="m" unicode="m" horiz-adv-x="864" 
d="M800 314v-314h-91v300q0 57 -29 88.5t-80 31.5q-54 0 -85.5 -35t-31.5 -93v-292h-93v301q0 57 -28.5 88t-79.5 31q-54 0 -86 -35t-32 -92v-293h-95v489h88l4 -52q21 32 58.5 49t83.5 17q55 0 96 -24t62 -69q19 43 61 68t99 25q81 0 130 -49.5t49 -139.5z" />
    <glyph glyph-name="n" unicode="n" horiz-adv-x="575" 
d="M512 300v-300h-94v284q0 73 -36 103t-84 30q-58 0 -96.5 -36.5t-38.5 -105.5v-274h-94v488h89l3 -61q21 34 62.5 54.5t93.5 20.5q90 0 142.5 -51.5t52.5 -151.5z" />
    <glyph glyph-name="o" unicode="o" horiz-adv-x="577" 
d="M289 502q56 0 102 -19.5t79 -54t51 -81.5t18 -102t-18 -102t-51 -81.5t-79 -54t-102 -19.5t-102 19.5t-79 54t-51.5 81.5t-18.5 102t18.5 102t51.5 81.5t79 54t102 19.5zM289 73q35 0 63.5 12.5t48.5 35.5t31 54.5t11 69.5t-11 69.5t-31 54.5t-48.5 36t-63.5 13
t-63.5 -13t-49 -36t-31.5 -54.5t-11 -69.5t11 -69.5t31.5 -54.5t49 -35.5t63.5 -12.5z" />
    <glyph glyph-name="p" unicode="p" horiz-adv-x="608" 
d="M336 -12q-57 0 -104 22.5t-71 64.5v-294h-90v708h83l5 -75q23 42 69 65.5t106 23.5q54 0 97.5 -18.5t74 -52.5t47.5 -81.5t17 -106.5q0 -58 -17 -105.5t-48 -81t-74 -51.5t-95 -18zM476 245q0 78 -42 125.5t-112 47.5q-72 0 -113.5 -47.5t-41.5 -125.5t41.5 -125
t113.5 -47q70 0 112 47t42 125z" />
    <glyph glyph-name="q" unicode="q" horiz-adv-x="610" 
d="M540 489v-708h-90v294q-25 -42 -72 -64.5t-104 -22.5q-52 0 -95.5 18t-74.5 51.5t-48 81t-17 105.5q0 59 17 106.5t48 81.5t75 52.5t98 18.5q60 0 105.5 -23.5t70.5 -66.5l4 76h83zM444 245q0 78 -41.5 125.5t-113.5 47.5q-70 0 -112 -47.5t-42 -125.5t42 -125t112 -47
q72 0 113.5 47t41.5 125z" />
    <glyph glyph-name="r" unicode="r" horiz-adv-x="371" 
d="M294 495q27 0 54 -6v-87q-28 6 -53 6q-63 0 -98 -39t-35 -108v-261h-95v488h88l5 -60q15 33 51.5 50t82.5 17z" />
    <glyph glyph-name="s" unicode="s" horiz-adv-x="452" 
d="M225 65q40 0 67 16.5t27 52.5q0 47 -63 65l-72 19q-133 34 -133 139q0 31 12 57.5t34.5 46t55 31t72.5 11.5q72 0 120.5 -33t57.5 -91l-84 -19q-4 30 -29 47.5t-62 17.5q-39 0 -62 -19t-23 -49q0 -48 68 -66l71 -19q64 -17 97.5 -52t33.5 -86q0 -67 -49.5 -106.5
t-137.5 -39.5q-81 0 -130.5 35t-57.5 95l86 16q4 -32 30 -50.5t71 -18.5z" />
    <glyph glyph-name="t" unicode="t" horiz-adv-x="326" 
d="M305 411h-95v-411h-93v411h-96v78h96v153h93v-153h95v-78z" />
    <glyph glyph-name="u" unicode="u" horiz-adv-x="586" 
d="M426 0q-4 16 -5.5 31.5t-2.5 32.5q-22 -36 -62.5 -56t-91.5 -20q-81 0 -140 48q-57 48 -57 157v296h95v-280q0 -74 36 -106q35 -31 85 -31q57 0 95 36.5t38 105.5v275h94v-399q0 -21 3 -47.5t7 -42.5h-94z" />
    <glyph glyph-name="v" unicode="v" horiz-adv-x="519" 
d="M507 489l-203 -489h-94l-198 489h102l145 -378l150 378h98z" />
    <glyph glyph-name="w" unicode="w" horiz-adv-x="778" 
d="M762 489l-168 -489h-90l-115 349l-117 -349h-93l-163 489h101l110 -353l114 353h97l112 -356l113 356h99z" />
    <glyph glyph-name="x" unicode="x" horiz-adv-x="491" 
d="M16 0l172 242l-175 247h112q20 -28 51 -73.5t73 -108.5l120 182h109l-175 -247l173 -242h-112q-40 57 -70.5 101t-50.5 77l-119 -178h-108z" />
    <glyph glyph-name="y" unicode="y" horiz-adv-x="522" 
d="M509 489l-227 -601q-24 -63 -64 -91t-89 -28q-48 0 -101 25l26 86q35 -25 70 -25q25 0 45.5 15t32.5 48l19 53l-208 518h99l153 -398l146 398h98z" />
    <glyph glyph-name="z" unicode="z" horiz-adv-x="456" 
d="M38 86l265 320h-265v83h380v-86l-268 -319h268v-84h-380v86z" />
    <glyph glyph-name="braceleft" unicode="{" horiz-adv-x="269" 
d="M153 364q49 -42 49 -114v-187q0 -33 17 -49.5t45 -16.5v-72q-9 0 -25 1t-30 3q-40 6 -64.5 37.5t-24.5 79.5v190q0 52 -23 72t-46 18v74q12 0 24.5 4.5t22 15t16 28t6.5 44.5v195q0 48 24 78t69 37q7 2 24.5 3t26.5 1v-73q-28 0 -45 -14t-17 -41v-200q0 -72 -49 -114z
" />
    <glyph glyph-name="bar" unicode="|" horiz-adv-x="172" 
d="M124 788v-878h-75v878h75z" />
    <glyph glyph-name="braceright" unicode="}" horiz-adv-x="269" 
d="M219 400v-74q-23 2 -47 -18q-23 -20 -23 -72v-190q0 -46 -23.5 -78t-65.5 -39q-10 -2 -24 -3t-31 -1v72q28 0 45 16.5t17 49.5v187q0 72 49 114q-49 42 -49 114v200q0 27 -17 41t-45 14v73q9 0 26.5 -1t24.5 -3q45 -6 69 -36.5t24 -78.5v-195q0 -27 6.5 -44.5t16.5 -28
t22.5 -15t24.5 -4.5z" />
    <glyph glyph-name="asciitilde" unicode="~" horiz-adv-x="452" 
d="M412 311q0 -49 -29 -79t-74 -30q-26 0 -47.5 10t-48.5 29q-22 16 -38.5 24t-33.5 8q-21 0 -33 -12.5t-13 -33.5h-55q0 48 29 77t74 29q26 0 48 -10t50 -29q24 -16 39 -23.5t31 -7.5q44 0 46 48h55z" />
    <glyph glyph-name="exclamdown" unicode="&#xa1;" horiz-adv-x="317" 
d="M227 670q0 -29 -20 -48t-48 -19q-29 0 -49 19t-20 48t20 47.5t49 18.5q28 0 48 -18.5t20 -47.5zM213 1h-109v296q0 147 15 259h79q5 -31 7.5 -61t4.5 -60.5t2.5 -64.5t0.5 -73v-296z" />
    <glyph glyph-name="cent" unicode="&#xa2;" horiz-adv-x="584" 
d="M255 615l-1 107h83l1 -103q67 -8 118 -47.5t73 -100.5l-83 -29q-15 42 -51.5 68t-90.5 26q-35 0 -63.5 -13.5t-49 -37t-32 -55t-11.5 -67.5t11.5 -68t32 -55.5t49 -37t63.5 -13.5q52 0 86 22.5t50 60.5l83 -32q-22 -55 -71.5 -90t-113.5 -43l-1 -108h-83l1 112
q-43 8 -79.5 31.5t-63.5 57t-42.5 75.5t-15.5 88t15.5 88t42.5 75.5t63.5 57t79.5 31.5z" />
    <glyph glyph-name="sterling" unicode="&#xa3;" horiz-adv-x="676" 
d="M615 210q0 -99 -50 -154.5t-150 -55.5h-347v94q26 4 48 18t38.5 35.5t26 49.5t9.5 59q0 33 -12 70h-101v83h68q-21 53 -21 101t17 89.5t48 72t74 47.5t94 17q88 0 148 -44.5t82 -117.5l-89 -30q-14 46 -52 73.5t-90 27.5q-63 0 -100.5 -38.5t-37.5 -101.5q0 -24 6 -45.5
t17 -50.5h256v-83h-226q4 -17 6 -34.5t2 -36.5q-1 -52 -19 -95.5t-56 -65.5h214q113 0 110 116h87z" />
    <glyph glyph-name="currency" unicode="&#xa4;" horiz-adv-x="668" 
d="M614 145l-62 -63l-79 77q-61 -43 -139 -43q-75 0 -139 43l-78 -77l-63 63l79 77q-42 62 -42 136q0 77 42 138l-79 77l63 64l78 -78q62 44 139 44t139 -44l79 78l62 -64l-78 -76q42 -61 42 -139q0 -74 -42 -136zM334 203q32 0 60 12.5t50 33.5t34.5 49.5t12.5 59.5
q0 33 -12.5 61.5t-33.5 49.5t-49.5 33.5t-61.5 12.5q-31 0 -59.5 -12.5t-49.5 -33.5t-33.5 -49.5t-12.5 -61.5q0 -31 12.5 -59.5t33.5 -49.5t49.5 -33.5t59.5 -12.5z" />
    <glyph glyph-name="yen" unicode="&#xa5;" horiz-adv-x="709" 
d="M437 362h127v-79h-164v-71h164v-80h-164v-132h-93v132h-165v80h165v71h-165v79h129l-211 360h110l184 -333v1l185 332h110z" />
    <glyph glyph-name="brokenbar" unicode="&#xa6;" horiz-adv-x="444" 
d="M264 791v-342h-83v342h83zM264 282v-352h-83v352h83z" />
    <glyph glyph-name="section" unicode="&#xa7;" horiz-adv-x="459" 
d="M336 251q31 -17 48 -44.5t17 -63.5q0 -31 -13 -58.5t-35.5 -47.5t-54 -31.5t-68.5 -11.5q-69 0 -117.5 32.5t-61.5 89.5l76 17q17 -68 104 -68q42 0 66.5 20.5t24.5 54.5q0 47 -58 60l-64 13q-62 11 -103.5 46.5t-41.5 100.5q0 79 68 118q-66 35 -66 109q0 32 13 59
t35.5 47t54.5 31.5t69 11.5q69 0 118 -32.5t61 -89.5l-76 -18q-7 33 -33.5 51t-71.5 18q-42 0 -66 -21t-24 -53q0 -48 58 -61l63 -13q63 -12 104.5 -47.5t41.5 -101.5q0 -76 -68 -117zM334 366q0 35 -29 54t-75 19q-54 0 -80 -21t-26 -54q0 -36 28.5 -54.5t77.5 -18.5
q51 0 77.5 21t26.5 54z" />
    <glyph glyph-name="dieresis" unicode="&#xa8;" horiz-adv-x="360" 
d="M20 836q0 28 19.5 47.5t46.5 19.5q26 0 46 -20t20 -47q0 -26 -19.5 -45.5t-46.5 -19.5t-46.5 19.5t-19.5 45.5zM208 836q0 28 19 47.5t47 19.5q26 0 46 -20t20 -47q0 -26 -20 -45.5t-46 -19.5q-27 0 -46.5 19.5t-19.5 45.5z" />
    <glyph glyph-name="copyright" unicode="&#xa9;" horiz-adv-x="819" 
d="M40 357q-2 74 27.5 141.5t80.5 118.5t118.5 81t142.5 28q74 2 142 -27.5t119 -80.5t81 -118.5t28 -142.5q2 -75 -27.5 -143t-80.5 -119t-119 -81t-143 -28q-75 -2 -142.5 28t-118.5 81t-80.5 119t-27.5 143zM705 357q1 60 -22.5 114t-64 94.5t-95 64.5t-114.5 22
q-60 2 -114 -22t-95 -64.5t-64.5 -94.5t-22.5 -114q-1 -60 22.5 -114.5t64.5 -95.5t95 -64.5t114 -22.5q60 -1 114.5 22.5t95 64.5t64 95.5t22.5 114.5zM520 411q-11 34 -38 53.5t-69 19.5q-25 0 -46.5 -10t-37.5 -27.5t-24.5 -41t-8.5 -50.5q0 -53 33 -91q33 -37 84 -37
q40 0 65.5 17.5t37.5 47.5l61 -24q-19 -48 -63 -76t-101 -28q-37 0 -70.5 15t-58.5 41.5t-40 61t-15 73.5q0 40 15 75t40 61t58.5 41t70.5 15q60 0 105.5 -31.5t62.5 -83.5z" />
    <glyph glyph-name="guillemotleft" unicode="&#xab;" horiz-adv-x="629" 
d="M307 244l214 -244h-116h-28l-214 244l214 245h116h28z" />
    <glyph glyph-name="logicalnot" unicode="&#xac;" horiz-adv-x="575" 
d="M433 79v179h-391v100h491v-279h-100z" />
    <glyph glyph-name="registered" unicode="&#xae;" horiz-adv-x="440" 
d="M410 546q0 -40 -15 -75t-40.5 -61t-60 -40.5t-73.5 -14.5t-74 14.5t-61 40.5t-41 61t-15 75q0 39 15 73.5t41 60t61 40t74 14.5t73.5 -14.5t60 -40t40.5 -60t15 -73.5zM373 546q0 32 -12 59.5t-32.5 47.5t-48 32t-59.5 12t-60 -12t-48.5 -32t-32 -47.5t-11.5 -59.5
q0 -67 43 -110t109 -43q32 0 59.5 11.5t48 32t32.5 48.5t12 61zM287 460h-38l-29 65h-21v-65h-34v169h34h23q62 0 63 -48v-2v-3q-2 -33 -29 -45zM199 556h30q19 1 19 20v1v4q-1 15 -26 15h-23v-40z" />
    <glyph glyph-name="macron" unicode="&#xaf;" horiz-adv-x="340" 
d="M314 845v-67h-288v67h288z" />
    <glyph glyph-name="degree" unicode="&#xb0;" horiz-adv-x="261" 
d="M20 614q0 46 32 78q33 33 78 33q23 0 43 -9t35 -24t24 -35t9 -43q0 -45 -33 -78q-32 -32 -78 -32t-78 32q-32 34 -32 78zM181 614q0 20 -15.5 35.5t-35.5 15.5t-35 -15t-15 -36q0 -20 15 -35t35 -15q21 0 36 15t15 35z" />
    <glyph glyph-name="plusminus" unicode="&#xb1;" horiz-adv-x="501" 
d="M461 370v-80h-170v-111h-80v111h-171v80h171v110h80v-110h170zM40 80h421v-80h-421v80z" />
    <glyph glyph-name="uni00B2" unicode="&#xb2;" horiz-adv-x="411" 
d="M47 378l207 171q23 20 32.5 38t9.5 38q0 39 -24.5 63.5t-66.5 24.5q-39 0 -64 -22t-27 -64h-74q3 75 48 116.5t117 41.5q38 0 68.5 -12t52 -33.5t33.5 -50.5t12 -63q0 -76 -72 -135l-145 -117l205 1v-74l-312 -1v78z" />
    <glyph glyph-name="uni00B3" unicode="&#xb3;" horiz-adv-x="411" 
d="M371 452q0 -35 -13 -64.5t-35.5 -51.5t-52.5 -34t-64 -12q-36 0 -66 12.5t-52.5 34t-35 50.5t-12.5 62h74q1 -36 25.5 -61t66.5 -25q38 0 64.5 24.5t26.5 64.5q0 42 -26 67t-68 25q-23 0 -40 -7l-26 60l111 103l-188 1v73h302v-67l-109 -102q54 -14 86 -55t32 -98z" />
    <glyph glyph-name="acute" unicode="&#xb4;" horiz-adv-x="231" 
d="M40 768l71 141h96l-91 -141h-76z" />
    <glyph glyph-name="uni00B5" unicode="&#xb5;" horiz-adv-x="679" 
d="M631 86v-86h-95q-70 0 -92 61q-48 -72 -147 -75h-3h-4q-92 2 -138 64v-295h-94v733h94v-233q0 -93 36.5 -138.5t105.5 -45.5q66 0 103 43.5t38 131.5v242h94l1 -351q0 -29 11 -39.5t33 -10.5z" />
    <glyph glyph-name="paragraph" unicode="&#xb6;" horiz-adv-x="505" 
d="M362 712v-788h-83v383h-54q-40 0 -74 14.5t-59 41t-38.5 64t-13.5 83.5q0 45 13.5 82t38.5 64t59 41.5t74 14.5h137zM465 710v-788h-46v788h46z" />
    <glyph glyph-name="periodcentered" unicode="&#xb7;" horiz-adv-x="302" 
d="M55 267q0 20 7.5 37.5t21 30.5t31 20.5t37.5 7.5t37 -7.5t30.5 -21t21 -30.5t7.5 -37q0 -19 -7.5 -36.5t-21 -31t-30.5 -21t-37 -7.5t-37.5 7.5t-31 21t-21 31t-7.5 36.5z" />
    <glyph glyph-name="cedilla" unicode="&#xb8;" horiz-adv-x="600" 
d="M241 -123h84q26 0 26 24q0 23 -26 23h-84v48l44 57h43v-29l-23 -28h36q33 0 51 -21.5t18 -51.5q0 -31 -18.5 -51.5t-49.5 -20.5h-101v50z" />
    <glyph glyph-name="uni00B9" unicode="&#xb9;" horiz-adv-x="296" 
d="M210 776v-476h-74v401l-96 -40v74l96 41h74z" />
    <glyph glyph-name="guillemotright" unicode="&#xbb;" horiz-adv-x="629" 
d="M466 244l-214 -244h-116h-28l214 244l-214 245h116h28z" />
    <glyph glyph-name="onequarter" unicode="&#xbc;" horiz-adv-x="704" 
d="M41 678l69 32v-70l-69 -27v65zM178 710v-368h-67l-1 368h68zM13 0l541 710h89l-541 -710h-89zM663 66h-47v-70h-68v70h-175v67l175 235h68v-236h47v-66zM548 132v125l-91 -125h91z" />
    <glyph glyph-name="onehalf" unicode="&#xbd;" horiz-adv-x="734" 
d="M41 678l69 32v-70l-69 -27v65zM178 710v-368h-67l-1 368h68zM13 0l541 710h89l-541 -710h-89zM444 66l139 119q24 21 33 34t9 29q0 28 -16.5 43.5t-45.5 15.5q-27 -1 -43.5 -17t-16.5 -43l1 -11h-66q-2 29 7 53.5t27 43t43 29t54 10.5q55 -1 89 -34.5t34 -87.5
q0 -60 -64 -114l-85 -71l142 1v-66h-241v66z" />
    <glyph glyph-name="threequarters" unicode="&#xbe;" horiz-adv-x="785" 
d="M298 461q0 -51 -38 -89q-37 -36 -90 -36t-91 36t-38 88l1 13h66q-1 -3 -1 -13q0 -25 18 -41.5t45 -16.5q26 0 44 17t18 42q0 31 -23 49q-16 13 -39 13q-15 0 -29 -6l-31 51l74 75h-127v67h229v-59l-72 -72q33 -10 53 -35q31 -34 31 -83zM93 0l541 710h89l-541 -710h-89z
M743 66h-47v-70h-68v70h-175v67l175 235h68v-236h47v-66zM628 132v125l-91 -125h91z" />
    <glyph glyph-name="questiondown" unicode="&#xbf;" horiz-adv-x="534" 
d="M216 669q0 27 20 47t50 20t50.5 -20t20.5 -47t-20.5 -47t-50.5 -20t-50 20t-20 47zM500 219q0 -48 -18 -90.5t-50 -74t-75 -50t-93 -18.5q-49 0 -91.5 16.5t-73.5 46t-48.5 70t-17.5 89.5q0 50 18 87q18 38 43 63.5t65 57.5q43 34 63.5 58t21.5 56v25h94v-29
q0 -36 -15 -65t-36.5 -50t-57.5 -50q-25 -21 -44 -38t-32 -34t-19 -35t-6 -41q0 -27 10 -51t28 -42t43 -28.5t55 -10.5t55.5 11t44.5 30t30 44t11 53h95z" />
    <glyph glyph-name="Agrave" unicode="&#xc0;" horiz-adv-x="661" 
d="M482 180h-304l-65 -180h-101l264 723h98h10l265 -723h-104zM452 263l-120 342l-124 -342h244zM201 918h97l71 -141h-76z" />
    <glyph glyph-name="Aacute" unicode="&#xc1;" horiz-adv-x="661" 
d="M482 180h-304l-65 -180h-101l264 723h98h10l265 -723h-104zM452 263l-120 342l-124 -342h244zM292 777l71 141h96l-91 -141h-76z" />
    <glyph glyph-name="Acircumflex" unicode="&#xc2;" horiz-adv-x="661" 
d="M482 180h-304l-65 -180h-101l264 723h98h10l265 -723h-104zM452 263l-120 342l-124 -342h244zM384 777l-53 87l-54 -87h-82l83 142h86h19l83 -142h-82z" />
    <glyph glyph-name="Atilde" unicode="&#xc3;" horiz-adv-x="661" 
d="M482 180h-304l-65 -180h-101l264 723h98h10l265 -723h-104zM452 263l-120 342l-124 -342h244zM172 821q0 48 24.5 73.5t61.5 25.5q20 0 37.5 -7t38.5 -19q20 -11 32.5 -16t25.5 -5q35 0 32 44h65q1 -4 1 -18q0 -48 -25.5 -74t-64.5 -26q-22 0 -39.5 7t-43.5 20
q-16 9 -27 14t-21 5q-32 0 -31 -46h-65q-1 4 -1 9.5v12.5z" />
    <glyph glyph-name="Adieresis" unicode="&#xc4;" horiz-adv-x="661" 
d="M482 180h-304l-65 -180h-101l264 723h98h10l265 -723h-104zM452 263l-120 342l-124 -342h244zM171 845q0 28 19.5 47.5t46.5 19.5q26 0 46 -20t20 -47q0 -26 -19.5 -45.5t-46.5 -19.5t-46.5 19.5t-19.5 45.5zM359 845q0 28 19 47.5t47 19.5q26 0 46 -20t20 -47
q0 -26 -20 -45.5t-46 -19.5q-27 0 -46.5 19.5t-19.5 45.5z" />
    <glyph glyph-name="Aring" unicode="&#xc5;" horiz-adv-x="661" 
d="M482 180h-304l-65 -180h-101l264 723h98h10l265 -723h-104zM452 263l-120 342l-124 -342h244zM215 886q0 24 9.5 45t25.5 37.5t37 26t43 9.5q24 0 45.5 -9.5t37.5 -26t25 -38t9 -44.5q0 -49 -34 -83t-83 -34q-48 0 -82 34q-33 35 -33 83zM387 888q0 23 -16 39.5t-40 16.5
t-40 -16.5t-16 -39.5q0 -25 16 -41.5t40 -16.5t40 16.5t16 41.5z" />
    <glyph glyph-name="AE" unicode="&#xc6;" horiz-adv-x="910" 
d="M851 0h-347h-93v195h-220l-73 -195h-108l279 722h100h22h93h348l-1 -94l-347 1v-220h314l-1 -91l-313 1v-226h348zM411 279v350h-57l-131 -350h188z" />
    <glyph glyph-name="Ccedilla" unicode="&#xc7;" horiz-adv-x="738" 
d="M417 -10l-19 -23h36q33 0 51 -21.5t18 -51.5q0 -31 -18.5 -51.5t-49.5 -20.5h-101v50h84q26 0 26 24q0 23 -26 23h-84v48l18 23q-69 6 -126 35t-97.5 77.5t-63 114t-22.5 144.5q0 84 25 153t71 118.5t109.5 76.5t140.5 27q115 0 195 -58t109 -153l-94 -33
q-22 70 -77 108.5t-133 38.5q-55 0 -99.5 -20t-76 -56.5t-49 -87.5t-17.5 -113q0 -64 17.5 -115t49.5 -87t76.5 -55.5t97.5 -19.5q77 0 136 38q59 39 81 100l93 -40q-33 -85 -107.5 -135.5t-173.5 -57.5z" />
    <glyph glyph-name="Egrave" unicode="&#xc8;" horiz-adv-x="588" 
d="M528 93v-93h-441v723h440v-94h-342v-221h308v-88h-308v-227h343zM173 918h97l71 -141h-76z" />
    <glyph glyph-name="Eacute" unicode="&#xc9;" horiz-adv-x="588" 
d="M528 93v-93h-441v723h440v-94h-342v-221h308v-88h-308v-227h343zM265 777l71 141h96l-91 -141h-76z" />
    <glyph glyph-name="Ecircumflex" unicode="&#xca;" horiz-adv-x="588" 
d="M528 93v-93h-441v723h440v-94h-342v-221h308v-88h-308v-227h343zM356 777l-53 87l-54 -87h-82l83 142h86h19l83 -142h-82z" />
    <glyph glyph-name="Edieresis" unicode="&#xcb;" horiz-adv-x="588" 
d="M528 93v-93h-441v723h440v-94h-342v-221h308v-88h-308v-227h343zM143 845q0 28 19.5 47.5t46.5 19.5q26 0 46 -20t20 -47q0 -26 -19.5 -45.5t-46.5 -19.5t-46.5 19.5t-19.5 45.5zM331 845q0 28 19 47.5t47 19.5q26 0 46 -20t20 -47q0 -26 -20 -45.5t-46 -19.5
q-27 0 -46.5 19.5t-19.5 45.5z" />
    <glyph glyph-name="Igrave" unicode="&#xcc;" horiz-adv-x="271" 
d="M87 0v723h98v-723h-98zM6 918h97l71 -141h-76z" />
    <glyph glyph-name="Iacute" unicode="&#xcd;" horiz-adv-x="271" 
d="M87 0v723h98v-723h-98zM98 777l71 141h96l-91 -141h-76z" />
    <glyph glyph-name="Icircumflex" unicode="&#xce;" horiz-adv-x="271" 
d="M87 0v723h98v-723h-98zM189 777l-53 87l-54 -87h-82l83 142h86h19l83 -142h-82z" />
    <glyph glyph-name="Idieresis" unicode="&#xcf;" horiz-adv-x="271" 
d="M87 0v723h98v-723h-98zM-24 845q0 28 19.5 47.5t46.5 19.5q26 0 46 -20t20 -47q0 -26 -19.5 -45.5t-46.5 -19.5t-46.5 19.5t-19.5 45.5zM164 845q0 28 19 47.5t47 19.5q26 0 46 -20t20 -47q0 -26 -20 -45.5t-46 -19.5q-27 0 -46.5 19.5t-19.5 45.5z" />
    <glyph glyph-name="Eth" unicode="&#xd0;" horiz-adv-x="733" 
d="M684 361q1 -79 -26 -146t-76 -115t-116 -74.5t-146 -25.5h-233v320h-71v84h71v319h233q78 1 145.5 -25.5t116 -75t76 -115.5t26.5 -146zM580 361q0 60 -19 109.5t-53 85t-82 55.5t-107 20h-134v-227h100v-84h-100v-228h134q59 0 107 19.5t82 55t53 85t19 109.5z" />
    <glyph glyph-name="Ntilde" unicode="&#xd1;" horiz-adv-x="739" 
d="M652 723v-723h-97l-370 564v-564h-98v723h98l370 -564v564h97zM213 821q0 48 24.5 73.5t61.5 25.5q20 0 37.5 -7t38.5 -19q20 -11 32.5 -16t25.5 -5q35 0 32 44h65q1 -4 1 -18q0 -48 -25.5 -74t-64.5 -26q-22 0 -39.5 7t-43.5 20q-16 9 -27 14t-21 5q-32 0 -31 -46h-65
q-1 4 -1 9.5v12.5z" />
    <glyph glyph-name="Ograve" unicode="&#xd2;" horiz-adv-x="778" 
d="M389 736q76 1 140 -27t110.5 -78t72.5 -119t25 -150q1 -81 -25 -149.5t-72.5 -119t-111 -78.5t-140.5 -27q-77 0 -140.5 28t-109.5 77.5t-71 118.5t-25 150q-1 81 24.5 150t72 119t110.5 78t140 27zM389 84q54 0 99 20t77.5 56.5t50 87.5t17.5 114t-17.5 114t-49.5 87.5
t-77 56.5t-100 20t-100 -20t-77 -56.5t-49.5 -87.5t-17.5 -114t17.5 -114t49.5 -87.5t77 -56.5t100 -20zM259 918h97l71 -141h-76z" />
    <glyph glyph-name="Oacute" unicode="&#xd3;" horiz-adv-x="778" 
d="M389 736q76 1 140 -27t110.5 -78t72.5 -119t25 -150q1 -81 -25 -149.5t-72.5 -119t-111 -78.5t-140.5 -27q-77 0 -140.5 28t-109.5 77.5t-71 118.5t-25 150q-1 81 24.5 150t72 119t110.5 78t140 27zM389 84q54 0 99 20t77.5 56.5t50 87.5t17.5 114t-17.5 114t-49.5 87.5
t-77 56.5t-100 20t-100 -20t-77 -56.5t-49.5 -87.5t-17.5 -114t17.5 -114t49.5 -87.5t77 -56.5t100 -20zM351 777l71 141h96l-91 -141h-76z" />
    <glyph glyph-name="Ocircumflex" unicode="&#xd4;" horiz-adv-x="778" 
d="M389 736q76 1 140 -27t110.5 -78t72.5 -119t25 -150q1 -81 -25 -149.5t-72.5 -119t-111 -78.5t-140.5 -27q-77 0 -140.5 28t-109.5 77.5t-71 118.5t-25 150q-1 81 24.5 150t72 119t110.5 78t140 27zM389 84q54 0 99 20t77.5 56.5t50 87.5t17.5 114t-17.5 114t-49.5 87.5
t-77 56.5t-100 20t-100 -20t-77 -56.5t-49.5 -87.5t-17.5 -114t17.5 -114t49.5 -87.5t77 -56.5t100 -20zM442 777l-53 87l-54 -87h-82l83 142h86h19l83 -142h-82z" />
    <glyph glyph-name="Otilde" unicode="&#xd5;" horiz-adv-x="778" 
d="M389 736q76 1 140 -27t110.5 -78t72.5 -119t25 -150q1 -81 -25 -149.5t-72.5 -119t-111 -78.5t-140.5 -27q-77 0 -140.5 28t-109.5 77.5t-71 118.5t-25 150q-1 81 24.5 150t72 119t110.5 78t140 27zM389 84q54 0 99 20t77.5 56.5t50 87.5t17.5 114t-17.5 114t-49.5 87.5
t-77 56.5t-100 20t-100 -20t-77 -56.5t-49.5 -87.5t-17.5 -114t17.5 -114t49.5 -87.5t77 -56.5t100 -20zM230 821q0 48 24.5 73.5t61.5 25.5q20 0 37.5 -7t38.5 -19q20 -11 32.5 -16t25.5 -5q35 0 32 44h65q1 -4 1 -18q0 -48 -25.5 -74t-64.5 -26q-22 0 -39.5 7t-43.5 20
q-16 9 -27 14t-21 5q-32 0 -31 -46h-65q-1 4 -1 9.5v12.5z" />
    <glyph glyph-name="Odieresis" unicode="&#xd6;" horiz-adv-x="778" 
d="M389 736q76 1 140 -27t110.5 -78t72.5 -119t25 -150q1 -81 -25 -149.5t-72.5 -119t-111 -78.5t-140.5 -27q-77 0 -140.5 28t-109.5 77.5t-71 118.5t-25 150q-1 81 24.5 150t72 119t110.5 78t140 27zM389 84q54 0 99 20t77.5 56.5t50 87.5t17.5 114t-17.5 114t-49.5 87.5
t-77 56.5t-100 20t-100 -20t-77 -56.5t-49.5 -87.5t-17.5 -114t17.5 -114t49.5 -87.5t77 -56.5t100 -20zM229 845q0 28 19.5 47.5t46.5 19.5q26 0 46 -20t20 -47q0 -26 -19.5 -45.5t-46.5 -19.5t-46.5 19.5t-19.5 45.5zM417 845q0 28 19 47.5t47 19.5q26 0 46 -20t20 -47
q0 -26 -20 -45.5t-46 -19.5q-27 0 -46.5 19.5t-19.5 45.5z" />
    <glyph glyph-name="multiply" unicode="&#xd7;" horiz-adv-x="545" 
d="M425 99l-152 152l-151 -154l-62 62l151 155l-153 153l62 62l152 -152l151 154l62 -62l-151 -155l153 -153z" />
    <glyph glyph-name="Oslash" unicode="&#xd8;" horiz-adv-x="775" 
d="M726 363q1 -81 -25 -150t-72.5 -119.5t-110.5 -78.5t-140 -27q-80 0 -150 32l-18 -30h-99l47 74q-61 51 -94 127.5t-33 170.5q-1 81 24.5 150t72 119t110.5 78t140 27q94 0 170 -42l25 40h95l-54 -88q54 -51 83 -123t29 -160zM497 611q-53 29 -118 29q-55 0 -100 -20
t-77.5 -56.5t-50 -87.5t-17.5 -113q0 -67 20 -121.5t57 -91.5zM623 363q0 60 -16.5 110t-46.5 86l-280 -455q47 -19 99 -19q54 0 99 20t77.5 56.5t50 87.5t17.5 114z" />
    <glyph glyph-name="Ugrave" unicode="&#xd9;" horiz-adv-x="719" 
d="M78 723h100v-467q0 -89 53 -133q53 -42 129 -42q77 0 129 45q53 45 53 130v467h99v-469q0 -66 -22.5 -115.5t-61 -83.5t-89.5 -51t-108 -17q-55 0 -106 16.5t-90 49.5t-62.5 83.5t-23.5 117.5v469zM230 918h97l71 -141h-76z" />
    <glyph glyph-name="Uacute" unicode="&#xda;" horiz-adv-x="719" 
d="M78 723h100v-467q0 -89 53 -133q53 -42 129 -42q77 0 129 45q53 45 53 130v467h99v-469q0 -66 -22.5 -115.5t-61 -83.5t-89.5 -51t-108 -17q-55 0 -106 16.5t-90 49.5t-62.5 83.5t-23.5 117.5v469zM322 777l71 141h96l-91 -141h-76z" />
    <glyph glyph-name="Ucircumflex" unicode="&#xdb;" horiz-adv-x="719" 
d="M78 723h100v-467q0 -89 53 -133q53 -42 129 -42q77 0 129 45q53 45 53 130v467h99v-469q0 -66 -22.5 -115.5t-61 -83.5t-89.5 -51t-108 -17q-55 0 -106 16.5t-90 49.5t-62.5 83.5t-23.5 117.5v469zM413 777l-53 87l-54 -87h-82l83 142h86h19l83 -142h-82z" />
    <glyph glyph-name="Udieresis" unicode="&#xdc;" horiz-adv-x="719" 
d="M78 723h100v-467q0 -89 53 -133q53 -42 129 -42q77 0 129 45q53 45 53 130v467h99v-469q0 -66 -22.5 -115.5t-61 -83.5t-89.5 -51t-108 -17q-55 0 -106 16.5t-90 49.5t-62.5 83.5t-23.5 117.5v469zM200 845q0 28 19.5 47.5t46.5 19.5q26 0 46 -20t20 -47
q0 -26 -19.5 -45.5t-46.5 -19.5t-46.5 19.5t-19.5 45.5zM388 845q0 28 19 47.5t47 19.5q26 0 46 -20t20 -47q0 -26 -20 -45.5t-46 -19.5q-27 0 -46.5 19.5t-19.5 45.5z" />
    <glyph glyph-name="Yacute" unicode="&#xdd;" horiz-adv-x="608" 
d="M121 723l185 -332l185 332h108l-244 -427v-296h-99v296l-246 427h111zM268 777l71 141h96l-91 -141h-76z" />
    <glyph glyph-name="Thorn" unicode="&#xde;" horiz-adv-x="630" 
d="M87 723h94v-147l149 -1q54 0 96.5 -18t71 -48t43.5 -69t15 -80t-15 -79.5t-43.5 -68t-71 -47t-96.5 -17.5h-149v-148h-94v723zM325 239q31 0 55.5 10t41 26.5t25.5 39t9 46.5q0 25 -9 47.5t-25.5 39.5t-41 27t-55.5 10h-144v-246h144z" />
    <glyph glyph-name="germandbls" unicode="&#xdf;" horiz-adv-x="576" 
d="M537 221q0 -49 -18.5 -90t-51 -70t-77.5 -45t-99 -16q-32 0 -74 11v90q35 -15 72 -15q72 0 113.5 40t41.5 100q0 35 -12.5 62t-34 45.5t-52 27.5t-66.5 8v79q52 0 82.5 29.5t30.5 71.5q0 48 -31 74.5t-80 26.5q-51 0 -81.5 -30t-30.5 -91v-529h-95v521q0 103 53.5 159
t146.5 56q91 0 147 -49q58 -49 58 -134q0 -42 -16 -76.5t-45 -58.5q57 -28 88 -78t31 -119z" />
    <glyph glyph-name="agrave" unicode="&#xe0;" horiz-adv-x="527" 
d="M384 0q-2 11 -4 27.5t-4 38.5q-21 -35 -63.5 -56.5t-97.5 -21.5q-81 0 -129.5 41.5t-48.5 113.5t48.5 113t130.5 41h158v20q0 57 -31 82.5t-85 25.5q-96 0 -134 -78l-70 41q30 58 83.5 86.5t125.5 28.5q45 0 82.5 -11t64 -35t41.5 -60.5t15 -87.5v-208q0 -30 2.5 -59
t6.5 -42h-91zM375 228h-138q-51 0 -78 -22.5t-27 -61.5q0 -40 28 -61.5t76 -21.5q63 0 101 39.5t38 114.5v13zM132 688h97l71 -141h-76z" />
    <glyph glyph-name="aacute" unicode="&#xe1;" horiz-adv-x="527" 
d="M384 0q-2 11 -4 27.5t-4 38.5q-21 -35 -63.5 -56.5t-97.5 -21.5q-81 0 -129.5 41.5t-48.5 113.5t48.5 113t130.5 41h158v20q0 57 -31 82.5t-85 25.5q-96 0 -134 -78l-70 41q30 58 83.5 86.5t125.5 28.5q45 0 82.5 -11t64 -35t41.5 -60.5t15 -87.5v-208q0 -30 2.5 -59
t6.5 -42h-91zM375 228h-138q-51 0 -78 -22.5t-27 -61.5q0 -40 28 -61.5t76 -21.5q63 0 101 39.5t38 114.5v13zM223 547l71 141h96l-91 -141h-76z" />
    <glyph glyph-name="acircumflex" unicode="&#xe2;" horiz-adv-x="527" 
d="M384 0q-2 11 -4 27.5t-4 38.5q-21 -35 -63.5 -56.5t-97.5 -21.5q-81 0 -129.5 41.5t-48.5 113.5t48.5 113t130.5 41h158v20q0 57 -31 82.5t-85 25.5q-96 0 -134 -78l-70 41q30 58 83.5 86.5t125.5 28.5q45 0 82.5 -11t64 -35t41.5 -60.5t15 -87.5v-208q0 -30 2.5 -59
t6.5 -42h-91zM375 228h-138q-51 0 -78 -22.5t-27 -61.5q0 -40 28 -61.5t76 -21.5q63 0 101 39.5t38 114.5v13zM315 547l-53 87l-54 -87h-82l83 142h86h19l83 -142h-82z" />
    <glyph glyph-name="atilde" unicode="&#xe3;" horiz-adv-x="527" 
d="M384 0q-2 11 -4 27.5t-4 38.5q-21 -35 -63.5 -56.5t-97.5 -21.5q-81 0 -129.5 41.5t-48.5 113.5t48.5 113t130.5 41h158v20q0 57 -31 82.5t-85 25.5q-96 0 -134 -78l-70 41q30 58 83.5 86.5t125.5 28.5q45 0 82.5 -11t64 -35t41.5 -60.5t15 -87.5v-208q0 -30 2.5 -59
t6.5 -42h-91zM375 228h-138q-51 0 -78 -22.5t-27 -61.5q0 -40 28 -61.5t76 -21.5q63 0 101 39.5t38 114.5v13zM102 591q0 48 24.5 73.5t61.5 25.5q20 0 37.5 -7t38.5 -19q20 -11 32.5 -16t25.5 -5q35 0 32 44h65q1 -4 1 -18q0 -48 -25.5 -74t-64.5 -26q-22 0 -39.5 7
t-43.5 20q-16 9 -27 14t-21 5q-32 0 -31 -46h-65q-1 4 -1 9.5v12.5z" />
    <glyph glyph-name="adieresis" unicode="&#xe4;" horiz-adv-x="527" 
d="M384 0q-2 11 -4 27.5t-4 38.5q-21 -35 -63.5 -56.5t-97.5 -21.5q-81 0 -129.5 41.5t-48.5 113.5t48.5 113t130.5 41h158v20q0 57 -31 82.5t-85 25.5q-96 0 -134 -78l-70 41q30 58 83.5 86.5t125.5 28.5q45 0 82.5 -11t64 -35t41.5 -60.5t15 -87.5v-208q0 -30 2.5 -59
t6.5 -42h-91zM375 228h-138q-51 0 -78 -22.5t-27 -61.5q0 -40 28 -61.5t76 -21.5q63 0 101 39.5t38 114.5v13zM102 615q0 28 19.5 47.5t46.5 19.5q26 0 46 -20t20 -47q0 -26 -19.5 -45.5t-46.5 -19.5t-46.5 19.5t-19.5 45.5zM290 615q0 28 19 47.5t47 19.5q26 0 46 -20
t20 -47q0 -26 -20 -45.5t-46 -19.5q-27 0 -46.5 19.5t-19.5 45.5z" />
    <glyph glyph-name="aring" unicode="&#xe5;" horiz-adv-x="527" 
d="M384 0q-2 11 -4 27.5t-4 38.5q-21 -35 -63.5 -56.5t-97.5 -21.5q-81 0 -129.5 41.5t-48.5 113.5t48.5 113t130.5 41h158v20q0 57 -31 82.5t-85 25.5q-96 0 -134 -78l-70 41q30 58 83.5 86.5t125.5 28.5q45 0 82.5 -11t64 -35t41.5 -60.5t15 -87.5v-208q0 -30 2.5 -59
t6.5 -42h-91zM375 228h-138q-51 0 -78 -22.5t-27 -61.5q0 -40 28 -61.5t76 -21.5q63 0 101 39.5t38 114.5v13zM146 656q0 24 9.5 45t25.5 37.5t37 26t43 9.5q24 0 45.5 -9.5t37.5 -26t25 -38t9 -44.5q0 -49 -34 -83t-83 -34q-48 0 -82 34q-33 35 -33 83zM318 658
q0 23 -16 39.5t-40 16.5t-40 -16.5t-16 -39.5q0 -25 16 -41.5t40 -16.5t40 16.5t16 41.5z" />
    <glyph glyph-name="ae" unicode="&#xe6;" horiz-adv-x="897" 
d="M857 210h-386q7 -67 48 -103.5t102 -36.5q49 0 86 22.5t58 61.5l72 -37q-30 -63 -88 -96t-131 -33q-66 0 -115.5 27.5t-76.5 76.5q-23 -51 -72 -77.5t-115 -26.5q-41 0 -75.5 10.5t-60 30t-39.5 47.5t-14 64q0 66 42 104.5t108 38.5h135q21 0 29 9t8 27q0 52 -32.5 78
t-80.5 26q-43 0 -78 -21t-55 -58l-70 40q31 55 85.5 87t117.5 32q60 0 105.5 -25t66.5 -70q29 45 78 70t110 25q54 0 97.5 -18t75 -50.5t48.5 -78t17 -100.5v-46zM761 280q-1 66 -41.5 105t-103.5 39q-61 0 -100 -38.5t-46 -105.5h291zM375 213h-151q-37 0 -58 -20.5
t-21 -52.5q0 -39 29 -58t74 -19q64 0 94.5 36.5t32.5 94.5v19z" />
    <glyph glyph-name="ccedilla" unicode="&#xe7;" horiz-adv-x="547" 
d="M427 165l82 -31q-25 -64 -78 -102t-122 -43l-18 -22h36q33 0 51 -21.5t18 -51.5q0 -31 -18.5 -51.5t-49.5 -20.5h-101v50h84q26 0 26 24q0 23 -26 23h-84v48l18 23q-96 13 -151.5 80.5t-55.5 173.5q0 58 17.5 105.5t50 81.5t78 53t101.5 19q82 0 141 -40t83 -106l-83 -33
q-16 45 -53.5 69.5t-86.5 24.5q-70 0 -111.5 -47.5t-41.5 -126.5q0 -78 42 -124.5t111 -46.5q49 0 87 24.5t54 67.5z" />
    <glyph glyph-name="egrave" unicode="&#xe8;" horiz-adv-x="555" 
d="M517 206h-388q6 -69 47.5 -103t101.5 -34q51 0 86 23t54 63l79 -32q-28 -64 -86.5 -99.5t-133.5 -35.5q-53 0 -97 18.5t-75.5 52t-49 80.5t-17.5 104t17 105t48.5 82.5t76.5 53.5t100 19q53 0 96.5 -18.5t75 -52t48.5 -81t17 -106.5v-39zM421 274q-4 73 -42 111t-101 38
t-102 -38.5t-46 -110.5h291zM149 688h97l71 -141h-76z" />
    <glyph glyph-name="eacute" unicode="&#xe9;" horiz-adv-x="555" 
d="M517 206h-388q6 -69 47.5 -103t101.5 -34q51 0 86 23t54 63l79 -32q-28 -64 -86.5 -99.5t-133.5 -35.5q-53 0 -97 18.5t-75.5 52t-49 80.5t-17.5 104t17 105t48.5 82.5t76.5 53.5t100 19q53 0 96.5 -18.5t75 -52t48.5 -81t17 -106.5v-39zM421 274q-4 73 -42 111t-101 38
t-102 -38.5t-46 -110.5h291zM241 547l71 141h96l-91 -141h-76z" />
    <glyph glyph-name="ecircumflex" unicode="&#xea;" horiz-adv-x="555" 
d="M517 206h-388q6 -69 47.5 -103t101.5 -34q51 0 86 23t54 63l79 -32q-28 -64 -86.5 -99.5t-133.5 -35.5q-53 0 -97 18.5t-75.5 52t-49 80.5t-17.5 104t17 105t48.5 82.5t76.5 53.5t100 19q53 0 96.5 -18.5t75 -52t48.5 -81t17 -106.5v-39zM421 274q-4 73 -42 111t-101 38
t-102 -38.5t-46 -110.5h291zM332 547l-53 87l-54 -87h-82l83 142h86h19l83 -142h-82z" />
    <glyph glyph-name="edieresis" unicode="&#xeb;" horiz-adv-x="555" 
d="M517 206h-388q6 -69 47.5 -103t101.5 -34q51 0 86 23t54 63l79 -32q-28 -64 -86.5 -99.5t-133.5 -35.5q-53 0 -97 18.5t-75.5 52t-49 80.5t-17.5 104t17 105t48.5 82.5t76.5 53.5t100 19q53 0 96.5 -18.5t75 -52t48.5 -81t17 -106.5v-39zM421 274q-4 73 -42 111t-101 38
t-102 -38.5t-46 -110.5h291zM117 604q0 28 19.5 47.5t46.5 19.5q26 0 46 -20t20 -47q0 -26 -19.5 -45.5t-46.5 -19.5t-46.5 19.5t-19.5 45.5zM305 604q0 28 19 47.5t47 19.5q26 0 46 -20t20 -47q0 -26 -20 -45.5t-46 -19.5q-27 0 -46.5 19.5t-19.5 45.5z" />
    <glyph glyph-name="igrave" unicode="&#xec;" horiz-adv-x="208" 
d="M151 489v-489h-94v489h94zM-26 688h97l71 -141h-76z" />
    <glyph glyph-name="iacute" unicode="&#xed;" horiz-adv-x="208" 
d="M151 489v-489h-94v489h94zM66 547l71 141h96l-91 -141h-76z" />
    <glyph glyph-name="icircumflex" unicode="&#xee;" horiz-adv-x="208" 
d="M151 489v-489h-94v489h94zM157 547l-53 87l-54 -87h-82l83 142h86h19l83 -142h-82z" />
    <glyph glyph-name="idieresis" unicode="&#xef;" horiz-adv-x="208" 
d="M151 489v-489h-94v489h94zM-56 615q0 28 19.5 47.5t46.5 19.5q26 0 46 -20t20 -47q0 -26 -19.5 -45.5t-46.5 -19.5t-46.5 19.5t-19.5 45.5zM132 615q0 28 19 47.5t47 19.5q26 0 46 -20t20 -47q0 -26 -20 -45.5t-46 -19.5q-27 0 -46.5 19.5t-19.5 45.5z" />
    <glyph glyph-name="eth" unicode="&#xf0;" horiz-adv-x="629" 
d="M589 290q0 -71 -21 -127t-58 -95t-88 -59.5t-112 -20.5q-63 0 -113 21t-85 58t-53.5 86t-18.5 106q-1 58 20 106.5t57 84t84 55t100 19.5q95 0 157 -53q-34 92 -104 155l-70 -62l-47 55l62 55q-37 32 -85 57l51 65q66 -37 102 -66l65 56l47 -54l-59 -51q40 -37 71 -81
t53 -98q45 -106 45 -212zM490 257q0 37 -12.5 69.5t-36 56.5t-55.5 37.5t-71 13.5q-40 0 -73 -14t-57 -38.5t-37 -57t-13 -70.5q0 -36 12.5 -68.5t35.5 -57t55.5 -38.5t73.5 -14q42 0 75 15t56 39.5t35 57.5t12 69z" />
    <glyph glyph-name="ntilde" unicode="&#xf1;" horiz-adv-x="575" 
d="M512 0h-94v284q0 73 -36 103t-84 30q-58 0 -96.5 -36.5t-38.5 -105.5v-274h-94v488h89l3 -61q21 34 62.5 54.5t93.5 20.5q90 0 142.5 -51.5t52.5 -151.5v-300zM135 591q0 48 24.5 73.5t61.5 25.5q20 0 37.5 -7t38.5 -19q20 -11 32.5 -16t25.5 -5q35 0 32 44h65
q1 -4 1 -18q0 -48 -25.5 -74t-64.5 -26q-22 0 -39.5 7t-43.5 20q-16 9 -27 14t-21 5q-32 0 -31 -46h-65q-1 4 -1 9.5v12.5z" />
    <glyph glyph-name="ograve" unicode="&#xf2;" horiz-adv-x="577" 
d="M289 502q56 0 102 -19.5t79 -54t51 -81.5t18 -102t-18 -102t-51 -81.5t-79 -54t-102 -19.5t-102 19.5t-79 54t-51.5 81.5t-18.5 102t18.5 102t51.5 81.5t79 54t102 19.5zM289 73q35 0 63.5 12.5t48.5 35.5t31 54.5t11 69.5t-11 69.5t-31 54.5t-48.5 36t-63.5 13
t-63.5 -13t-49 -36t-31.5 -54.5t-11 -69.5t11 -69.5t31.5 -54.5t49 -35.5t63.5 -12.5zM159 688h97l71 -141h-76z" />
    <glyph glyph-name="oacute" unicode="&#xf3;" horiz-adv-x="577" 
d="M289 502q56 0 102 -19.5t79 -54t51 -81.5t18 -102t-18 -102t-51 -81.5t-79 -54t-102 -19.5t-102 19.5t-79 54t-51.5 81.5t-18.5 102t18.5 102t51.5 81.5t79 54t102 19.5zM289 73q35 0 63.5 12.5t48.5 35.5t31 54.5t11 69.5t-11 69.5t-31 54.5t-48.5 36t-63.5 13
t-63.5 -13t-49 -36t-31.5 -54.5t-11 -69.5t11 -69.5t31.5 -54.5t49 -35.5t63.5 -12.5zM251 547l71 141h96l-91 -141h-76z" />
    <glyph glyph-name="ocircumflex" unicode="&#xf4;" horiz-adv-x="577" 
d="M289 502q56 0 102 -19.5t79 -54t51 -81.5t18 -102t-18 -102t-51 -81.5t-79 -54t-102 -19.5t-102 19.5t-79 54t-51.5 81.5t-18.5 102t18.5 102t51.5 81.5t79 54t102 19.5zM289 73q35 0 63.5 12.5t48.5 35.5t31 54.5t11 69.5t-11 69.5t-31 54.5t-48.5 36t-63.5 13
t-63.5 -13t-49 -36t-31.5 -54.5t-11 -69.5t11 -69.5t31.5 -54.5t49 -35.5t63.5 -12.5zM342 547l-53 87l-54 -87h-82l83 142h86h19l83 -142h-82z" />
    <glyph glyph-name="otilde" unicode="&#xf5;" horiz-adv-x="577" 
d="M289 502q56 0 102 -19.5t79 -54t51 -81.5t18 -102t-18 -102t-51 -81.5t-79 -54t-102 -19.5t-102 19.5t-79 54t-51.5 81.5t-18.5 102t18.5 102t51.5 81.5t79 54t102 19.5zM289 73q35 0 63.5 12.5t48.5 35.5t31 54.5t11 69.5t-11 69.5t-31 54.5t-48.5 36t-63.5 13
t-63.5 -13t-49 -36t-31.5 -54.5t-11 -69.5t11 -69.5t31.5 -54.5t49 -35.5t63.5 -12.5zM130 591q0 48 24.5 73.5t61.5 25.5q20 0 37.5 -7t38.5 -19q20 -11 32.5 -16t25.5 -5q35 0 32 44h65q1 -4 1 -18q0 -48 -25.5 -74t-64.5 -26q-22 0 -39.5 7t-43.5 20q-16 9 -27 14t-21 5
q-32 0 -31 -46h-65q-1 4 -1 9.5v12.5z" />
    <glyph glyph-name="odieresis" unicode="&#xf6;" horiz-adv-x="577" 
d="M289 502q56 0 102 -19.5t79 -54t51 -81.5t18 -102t-18 -102t-51 -81.5t-79 -54t-102 -19.5t-102 19.5t-79 54t-51.5 81.5t-18.5 102t18.5 102t51.5 81.5t79 54t102 19.5zM289 73q35 0 63.5 12.5t48.5 35.5t31 54.5t11 69.5t-11 69.5t-31 54.5t-48.5 36t-63.5 13
t-63.5 -13t-49 -36t-31.5 -54.5t-11 -69.5t11 -69.5t31.5 -54.5t49 -35.5t63.5 -12.5zM129 615q0 28 19.5 47.5t46.5 19.5q26 0 46 -20t20 -47q0 -26 -19.5 -45.5t-46.5 -19.5t-46.5 19.5t-19.5 45.5zM317 615q0 28 19 47.5t47 19.5q26 0 46 -20t20 -47q0 -26 -20 -45.5
t-46 -19.5q-27 0 -46.5 19.5t-19.5 45.5z" />
    <glyph glyph-name="divide" unicode="&#xf7;" horiz-adv-x="543" 
d="M204 495q0 28 20 47.5t48 19.5q27 0 47 -19.5t20 -47.5q0 -26 -20 -46t-47 -20q-28 0 -48 20t-20 46zM463 347v-78h-383v78h383zM204 113q0 28 20 47.5t48 19.5q27 0 47 -19.5t20 -47.5q0 -27 -20 -46.5t-47 -19.5q-28 0 -48 19.5t-20 46.5z" />
    <glyph glyph-name="oslash" unicode="&#xf8;" horiz-adv-x="577" 
d="M539 245q0 -55 -18 -102t-51 -81.5t-79 -54t-102 -19.5q-57 0 -102 19l-35 -57h-86l59 95q-42 35 -64.5 86t-22.5 114q0 55 18.5 102t51.5 81.5t79 54t102 19.5q59 0 107 -21l31 50h83l-54 -88q39 -36 61 -87t22 -111zM349 406q-31 12 -60 12q-35 0 -63.5 -13t-49 -36
t-31.5 -54.5t-11 -69.5q0 -36 10.5 -67.5t29.5 -53.5zM443 245q0 71 -37 118l-173 -281q26 -9 56 -9q35 0 63.5 12.5t48.5 35.5t31 54.5t11 69.5z" />
    <glyph glyph-name="ugrave" unicode="&#xf9;" horiz-adv-x="586" 
d="M426 0q-4 16 -5.5 31.5t-2.5 32.5q-22 -36 -62.5 -56t-91.5 -20q-81 0 -140 48q-57 48 -57 157v296h95v-280q0 -74 36 -106q35 -31 85 -31q57 0 95 36.5t38 105.5v275h94v-399q0 -21 3 -47.5t7 -42.5h-94zM158 688h97l71 -141h-76z" />
    <glyph glyph-name="uacute" unicode="&#xfa;" horiz-adv-x="586" 
d="M426 0q-4 16 -5.5 31.5t-2.5 32.5q-22 -36 -62.5 -56t-91.5 -20q-81 0 -140 48q-57 48 -57 157v296h95v-280q0 -74 36 -106q35 -31 85 -31q57 0 95 36.5t38 105.5v275h94v-399q0 -21 3 -47.5t7 -42.5h-94zM250 547l71 141h96l-91 -141h-76z" />
    <glyph glyph-name="ucircumflex" unicode="&#xfb;" horiz-adv-x="586" 
d="M426 0q-4 16 -5.5 31.5t-2.5 32.5q-22 -36 -62.5 -56t-91.5 -20q-81 0 -140 48q-57 48 -57 157v296h95v-280q0 -74 36 -106q35 -31 85 -31q57 0 95 36.5t38 105.5v275h94v-399q0 -21 3 -47.5t7 -42.5h-94zM342 547l-53 87l-54 -87h-82l83 142h86h19l83 -142h-82z" />
    <glyph glyph-name="udieresis" unicode="&#xfc;" horiz-adv-x="586" 
d="M426 0q-4 16 -5.5 31.5t-2.5 32.5q-22 -36 -62.5 -56t-91.5 -20q-81 0 -140 48q-57 48 -57 157v296h95v-280q0 -74 36 -106q35 -31 85 -31q57 0 95 36.5t38 105.5v275h94v-399q0 -21 3 -47.5t7 -42.5h-94zM129 615q0 28 19.5 47.5t46.5 19.5q26 0 46 -20t20 -47
q0 -26 -19.5 -45.5t-46.5 -19.5t-46.5 19.5t-19.5 45.5zM317 615q0 28 19 47.5t47 19.5q26 0 46 -20t20 -47q0 -26 -20 -45.5t-46 -19.5q-27 0 -46.5 19.5t-19.5 45.5z" />
    <glyph glyph-name="yacute" unicode="&#xfd;" horiz-adv-x="522" 
d="M509 489l-227 -601q-24 -63 -64 -91t-89 -28q-48 0 -101 25l26 86q35 -25 70 -25q25 0 45.5 15t32.5 48l19 53l-208 518h99l153 -398l146 398h98zM224 547l71 141h96l-91 -141h-76z" />
    <glyph glyph-name="thorn" unicode="&#xfe;" horiz-adv-x="618" 
d="M343 -12q-57 0 -104 21.5t-71 63.5v-291h-94v941h94v-303q24 39 68.5 61t104.5 22q54 0 98 -18.5t74.5 -52.5t47.5 -81.5t17 -106.5q0 -58 -17 -105.5t-48 -81t-74.5 -51.5t-95.5 -18zM482 244q0 78 -41 126t-113 48t-113 -48t-41 -126t41 -124.5t113 -46.5t113 46.5
t41 124.5z" />
    <glyph glyph-name="ydieresis" unicode="&#xff;" horiz-adv-x="522" 
d="M509 489l-227 -601q-24 -63 -64 -91t-89 -28q-48 0 -101 25l26 86q35 -25 70 -25q25 0 45.5 15t32.5 48l19 53l-208 518h99l153 -398l146 398h98zM102 615q0 28 19.5 47.5t46.5 19.5q26 0 46 -20t20 -47q0 -26 -19.5 -45.5t-46.5 -19.5t-46.5 19.5t-19.5 45.5zM290 615
q0 28 19 47.5t47 19.5q26 0 46 -20t20 -47q0 -26 -20 -45.5t-46 -19.5q-27 0 -46.5 19.5t-19.5 45.5z" />
    <glyph glyph-name="Amacron" unicode="&#x100;" horiz-adv-x="661" 
d="M482 180h-304l-65 -180h-101l264 723h98h10l265 -723h-104zM452 263l-120 342l-124 -342h244zM475 854v-67h-288v67h288z" />
    <glyph glyph-name="amacron" unicode="&#x101;" horiz-adv-x="527" 
d="M384 0q-2 11 -4 27.5t-4 38.5q-21 -35 -63.5 -56.5t-97.5 -21.5q-81 0 -129.5 41.5t-48.5 113.5t48.5 113t130.5 41h158v20q0 57 -31 82.5t-85 25.5q-96 0 -134 -78l-70 41q30 58 83.5 86.5t125.5 28.5q45 0 82.5 -11t64 -35t41.5 -60.5t15 -87.5v-208q0 -30 2.5 -59
t6.5 -42h-91zM375 228h-138q-51 0 -78 -22.5t-27 -61.5q0 -40 28 -61.5t76 -21.5q63 0 101 39.5t38 114.5v13zM406 624v-67h-288v67h288z" />
    <glyph glyph-name="Abreve" unicode="&#x102;" horiz-adv-x="661" 
d="M482 180h-304l-65 -180h-101l264 723h98h10l265 -723h-104zM452 263l-120 342l-124 -342h244zM331 777q-31 0 -59 11t-48 30t-32 44.5t-12 54.5h78q1 -30 21 -47t52 -17q31 0 51 17t21 47h78q0 -29 -12 -54.5t-32.5 -44.5t-47.5 -30t-58 -11z" />
    <glyph glyph-name="abreve" unicode="&#x103;" horiz-adv-x="527" 
d="M384 0q-2 11 -4 27.5t-4 38.5q-21 -35 -63.5 -56.5t-97.5 -21.5q-81 0 -129.5 41.5t-48.5 113.5t48.5 113t130.5 41h158v20q0 57 -31 82.5t-85 25.5q-96 0 -134 -78l-70 41q30 58 83.5 86.5t125.5 28.5q45 0 82.5 -11t64 -35t41.5 -60.5t15 -87.5v-208q0 -30 2.5 -59
t6.5 -42h-91zM375 228h-138q-51 0 -78 -22.5t-27 -61.5q0 -40 28 -61.5t76 -21.5q63 0 101 39.5t38 114.5v13zM262 547q-31 0 -59 11t-48 30t-32 44.5t-12 54.5h78q1 -30 21 -47t52 -17q31 0 51 17t21 47h78q0 -29 -12 -54.5t-32.5 -44.5t-47.5 -30t-58 -11z" />
    <glyph glyph-name="Aogonek" unicode="&#x104;" horiz-adv-x="661" 
d="M482 180h-304l-65 -180h-101l264 723h98h10l265 -723h-104zM452 263l-120 342l-124 -342h244zM652 0q-31 -13 -46 -31t-15 -36q0 -15 10 -24.5t27 -9.5q12 0 21 4v-69q-21 -7 -43 -7q-39 0 -62.5 24t-23.5 57q0 28 18.5 53.5t52.5 38.5h61z" />
    <glyph glyph-name="aogonek" unicode="&#x105;" horiz-adv-x="527" 
d="M415 -67q0 -15 10 -24.5t27 -9.5q12 0 21 4v-69q-21 -7 -43 -7q-39 0 -62.5 24t-23.5 57q0 28 18.5 53.5t52.5 38.5h-31q-2 11 -4 27.5t-4 38.5q-21 -35 -63.5 -56.5t-97.5 -21.5q-81 0 -129.5 41.5t-48.5 113.5t48.5 113t130.5 41h158v20q0 57 -31 82.5t-85 25.5
q-96 0 -134 -78l-70 41q30 58 83.5 86.5t125.5 28.5q45 0 82.5 -11t64 -35t41.5 -60.5t15 -87.5v-208q0 -30 2.5 -59t6.5 -42h1q-31 -13 -46 -31t-15 -36zM375 228h-138q-51 0 -78 -22.5t-27 -61.5q0 -40 28 -61.5t76 -21.5q63 0 101 39.5t38 114.5v13z" />
    <glyph glyph-name="Cacute" unicode="&#x106;" horiz-adv-x="738" 
d="M599 492q-22 70 -77 108.5t-133 38.5q-55 0 -99.5 -20t-76 -56.5t-49 -87.5t-17.5 -113q0 -64 17.5 -115t49.5 -87t76.5 -55.5t97.5 -19.5q77 0 136 38q59 39 81 100l93 -40q-34 -90 -119 -143q-84 -51 -192 -51q-75 -1 -138.5 25.5t-109.5 76t-71.5 118.5t-24.5 152
q0 84 25 153t71 118.5t109.5 76.5t140.5 27q115 0 195 -58t109 -153zM354 777l71 141h96l-91 -141h-76z" />
    <glyph glyph-name="cacute" unicode="&#x107;" horiz-adv-x="547" 
d="M285 503q82 0 141 -40t83 -106l-83 -33q-16 45 -53.5 69.5t-86.5 24.5q-70 0 -111.5 -47.5t-41.5 -126.5q0 -78 42 -124.5t111 -46.5q49 0 87 24.5t54 67.5l82 -31q-27 -70 -87 -108t-138 -38q-55 0 -100.5 18.5t-77.5 52t-50 81t-18 104.5q0 58 17.5 105.5t50 81.5
t78 53t101.5 19zM238 547l71 141h96l-91 -141h-76z" />
    <glyph glyph-name="Ccircumflex" unicode="&#x108;" horiz-adv-x="738" 
d="M599 492q-22 70 -77 108.5t-133 38.5q-55 0 -99.5 -20t-76 -56.5t-49 -87.5t-17.5 -113q0 -64 17.5 -115t49.5 -87t76.5 -55.5t97.5 -19.5q77 0 136 38q59 39 81 100l93 -40q-34 -90 -119 -143q-84 -51 -192 -51q-75 -1 -138.5 25.5t-109.5 76t-71.5 118.5t-24.5 152
q0 84 25 153t71 118.5t109.5 76.5t140.5 27q115 0 195 -58t109 -153zM445 777l-53 87l-54 -87h-82l83 142h86h19l83 -142h-82z" />
    <glyph glyph-name="ccircumflex" unicode="&#x109;" horiz-adv-x="547" 
d="M285 503q82 0 141 -40t83 -106l-83 -33q-16 45 -53.5 69.5t-86.5 24.5q-70 0 -111.5 -47.5t-41.5 -126.5q0 -78 42 -124.5t111 -46.5q49 0 87 24.5t54 67.5l82 -31q-27 -70 -87 -108t-138 -38q-55 0 -100.5 18.5t-77.5 52t-50 81t-18 104.5q0 58 17.5 105.5t50 81.5
t78 53t101.5 19zM329 547l-53 87l-54 -87h-82l83 142h86h19l83 -142h-82z" />
    <glyph glyph-name="Cdotaccent" unicode="&#x10a;" horiz-adv-x="738" 
d="M599 492q-22 70 -77 108.5t-133 38.5q-55 0 -99.5 -20t-76 -56.5t-49 -87.5t-17.5 -113q0 -64 17.5 -115t49.5 -87t76.5 -55.5t97.5 -19.5q77 0 136 38q59 39 81 100l93 -40q-34 -90 -119 -143q-84 -51 -192 -51q-75 -1 -138.5 25.5t-109.5 76t-71.5 118.5t-24.5 152
q0 84 25 153t71 118.5t109.5 76.5t140.5 27q115 0 195 -58t109 -153zM326 846q0 27 19.5 46.5t45.5 19.5q27 0 46.5 -20t19.5 -46q0 -27 -19.5 -46.5t-46.5 -19.5t-46 19.5t-19 46.5z" />
    <glyph glyph-name="cdotaccent" unicode="&#x10b;" horiz-adv-x="547" 
d="M285 503q82 0 141 -40t83 -106l-83 -33q-16 45 -53.5 69.5t-86.5 24.5q-70 0 -111.5 -47.5t-41.5 -126.5q0 -78 42 -124.5t111 -46.5q49 0 87 24.5t54 67.5l82 -31q-27 -70 -87 -108t-138 -38q-55 0 -100.5 18.5t-77.5 52t-50 81t-18 104.5q0 58 17.5 105.5t50 81.5
t78 53t101.5 19zM210 616q0 27 19.5 46.5t45.5 19.5q27 0 46.5 -20t19.5 -46q0 -27 -19.5 -46.5t-46.5 -19.5t-46 19.5t-19 46.5z" />
    <glyph glyph-name="Ccaron" unicode="&#x10c;" horiz-adv-x="738" 
d="M599 492q-22 70 -77 108.5t-133 38.5q-55 0 -99.5 -20t-76 -56.5t-49 -87.5t-17.5 -113q0 -64 17.5 -115t49.5 -87t76.5 -55.5t97.5 -19.5q77 0 136 38q59 39 81 100l93 -40q-34 -90 -119 -143q-84 -51 -192 -51q-75 -1 -138.5 25.5t-109.5 76t-71.5 118.5t-24.5 152
q0 84 25 153t71 118.5t109.5 76.5t140.5 27q115 0 195 -58t109 -153zM527 919l-83 -142h-86h-19l-83 142h82l54 -88l54 88h81z" />
    <glyph glyph-name="ccaron" unicode="&#x10d;" horiz-adv-x="547" 
d="M285 503q82 0 141 -40t83 -106l-83 -33q-16 45 -53.5 69.5t-86.5 24.5q-70 0 -111.5 -47.5t-41.5 -126.5q0 -78 42 -124.5t111 -46.5q49 0 87 24.5t54 67.5l82 -31q-27 -70 -87 -108t-138 -38q-55 0 -100.5 18.5t-77.5 52t-50 81t-18 104.5q0 58 17.5 105.5t50 81.5
t78 53t101.5 19zM411 689l-83 -142h-86h-19l-83 142h82l54 -88l54 88h81z" />
    <glyph glyph-name="Dcaron" unicode="&#x10e;" horiz-adv-x="727" 
d="M684 361q1 -79 -26 -146t-76 -115t-116 -74.5t-146 -25.5h-233v723h233q78 1 145.5 -25.5t116 -75t76 -115.5t26.5 -146zM580 361q0 60 -19 109.5t-53 85t-82 55.5t-107 20h-134v-539h134q59 0 107 19.5t82 55t53 85t19 109.5zM430 918l-83 -142h-86h-19l-83 142h82
l54 -88l54 88h81z" />
    <glyph glyph-name="dcaron" unicode="&#x10f;" horiz-adv-x="720" 
d="M664 522h-47l-17 173q-2 22 10.5 34.5t30.5 12.5q17 0 29 -12.5t10 -34.5zM540 117q0 -14 0.5 -30t1.5 -35q2 -19 3.5 -32t3.5 -20h-95q-2 16 -4 35t-3 41q-26 -42 -71.5 -65t-102.5 -23q-53 0 -97 18t-75 51t-48 80.5t-17 106.5q0 57 17 104.5t48.5 82t75 53.5t96.5 19
q54 0 100.5 -21.5t72.5 -61.5v316h94v-619zM440 246q0 78 -41 125t-113 47t-113.5 -47t-41.5 -125t41.5 -125.5t113.5 -47.5t113 47.5t41 125.5z" />
    <glyph glyph-name="Dcroat" unicode="&#x110;" horiz-adv-x="733" 
d="M684 361q1 -79 -26 -146t-76 -115t-116 -74.5t-146 -25.5h-233v320h-71v84h71v319h233q78 1 145.5 -25.5t116 -75t76 -115.5t26.5 -146zM580 361q0 60 -19 109.5t-53 85t-82 55.5t-107 20h-134v-227h100v-84h-100v-228h134q59 0 107 19.5t82 55t53 85t19 109.5z" />
    <glyph glyph-name="dcroat" unicode="&#x111;" horiz-adv-x="615" 
d="M542 566v-449q0 -14 0.5 -30t1.5 -35q2 -19 3.5 -32t3.5 -20h-94q-4 20 -5.5 39t-2.5 38q-25 -43 -71 -66t-103 -23q-53 0 -97 18t-75 51t-48 80.5t-17 106.5q0 57 17.5 104.5t49 82t75.5 53.5t97 19q54 0 99.5 -21.5t71.5 -63.5v148h-174v80h174v90h94v-90h68v-80h-68z
M443 245q0 78 -41.5 125.5t-113.5 47.5q-70 0 -112 -47.5t-42 -125.5t42 -125t112 -47q72 0 113.5 47t41.5 125z" />
    <glyph glyph-name="Emacron" unicode="&#x112;" horiz-adv-x="588" 
d="M528 93v-93h-441v723h440v-94h-342v-221h308v-88h-308v-227h343zM447 854v-67h-288v67h288z" />
    <glyph glyph-name="emacron" unicode="&#x113;" horiz-adv-x="555" 
d="M517 206h-388q6 -69 47.5 -103t101.5 -34q51 0 86 23t54 63l79 -32q-28 -64 -86.5 -99.5t-133.5 -35.5q-53 0 -97 18.5t-75.5 52t-49 80.5t-17.5 104t17 105t48.5 82.5t76.5 53.5t100 19q53 0 96.5 -18.5t75 -52t48.5 -81t17 -106.5v-39zM421 274q-4 73 -42 111t-101 38
t-102 -38.5t-46 -110.5h291zM423 624v-67h-288v67h288z" />
    <glyph glyph-name="Ebreve" unicode="&#x114;" horiz-adv-x="588" 
d="M528 93v-93h-441v723h440v-94h-342v-221h308v-88h-308v-227h343zM454 920q0 -30 -12 -56t-32 -45.5t-47.5 -30.5t-58.5 -11t-59 11t-48 30.5t-32 45.5t-12 56h78q0 -31 20.5 -49t52.5 -18t52 18t20 49h78z" />
    <glyph glyph-name="ebreve" unicode="&#x115;" horiz-adv-x="555" 
d="M517 206h-388q6 -69 47.5 -103t101.5 -34q51 0 86 23t54 63l79 -32q-28 -64 -86.5 -99.5t-133.5 -35.5q-53 0 -97 18.5t-75.5 52t-49 80.5t-17.5 104t17 105t48.5 82.5t76.5 53.5t100 19q53 0 96.5 -18.5t75 -52t48.5 -81t17 -106.5v-39zM421 274q-4 73 -42 111t-101 38
t-102 -38.5t-46 -110.5h291zM430 690q0 -30 -12 -56t-32 -45.5t-47.5 -30.5t-58.5 -11t-59 11t-48 30.5t-32 45.5t-12 56h78q0 -31 20.5 -49t52.5 -18t52 18t20 49h78z" />
    <glyph glyph-name="Edotaccent" unicode="&#x116;" horiz-adv-x="588" 
d="M528 93v-93h-441v723h440v-94h-342v-221h308v-88h-308v-227h343zM237 846q0 27 19.5 46.5t45.5 19.5q27 0 46.5 -20t19.5 -46q0 -27 -19.5 -46.5t-46.5 -19.5t-46 19.5t-19 46.5z" />
    <glyph glyph-name="edotaccent" unicode="&#x117;" horiz-adv-x="555" 
d="M517 206h-388q6 -69 47.5 -103t101.5 -34q51 0 86 23t54 63l79 -32q-28 -64 -86.5 -99.5t-133.5 -35.5q-53 0 -97 18.5t-75.5 52t-49 80.5t-17.5 104t17 105t48.5 82.5t76.5 53.5t100 19q53 0 96.5 -18.5t75 -52t48.5 -81t17 -106.5v-39zM421 274q-4 73 -42 111t-101 38
t-102 -38.5t-46 -110.5h291zM213 616q0 27 19.5 46.5t45.5 19.5q27 0 46.5 -20t19.5 -46q0 -27 -19.5 -46.5t-46.5 -19.5t-46 19.5t-19 46.5z" />
    <glyph glyph-name="Eogonek" unicode="&#x118;" horiz-adv-x="588" 
d="M528 93v-93h-441v723h440v-94h-342v-221h308v-88h-308v-227h343zM527 0q-31 -13 -46 -31t-15 -36q0 -15 10 -24.5t27 -9.5q12 0 21 4v-69q-21 -7 -43 -7q-39 0 -62.5 24t-23.5 57q0 28 18.5 53.5t52.5 38.5h61z" />
    <glyph glyph-name="eogonek" unicode="&#x119;" horiz-adv-x="555" 
d="M517 206h-388q6 -69 47.5 -103t101.5 -34q51 0 86 23t54 63l79 -32q-24 -54 -70 -88.5t-106 -43.5q-26 -13 -39 -30t-13 -33q0 -15 10 -24.5t27 -9.5q12 0 21 4v-69q-21 -7 -43 -7q-39 0 -62 23.5t-23 56.5q0 25 14 48.5t41 37.5q-48 4 -88 24t-68.5 53t-44 78.5
t-15.5 99.5q0 57 17 105t48.5 82.5t76.5 53.5t100 19q53 0 96.5 -18.5t75 -52t48.5 -81t17 -106.5v-39zM421 274q-4 73 -42 111t-101 38t-102 -38.5t-46 -110.5h291z" />
    <glyph glyph-name="Ecaron" unicode="&#x11a;" horiz-adv-x="588" 
d="M528 93v-93h-441v723h440v-94h-342v-221h308v-88h-308v-227h343zM438 919l-83 -142h-86h-19l-83 142h82l54 -88l54 88h81z" />
    <glyph glyph-name="ecaron" unicode="&#x11b;" horiz-adv-x="555" 
d="M517 206h-388q6 -69 47.5 -103t101.5 -34q51 0 86 23t54 63l79 -32q-28 -64 -86.5 -99.5t-133.5 -35.5q-53 0 -97 18.5t-75.5 52t-49 80.5t-17.5 104t17 105t48.5 82.5t76.5 53.5t100 19q53 0 96.5 -18.5t75 -52t48.5 -81t17 -106.5v-39zM421 274q-4 73 -42 111t-101 38
t-102 -38.5t-46 -110.5h291zM414 689l-83 -142h-86h-19l-83 142h82l54 -88l54 88h81z" />
    <glyph glyph-name="Gcircumflex" unicode="&#x11c;" horiz-adv-x="766" 
d="M708 404v-405h-86l-4 94q-35 -51 -99 -78t-139 -27q-74 -1 -136 26.5t-107 77t-70 118t-24 149.5q-1 81 24.5 150.5t72 120.5t112 79t144.5 27q112 0 191.5 -51.5t110.5 -141.5l-87 -38q-26 70 -82.5 104t-131.5 34q-58 0 -105 -20.5t-80 -58t-51 -90t-18 -117.5
q0 -64 18 -115.5t50.5 -87t77 -54.5t98.5 -19q81 0 151 41q69 42 78 142v53h-241v87h333zM427 777l-53 87l-54 -87h-82l83 142h86h19l83 -142h-82z" />
    <glyph glyph-name="gcircumflex" unicode="&#x11d;" horiz-adv-x="540" 
d="M212 561h-82l83 131h86h19l83 -131h-81l-54 81zM522 -86q0 -80 -71 -115q-70 -36 -182 -37q-109 0 -177 30q-68 29 -68 98q0 35 18.5 63t50.5 42q-47 29 -47 83q0 29 16 56t51 39q-59 54 -59 137q0 42 15.5 77.5t44 61t68 40t87.5 14.5q64 0 115 -27q16 30 45.5 47
t69.5 17q13 0 17 -1v-80q-4 1 -17 1q-38 0 -64 -23q47 -53 47 -127q0 -42 -15.5 -77.5t-43.5 -60.5t-67 -39t-87 -14q-55 0 -94 16q-24 0 -37 -11t-13 -30q0 -16 12 -27.5t40 -11.5h178q79 0 123 -37.5t44 -103.5zM145 309q0 -49 33.5 -81.5t88.5 -32.5q57 0 90 32.5
t33 81.5t-32.5 83.5t-89.5 34.5q-55 0 -89 -33.5t-34 -84.5zM429 -86q0 31 -22.5 46.5t-64.5 15.5h-172q-9 0 -11 1q-27 -7 -40 -24t-13 -40q0 -44 43.5 -57.5t117.5 -13.5q79 0 120.5 15t41.5 57z" />
    <glyph glyph-name="Gbreve" unicode="&#x11e;" horiz-adv-x="766" 
d="M708 404v-405h-86l-4 94q-35 -51 -99 -78t-139 -27q-74 -1 -136 26.5t-107 77t-70 118t-24 149.5q-1 81 24.5 150.5t72 120.5t112 79t144.5 27q112 0 191.5 -51.5t110.5 -141.5l-87 -38q-26 70 -82.5 104t-131.5 34q-58 0 -105 -20.5t-80 -58t-51 -90t-18 -117.5
q0 -64 18 -115.5t50.5 -87t77 -54.5t98.5 -19q81 0 151 41q69 42 78 142v53h-241v87h333zM524 920q0 -30 -12 -56t-32 -45.5t-47.5 -30.5t-58.5 -11t-59 11t-48 30.5t-32 45.5t-12 56h78q0 -31 20.5 -49t52.5 -18t52 18t20 49h78z" />
    <glyph glyph-name="gbreve" unicode="&#x11f;" horiz-adv-x="540" 
d="M522 -86q0 -80 -71 -115q-70 -36 -182 -37q-109 0 -177 30q-68 29 -68 98q0 35 18.5 63t50.5 42q-47 29 -47 83q0 29 16 56t51 39q-59 54 -59 137q0 42 15.5 77.5t44 61t68 40t87.5 14.5q64 0 115 -27q16 30 45.5 47t69.5 17q13 0 17 -1v-80q-4 1 -17 1q-38 0 -64 -23
q47 -53 47 -127q0 -42 -15.5 -77.5t-43.5 -60.5t-67 -39t-87 -14q-55 0 -94 16q-24 0 -37 -11t-13 -30q0 -16 12 -27.5t40 -11.5h178q79 0 123 -37.5t44 -103.5zM145 309q0 -49 33.5 -81.5t88.5 -32.5q57 0 90 32.5t33 81.5t-32.5 83.5t-89.5 34.5q-55 0 -89 -33.5
t-34 -84.5zM429 -86q0 31 -22.5 46.5t-64.5 15.5h-172q-9 0 -11 1q-27 -7 -40 -24t-13 -40q0 -44 43.5 -57.5t117.5 -13.5q79 0 120.5 15t41.5 57zM429 690q0 -30 -12 -56t-32 -45.5t-47.5 -30.5t-58.5 -11t-59 11t-48 30.5t-32 45.5t-12 56h78q0 -31 20.5 -49t52.5 -18
t52 18t20 49h78z" />
    <glyph glyph-name="Gdotaccent" unicode="&#x120;" horiz-adv-x="766" 
d="M708 404v-405h-86l-4 94q-35 -51 -99 -78t-139 -27q-74 -1 -136 26.5t-107 77t-70 118t-24 149.5q-1 81 24.5 150.5t72 120.5t112 79t144.5 27q112 0 191.5 -51.5t110.5 -141.5l-87 -38q-26 70 -82.5 104t-131.5 34q-58 0 -105 -20.5t-80 -58t-51 -90t-18 -117.5
q0 -64 18 -115.5t50.5 -87t77 -54.5t98.5 -19q81 0 151 41q69 42 78 142v53h-241v87h333zM308 846q0 27 19.5 46.5t45.5 19.5q27 0 46.5 -20t19.5 -46q0 -27 -19.5 -46.5t-46.5 -19.5t-46 19.5t-19 46.5z" />
    <glyph glyph-name="gdotaccent" unicode="&#x121;" horiz-adv-x="540" 
d="M522 -86q0 -80 -71 -115q-70 -36 -182 -37q-109 0 -177 30q-68 29 -68 98q0 35 18.5 63t50.5 42q-47 29 -47 83q0 29 16 56t51 39q-59 54 -59 137q0 42 15.5 77.5t44 61t68 40t87.5 14.5q64 0 115 -27q16 30 45.5 47t69.5 17q13 0 17 -1v-80q-4 1 -17 1q-38 0 -64 -23
q47 -53 47 -127q0 -42 -15.5 -77.5t-43.5 -60.5t-67 -39t-87 -14q-55 0 -94 16q-24 0 -37 -11t-13 -30q0 -16 12 -27.5t40 -11.5h178q79 0 123 -37.5t44 -103.5zM145 309q0 -49 33.5 -81.5t88.5 -32.5q57 0 90 32.5t33 81.5t-32.5 83.5t-89.5 34.5q-55 0 -89 -33.5
t-34 -84.5zM429 -86q0 31 -22.5 46.5t-64.5 15.5h-172q-9 0 -11 1q-27 -7 -40 -24t-13 -40q0 -44 43.5 -57.5t117.5 -13.5q79 0 120.5 15t41.5 57zM212 616q0 27 19.5 46.5t45.5 19.5q27 0 46.5 -20t19.5 -46q0 -27 -19.5 -46.5t-46.5 -19.5t-46 19.5t-19 46.5z" />
    <glyph glyph-name="Gcommaaccent" unicode="&#x122;" horiz-adv-x="766" 
d="M708 404v-405h-86l-4 94q-35 -51 -99 -78t-139 -27q-74 -1 -136 26.5t-107 77t-70 118t-24 149.5q-1 81 24.5 150.5t72 120.5t112 79t144.5 27q112 0 191.5 -51.5t110.5 -141.5l-87 -38q-26 70 -82.5 104t-131.5 34q-58 0 -105 -20.5t-80 -58t-51 -90t-18 -117.5
q0 -64 18 -115.5t50.5 -87t77 -54.5t98.5 -19q81 0 151 41q69 42 78 142v53h-241v87h333zM470 -116q0 -23 -8 -42.5t-21.5 -33.5t-31 -22t-35.5 -7v29q19 0 33.5 14.5t14.5 33.5q-7 -4 -18 -4q-20 0 -33.5 13t-13.5 36q0 25 15 40t38 15q25 0 42.5 -18.5t17.5 -53.5z" />
    <glyph glyph-name="gcommaaccent" unicode="&#x123;" horiz-adv-x="540" 
d="M522 -86q0 -80 -71 -115q-70 -36 -182 -37q-109 0 -177 30q-68 29 -68 98q0 35 18.5 63t50.5 42q-47 29 -47 83q0 29 16 56t51 39q-59 54 -59 137q0 42 15.5 77.5t44 61t68 40t87.5 14.5q64 0 115 -27q16 30 45.5 47t69.5 17q13 0 17 -1v-80q-4 1 -17 1q-38 0 -64 -23
q47 -53 47 -127q0 -42 -15.5 -77.5t-43.5 -60.5t-67 -39t-87 -14q-55 0 -94 16q-24 0 -37 -11t-13 -30q0 -16 12 -27.5t40 -11.5h178q79 0 123 -37.5t44 -103.5zM145 309q0 -49 33.5 -81.5t88.5 -32.5q57 0 90 32.5t33 81.5t-32.5 83.5t-89.5 34.5q-55 0 -89 -33.5
t-34 -84.5zM429 -86q0 31 -22.5 46.5t-64.5 15.5h-172q-9 0 -11 1q-27 -7 -40 -24t-13 -40q0 -44 43.5 -57.5t117.5 -13.5q79 0 120.5 15t41.5 57zM240 547l71 141h96l-91 -141h-76z" />
    <glyph glyph-name="Hbar" unicode="&#x126;" horiz-adv-x="723" 
d="M714 551h-78v-551h-99v322l-352 1v-323h-98v551h-85v86h85v86h98v-86h352v86h99v-86h78v-86zM537 551h-352v-141l352 -1v142z" />
    <glyph glyph-name="hbar" unicode="&#x127;" horiz-adv-x="584" 
d="M520 295v-295h-94v275q0 142 -125 142q-26 0 -51 -9.5t-44.5 -28t-31 -46t-11.5 -63.5v-269h-94v578h-57v57h57v100h95v-100h163v-57h-163v-152q23 35 63.5 55.5t91.5 20.5q93 0 147 -51t54 -157z" />
    <glyph glyph-name="Itilde" unicode="&#x128;" horiz-adv-x="271" 
d="M87 0v723h98v-723h-98zM-23 821q0 48 24.5 73.5t61.5 25.5q20 0 37.5 -7t38.5 -19q20 -11 32.5 -16t25.5 -5q35 0 32 44h65q1 -4 1 -18q0 -48 -25.5 -74t-64.5 -26q-22 0 -39.5 7t-43.5 20q-16 9 -27 14t-21 5q-32 0 -31 -46h-65q-1 4 -1 9.5v12.5z" />
    <glyph glyph-name="itilde" unicode="&#x129;" horiz-adv-x="208" 
d="M151 489v-489h-94v489h94zM-55 591q0 48 24.5 73.5t61.5 25.5q20 0 37.5 -7t38.5 -19q20 -11 32.5 -16t25.5 -5q35 0 32 44h65q1 -4 1 -18q0 -48 -25.5 -74t-64.5 -26q-22 0 -39.5 7t-43.5 20q-16 9 -27 14t-21 5q-32 0 -31 -46h-65q-1 4 -1 9.5v12.5z" />
    <glyph glyph-name="Imacron" unicode="&#x12a;" horiz-adv-x="271" 
d="M87 0v723h98v-723h-98zM280 854v-67h-288v67h288z" />
    <glyph glyph-name="imacron" unicode="&#x12b;" horiz-adv-x="208" 
d="M151 489v-489h-94v489h94zM248 624v-67h-288v67h288z" />
    <glyph glyph-name="Iogonek" unicode="&#x12e;" horiz-adv-x="271" 
d="M87 0v723h98v-723h-98zM185 0q-31 -13 -46 -31t-15 -36q0 -15 10 -24.5t27 -9.5q12 0 21 4v-69q-21 -7 -43 -7q-39 0 -62.5 24t-23.5 57q0 28 18.5 53.5t52.5 38.5h61z" />
    <glyph glyph-name="iogonek" unicode="&#x12f;" horiz-adv-x="208" 
d="M151 489v-489h-94v489h94zM152 0q-31 -13 -46 -31t-15 -36q0 -15 10 -24.5t27 -9.5q12 0 21 4v-69q-21 -7 -43 -7q-39 0 -62.5 24t-23.5 57q0 28 18.5 53.5t52.5 38.5h61zM38 616q0 27 19.5 46.5t45.5 19.5q27 0 46.5 -20t19.5 -46q0 -27 -19.5 -46.5t-46.5 -19.5
t-46 19.5t-19 46.5z" />
    <glyph glyph-name="Idotaccent" unicode="&#x130;" horiz-adv-x="271" 
d="M87 0v723h98v-723h-98zM70 846q0 27 19.5 46.5t45.5 19.5q27 0 46.5 -20t19.5 -46q0 -27 -19.5 -46.5t-46.5 -19.5t-46 19.5t-19 46.5z" />
    <glyph glyph-name="dotlessi" unicode="&#x131;" horiz-adv-x="208" 
d="M151 489v-489h-94v489h94z" />
    <glyph glyph-name="Jcircumflex" unicode="&#x134;" horiz-adv-x="531" 
d="M453 723v-524q0 -46 -15.5 -85t-44.5 -67.5t-69.5 -44t-90.5 -15.5q-103 1 -157 59t-54 155v24h96v-24q0 -33 9 -56t25 -38t36.5 -21.5t43.5 -6.5q54 0 88 29.5t34 95.5v519h99zM457 778l-53 87l-54 -87h-82l83 142h86h19l83 -142h-82z" />
    <glyph glyph-name="jcircumflex" unicode="&#x135;" horiz-adv-x="251" 
d="M-29 -135q26 -8 49 -8q36 0 54.5 21t18.5 60l-1 550h96v-561q0 -72 -39.5 -115.5t-111.5 -43.5q-35 0 -85 14zM194 547l-53 87l-54 -87h-82l83 142h86h19l83 -142h-82z" />
    <glyph glyph-name="Kcommaaccent" unicode="&#x136;" horiz-adv-x="652" 
d="M365 386l264 -386h-127l-199 309l-117 -145v-165h-99v724h99v-406l324 406h127zM403 -103q0 -23 -8 -42.5t-21.5 -33.5t-31 -22t-35.5 -7v29q19 0 33.5 14.5t14.5 33.5q-7 -4 -18 -4q-20 0 -33.5 13t-13.5 36q0 25 15 40t38 15q25 0 42.5 -18.5t17.5 -53.5z" />
    <glyph glyph-name="kcommaaccent" unicode="&#x137;" horiz-adv-x="510" 
d="M69 0v736h95v-473l216 226h119l-208 -218l202 -271h-114l-150 207l-65 -68v-139h-95zM320 -103q0 -23 -8 -42.5t-21.5 -33.5t-31 -22t-35.5 -7v29q19 0 33.5 14.5t14.5 33.5q-7 -4 -18 -4q-20 0 -33.5 13t-13.5 36q0 25 15 40t38 15q25 0 42.5 -18.5t17.5 -53.5z" />
    <glyph glyph-name="Lacute" unicode="&#x139;" horiz-adv-x="508" 
d="M481 89v-89h-379h-15v723h99v-634h295zM98 768l71 141h96l-91 -141h-76z" />
    <glyph glyph-name="lacute" unicode="&#x13a;" horiz-adv-x="231" 
d="M69 736h95v-736h-95v736zM78 775l71 141h96l-91 -141h-76z" />
    <glyph glyph-name="Lcommaaccent" unicode="&#x13b;" horiz-adv-x="508" 
d="M481 89v-89h-379h-15v723h99v-634h295zM351 -103q0 -23 -8 -42.5t-21.5 -33.5t-31 -22t-35.5 -7v29q19 0 33.5 14.5t14.5 33.5q-7 -4 -18 -4q-20 0 -33.5 13t-13.5 36q0 25 15 40t38 15q25 0 42.5 -18.5t17.5 -53.5z" />
    <glyph glyph-name="lcommaaccent" unicode="&#x13c;" horiz-adv-x="231" 
d="M69 736h95v-736h-95v736zM175 -109q0 -23 -8 -42.5t-21.5 -33.5t-31 -22t-35.5 -7v29q19 0 33.5 14.5t14.5 33.5q-7 -4 -18 -4q-20 0 -33.5 13t-13.5 36q0 25 15 40t38 15q25 0 42.5 -18.5t17.5 -53.5z" />
    <glyph glyph-name="Lcaron" unicode="&#x13d;" horiz-adv-x="508" 
d="M481 89v-89h-379h-15v723h99v-634h295zM400 661q0 -23 -8 -42.5t-21.5 -33.5t-31 -22t-35.5 -7v29q19 0 33.5 14.5t14.5 33.5q-7 -4 -18 -4q-20 0 -33.5 13t-13.5 36q0 25 15 40t38 15q25 0 42.5 -18.5t17.5 -53.5z" />
    <glyph glyph-name="lcaron" unicode="&#x13e;" horiz-adv-x="231" 
d="M69 736h95v-736h-95v736z" />
    <glyph glyph-name="Ldot" unicode="&#x13f;" horiz-adv-x="508" 
d="M481 89v-89h-379h-15v723h99v-634h295zM268 374q0 31 22 52.5t52 21.5t51.5 -22t21.5 -52q0 -29 -21.5 -50.5t-51.5 -21.5t-52 21.5t-22 50.5z" />
    <glyph glyph-name="ldot" unicode="&#x140;" horiz-adv-x="407" 
d="M69 736h95v-736h-95v736zM221 372q0 31 22.5 53.5t53.5 22.5t53.5 -22.5t22.5 -53.5q0 -30 -22.5 -52.5t-53.5 -22.5t-53.5 22t-22.5 53z" />
    <glyph glyph-name="Lslash" unicode="&#x141;" horiz-adv-x="505" 
d="M481 89v-89h-379h-15v329l-71 -33v85l71 33v309h99v-261l167 80v-85l-167 -80v-288h295z" />
    <glyph glyph-name="lslash" unicode="&#x142;" horiz-adv-x="251" 
d="M231 411l-55 -27v-384h-95v339l-61 -29v71l61 29v326h95v-281l55 27v-71z" />
    <glyph glyph-name="Nacute" unicode="&#x143;" horiz-adv-x="739" 
d="M652 723v-723h-97l-370 564v-564h-98v723h98l370 -564v564h97zM334 777l71 141h96l-91 -141h-76z" />
    <glyph glyph-name="nacute" unicode="&#x144;" horiz-adv-x="575" 
d="M512 0h-94v284q0 73 -36 103t-84 30q-58 0 -96.5 -36.5t-38.5 -105.5v-274h-94v488h89l3 -61q21 34 62.5 54.5t93.5 20.5q90 0 142.5 -51.5t52.5 -151.5v-300zM256 547l71 141h96l-91 -141h-76z" />
    <glyph glyph-name="Ncommaaccent" unicode="&#x145;" horiz-adv-x="739" 
d="M652 723v-723h-97l-370 564v-564h-98v723h98l370 -564v564h97zM434 -103q0 -23 -8 -42.5t-21.5 -33.5t-31 -22t-35.5 -7v29q19 0 33.5 14.5t14.5 33.5q-7 -4 -18 -4q-20 0 -33.5 13t-13.5 36q0 25 15 40t38 15q25 0 42.5 -18.5t17.5 -53.5z" />
    <glyph glyph-name="ncommaaccent" unicode="&#x146;" horiz-adv-x="575" 
d="M512 0h-94v284q0 73 -36 103t-84 30q-58 0 -96.5 -36.5t-38.5 -105.5v-274h-94v488h89l3 -61q21 34 62.5 54.5t93.5 20.5q90 0 142.5 -51.5t52.5 -151.5v-300zM349 -103q0 -23 -8 -42.5t-21.5 -33.5t-31 -22t-35.5 -7v29q19 0 33.5 14.5t14.5 33.5q-7 -4 -18 -4
q-20 0 -33.5 13t-13.5 36q0 25 15 40t38 15q25 0 42.5 -18.5t17.5 -53.5z" />
    <glyph glyph-name="Ncaron" unicode="&#x147;" horiz-adv-x="739" 
d="M652 723v-723h-97l-370 564v-564h-98v723h98l370 -564v564h97zM507 919l-83 -142h-86h-19l-83 142h82l54 -88l54 88h81z" />
    <glyph glyph-name="ncaron" unicode="&#x148;" horiz-adv-x="575" 
d="M512 0h-94v284q0 73 -36 103t-84 30q-58 0 -96.5 -36.5t-38.5 -105.5v-274h-94v488h89l3 -61q21 34 62.5 54.5t93.5 20.5q90 0 142.5 -51.5t52.5 -151.5v-300zM429 689l-83 -142h-86h-19l-83 142h82l54 -88l54 88h81z" />
    <glyph glyph-name="Eng" unicode="&#x14a;" horiz-adv-x="726" 
d="M83 723h98l364 -559v559h98v-778q0 -35 -11.5 -61.5t-31 -44.5t-46 -27.5t-56.5 -9.5q-26 0 -44 5l3 79q14 -3 27 -3q30 0 50 18.5t20 58.5v40h-9l-364 559v-559h-98v723z" />
    <glyph glyph-name="eng" unicode="&#x14b;" horiz-adv-x="582" 
d="M516 299v-340q0 -67 -36.5 -100.5t-90.5 -33.5q-23 0 -50 8v70q12 -3 25 -3q26 0 42.5 15t16.5 46v323q0 75 -36 103q-36 30 -86 30q-57 0 -96 -36.5t-39 -105.5v-274h-92v488h87l3 -62q22 35 63.5 54.5t92.5 19.5q80 0 138 -47q58 -46 58 -155z" />
    <glyph glyph-name="Omacron" unicode="&#x14c;" horiz-adv-x="778" 
d="M389 736q76 1 140 -27t110.5 -78t72.5 -119t25 -150q1 -81 -25 -149.5t-72.5 -119t-111 -78.5t-140.5 -27q-77 0 -140.5 28t-109.5 77.5t-71 118.5t-25 150q-1 81 24.5 150t72 119t110.5 78t140 27zM389 84q54 0 99 20t77.5 56.5t50 87.5t17.5 114t-17.5 114t-49.5 87.5
t-77 56.5t-100 20t-100 -20t-77 -56.5t-49.5 -87.5t-17.5 -114t17.5 -114t49.5 -87.5t77 -56.5t100 -20zM533 854v-67h-288v67h288z" />
    <glyph glyph-name="omacron" unicode="&#x14d;" horiz-adv-x="577" 
d="M289 502q56 0 102 -19.5t79 -54t51 -81.5t18 -102t-18 -102t-51 -81.5t-79 -54t-102 -19.5t-102 19.5t-79 54t-51.5 81.5t-18.5 102t18.5 102t51.5 81.5t79 54t102 19.5zM289 73q35 0 63.5 12.5t48.5 35.5t31 54.5t11 69.5t-11 69.5t-31 54.5t-48.5 36t-63.5 13
t-63.5 -13t-49 -36t-31.5 -54.5t-11 -69.5t11 -69.5t31.5 -54.5t49 -35.5t63.5 -12.5zM433 624v-67h-288v67h288z" />
    <glyph glyph-name="Ohungarumlaut" unicode="&#x150;" horiz-adv-x="778" 
d="M389 736q76 1 140 -27t110.5 -78t72.5 -119t25 -150q1 -81 -25 -149.5t-72.5 -119t-111 -78.5t-140.5 -27q-77 0 -140.5 28t-109.5 77.5t-71 118.5t-25 150q-1 81 24.5 150t72 119t110.5 78t140 27zM389 84q54 0 99 20t77.5 56.5t50 87.5t17.5 114t-17.5 114t-49.5 87.5
t-77 56.5t-100 20t-100 -20t-77 -56.5t-49.5 -87.5t-17.5 -114t17.5 -114t49.5 -87.5t77 -56.5t100 -20zM289 783l71 141h96l-91 -141h-76zM418 783l87 141h96l-107 -141h-76z" />
    <glyph glyph-name="ohungarumlaut" unicode="&#x151;" horiz-adv-x="577" 
d="M289 502q56 0 102 -19.5t79 -54t51 -81.5t18 -102t-18 -102t-51 -81.5t-79 -54t-102 -19.5t-102 19.5t-79 54t-51.5 81.5t-18.5 102t18.5 102t51.5 81.5t79 54t102 19.5zM289 73q35 0 63.5 12.5t48.5 35.5t31 54.5t11 69.5t-11 69.5t-31 54.5t-48.5 36t-63.5 13
t-63.5 -13t-49 -36t-31.5 -54.5t-11 -69.5t11 -69.5t31.5 -54.5t49 -35.5t63.5 -12.5zM186 553l71 141h96l-91 -141h-76zM315 553l87 141h96l-107 -141h-76z" />
    <glyph glyph-name="OE" unicode="&#x152;" horiz-adv-x="1142" 
d="M741 629v-220h309v-90h-309v-226h342v-93h-440v115q-31 -58 -102 -93q-70 -35 -152 -35q-76 -1 -141 27.5t-111.5 79t-72.5 119.5t-25 150q-1 80 25 148.5t73 119t112 79t141 27.5q78 0 146.5 -32.5t106.5 -86.5v105h440v-94h-342zM642 363q0 63 -18.5 114.5t-52 88
t-79.5 56.5t-100 20t-100 -20t-79.5 -57t-52.5 -88t-19 -113q0 -63 19 -115t52.5 -88.5t80 -57t100.5 -20.5t99.5 20t78.5 56.5t52 88.5t19 115z" />
    <glyph glyph-name="oe" unicode="&#x153;" horiz-adv-x="958" 
d="M919 203h-380q8 -66 48.5 -99.5t98.5 -33.5q49 0 85 22.5t56 61.5l73 -37q-29 -60 -86 -94.5t-132 -34.5q-67 0 -119 29.5t-79 80.5q-27 -51 -80 -80.5t-119 -29.5q-54 0 -99.5 19.5t-78 54t-50.5 81.5t-18 102t18 102t50.5 81.5t78 54t99.5 19.5q69 0 121 -29t80 -80
q27 52 79 81t119 29q53 0 96 -18t74 -52t48 -81.5t17 -106.5v-42zM824 274q-1 69 -40 109.5t-102 40.5t-102 -41.5t-42 -108.5h286zM444 245q0 38 -11 69.5t-31.5 54.5t-48.5 36t-63 13t-63.5 -13t-49 -36t-31.5 -54.5t-11 -69.5t11 -69.5t31.5 -54.5t49 -35.5t63.5 -12.5
t63 12.5t48.5 35.5t31.5 54.5t11 69.5z" />
    <glyph glyph-name="Racute" unicode="&#x154;" horiz-adv-x="659" 
d="M613 0h-111l-129 287h-188v-287h-98v723h277q120 0 184 -57t64 -160q0 -78 -37 -131t-103 -73zM508 505q0 60 -37.5 94.5t-106.5 34.5h-179v-259h179q72 0 108 35t36 95zM256 777l71 141h96l-91 -141h-76z" />
    <glyph glyph-name="racute" unicode="&#x155;" horiz-adv-x="371" 
d="M294 495q27 0 54 -6v-87q-28 6 -53 6q-63 0 -98 -39t-35 -108v-261h-95v488h88l5 -60q15 33 51.5 50t82.5 17zM73 551l71 141h96l-91 -141h-76z" />
    <glyph glyph-name="Rcommaaccent" unicode="&#x156;" horiz-adv-x="659" 
d="M613 0h-111l-129 287h-188v-287h-98v723h277q120 0 184 -57t64 -160q0 -78 -37 -131t-103 -73zM508 505q0 60 -37.5 94.5t-106.5 34.5h-179v-259h179q72 0 108 35t36 95zM404 -103q0 -23 -8 -42.5t-21.5 -33.5t-31 -22t-35.5 -7v29q19 0 33.5 14.5t14.5 33.5
q-7 -4 -18 -4q-20 0 -33.5 13t-13.5 36q0 25 15 40t38 15q25 0 42.5 -18.5t17.5 -53.5z" />
    <glyph glyph-name="rcommaaccent" unicode="&#x157;" horiz-adv-x="371" 
d="M294 495q27 0 54 -6v-87q-28 6 -53 6q-63 0 -98 -39t-35 -108v-261h-95v488h88l5 -60q15 33 51.5 50t82.5 17zM174 -103q0 -23 -8 -42.5t-21.5 -33.5t-31 -22t-35.5 -7v29q19 0 33.5 14.5t14.5 33.5q-7 -4 -18 -4q-20 0 -33.5 13t-13.5 36q0 25 15 40t38 15
q25 0 42.5 -18.5t17.5 -53.5z" />
    <glyph glyph-name="Rcaron" unicode="&#x158;" horiz-adv-x="659" 
d="M613 0h-111l-129 287h-188v-287h-98v723h277q120 0 184 -57t64 -160q0 -78 -37 -131t-103 -73zM508 505q0 60 -37.5 94.5t-106.5 34.5h-179v-259h179q72 0 108 35t36 95zM430 919l-83 -142h-86h-19l-83 142h82l54 -88l54 88h81z" />
    <glyph glyph-name="rcaron" unicode="&#x159;" horiz-adv-x="371" 
d="M294 495q27 0 54 -6v-87q-28 6 -53 6q-63 0 -98 -39t-35 -108v-261h-95v488h88l5 -60q15 33 51.5 50t82.5 17zM246 693l-83 -142h-86h-19l-83 142h82l54 -88l54 88h81z" />
    <glyph glyph-name="Sacute" unicode="&#x15a;" horiz-adv-x="587" 
d="M292 736q100 0 163 -48t77 -126l-93 -25q-10 52 -50 80.5t-100 28.5q-64 0 -102.5 -31.5t-38.5 -83.5q0 -82 100 -107l121 -30q90 -23 134 -73.5t44 -122.5q0 -46 -17.5 -85t-50 -66.5t-79 -43t-104.5 -15.5q-105 0 -173.5 47t-82.5 132l94 25q8 -54 51.5 -83.5
t112.5 -29.5q70 0 110.5 30t40.5 84q0 84 -100 108l-120 30q-91 22 -134.5 73.5t-43.5 123.5q0 47 17.5 85t49 65.5t76 42.5t98.5 15zM255 777l71 141h96l-91 -141h-76z" />
    <glyph glyph-name="sacute" unicode="&#x15b;" horiz-adv-x="452" 
d="M225 65q40 0 67 16.5t27 52.5q0 47 -63 65l-72 19q-133 34 -133 139q0 31 12 57.5t34.5 46t55 31t72.5 11.5q72 0 120.5 -33t57.5 -91l-84 -19q-4 30 -29 47.5t-62 17.5q-39 0 -62 -19t-23 -49q0 -48 68 -66l71 -19q64 -17 97.5 -52t33.5 -86q0 -67 -49.5 -106.5
t-137.5 -39.5q-81 0 -130.5 35t-57.5 95l86 16q4 -32 30 -50.5t71 -18.5zM189 564l71 141h96l-91 -141h-76z" />
    <glyph glyph-name="Scircumflex" unicode="&#x15c;" horiz-adv-x="587" 
d="M292 736q100 0 163 -48t77 -126l-93 -25q-10 52 -50 80.5t-100 28.5q-64 0 -102.5 -31.5t-38.5 -83.5q0 -82 100 -107l121 -30q90 -23 134 -73.5t44 -122.5q0 -46 -17.5 -85t-50 -66.5t-79 -43t-104.5 -15.5q-105 0 -173.5 47t-82.5 132l94 25q8 -54 51.5 -83.5
t112.5 -29.5q70 0 110.5 30t40.5 84q0 84 -100 108l-120 30q-91 22 -134.5 73.5t-43.5 123.5q0 47 17.5 85t49 65.5t76 42.5t98.5 15zM347 777l-53 87l-54 -87h-82l83 142h86h19l83 -142h-82z" />
    <glyph glyph-name="scircumflex" unicode="&#x15d;" horiz-adv-x="452" 
d="M225 65q40 0 67 16.5t27 52.5q0 47 -63 65l-72 19q-133 34 -133 139q0 31 12 57.5t34.5 46t55 31t72.5 11.5q72 0 120.5 -33t57.5 -91l-84 -19q-4 30 -29 47.5t-62 17.5q-39 0 -62 -19t-23 -49q0 -48 68 -66l71 -19q64 -17 97.5 -52t33.5 -86q0 -67 -49.5 -106.5
t-137.5 -39.5q-81 0 -130.5 35t-57.5 95l86 16q4 -32 30 -50.5t71 -18.5zM281 564l-53 87l-54 -87h-82l83 142h86h19l83 -142h-82z" />
    <glyph glyph-name="Scedilla" unicode="&#x15e;" horiz-adv-x="587" 
d="M320 -12l-20 -21h36q33 0 51 -21.5t18 -52.5t-19 -51.5t-49 -20.5h-101v51h84q11 0 18.5 6.5t7.5 17.5q-2 23 -26 23h-84v48l20 23q-88 8 -145.5 54.5t-70.5 122.5l94 25q8 -54 51.5 -83.5t112.5 -29.5q70 0 110.5 30t40.5 84q0 84 -100 108l-120 30q-91 22 -134.5 73.5
t-43.5 123.5q0 47 17.5 85t49 65.5t76 42.5t98.5 15q100 0 163 -48t77 -126l-93 -25q-10 52 -50 80.5t-100 28.5q-64 0 -102.5 -31.5t-38.5 -83.5q0 -82 100 -107l121 -30q90 -23 134 -73.5t44 -122.5q0 -89 -61 -146q-61 -56 -166 -64z" />
    <glyph glyph-name="scedilla" unicode="&#x15f;" horiz-adv-x="452" 
d="M253 -11l-24 -25h36q33 0 51 -21.5t18 -52.5t-19 -51.5t-49 -20.5h-101v51h84q11 0 18.5 6.5t7.5 17.5q-2 23 -26 23h-84v48l23 26q-64 8 -103 42.5t-47 85.5l86 16q4 -32 30 -50.5t71 -18.5q40 0 67 16.5t27 52.5q0 47 -63 65l-72 19q-133 34 -133 139q0 31 12 57.5
t34.5 46t55 31t72.5 11.5q72 0 120.5 -33t57.5 -91l-84 -19q-4 30 -29 47.5t-62 17.5q-39 0 -62 -19t-23 -49q0 -48 68 -66l71 -19q64 -17 97.5 -52t33.5 -86q0 -61 -42 -100t-118 -45z" />
    <glyph glyph-name="Scaron" unicode="&#x160;" horiz-adv-x="587" 
d="M292 736q100 0 163 -48t77 -126l-93 -25q-10 52 -50 80.5t-100 28.5q-64 0 -102.5 -31.5t-38.5 -83.5q0 -82 100 -107l121 -30q90 -23 134 -73.5t44 -122.5q0 -46 -17.5 -85t-50 -66.5t-79 -43t-104.5 -15.5q-105 0 -173.5 47t-82.5 132l94 25q8 -54 51.5 -83.5
t112.5 -29.5q70 0 110.5 30t40.5 84q0 84 -100 108l-120 30q-91 22 -134.5 73.5t-43.5 123.5q0 47 17.5 85t49 65.5t76 42.5t98.5 15zM429 919l-83 -142h-86h-19l-83 142h82l54 -88l54 88h81z" />
    <glyph glyph-name="scaron" unicode="&#x161;" horiz-adv-x="452" 
d="M225 65q40 0 67 16.5t27 52.5q0 47 -63 65l-72 19q-133 34 -133 139q0 31 12 57.5t34.5 46t55 31t72.5 11.5q72 0 120.5 -33t57.5 -91l-84 -19q-4 30 -29 47.5t-62 17.5q-39 0 -62 -19t-23 -49q0 -48 68 -66l71 -19q64 -17 97.5 -52t33.5 -86q0 -67 -49.5 -106.5
t-137.5 -39.5q-81 0 -130.5 35t-57.5 95l86 16q4 -32 30 -50.5t71 -18.5zM362 706l-83 -142h-86h-19l-83 142h82l54 -88l54 88h81z" />
    <glyph glyph-name="uni0162" unicode="&#x162;" horiz-adv-x="559" 
d="M542 630h-213v-630h-98v630h-215v93h526v-93zM221 -125h84q11 0 18.5 6.5t7.5 17.5q-2 23 -26 23h-84v48l50 55h39v-29l-25 -26h36q33 0 51 -21.5t18 -52.5t-19 -51.5t-49 -20.5h-101v51z" />
    <glyph glyph-name="uni0163" unicode="&#x163;" horiz-adv-x="326" 
d="M305 411h-95v-411h-93v411h-96v78h96v153h93v-153h95v-78zM104 -123h84q11 0 18.5 6.5t7.5 17.5q-2 23 -26 23h-84v48l50 55h39v-29l-25 -26h36q33 0 51 -21.5t18 -52.5t-19 -51.5t-49 -20.5h-101v51z" />
    <glyph glyph-name="Tcaron" unicode="&#x164;" horiz-adv-x="559" 
d="M542 630h-213v-630h-98v630h-215v93h526v-93zM415 919l-83 -142h-86h-19l-83 142h82l54 -88l54 88h81z" />
    <glyph glyph-name="tcaron" unicode="&#x165;" horiz-adv-x="329" 
d="M304 542h-47l-17 157q-2 22 10.5 34.5t30.5 12.5q17 0 29 -12.5t10 -34.5zM205 489h96v-82h-96v-407h-93v407h-96v82h96v153h93v-153z" />
    <glyph glyph-name="Tbar" unicode="&#x166;" horiz-adv-x="559" 
d="M329 630v-196h148v-86h-148v-348h-98v348h-148v86h148v196h-215v93h526v-93h-213z" />
    <glyph glyph-name="tbar" unicode="&#x167;" horiz-adv-x="326" 
d="M210 411v-90h84v-74h-84v-247h-93v247h-94v74h94v90h-96v78h96v153h93v-153h95v-78h-95z" />
    <glyph glyph-name="Utilde" unicode="&#x168;" horiz-adv-x="719" 
d="M78 723h100v-467q0 -89 53 -133q53 -42 129 -42q77 0 129 45q53 45 53 130v467h99v-469q0 -66 -22.5 -115.5t-61 -83.5t-89.5 -51t-108 -17q-55 0 -106 16.5t-90 49.5t-62.5 83.5t-23.5 117.5v469zM201 821q0 48 24.5 73.5t61.5 25.5q20 0 37.5 -7t38.5 -19
q20 -11 32.5 -16t25.5 -5q35 0 32 44h65q1 -4 1 -18q0 -48 -25.5 -74t-64.5 -26q-22 0 -39.5 7t-43.5 20q-16 9 -27 14t-21 5q-32 0 -31 -46h-65q-1 4 -1 9.5v12.5z" />
    <glyph glyph-name="utilde" unicode="&#x169;" horiz-adv-x="586" 
d="M426 0q-4 16 -5.5 31.5t-2.5 32.5q-22 -36 -62.5 -56t-91.5 -20q-81 0 -140 48q-57 48 -57 157v296h95v-280q0 -74 36 -106q35 -31 85 -31q57 0 95 36.5t38 105.5v275h94v-399q0 -21 3 -47.5t7 -42.5h-94zM129 591q0 48 24.5 73.5t61.5 25.5q20 0 37.5 -7t38.5 -19
q20 -11 32.5 -16t25.5 -5q35 0 32 44h65q1 -4 1 -18q0 -48 -25.5 -74t-64.5 -26q-22 0 -39.5 7t-43.5 20q-16 9 -27 14t-21 5q-32 0 -31 -46h-65q-1 4 -1 9.5v12.5z" />
    <glyph glyph-name="Umacron" unicode="&#x16a;" horiz-adv-x="719" 
d="M78 723h100v-467q0 -89 53 -133q53 -42 129 -42q77 0 129 45q53 45 53 130v467h99v-469q0 -66 -22.5 -115.5t-61 -83.5t-89.5 -51t-108 -17q-55 0 -106 16.5t-90 49.5t-62.5 83.5t-23.5 117.5v469zM504 854v-67h-288v67h288z" />
    <glyph glyph-name="umacron" unicode="&#x16b;" horiz-adv-x="586" 
d="M426 0q-4 16 -5.5 31.5t-2.5 32.5q-22 -36 -62.5 -56t-91.5 -20q-81 0 -140 48q-57 48 -57 157v296h95v-280q0 -74 36 -106q35 -31 85 -31q57 0 95 36.5t38 105.5v275h94v-399q0 -21 3 -47.5t7 -42.5h-94zM432 624v-67h-288v67h288z" />
    <glyph glyph-name="Uring" unicode="&#x16e;" horiz-adv-x="719" 
d="M78 723h100v-467q0 -89 53 -133q53 -42 129 -42q77 0 129 45q53 45 53 130v467h99v-469q0 -66 -22.5 -115.5t-61 -83.5t-89.5 -51t-108 -17q-55 0 -106 16.5t-90 49.5t-62.5 83.5t-23.5 117.5v469zM243 886q0 49 34 83q35 35 82 35q24 0 45 -9.5t37 -26t25.5 -38
t9.5 -44.5q0 -48 -35 -83q-34 -34 -82 -34q-24 0 -45.5 9t-37 25t-24.5 37.5t-9 45.5zM416 888q0 23 -16 39.5t-40 16.5t-40 -16.5t-16 -39.5q0 -25 16 -41.5t40 -16.5t40 16.5t16 41.5z" />
    <glyph glyph-name="uring" unicode="&#x16f;" horiz-adv-x="586" 
d="M426 0q-4 16 -5.5 31.5t-2.5 32.5q-22 -36 -62.5 -56t-91.5 -20q-81 0 -140 48q-57 48 -57 157v296h95v-280q0 -74 36 -106q35 -31 85 -31q57 0 95 36.5t38 105.5v275h94v-399q0 -21 3 -47.5t7 -42.5h-94zM172 656q0 49 34 83q35 35 82 35q24 0 45 -9.5t37 -26t25.5 -38
t9.5 -44.5q0 -48 -35 -83q-34 -34 -82 -34q-24 0 -45.5 9t-37 25t-24.5 37.5t-9 45.5zM345 658q0 23 -16 39.5t-40 16.5t-40 -16.5t-16 -39.5q0 -25 16 -41.5t40 -16.5t40 16.5t16 41.5z" />
    <glyph glyph-name="Uhungarumlaut" unicode="&#x170;" horiz-adv-x="719" 
d="M78 723h100v-467q0 -89 53 -133q53 -42 129 -42q77 0 129 45q53 45 53 130v467h99v-469q0 -66 -22.5 -115.5t-61 -83.5t-89.5 -51t-108 -17q-55 0 -106 16.5t-90 49.5t-62.5 83.5t-23.5 117.5v469zM257 777l71 141h96l-91 -141h-76zM386 777l87 141h96l-107 -141h-76z
" />
    <glyph glyph-name="uhungarumlaut" unicode="&#x171;" horiz-adv-x="586" 
d="M426 0q-4 16 -5.5 31.5t-2.5 32.5q-22 -36 -62.5 -56t-91.5 -20q-81 0 -140 48q-57 48 -57 157v296h95v-280q0 -74 36 -106q35 -31 85 -31q57 0 95 36.5t38 105.5v275h94v-399q0 -21 3 -47.5t7 -42.5h-94zM185 547l71 141h96l-91 -141h-76zM314 547l87 141h96l-107 -141
h-76z" />
    <glyph glyph-name="Uogonek" unicode="&#x172;" horiz-adv-x="719" 
d="M641 723v-469q0 -60 -19 -107t-51.5 -80.5t-76.5 -53t-95 -24.5q-24 -13 -36 -29t-12 -31t10 -25t26 -10q13 0 22 4v-69q-21 -7 -43 -7q-39 0 -62 24t-23 57q0 25 13.5 48t40.5 37q-52 4 -98.5 22t-81.5 51t-56 81t-21 112v469h100v-467q0 -89 53 -133q53 -42 129 -42
q77 0 129 45q53 45 53 130v467h99z" />
    <glyph glyph-name="uogonek" unicode="&#x173;" horiz-adv-x="586" 
d="M458 -67q0 -15 10 -24.5t27 -9.5q12 0 21 4v-69q-21 -7 -43 -7q-39 0 -62.5 24t-23.5 57q0 28 18.5 53.5t52.5 38.5h-32q-4 16 -5.5 31.5t-2.5 32.5q-22 -36 -62.5 -56t-91.5 -20q-81 0 -140 48q-57 48 -57 157v296h95v-280q0 -74 36 -106q35 -31 85 -31q57 0 95 36.5
t38 105.5v275h94v-399q0 -21 3 -47.5t7 -42.5h-1q-31 -13 -46 -31t-15 -36z" />
    <glyph glyph-name="Wcircumflex" unicode="&#x174;" horiz-adv-x="1006" 
d="M991 723l-218 -723h-95l-174 554l-177 -554h-96l-215 723h106l159 -559l169 559h108l167 -561l162 561h104zM558 777l-53 87l-54 -87h-82l83 142h86h19l83 -142h-82z" />
    <glyph glyph-name="wcircumflex" unicode="&#x175;" horiz-adv-x="778" 
d="M762 489l-168 -489h-90l-115 349l-117 -349h-93l-163 489h101l110 -353l114 353h97l112 -356l113 356h99zM444 546l-53 87l-54 -87h-82l83 142h86h19l83 -142h-82z" />
    <glyph glyph-name="Ycircumflex" unicode="&#x176;" horiz-adv-x="608" 
d="M121 723l185 -332l185 332h108l-244 -427v-296h-99v296l-246 427h111zM359 777l-53 87l-54 -87h-82l83 142h86h19l83 -142h-82z" />
    <glyph glyph-name="ycircumflex" unicode="&#x177;" horiz-adv-x="522" 
d="M509 489l-227 -601q-24 -63 -64 -91t-89 -28q-48 0 -101 25l26 86q35 -25 70 -25q25 0 45.5 15t32.5 48l19 53l-208 518h99l153 -398l146 398h98zM315 547l-53 87l-54 -87h-82l83 142h86h19l83 -142h-82z" />
    <glyph glyph-name="Ydieresis" unicode="&#x178;" horiz-adv-x="608" 
d="M121 723l185 -332l185 332h108l-244 -427v-296h-99v296l-246 427h111zM146 845q0 28 19.5 47.5t46.5 19.5q26 0 46 -20t20 -47q0 -26 -19.5 -45.5t-46.5 -19.5t-46.5 19.5t-19.5 45.5zM334 845q0 28 19 47.5t47 19.5q26 0 46 -20t20 -47q0 -26 -20 -45.5t-46 -19.5
q-27 0 -46.5 19.5t-19.5 45.5z" />
    <glyph glyph-name="Zacute" unicode="&#x179;" horiz-adv-x="570" 
d="M529 629l-376 -535h371v-94h-480l-1 94l375 535l-374 -1v95h485v-94zM249 777l71 141h96l-91 -141h-76z" />
    <glyph glyph-name="zacute" unicode="&#x17a;" horiz-adv-x="456" 
d="M38 86l265 320h-265v83h380v-86l-268 -319h268v-84h-380v86zM190 547l71 141h96l-91 -141h-76z" />
    <glyph glyph-name="Zdotaccent" unicode="&#x17b;" horiz-adv-x="570" 
d="M529 629l-376 -535h371v-94h-480l-1 94l375 535l-374 -1v95h485v-94zM221 846q0 27 19.5 46.5t45.5 19.5q27 0 46.5 -20t19.5 -46q0 -27 -19.5 -46.5t-46.5 -19.5t-46 19.5t-19 46.5z" />
    <glyph glyph-name="zdotaccent" unicode="&#x17c;" horiz-adv-x="456" 
d="M38 86l265 320h-265v83h380v-86l-268 -319h268v-84h-380v86zM162 616q0 27 19.5 46.5t45.5 19.5q27 0 46.5 -20t19.5 -46q0 -27 -19.5 -46.5t-46.5 -19.5t-46 19.5t-19 46.5z" />
    <glyph glyph-name="Zcaron" unicode="&#x17d;" horiz-adv-x="570" 
d="M529 629l-376 -535h371v-94h-480l-1 94l375 535l-374 -1v95h485v-94zM422 919l-83 -142h-86h-19l-83 142h82l54 -88l54 88h81z" />
    <glyph glyph-name="zcaron" unicode="&#x17e;" horiz-adv-x="456" 
d="M38 86l265 320h-265v83h380v-86l-268 -319h268v-84h-380v86zM363 689l-83 -142h-86h-19l-83 142h82l54 -88l54 88h81z" />
    <glyph glyph-name="florin" unicode="&#x192;" horiz-adv-x="551" 
d="M346 488h140v-80h-151l-5 -34l-57 -393q-8 -63 -48.5 -98t-106.5 -35h-58v88h59q25 0 41 13.5t20 38.5l52 361l8 59h-123v80h135l13 96q9 66 51 105.5t111 39.5h63v-88h-71q-52 0 -59 -57z" />
    <glyph glyph-name="Aringacute" unicode="&#x1fa;" horiz-adv-x="661" 
d="M375 921h-76l71 142h96zM482 180h-304l-65 -180h-101l251 689q-22 16 -35 41.5t-13 54.5q0 49 34 83q35 35 82 35q24 0 45 -9.5t37 -26t25.5 -38t9.5 -44.5q0 -30 -13.5 -55t-37.5 -41l252 -689h-104zM276 787q0 -25 16 -41.5t40 -16.5t40 16.5t16 41.5q0 23 -16 39
t-40 16t-40 -16t-16 -39zM452 263l-120 342l-124 -342h244z" />
    <glyph glyph-name="aringacute" unicode="&#x1fb;" horiz-adv-x="527" 
d="M310 697h-74l69 132h94zM384 0q-2 11 -4 27.5t-4 38.5q-21 -35 -63.5 -56.5t-97.5 -21.5q-81 0 -129.5 41.5t-48.5 113.5t48.5 113t130.5 41h158v20q0 57 -31 82.5t-85 25.5q-96 0 -134 -78l-70 41q40 78 124 103q-22 29 -22 70q0 49 34 83q35 35 82 35q24 0 45 -9.5
t36.5 -26t25 -38t9.5 -44.5q0 -43 -27 -75q105 -42 105 -177v-208q0 -30 2.5 -59t6.5 -42h-91zM216 563q0 -25 16 -41.5t40 -16.5t40.5 16.5t16.5 41.5q0 23 -16.5 39t-40.5 16t-40 -16t-16 -39zM375 228h-138q-51 0 -78 -22.5t-27 -61.5q0 -40 28 -61.5t76 -21.5
q63 0 101 39.5t38 114.5v13z" />
    <glyph glyph-name="AEacute" unicode="&#x1fc;" horiz-adv-x="910" 
d="M851 0h-347h-93v195h-220l-73 -195h-108l279 722h100h22h93h348l-1 -94l-347 1v-220h314l-1 -91l-313 1v-226h348zM411 279v350h-57l-131 -350h188zM515 777l71 141h96l-91 -141h-76z" />
    <glyph glyph-name="aeacute" unicode="&#x1fd;" horiz-adv-x="897" 
d="M857 210h-386q7 -67 48 -103.5t102 -36.5q49 0 86 22.5t58 61.5l72 -37q-30 -63 -88 -96t-131 -33q-66 0 -115.5 27.5t-76.5 76.5q-23 -51 -72 -77.5t-115 -26.5q-41 0 -75.5 10.5t-60 30t-39.5 47.5t-14 64q0 66 42 104.5t108 38.5h135q21 0 29 9t8 27q0 52 -32.5 78
t-80.5 26q-43 0 -78 -21t-55 -58l-70 40q31 55 85.5 87t117.5 32q60 0 105.5 -25t66.5 -70q29 45 78 70t110 25q54 0 97.5 -18t75 -50.5t48.5 -78t17 -100.5v-46zM761 280q-1 66 -41.5 105t-103.5 39q-61 0 -100 -38.5t-46 -105.5h291zM375 213h-151q-37 0 -58 -20.5
t-21 -52.5q0 -39 29 -58t74 -19q64 0 94.5 36.5t32.5 94.5v19zM406 547l71 141h96l-91 -141h-76z" />
    <glyph glyph-name="Oslashacute" unicode="&#x1fe;" horiz-adv-x="775" 
d="M726 363q1 -81 -25 -150t-72.5 -119.5t-110.5 -78.5t-140 -27q-80 0 -150 32l-18 -30h-99l47 74q-61 51 -94 127.5t-33 170.5q-1 81 24.5 150t72 119t110.5 78t140 27q94 0 170 -42l25 40h95l-54 -88q54 -51 83 -123t29 -160zM497 611q-53 29 -118 29q-55 0 -100 -20
t-77.5 -56.5t-50 -87.5t-17.5 -113q0 -67 20 -121.5t57 -91.5zM623 363q0 60 -16.5 110t-46.5 86l-280 -455q47 -19 99 -19q54 0 99 20t77.5 56.5t50 87.5t17.5 114zM342 770l71 141h96l-91 -141h-76z" />
    <glyph glyph-name="oslashacute" unicode="&#x1ff;" horiz-adv-x="577" 
d="M539 245q0 -55 -18 -102t-51 -81.5t-79 -54t-102 -19.5q-57 0 -102 19l-35 -57h-86l59 95q-42 35 -64.5 86t-22.5 114q0 55 18.5 102t51.5 81.5t79 54t102 19.5q59 0 107 -21l31 50h83l-54 -88q39 -36 61 -87t22 -111zM349 406q-31 12 -60 12q-35 0 -63.5 -13t-49 -36
t-31.5 -54.5t-11 -69.5q0 -36 10.5 -67.5t29.5 -53.5zM443 245q0 71 -37 118l-173 -281q26 -9 56 -9q35 0 63.5 12.5t48.5 35.5t31 54.5t11 69.5zM250 547l71 141h96l-91 -141h-76z" />
    <glyph glyph-name="Scommaaccent" unicode="&#x218;" horiz-adv-x="587" 
d="M292 736q100 0 163 -48t77 -126l-93 -25q-10 52 -50 80.5t-100 28.5q-64 0 -102.5 -31.5t-38.5 -83.5q0 -82 100 -107l121 -30q90 -23 134 -73.5t44 -122.5q0 -46 -17.5 -85t-50 -66.5t-79 -43t-104.5 -15.5q-105 0 -173.5 47t-82.5 132l94 25q8 -54 51.5 -83.5
t112.5 -29.5q70 0 110.5 30t40.5 84q0 84 -100 108l-120 30q-91 22 -134.5 73.5t-43.5 123.5q0 47 17.5 85t49 65.5t76 42.5t98.5 15zM353 -106q0 -23 -8 -42.5t-21.5 -33.5t-31 -22t-35.5 -7v29q19 0 33.5 14.5t14.5 33.5q-7 -4 -18 -4q-20 0 -33.5 13t-13.5 36q0 25 15 40
t38 15q25 0 42.5 -18.5t17.5 -53.5z" />
    <glyph glyph-name="scommaaccent" unicode="&#x219;" horiz-adv-x="452" 
d="M225 65q40 0 67 16.5t27 52.5q0 47 -63 65l-72 19q-133 34 -133 139q0 31 12 57.5t34.5 46t55 31t72.5 11.5q72 0 120.5 -33t57.5 -91l-84 -19q-4 30 -29 47.5t-62 17.5q-39 0 -62 -19t-23 -49q0 -48 68 -66l71 -19q64 -17 97.5 -52t33.5 -86q0 -67 -49.5 -106.5
t-137.5 -39.5q-81 0 -130.5 35t-57.5 95l86 16q4 -32 30 -50.5t71 -18.5zM282 -108q0 -23 -8 -42.5t-21.5 -33.5t-31 -22t-35.5 -7v29q19 0 33.5 14.5t14.5 33.5q-7 -4 -18 -4q-20 0 -33.5 13t-13.5 36q0 25 15 40t38 15q25 0 42.5 -18.5t17.5 -53.5z" />
    <glyph glyph-name="uni021A" unicode="&#x21a;" horiz-adv-x="559" 
d="M542 630h-213v-630h-98v630h-215v93h526v-93zM338 -103q0 -23 -8 -42.5t-21.5 -33.5t-31 -22t-35.5 -7v29q19 0 33.5 14.5t14.5 33.5q-7 -4 -18 -4q-20 0 -33.5 13t-13.5 36q0 25 15 40t38 15q25 0 42.5 -18.5t17.5 -53.5z" />
    <glyph glyph-name="uni021B" unicode="&#x21b;" horiz-adv-x="326" 
d="M305 411h-95v-411h-93v411h-96v78h96v153h93v-153h95v-78zM221 -101q0 -23 -8 -42.5t-21.5 -33.5t-31 -22t-35.5 -7v29q19 0 33.5 14.5t14.5 33.5q-7 -4 -18 -4q-20 0 -33.5 13t-13.5 36q0 25 15 40t38 15q25 0 42.5 -18.5t17.5 -53.5z" />
    <glyph glyph-name="uni0237" unicode="&#x237;" horiz-adv-x="251" 
d="M-29 -135q26 -8 49 -8q36 0 54.5 21t18.5 60l-1 550h96v-561q0 -72 -39.5 -115.5t-111.5 -43.5q-35 0 -85 14z" />
    <glyph glyph-name="circumflex" unicode="&#x2c6;" horiz-adv-x="340" 
d="M229 768l-53 87l-54 -87h-82l83 142h86h19l83 -142h-82z" />
    <glyph glyph-name="caron" unicode="&#x2c7;" horiz-adv-x="338" 
d="M294 910l-83 -142h-86h-19l-83 142h82l54 -88l54 88h81z" />
    <glyph glyph-name="breve" unicode="&#x2d8;" horiz-adv-x="353" 
d="M177 768q-31 0 -59 11t-48 30t-32 44.5t-12 54.5h78q1 -30 21 -47t52 -17q31 0 51 17t21 47h78q0 -29 -12 -54.5t-32.5 -44.5t-47.5 -30t-58 -11z" />
    <glyph glyph-name="dotaccent" unicode="&#x2d9;" horiz-adv-x="172" 
d="M20 836q0 28 19.5 47.5t46.5 19.5q26 0 46 -20t20 -47q0 -26 -19.5 -45.5t-46.5 -19.5t-46.5 19.5t-19.5 45.5z" />
    <glyph glyph-name="ring" unicode="&#x2da;" horiz-adv-x="268" 
d="M16 877q0 24 9.5 45t25.5 37.5t37 26t43 9.5q24 0 45.5 -9.5t37.5 -26t25 -38t9 -44.5q0 -49 -34 -83t-83 -34q-48 0 -82 34q-33 35 -33 83zM188 879q0 23 -16 39.5t-40 16.5t-40 -16.5t-16 -39.5q0 -25 16 -41.5t40 -16.5t40 16.5t16 41.5z" />
    <glyph glyph-name="ogonek" unicode="&#x2db;" horiz-adv-x="363" 
d="M240 0q-31 -13 -46 -31t-15 -36q0 -15 10 -24.5t27 -9.5q12 0 21 4v-69q-21 -7 -43 -7q-39 0 -62.5 24t-23.5 57q0 28 18.5 53.5t52.5 38.5h61z" />
    <glyph glyph-name="tilde" unicode="&#x2dc;" horiz-adv-x="365" 
d="M22 812q0 48 24.5 73.5t61.5 25.5q20 0 37.5 -7t38.5 -19q20 -11 32.5 -16t25.5 -5q35 0 32 44h65q1 -4 1 -18q0 -48 -25.5 -74t-64.5 -26q-22 0 -39.5 7t-43.5 20q-16 9 -27 14t-21 5q-32 0 -31 -46h-65q-1 4 -1 9.5v12.5z" />
    <glyph glyph-name="hungarumlaut" unicode="&#x2dd;" horiz-adv-x="378" 
d="M29 768l71 141h96l-91 -141h-76zM158 768l87 141h96l-107 -141h-76z" />
    <glyph glyph-name="gravecomb" unicode="&#x300;" 
d="M-222 910h95l71 -142h-76z" />
    <glyph glyph-name="acutecomb" unicode="&#x301;" 
d="M-189 768l71 141h96l-91 -141h-76z" />
    <glyph glyph-name="uni0302" unicode="&#x302;" 
d="M-122 768l-53 87l-54 -87h-82l83 142h86h19l83 -142h-82z" />
    <glyph glyph-name="tildecomb" unicode="&#x303;" 
d="M-340 812q0 48 24.5 73.5t61.5 25.5q20 0 37.5 -7t38.5 -19q20 -11 32.5 -16t25.5 -5q35 0 32 44h65q1 -4 1 -18q0 -48 -25.5 -74t-64.5 -26q-22 0 -39.5 7t-43.5 20q-16 9 -27 14t-21 5q-32 0 -31 -46h-65q-1 4 -1 9.5v12.5z" />
    <glyph glyph-name="uni0304" unicode="&#x304;" 
d="M-26 890v-67h-288v67h288z" />
    <glyph glyph-name="uni0306" unicode="&#x306;" 
d="M-25 911q0 -30 -12 -56t-32 -45.5t-47.5 -30.5t-58.5 -11q-32 0 -59.5 11t-47.5 30.5t-32 45.5t-12 56h78q0 -31 20.5 -49t52.5 -18t52 18t20 49h78z" />
    <glyph glyph-name="uni0307" unicode="&#x307;" 
d="M-240 837q0 27 19.5 46.5t45.5 19.5q27 0 46.5 -20t19.5 -46q0 -27 -19.5 -46.5t-46.5 -19.5t-46 19.5t-19 46.5z" />
    <glyph glyph-name="uni0308" unicode="&#x308;" 
d="M-327 837q0 27 19.5 46.5t47.5 19.5q26 0 46 -19.5t20 -46.5q0 -26 -20 -46t-46 -20q-28 0 -47.5 19.5t-19.5 46.5zM-145 837q0 27 19.5 46.5t46.5 19.5q26 0 46 -20t20 -46q0 -27 -20 -46.5t-46 -19.5q-27 0 -46.5 19.5t-19.5 46.5z" />
    <glyph glyph-name="uni030A" unicode="&#x30a;" 
d="M-248 877q0 48 35 83t81 35q24 0 45 -9.5t37 -26t25.5 -38t9.5 -44.5q0 -49 -34 -83t-83 -34q-24 0 -45.5 9t-37 25t-24.5 37.5t-9 45.5zM-75 879q0 23 -16 39.5t-40 16.5t-40 -16.5t-16 -39.5q0 -25 16 -41.5t40 -16.5t40 16.5t16 41.5z" />
    <glyph glyph-name="uni030B" unicode="&#x30b;" 
d="M-330 768l71 141h96l-91 -141h-76zM-213 768l92 141h96l-112 -141h-76z" />
    <glyph glyph-name="uni030C" unicode="&#x30c;" 
d="M-36 910l-83 -142h-86h-19l-83 142h82l54 -88l54 88h81z" />
    <glyph glyph-name="uni0312" unicode="&#x312;" 
d="M-45 823q0 -24 -15 -39t-38 -15q-25 0 -42.5 18t-17.5 53q0 23 8.5 42.5t22 33.5t30.5 22t35 7v-28q-19 -1 -33.5 -15.5t-14.5 -33.5q12 5 19 5q20 0 33 -13.5t13 -36.5z" />
    <glyph glyph-name="uni0326" unicode="&#x326;" 
d="M-40 -97q0 -23 -8.5 -42.5t-22 -33.5t-30.5 -22t-35 -7v29q19 0 33.5 14.5t14.5 33.5q-7 -4 -18 -4q-20 0 -33.5 13t-13.5 36q0 25 15 40t38 15q25 0 42.5 -18.5t17.5 -53.5z" />
    <glyph glyph-name="uni0327" unicode="&#x327;" 
d="M-304 -121h84q11 0 18.5 6.5t7.5 17.5q-2 23 -26 23h-84v48l50 55h39v-29l-25 -26h36q33 0 51 -21.5t18 -52.5t-19 -51.5t-49 -20.5h-101v51z" />
    <glyph glyph-name="uni0338" unicode="&#x338;" 
d="M-532 -42l361 581h83l-358 -581h-86z" />
    <glyph glyph-name="uni03A9" unicode="&#x3a9;" horiz-adv-x="649" 
d="M585 76v-76h-216v76q63 25 95.5 75t32.5 110q0 36 -13 65.5t-35.5 50.5t-53 32.5t-65.5 11.5t-65.5 -11.5t-53 -33t-35.5 -51t-13 -65.5q0 -61 34 -111t94 -73v-76h-217v76h94q-43 37 -66 86t-23 106q0 50 19 92.5t52.5 74.5t79.5 50t100 18q55 0 101 -18t79 -49.5
t51.5 -74.5t18.5 -92q0 -57 -23.5 -106t-66.5 -87h95z" />
    <glyph glyph-name="pi" unicode="&#x3c0;" horiz-adv-x="627" 
d="M483 408v-271q0 -30 11 -40t34 -10l57 -1v-86h-95q-101 0 -101 123v285h-185v-408h-93v408h-94v80h187h279h102v-80h-102z" />
    <glyph glyph-name="Wgrave" unicode="&#x1e80;" horiz-adv-x="1006" 
d="M991 723l-218 -723h-95l-174 554l-177 -554h-96l-215 723h106l159 -559l169 559h108l167 -561l162 561h104zM374 918h97l71 -141h-76z" />
    <glyph glyph-name="wgrave" unicode="&#x1e81;" horiz-adv-x="778" 
d="M762 489l-168 -489h-90l-115 349l-117 -349h-93l-163 489h101l110 -353l114 353h97l112 -356l113 356h99zM261 687h97l71 -141h-76z" />
    <glyph glyph-name="Wacute" unicode="&#x1e82;" horiz-adv-x="1006" 
d="M991 723l-218 -723h-95l-174 554l-177 -554h-96l-215 723h106l159 -559l169 559h108l167 -561l162 561h104zM466 777l71 141h96l-91 -141h-76z" />
    <glyph glyph-name="wacute" unicode="&#x1e83;" horiz-adv-x="778" 
d="M762 489l-168 -489h-90l-115 349l-117 -349h-93l-163 489h101l110 -353l114 353h97l112 -356l113 356h99zM352 546l71 141h96l-91 -141h-76z" />
    <glyph glyph-name="Wdieresis" unicode="&#x1e84;" horiz-adv-x="1006" 
d="M991 723l-218 -723h-95l-174 554l-177 -554h-96l-215 723h106l159 -559l169 559h108l167 -561l162 561h104zM344 845q0 28 19.5 47.5t46.5 19.5q26 0 46 -20t20 -47q0 -26 -19.5 -45.5t-46.5 -19.5t-46.5 19.5t-19.5 45.5zM532 845q0 28 19 47.5t47 19.5q26 0 46 -20
t20 -47q0 -26 -20 -45.5t-46 -19.5q-27 0 -46.5 19.5t-19.5 45.5z" />
    <glyph glyph-name="wdieresis" unicode="&#x1e85;" horiz-adv-x="778" 
d="M762 489l-168 -489h-90l-115 349l-117 -349h-93l-163 489h101l110 -353l114 353h97l112 -356l113 356h99zM231 614q0 28 19.5 47.5t46.5 19.5q26 0 46 -20t20 -47q0 -26 -19.5 -45.5t-46.5 -19.5t-46.5 19.5t-19.5 45.5zM419 614q0 28 19 47.5t47 19.5q26 0 46 -20
t20 -47q0 -26 -20 -45.5t-46 -19.5q-27 0 -46.5 19.5t-19.5 45.5z" />
    <glyph glyph-name="Ygrave" unicode="&#x1ef2;" horiz-adv-x="608" 
d="M121 723l185 -332l185 332h108l-244 -427v-296h-99v296l-246 427h111zM176 918h97l71 -141h-76z" />
    <glyph glyph-name="ygrave" unicode="&#x1ef3;" horiz-adv-x="522" 
d="M509 489l-227 -601q-24 -63 -64 -91t-89 -28q-48 0 -101 25l26 86q35 -25 70 -25q25 0 45.5 15t32.5 48l19 53l-208 518h99l153 -398l146 398h98zM132 688h97l71 -141h-76z" />
    <glyph glyph-name="endash" unicode="&#x2013;" horiz-adv-x="923" 
d="M857 318v-86h-791v86h791z" />
    <glyph glyph-name="emdash" unicode="&#x2014;" horiz-adv-x="1140" 
d="M1067 318v-86h-994v86h994z" />
    <glyph glyph-name="quoteleft" unicode="&#x2018;" horiz-adv-x="263" 
d="M200 548q0 -29 -18 -47t-47 -18q-31 0 -51.5 21.5t-20.5 64.5q0 28 10 51t26 40t37 26.5t42 9.5v-35q-22 -1 -39.5 -18t-17.5 -38q8 3 20 3q26 0 42.5 -16t16.5 -44z" />
    <glyph glyph-name="quoteright" unicode="&#x2019;" horiz-adv-x="263" 
d="M200 598q0 -27 -10 -50.5t-26 -40.5t-37 -26.5t-42 -8.5v35q22 0 39.5 17.5t17.5 38.5q-7 -4 -20 -4q-26 0 -42.5 16t-16.5 44q0 29 18 47t47 18q31 0 51.5 -21.5t20.5 -64.5z" />
    <glyph glyph-name="quotesinglbase" unicode="&#x201a;" horiz-adv-x="233" 
d="M180 30q0 -28 -10 -51.5t-26 -40t-36.5 -26t-42.5 -9.5v35q23 1 40.5 18.5t17.5 39.5q-10 -5 -22 -5q-24 0 -40.5 16t-16.5 44q0 29 18.5 47t46.5 18q31 0 51 -21.5t20 -64.5z" />
    <glyph glyph-name="quotedblleft" unicode="&#x201c;" horiz-adv-x="424" 
d="M200 548q0 -29 -18 -47t-47 -18q-31 0 -51.5 21.5t-20.5 64.5q0 27 10 50.5t26 40.5t37 26.5t42 9.5v-35q-22 -1 -39.5 -18.5t-17.5 -38.5q7 4 20 4q26 0 42.5 -16t16.5 -44zM361 548q0 -29 -18 -47t-47 -18q-31 0 -51.5 21.5t-20.5 64.5q0 27 10 50.5t26.5 40.5t37 26.5
t41.5 8.5v-35q-22 0 -39.5 -17.5t-17.5 -38.5q9 4 20 4q26 0 42.5 -16t16.5 -44z" />
    <glyph glyph-name="quotedblright" unicode="&#x201d;" horiz-adv-x="424" 
d="M200 598q0 -27 -10 -50.5t-26 -40.5t-37 -26.5t-42 -8.5v35q22 0 39.5 17.5t17.5 38.5q-9 -4 -20 -4q-26 0 -42.5 16t-16.5 44q0 29 18 47t47 18q31 0 51.5 -21.5t20.5 -64.5zM361 598q0 -27 -10 -50.5t-26 -40.5t-37 -26.5t-42 -8.5v35q22 0 39.5 17.5t17.5 38.5
q-7 -4 -20 -4q-26 0 -42.5 16t-16.5 44q0 29 18 47t47 18q31 0 51.5 -21.5t20.5 -64.5z" />
    <glyph glyph-name="quotedblbase" unicode="&#x201e;" horiz-adv-x="424" 
d="M200 30q0 -28 -10 -51t-26 -40t-37 -26.5t-42 -9.5v35q22 1 39.5 18.5t17.5 38.5q-7 -4 -21 -4q-25 0 -41.5 16t-16.5 44q0 29 18.5 47t46.5 18q31 0 51.5 -21.5t20.5 -64.5zM361 30q0 -28 -10 -51t-26 -40t-37 -26.5t-42 -9.5v35q23 1 40.5 18.5t16.5 38.5q-7 -4 -22 -4
q-24 0 -40.5 16t-16.5 44q0 29 18.5 47t46.5 18q31 0 51.5 -21.5t20.5 -64.5z" />
    <glyph glyph-name="dagger" unicode="&#x2020;" horiz-adv-x="312" 
d="M292 544h-103v-280h-66v280h-103v66h103v100h66v-100h103v-66z" />
    <glyph glyph-name="daggerdbl" unicode="&#x2021;" horiz-adv-x="313" 
d="M293 381h-102v-117h-65v117h-104v65h104v82h-106v65h106v117h65v-117h101v-65h-101v-82h102v-65z" />
    <glyph glyph-name="bullet" unicode="&#x2022;" horiz-adv-x="403" 
d="M55 266q0 30 11.5 56.5t32 46.5t47.5 32t57 12q29 0 55.5 -12t46.5 -32t32 -46.5t12 -56.5t-12 -56t-32 -46t-46.5 -31.5t-55.5 -11.5q-30 0 -57 11.5t-47.5 31.5t-32 46t-11.5 56z" />
    <glyph glyph-name="ellipsis" unicode="&#x2026;" horiz-adv-x="750" 
d="M68 56q0 29 21 50t50 21t50.5 -21t21.5 -50q0 -28 -21.5 -49t-50.5 -21t-50 20.5t-21 49.5zM304 56q0 29 21 50t50 21t50.5 -21t21.5 -50q0 -28 -21.5 -49t-50.5 -21t-50 20.5t-21 49.5zM539 56q0 29 21.5 50t50.5 21t50 -21t21 -50q0 -28 -21 -49t-50 -21t-50.5 21
t-21.5 49z" />
    <glyph glyph-name="perthousand" unicode="&#x2030;" horiz-adv-x="1279" 
d="M48 545q0 44 11.5 80t33.5 61.5t52.5 39.5t67.5 14q75 0 118.5 -52.5t43.5 -142.5q0 -88 -45 -141t-121 -53q-36 0 -66 14t-51 39.5t-32.5 61t-11.5 79.5zM781 722l-551 -722h-97l550 722h98zM212 424q42 1 66 33.5t24 87.5t-24 87.5t-66 33.5q-42 -1 -66.5 -33.5
t-24.5 -87.5t24.5 -87.5t66.5 -33.5zM865 178q0 -44 -11.5 -79.5t-33.5 -61t-52 -39.5t-68 -14q-36 0 -66 14t-51 39.5t-32.5 61t-11.5 79.5q0 88 43.5 141t116.5 53q75 2 120 -52q46 -52 46 -142zM1070 -16q-36 0 -66 14t-51 39.5t-32.5 61t-11.5 79.5t11.5 79.5t32.5 61
t51 39.5t66 14q75 2 120 -52q46 -52 46 -142q0 -88 -45 -141t-121 -53zM1163 178q0 55 -24 87.5t-66 32.5t-66.5 -32.5t-24.5 -87.5t24.5 -88t66.5 -34q42 2 66 34.5t24 87.5zM793 178q0 55 -24.5 87.5t-66.5 32.5t-66.5 -32.5t-24.5 -87.5t24.5 -88t66.5 -34
q42 2 66.5 34.5t24.5 87.5z" />
    <glyph glyph-name="minute" unicode="&#x2032;" horiz-adv-x="181" 
d="M117 497h-52l-19 183q-3 27 11.5 41t34.5 13q19 0 32.5 -14t10.5 -40z" />
    <glyph glyph-name="guilsinglleft" unicode="&#x2039;" horiz-adv-x="390" 
d="M174 244l214 -244h-117l-214 244l214 245h117z" />
    <glyph glyph-name="guilsinglright" unicode="&#x203a;" horiz-adv-x="397" 
d="M348 244l-214 -244h-116l214 244l-214 245h116z" />
    <glyph glyph-name="uni2042" unicode="&#x2042;" horiz-adv-x="893" 
d="M525 406l-38 54q-15 19 -24 36t-18 39q-10 -34 -39 -75l-40 -54l-43 29l38 56q27 36 57 65q-49 6 -84 19l-63 23l19 49l61 -21q44 -17 78 -38q-9 45 -9 86v67h52v-67q0 -50 -9 -86q33 22 78 38l62 21l19 -49l-65 -23q-33 -13 -83 -19q21 -20 57 -65l36 -56zM315 192
q-16 -5 -36.5 -10t-46.5 -10q11 -11 25 -26.5t31 -37.5l37 -56l-43 -30l-38 55q-11 15 -21 33.5t-20 41.5q-10 -34 -39 -75l-40 -55l-43 30l38 56q26 36 57 64q-26 5 -47 10t-37 10l-64 23l19 49l62 -22q20 -7 39.5 -16.5t38.5 -20.5q-9 45 -9 85v68h52v-68q0 -49 -9 -85
q17 11 36.5 20t40.5 17l63 22l19 -49zM809 52l-42 -30l-38 55q-25 32 -42 75q-10 -34 -39 -75l-40 -55l-43 30l39 56q14 20 28 35.5t28 28.5q-18 3 -39.5 7.5t-43.5 12.5l-64 23l19 49l61 -22q42 -14 78 -37q-9 45 -9 85v68h52v-68q0 -45 -8 -85q17 11 36.5 20t40.5 17
l62 22l19 -49l-64 -23q-21 -8 -43 -12.5t-40 -7.5q13 -13 27 -28.5t29 -35.5z" />
    <glyph glyph-name="fraction" unicode="&#x2044;" horiz-adv-x="139" 
d="M-246 0l541 710h89l-541 -710h-89z" />
    <glyph glyph-name="uni2070" unicode="&#x2070;" horiz-adv-x="502" 
d="M251 292h-1q-50 0 -89 18.5t-66 51.5t-41 78.5t-14 98.5q0 54 14.5 99t41.5 78t66 51.5t88 18.5h1h1q50 0 89 -18.5t66 -51.5t41 -78.5t14 -98.5q0 -110 -56 -178q-55 -67 -154 -69h-1zM381 539q0 76 -33.5 122.5t-96.5 47.5q-63 -1 -97 -48t-34 -122t34 -122.5t97 -48.5
q63 1 96.5 48.5t33.5 122.5z" />
    <glyph glyph-name="uni2074" unicode="&#x2074;" horiz-adv-x="448" 
d="M408 391h-60v-91h-73v91h-235v74l235 311h73v-311h60v-74zM275 465v194l-145 -194h145z" />
    <glyph glyph-name="uni2075" unicode="&#x2075;" horiz-adv-x="420" 
d="M380 457q0 -34 -14 -64t-37.5 -52.5t-54.5 -36t-66 -13.5t-65.5 13t-53.5 35.5t-36 53t-13 64.5h74q0 -38 27 -64.5t67 -26.5t68.5 26.5t28.5 64.5q1 48 -26 76t-75 28q-26 0 -49 -12t-31 -29l-68 17l59 239h248v-74h-190l-26 -94q33 18 68 18q37 0 67.5 -13t52 -35.5
t33.5 -53.5t12 -67z" />
    <glyph glyph-name="uni2076" unicode="&#x2076;" horiz-adv-x="450" 
d="M410 466q0 -38 -13.5 -70t-38 -55.5t-58 -36.5t-72.5 -13q-95 0 -142 68q-46 68 -46 173q0 52 12 98.5t37 81.5t62.5 55.5t88.5 20.5t92 -20.5t67 -60.5l-63 -38q-35 44 -96 44q-57 0 -89.5 -38.5t-35.5 -101.5q19 31 51.5 47t70.5 16q33 0 64 -11.5t55 -33.5t39 -53.5
t15 -71.5zM336 465q0 46 -30 73.5t-75 27.5t-73.5 -28t-28.5 -73q0 -46 30 -74t73 -28t73.5 28t30.5 74z" />
    <glyph glyph-name="uni2077" unicode="&#x2077;" horiz-adv-x="407" 
d="M367 776v-76q-117 -91 -147 -204q-30 -111 -30 -196h-76q0 80 27 189q27 110 132 211h-233v76h327z" />
    <glyph glyph-name="uni2078" unicode="&#x2078;" horiz-adv-x="421" 
d="M381 427q0 -62 -49 -99t-121 -37t-122 38q-47 39 -49 99q0 43 23.5 77.5t65.5 48.5q-32 13 -50.5 42t-18.5 65q0 28 11.5 51t31.5 39.5t47.5 25.5t60.5 9t60.5 -9t47.5 -25.5t31 -40t11 -51.5q0 -36 -19 -64t-51 -42q42 -13 66 -48.5t24 -78.5zM211 584q36 0 60 19t24 48
q0 32 -24.5 49.5t-60.5 17.5q-37 0 -61 -18t-24 -49q0 -29 25 -48t61 -19zM210 516q-42 0 -69.5 -21t-27.5 -55q0 -35 27.5 -57.5t69.5 -22.5t69.5 24t27.5 58t-28.5 54t-68.5 20z" />
    <glyph glyph-name="uni2079" unicode="&#x2079;" horiz-adv-x="450" 
d="M210 291q-51 0 -92 20.5t-67 60.5l62 37q20 -23 42.5 -33.5t54.5 -10.5q58 0 89 36t36 105q-19 -31 -51 -47t-69 -16q-33 0 -64 11t-56 33t-40 53.5t-15 71.5q0 38 13.5 70.5t37.5 56t57.5 36.5t73.5 13q95 0 141 -69q45 -67 47 -175q0 -112 -51 -183q-49 -70 -149 -70z
M321 614q0 46 -30 74t-73 28q-45 0 -74.5 -28t-29.5 -74t29.5 -73.5t74.5 -27.5q43 0 73 28t30 73z" />
    <glyph glyph-name="uni2080" unicode="&#x2080;" horiz-adv-x="502" 
d="M251 -108h-1q-50 0 -89 18.5t-66 51.5t-41 78.5t-14 98.5q0 54 14.5 99t41.5 78t66 51.5t88 18.5h1h1q50 0 89 -18.5t66 -51.5t41 -78.5t14 -98.5q0 -110 -56 -178q-55 -67 -154 -69h-1zM381 139q0 76 -33.5 122.5t-96.5 47.5q-63 -1 -97 -48t-34 -122t34 -122.5
t97 -48.5q63 1 96.5 48.5t33.5 122.5z" />
    <glyph glyph-name="uni2081" unicode="&#x2081;" horiz-adv-x="296" 
d="M210 376v-476h-74v401l-96 -40v74l96 41h74z" />
    <glyph glyph-name="uni2082" unicode="&#x2082;" horiz-adv-x="411" 
d="M47 -22l207 171q23 20 32.5 38t9.5 38q0 39 -24.5 63.5t-66.5 24.5q-39 0 -64 -22t-27 -64h-74q3 75 48 116.5t117 41.5q38 0 68.5 -12t52 -33.5t33.5 -50.5t12 -63q0 -76 -72 -135l-145 -117l205 1v-74l-312 -1v78z" />
    <glyph glyph-name="uni2083" unicode="&#x2083;" horiz-adv-x="411" 
d="M371 54q0 -35 -13 -64.5t-35.5 -51.5t-52.5 -34t-64 -12q-36 0 -66 12.5t-52.5 34t-35 50.5t-12.5 62h74q1 -36 25.5 -61t66.5 -25q38 0 64.5 24.5t26.5 64.5q0 42 -26 67t-68 25q-23 0 -40 -7l-26 59l111 104h-188v74h302v-67l-109 -102q54 -15 86 -55.5t32 -97.5z" />
    <glyph glyph-name="uni2084" unicode="&#x2084;" horiz-adv-x="448" 
d="M408 -9h-60v-91h-73v91h-235v74l235 311h73v-311h60v-74zM275 65v194l-145 -194h145z" />
    <glyph glyph-name="uni2085" unicode="&#x2085;" horiz-adv-x="420" 
d="M380 57q0 -34 -14 -64t-37.5 -52.5t-54.5 -36t-66 -13.5t-65.5 13t-53.5 35.5t-36 53t-13 64.5h74q0 -38 27 -64.5t67 -26.5t68.5 26.5t28.5 64.5q1 48 -26 76t-75 28q-26 0 -49 -12t-31 -29l-68 17l59 239h248v-74h-190l-26 -94q33 18 68 18q37 0 67.5 -13t52 -35.5
t33.5 -53.5t12 -67z" />
    <glyph glyph-name="uni2086" unicode="&#x2086;" horiz-adv-x="450" 
d="M410 66q0 -38 -13.5 -70t-38 -55.5t-58 -36.5t-72.5 -13q-95 0 -142 69q-46 67 -46 172q0 52 12 98.5t37 81.5t62.5 55.5t88.5 20.5t92 -20.5t67 -60.5l-63 -38q-35 44 -96 44q-57 0 -89.5 -38.5t-35.5 -101.5q19 31 51.5 47t70.5 16q33 0 64 -11.5t55 -33.5t39 -53.5
t15 -71.5zM336 65q0 46 -30 73.5t-75 27.5t-73.5 -28t-28.5 -73q0 -46 30 -74t73 -28t73.5 28t30.5 74z" />
    <glyph glyph-name="uni2087" unicode="&#x2087;" horiz-adv-x="407" 
d="M367 376v-76q-117 -91 -147 -204q-30 -111 -30 -196h-76q0 79 27 189t132 211h-233v76h327z" />
    <glyph glyph-name="uni2088" unicode="&#x2088;" horiz-adv-x="421" 
d="M381 29q0 -31 -12.5 -56.5t-35.5 -43.5t-54.5 -28t-69.5 -10q-37 0 -68 10t-53.5 28.5t-35 44t-12.5 56.5q0 42 23.5 75.5t65.5 48.5q-32 13 -50.5 42t-18.5 65q0 29 11.5 52t31.5 39t47.5 25t60.5 9q66 0 108 -34.5t42 -91.5q0 -36 -19 -64t-51 -42q42 -13 66 -48
t24 -77zM125 253q0 -30 24.5 -49.5t61.5 -19.5q36 0 60 19t24 49q0 31 -24 48.5t-61 17.5t-61 -17.5t-24 -47.5zM211 116q-42 0 -70 -21t-28 -55q0 -36 28 -58t70 -22q43 0 69.5 22.5t26.5 58.5q0 35 -27 55t-69 20z" />
    <glyph glyph-name="uni2089" unicode="&#x2089;" horiz-adv-x="450" 
d="M210 -109q-51 0 -92 20.5t-67 60.5l62 37q20 -23 42.5 -33.5t54.5 -10.5q58 0 89 36t36 105q-19 -31 -51 -47t-69 -16q-33 0 -64 11t-56 33t-40 53.5t-15 71.5q0 38 13.5 70.5t37.5 56t57.5 36.5t73.5 13q95 0 141 -69q45 -67 47 -175q0 -112 -51 -183q-49 -70 -149 -70z
M321 214q0 46 -30 74t-73 28q-45 0 -74.5 -28t-29.5 -74t29.5 -73.5t74.5 -27.5q43 0 73 28t30 73z" />
    <glyph glyph-name="Euro" unicode="&#x20ac;" horiz-adv-x="767" 
d="M707 63q-45 -35 -103 -55t-118 -20q-57 0 -109.5 17.5t-96.5 48.5t-77.5 74t-53.5 95h-89v91h67q-3 21 -3 45q0 26 3 51h-67v90h90q41 107 131 170q92 65 205 65q97 0 192 -52l-43 -79q-39 21 -74.5 31t-74.5 10q-76 0 -139 -39.5t-98 -105.5h296l-23 -90h-303
q-4 -20 -4 -51q0 -24 3 -45h281l-21 -91h-230q35 -66 98.5 -106t139.5 -40q45 0 88 15t76 41z" />
    <glyph glyph-name="uni2116" unicode="&#x2116;" horiz-adv-x="1339" 
d="M1219 485q0 -51 -19.5 -94t-52.5 -74.5t-76.5 -49.5t-91.5 -18q-46 -1 -89.5 18t-77.5 51t-54.5 75.5t-19.5 91.5q0 51 20 94t53 74.5t76.5 49t91.5 17.5t91.5 -17.5t76.5 -49t52.5 -74.5t19.5 -94zM572 710h83v-710h-83l-369 562v-562h-83v710h83l369 -562v562z
M1137 485q0 34 -12.5 62.5t-33.5 49t-50 32t-62 11.5q-34 0 -63 -11.5t-50 -32.5t-33 -49.5t-12 -61.5q0 -31 12.5 -59.5t34 -50.5t50 -34.5t61.5 -12.5q34 0 63 12.5t50 33.5t33 49.5t12 61.5zM839 175h281v-71h-281v71z" />
    <glyph glyph-name="uni2117" unicode="&#x2117;" horiz-adv-x="531" 
d="M491 498q0 -47 -17.5 -88t-48 -72t-71.5 -48.5t-87 -17.5q-47 0 -88.5 17.5t-72 48.5t-48.5 72t-18 88q0 46 18 87t48.5 71.5t72 48t88.5 17.5q46 0 87 -18t71.5 -48.5t48 -71t17.5 -86.5zM452 497q0 39 -14.5 72.5t-39.5 58.5t-59 39.5t-73 14.5t-73 -14.5t-58.5 -39.5
t-39 -58.5t-14.5 -72.5t14 -73t39 -58.5t59 -38.5t73 -14t73 14t59 38.5t39.5 58.5t14.5 73zM349 536v-3q-1 -30 -21 -45.5t-54 -14.5h-27v-77h-41v200h41h27q74 2 75 -57v-3zM305 535q0 21 -30 21h-28v-47h35q23 1 23 26z" />
    <glyph glyph-name="trademark" unicode="&#x2122;" horiz-adv-x="632" 
d="M38 723h219v-46h-89v-234h-46v234h-84v46zM572 723v-280h-43v173l-74 -173h-46l-73 170v-170h-44v280h44l96 -226l97 226h43z" />
    <glyph glyph-name="estimated" unicode="&#x212e;" horiz-adv-x="766" 
d="M383 710q73 0 133 -22.5t103.5 -65.5t67.5 -103.5t24 -137.5q1 -5 1 -27v-15.5t-1 -10.5h-558v-180q39 -57 101 -87t141 -30q78 0 142 36.5t96 96.5l38 -14q-37 -75 -110.5 -117t-167.5 -42q-75 0 -137.5 26t-107.5 73t-70 112t-25 144q0 80 24.5 147t68 115t104.5 75
t133 27zM153 364h459v200q-37 51 -96 78.5t-129 27.5q-75 0 -135 -33t-99 -91v-182z" />
    <glyph glyph-name="oneeighth" unicode="&#x215b;" horiz-adv-x="744" 
d="M41 678l69 32v-70l-69 -27v65zM178 710v-368h-67l-1 368h68zM13 0l541 710h89l-541 -710h-89zM438 99q0 28 13.5 52.5t36.5 38.5q-38 29 -38 73q0 20 8.5 39t24.5 34t38 24t50 9q27 0 49 -8.5t37.5 -23t24 -33t8.5 -39.5q0 -46 -38 -75q22 -15 36 -39t14 -51
q0 -45 -34.5 -78t-97.5 -34q-63 0 -97 33t-35 78zM627 263q0 17 -15 29.5t-42 12.5q-28 0 -43 -12.5t-13 -30.5q0 -17 15 -29.5t41 -12.5q27 1 42 13.5t15 29.5zM637 102q1 21 -17 36.5t-50 15.5t-49.5 -15.5t-16.5 -36.5q0 -21 17.5 -36t48.5 -15t49 15t18 36z" />
    <glyph glyph-name="threeeighths" unicode="&#x215c;" horiz-adv-x="824" 
d="M298 461q0 -51 -38 -89q-37 -36 -90 -36t-91 36t-38 88l1 13h66q-1 -3 -1 -13q0 -25 18 -41.5t45 -16.5q26 0 44 17t18 42q0 31 -23 49q-16 13 -39 13q-15 0 -29 -6l-31 51l74 75h-127v67h229v-59l-72 -72q33 -10 53 -35q31 -34 31 -83zM93 0l541 710h89l-541 -710h-89z
M519 99q0 28 13.5 52.5t36.5 38.5q-38 29 -38 73q0 20 8.5 39t24.5 34t38 24t50 9q27 0 49 -8.5t37.5 -23t24 -33t8.5 -39.5q0 -46 -38 -75q22 -15 36 -39t14 -51q0 -45 -34.5 -78t-97.5 -34q-63 0 -97 33t-35 78zM708 263q0 17 -15 29.5t-42 12.5q-28 0 -43 -12.5
t-13 -30.5q0 -17 15 -29.5t41 -12.5q27 1 42 13.5t15 29.5zM718 102q1 21 -17 36.5t-50 15.5t-49.5 -15.5t-16.5 -36.5q0 -21 17.5 -36t48.5 -15t49 15t18 36z" />
    <glyph glyph-name="fiveeighths" unicode="&#x215d;" horiz-adv-x="830" 
d="M107 475q-2 -30 16 -50t48 -20q28 0 47.5 19t19.5 45q0 29 -19.5 48.5t-48.5 19.5q-19 0 -34.5 -8.5t-22.5 -21.5l-62 16l47 187h193v-66h-141l-14 -51q18 6 38 6q54 0 92 -38t38 -94q0 -26 -10.5 -49.5t-29 -41t-42.5 -27.5t-51 -10q-29 0 -53 10.5t-41.5 29t-27 43.5
t-8.5 53h66zM99 0l541 710h89l-541 -710h-89zM524 99q0 28 13.5 52.5t36.5 38.5q-38 29 -38 73q0 20 8.5 39t24.5 34t38 24t50 9q27 0 49 -8.5t37.5 -23t24 -33t8.5 -39.5q0 -46 -38 -75q22 -15 36 -39t14 -51q0 -45 -34.5 -78t-97.5 -34q-63 0 -97 33t-35 78zM713 263
q0 17 -15 29.5t-42 12.5q-28 0 -43 -12.5t-13 -30.5q0 -17 15 -29.5t41 -12.5q27 1 42 13.5t15 29.5zM723 102q1 21 -17 36.5t-50 15.5t-49.5 -15.5t-16.5 -36.5q0 -21 17.5 -36t48.5 -15t49 15t18 36z" />
    <glyph glyph-name="seveneighths" unicode="&#x215e;" horiz-adv-x="775" 
d="M305 710v-70q-67 -49 -99 -114q-31 -63 -36 -104q-2 -20 -3 -39.5t-1 -38.5h-71q0 53 20 135q19 80 100 161h-174v70h264zM44 0l541 710h89l-541 -710h-89zM470 99q0 28 13.5 52.5t36.5 38.5q-38 29 -38 73q0 20 8.5 39t24.5 34t38 24t50 9q27 0 49 -8.5t37.5 -23t24 -33
t8.5 -39.5q0 -46 -38 -75q22 -15 36 -39t14 -51q0 -45 -34.5 -78t-97.5 -34q-63 0 -97 33t-35 78zM659 263q0 17 -15 29.5t-42 12.5q-28 0 -43 -12.5t-13 -30.5q0 -17 15 -29.5t41 -12.5q27 1 42 13.5t15 29.5zM669 102q1 21 -17 36.5t-50 15.5t-49.5 -15.5t-16.5 -36.5
q0 -21 17.5 -36t48.5 -15t49 15t18 36z" />
    <glyph glyph-name="arrowleft" unicode="&#x2190;" horiz-adv-x="942" 
d="M60 268l331 330l53 -52l-238 -240h676v-75h-676l238 -238l-53 -54z" />
    <glyph glyph-name="arrowup" unicode="&#x2191;" horiz-adv-x="785" 
d="M392 781l333 -328l-54 -54l-241 237v-636h-75v636l-241 -237l-54 54z" />
    <glyph glyph-name="arrowright" unicode="&#x2192;" horiz-adv-x="942" 
d="M882 299l-331 -329l-53 53l238 239h-676v75h676l-238 239l53 53z" />
    <glyph glyph-name="arrowdown" unicode="&#x2193;" horiz-adv-x="779" 
d="M389 -110l-329 330l54 54l238 -239v700h75v-700l240 239l52 -54z" />
    <glyph glyph-name="arrowboth" unicode="&#x2194;" horiz-adv-x="1090" 
d="M786 128l99 98h-449h-232l102 -100v-109l-246 248l244 245v-110l-99 -98l230 1v1l130 -1l94 1v-1h226l-100 98v109l245 -245l-244 -247v110z" />
    <glyph glyph-name="arrowupdn" unicode="&#x2195;" horiz-adv-x="612" 
d="M442 73h110l-247 -245l-245 245h109l98 -100v230h-1v223h1v226l-98 -99h-109l245 244l247 -244h-110l-99 100v-450v-230z" />
    <glyph glyph-name="uni2196" unicode="&#x2196;" horiz-adv-x="832" 
d="M297 672h79l231 -266l-223 -37l121 -110l-17 -168l-403 352l-1 51h213v178z" />
    <glyph glyph-name="uni2197" unicode="&#x2197;" horiz-adv-x="844" 
d="M784 723v-466h-76v337l-595 -594l-53 53l594 595h-337v75h467z" />
    <glyph glyph-name="uni2198" unicode="&#x2198;" horiz-adv-x="842" 
d="M782 1l-466 1v75l337 1l-593 593l53 52l593 -593l1 338h75v-467z" />
    <glyph glyph-name="uni2199" unicode="&#x2199;" horiz-adv-x="845" 
d="M60 -1v467h77v-338l595 596l53 -53l-596 -596h338v-76h-467z" />
    <glyph glyph-name="partialdiff" unicode="&#x2202;" horiz-adv-x="618" 
d="M573 290q0 -77 -22 -133.5t-59 -94t-85 -55.5t-101 -18t-101 17.5t-84 51t-57.5 82t-21.5 109.5q0 59 20 107t54.5 82.5t80.5 53.5t98 19q43 0 84.5 -14.5t70.5 -41.5q-26 70 -82.5 140t-135.5 128h123q102 -83 160 -203q58 -117 58 -230zM484 255q0 38 -14 70.5t-38 57
t-56.5 38.5t-70.5 14q-39 0 -72.5 -14.5t-57.5 -39t-38 -57t-14 -69.5q0 -38 14.5 -71.5t39 -58t58 -39t71.5 -14.5t70.5 14.5t56.5 39t37.5 58t13.5 71.5z" />
    <glyph glyph-name="emptyset" unicode="&#x2205;" horiz-adv-x="808" 
d="M696 571q57 -90 57 -206q1 -82 -25 -152.5t-72.5 -121.5t-110.5 -79.5t-140 -27.5q-72 0 -133.5 26.5t-109.5 75.5l-74 -67l-48 52l78 71q-60 93 -60 212q-1 78 25.5 146.5t73 119t110.5 79t138 26.5q73 0 136 -25.5t111 -73.5l68 62l48 -53zM585 565q-34 35 -80 53.5
t-100 18.5q-56 0 -103 -21t-81 -58.5t-53 -89.5t-19 -114q0 -83 36 -151zM228 145q34 -35 79.5 -54t97.5 -19q57 0 104.5 20.5t81.5 58t53 89t19 114.5q0 87 -36 154z" />
    <glyph glyph-name="uni2206" unicode="&#x2206;" horiz-adv-x="686" 
d="M626 80v-80h-566v80l239 630h89zM146 80h394l-197 518z" />
    <glyph glyph-name="product" unicode="&#x220f;" horiz-adv-x="612" 
d="M470 489v-315q0 -43 20 -64t55 -21q8 0 14.5 0.5t11.5 1.5v-89q-14 -2 -24.5 -3t-17.5 -1q-69 0 -111 40t-42 121v330h-166v-489h-95v489h-90v94h185h260h101v-94h-101z" />
    <glyph glyph-name="summation" unicode="&#x2211;" horiz-adv-x="502" 
d="M33 101l246 262l-246 260v100h425v-95h-306l245 -265l-246 -265h307v-98h-425v101z" />
    <glyph glyph-name="minus" unicode="&#x2212;" horiz-adv-x="487" 
d="M424 366v-83h-361v83h361z" />
    <glyph glyph-name="radical" unicode="&#x221a;" horiz-adv-x="712" 
d="M681 718v-89h-155l-249 -629h-92l-185 488h90l142 -370l238 600h211z" />
    <glyph glyph-name="infinity" unicode="&#x221e;" horiz-adv-x="878" 
d="M242 474q57 0 108 -31.5t89 -91.5q38 60 89 91.5t108 31.5q41 0 75.5 -14.5t60.5 -40t40.5 -60.5t14.5 -75t-14.5 -74.5t-40.5 -60t-60.5 -40t-75.5 -14.5q-57 0 -108 31.5t-89 91.5q-38 -60 -89 -91.5t-108 -31.5q-40 0 -75 14.5t-61 40t-40.5 60t-14.5 74.5t14.5 75
t40.5 60.5t61 40t75 14.5zM244 184q36 0 73 24t63 76q-26 54 -62.5 77.5t-73.5 23.5q-46 0 -75 -28t-29 -73t29 -72.5t75 -27.5zM634 184q46 0 75 27.5t29 72.5t-29 73t-75 28q-37 0 -73.5 -23.5t-62.5 -77.5q26 -52 63 -76t73 -24z" />
    <glyph glyph-name="integral" unicode="&#x222b;" horiz-adv-x="352" 
d="M322 737v-88h-47q-24 0 -37.5 -14.5t-13.5 -43.5v-242v-217q0 -64 -39 -104.5t-102 -40.5h-53v88h48q24 0 37.5 14.5t13.5 42.5v242v217q0 32 10.5 58.5t29 46t44.5 30.5t56 11h53z" />
    <glyph glyph-name="approxequal" unicode="&#x2248;" horiz-adv-x="452" 
d="M412 385q0 -49 -29 -79t-74 -30q-26 0 -47.5 10t-48.5 29q-23 16 -39 23.5t-33 7.5q-21 0 -33 -12.5t-13 -33.5h-55q0 48 29 77.5t74 29.5q26 0 47.5 -10.5t50.5 -29.5q24 -16 39 -23.5t31 -7.5q44 0 46 49h55zM412 231q0 -49 -29 -79t-74 -30q-26 0 -47.5 10t-48.5 29
q-22 16 -38.5 24t-33.5 8q-21 0 -33 -12.5t-13 -33.5h-55q0 48 29 77t74 29q26 0 48 -10t50 -29q24 -16 39 -23.5t31 -7.5q44 0 46 48h55z" />
    <glyph glyph-name="notequal" unicode="&#x2260;" horiz-adv-x="552" 
d="M349 407l-76 -140h230v-83h-275l-67 -123h-90l67 123h-89v83h135l76 140h-211v83h256l72 131h89l-71 -131h108v-83h-154z" />
    <glyph glyph-name="lessequal" unicode="&#x2264;" horiz-adv-x="544" 
d="M35 420l463 159v-102l-314 -106l314 -108v-101l-463 159v99zM35 101h463v-101h-463v101z" />
    <glyph glyph-name="greaterequal" unicode="&#x2265;" horiz-adv-x="567" 
d="M516 400v-87l-455 -157v90l326 111l-326 111v89zM61 90h455v-90h-455v90z" />
    <glyph glyph-name="filledbox" unicode="&#x25a0;" horiz-adv-x="830" 
d="M770 710v-710h-710v710h710z" />
    <glyph glyph-name="uni25A1" unicode="&#x25a1;" horiz-adv-x="830" 
d="M770 710v-710h-710v710h710zM135 75h560v560h-560v-560z" />
    <glyph glyph-name="triagup" unicode="&#x25b2;" horiz-adv-x="966" 
d="M906 0h-846l423 710z" />
    <glyph glyph-name="uni25B3" unicode="&#x25b3;" horiz-adv-x="967" 
d="M60 2l424 711l423 -711h-847zM484 570l-298 -499h595z" />
    <glyph glyph-name="lozenge" unicode="&#x25ca;" horiz-adv-x="622" 
d="M562 355l-205 -355h-93l-204 355l204 355h93zM465 355l-154 272l-154 -272l154 -272z" />
    <glyph glyph-name="circle" unicode="&#x25cb;" horiz-adv-x="898" 
d="M60 333q-2 79 29.5 150t85.5 124.5t125 85t149 29.5q78 2 149 -29.5t125 -85.5t85.5 -125t29.5 -149q2 -79 -29.5 -150t-85.5 -124.5t-125 -85t-149 -29.5q-79 -2 -150 29.5t-124.5 85t-84.5 124.5t-30 150zM764 333q2 63 -23.5 121t-69 101.5t-101.5 69t-121 23.5
q-63 1 -121 -24t-101.5 -68.5t-68.5 -101t-24 -121.5q-1 -64 24 -121.5t68.5 -101t101.5 -68.5t121 -24q64 -1 121.5 24t101 68.5t68.5 101t24 121.5z" />
    <glyph glyph-name="uni25CF" unicode="&#x25cf;" horiz-adv-x="898" 
d="M60 333q-2 79 29.5 150t85.5 124.5t125 85t149 29.5q78 2 149 -29.5t125 -85.5t85.5 -125t29.5 -149q2 -79 -29.5 -150t-85.5 -124.5t-125 -85t-149 -29.5q-79 -2 -150 29.5t-124.5 85t-84.5 124.5t-30 150z" />
    <glyph glyph-name="uni262E" unicode="&#x262e;" horiz-adv-x="898" 
d="M838 333q2 -79 -29.5 -150t-85.5 -124.5t-125 -85t-149 -29.5q-79 -2 -150 29.5t-124.5 85t-84.5 124.5t-30 150q-2 79 29.5 150t85.5 124.5t125 85t149 29.5q78 2 149 -29.5t125 -85.5t85.5 -125t29.5 -149zM134 333q0 -68 28 -128l254 170v271q-58 -5 -110 -32.5
t-90.5 -70t-60.5 -97t-21 -113.5zM484 375l253 -169q27 62 27 127q1 59 -21 113t-60.5 96.5t-90 70t-108.5 33.5v-271zM416 292l-220 -145q39 -54 96 -87t124 -40v272zM484 292v-272q66 7 123 40t96 87z" />
    <glyph glyph-name="smileface" unicode="&#x263a;" horiz-adv-x="897" 
d="M60 335q-1 77 30 147.5t84.5 123.5t125.5 84t151 29q78 2 148.5 -29t124 -84t84.5 -123.5t29 -147.5q2 -80 -29 -151.5t-84.5 -125t-124 -84.5t-148.5 -29q-79 -2 -151 29t-125.5 84.5t-84.5 125t-30 151.5zM769 332q2 66 -23.5 124.5t-69.5 102t-102.5 68.5t-123.5 24
q-66 1 -124.5 -24t-102 -68.5t-68.5 -102t-24 -124.5q-1 -67 23.5 -125.5t67.5 -101.5t101.5 -67t126.5 -23q66 -1 124.5 23.5t102 67.5t68.5 101.5t24 124.5zM265 421q0 24 17.5 41.5t42.5 17.5q24 0 40.5 -17.5t16.5 -41.5t-16.5 -42.5t-40.5 -18.5q-25 0 -42.5 18.5
t-17.5 42.5zM518 417q0 24 17 41t42 17q24 0 41 -17t17 -41t-17 -42t-41 -18q-25 0 -42 18t-17 42zM342 295q-4 -47 28 -82q31 -34 81 -34q24 0 44.5 9t35.5 24.5t23 37t6 45.5h63q2 -37 -11 -69.5t-36 -57t-55 -38.5t-70 -14q-37 0 -69.5 14t-55.5 38.5t-35.5 57
t-11.5 69.5h63z" />
    <glyph glyph-name="uni2713" unicode="&#x2713;" horiz-adv-x="724" 
d="M92 300l154 -167l324 389l64 -53l-384 -462l-216 233z" />
    <glyph glyph-name="uni2776" unicode="&#x2776;" horiz-adv-x="799" 
d="M50 348q-1 71 26.5 135t76 112.5t112.5 76.5t135 26q70 2 134 -26t112 -76.5t76.5 -112.5t26.5 -135q2 -71 -26 -135.5t-76.5 -113t-112 -76.5t-134.5 -26q-71 -2 -135 26.5t-112.5 77t-76 113t-26.5 134.5zM441 547h-64l-72 -37v-63l71 34v-319h65v385z" />
    <glyph glyph-name="uni2777" unicode="&#x2777;" horiz-adv-x="799" 
d="M749 347q2 -71 -26 -135t-76.5 -112.5t-112 -76.5t-134.5 -26q-71 -2 -135 26.5t-112.5 77t-76 113t-26.5 134.5q-1 71 26.5 135t76 112.5t112.5 76.5t134 26q71 2 135 -26.5t112.5 -77t76.5 -112.5t26 -135zM384 240l81 72q33 30 47.5 54.5t14.5 56.5q0 55 -35 89
t-89 34q-58 0 -94.5 -36.5t-33.5 -96.5h65q-2 32 14 50t47 19q29 -1 45.5 -17.5t15.5 -47.5q-1 -13 -7.5 -24.5t-21.5 -25.5l-151 -137v-56l236 1v66z" />
    <glyph glyph-name="uni2778" unicode="&#x2778;" horiz-adv-x="799" 
d="M50 348q-1 71 26.5 135t76 112.5t112.5 76.5t135 26q70 2 134 -26t112 -76.5t76.5 -112.5t26.5 -135q2 -71 -26 -135.5t-76.5 -113t-112 -76.5t-134.5 -26q-71 -2 -135 26.5t-112.5 77t-76 113t-26.5 134.5zM405 158q57 0 93 34.5t36 89.5q0 46 -26 77.5t-68 40.5l76 80
v57h-223v-67h126l-73 -80l1 -45h54q28 1 48 -15.5t20 -47.5q0 -27 -18.5 -44.5t-45.5 -17.5q-30 0 -48 19.5t-16 50.5h-64q-1 -27 7.5 -51t26 -42t41.5 -28.5t53 -10.5z" />
    <glyph glyph-name="uni2779" unicode="&#x2779;" horiz-adv-x="799" 
d="M50 348q-1 71 26.5 135t76 112.5t112.5 76.5t135 26q70 2 134 -26t112 -76.5t76.5 -112.5t26.5 -135q2 -71 -26 -135.5t-76.5 -113t-112 -76.5t-134.5 -26q-71 -2 -135 26.5t-112.5 77t-76 113t-26.5 134.5zM472 162v71h60v64h-60v250h-65l-177 -246v-68h176v-71h66z
M406 440v-143h-108z" />
    <glyph glyph-name="uni277A" unicode="&#x277a;" horiz-adv-x="799" 
d="M50 348q-1 71 26.5 135t76 112.5t112.5 76.5t135 26q70 2 134 -26t112 -76.5t76.5 -112.5t26.5 -135q2 -71 -26 -135.5t-76.5 -113t-112 -76.5t-134.5 -26q-71 -2 -135 26.5t-112.5 77t-76 113t-26.5 134.5zM354 476h153v66h-206l-36 -212l57 -10q11 18 30 28t40 10
q32 0 52.5 -20.5t20.5 -52.5t-20 -52.5t-51 -20.5q-62 0 -73 62l-64 -17q8 -51 44.5 -81t90.5 -30q61 0 101 39q40 40 40 100q0 59 -37 99t-93 40q-39 0 -62 -17z" />
    <glyph glyph-name="uni277B" unicode="&#x277b;" horiz-adv-x="799" 
d="M50 348q-1 71 26.5 135t76 112.5t112.5 76.5t134 26q71 2 135 -26.5t112.5 -77t76.5 -112.5t26 -135q2 -71 -26 -135t-76.5 -112.5t-112 -76.5t-134.5 -26q-71 -2 -135 26.5t-112.5 77t-76 113t-26.5 134.5zM396 487q53 0 78 -40l62 21q-18 39 -53 61.5t-83 22.5
q-75 0 -117 -52.5t-42 -146.5q0 -97 38.5 -150.5t107.5 -53.5q30 0 56.5 11t46 30t31 45.5t11.5 57.5q0 57 -39 96t-97 39q-24 0 -48 -8t-41 -28q2 42 26 68.5t63 26.5zM315 288q0 32 21.5 53t53.5 21t52.5 -20.5t20.5 -53.5t-20.5 -53.5t-52.5 -20.5q-33 0 -54 21t-21 53z
" />
    <glyph glyph-name="uni277C" unicode="&#x277c;" horiz-adv-x="799" 
d="M50 348q-1 71 26.5 135t76 112.5t112.5 76.5t135 26q70 2 134 -26t112 -76.5t76.5 -112.5t26.5 -135q2 -71 -26 -135.5t-76.5 -113t-112 -76.5t-134.5 -26q-71 -2 -135 26.5t-112.5 77t-76 113t-26.5 134.5zM395 162q18 183 135 308v56h-243v-60h165
q-55 -72 -85.5 -145.5t-39.5 -158.5h68z" />
    <glyph glyph-name="uni277D" unicode="&#x277d;" horiz-adv-x="799" 
d="M50 348q-1 71 26.5 135t76 112.5t112.5 76.5t135 26q70 2 134 -26t112 -76.5t76.5 -112.5t26.5 -135q2 -71 -26 -135.5t-76.5 -113t-112 -76.5t-134.5 -26q-71 -2 -135 26.5t-112.5 77t-76 113t-26.5 134.5zM540 277q0 32 -14 59t-38 38q14 10 23 30t9 42q0 48 -33.5 77
t-88.5 29q-57 0 -91 -29.5t-34 -77.5q0 -17 9 -38t22 -34q-22 -10 -36.5 -38t-14.5 -60q0 -57 39 -90.5t106 -33.5q66 0 104 34t38 92zM341 442q0 20 16 32.5t41 12.5q24 0 39.5 -12.5t15.5 -32.5t-15 -32t-40 -12t-41 12.5t-16 31.5zM321 279q0 29 21.5 46.5t55.5 17.5
q33 0 54.5 -18t21.5 -46t-21.5 -45.5t-54.5 -17.5q-34 0 -55.5 17.5t-21.5 45.5z" />
    <glyph glyph-name="uni277E" unicode="&#x277e;" horiz-adv-x="799" 
d="M50 348q-1 71 26.5 135t76 112.5t112.5 76.5t135 26q70 2 134 -26t112 -76.5t76.5 -112.5t26.5 -135q2 -71 -26 -135.5t-76.5 -113t-112 -76.5t-134.5 -26q-71 -2 -135 26.5t-112.5 77t-76 113t-26.5 134.5zM396 214q-61 2 -80 46l-63 -22q18 -40 55.5 -63.5t86.5 -23.5
q72 0 111 49t39 143q0 99 -39 154t-111 55q-58 0 -99 -41q-40 -40 -40 -101q0 -58 38 -96q40 -38 96 -38q26 0 50.5 9t41.5 30q-1 -45 -22.5 -72.5t-63.5 -28.5zM469 413q0 -32 -21 -52.5t-54 -20.5q-31 0 -51.5 21t-20.5 53t21 52.5t55 20.5q31 0 51 -20.5t20 -53.5z" />
    <glyph glyph-name="uni2780" unicode="&#x2780;" horiz-adv-x="878" 
d="M50 333q-2 79 29.5 150t85.5 124.5t125 85t149 29.5q78 2 149 -29.5t125 -85.5t85.5 -125t29.5 -149q2 -79 -29.5 -150t-85.5 -124.5t-125 -85t-149 -29.5q-79 -2 -150 29.5t-124.5 85t-84.5 124.5t-30 150zM754 333q2 63 -23.5 121t-69 101.5t-101.5 69t-121 23.5
q-63 1 -121 -24t-101.5 -68.5t-68.5 -101t-24 -121.5q-1 -64 24 -121.5t68.5 -101t101.5 -68.5t121 -24q64 -1 121.5 24t101 68.5t68.5 101t24 121.5zM346 471l76 39v-67l-76 -39v67zM422 510h67v-368h-67v368z" />
    <glyph glyph-name="uni2781" unicode="&#x2781;" horiz-adv-x="878" 
d="M828 333q2 -79 -29.5 -150t-85.5 -124.5t-125 -85t-149 -29.5q-79 -2 -150 29.5t-124.5 85t-84.5 124.5t-30 150q-2 79 29.5 150t85.5 124.5t125 85t149 29.5q78 2 149 -29.5t125 -85.5t85.5 -125t29.5 -149zM754 333q2 63 -23.5 121t-69 101.5t-101.5 69t-121 23.5
q-63 1 -121 -24t-101.5 -68.5t-68.5 -101t-24 -121.5q-1 -64 24 -121.5t68.5 -101t101.5 -68.5t121 -24q64 -1 121.5 24t101 68.5t68.5 101t24 121.5zM430 217h134v-65l-236 -1v56l151 137q16 16 22.5 28t6.5 27q0 28 -16.5 43.5t-44.5 16.5q-31 -1 -46.5 -19t-14.5 -50h-64
q-1 29 7.5 53t25.5 42t40.5 28t51.5 10q55 0 90.5 -33t36.5 -90q-1 -33 -15.5 -57.5t-47.5 -53.5z" />
    <glyph glyph-name="uni2782" unicode="&#x2782;" horiz-adv-x="878" 
d="M828 333q2 -79 -29.5 -150t-85.5 -124.5t-125 -85t-149 -29.5q-79 -2 -150 29t-124.5 84.5t-84.5 125t-30 149.5q-2 79 29.5 150t85.5 125t125 85.5t149 29.5q78 2 149 -29.5t125 -85.5t85.5 -125t29.5 -149zM754 332q2 64 -23.5 122t-69 101.5t-101.5 68.5t-121 24
q-63 1 -121 -24t-101.5 -68.5t-68.5 -101t-24 -121.5q-1 -64 24 -121.5t68.5 -101t101.5 -68.5t121 -24q64 -1 121.5 24t101 68.5t68.5 101t24 120.5zM567 259q0 -57 -36 -91t-93 -34q-29 0 -53 10.5t-41.5 28.5t-26 42t-7.5 51h64q-2 -31 16 -50.5t48 -19.5q27 0 45.5 18
t18.5 45q0 31 -20 47t-48 15h-54l-1 45l74 81h-127v66h223v-56l-76 -80q42 -9 68 -40.5t26 -77.5z" />
    <glyph glyph-name="uni2783" unicode="&#x2783;" horiz-adv-x="878" 
d="M828 333q2 -79 -29.5 -150t-85.5 -124.5t-125 -85t-149 -29.5q-79 -2 -150 29.5t-124.5 85t-84.5 124.5t-30 150q-2 79 29.5 150t85.5 124.5t125 85t149 29.5q78 2 149 -29.5t125 -85.5t85.5 -125t29.5 -149zM754 333q2 63 -23.5 121t-69 101.5t-101.5 69t-121 23.5
q-63 1 -121 -24t-101.5 -68.5t-68.5 -101t-24 -121.5q-1 -64 24 -121.5t68.5 -101t101.5 -68.5t121 -24q64 -1 121.5 24t101 68.5t68.5 101t24 121.5zM521 283h47v-66h-47v-69h-67v70h-172v65l172 233h67v-233zM454 283v123l-90 -123h90z" />
    <glyph glyph-name="uni2784" unicode="&#x2784;" horiz-adv-x="878" 
d="M50 333q-2 79 29.5 150t85.5 124.5t125 85t149 29.5q78 2 149 -29.5t125 -85.5t85.5 -125t29.5 -149q2 -79 -29.5 -150t-85.5 -124.5t-125 -85t-149 -29.5q-79 -2 -150 29.5t-124.5 85t-84.5 124.5t-30 150zM754 333q2 63 -23.5 121t-69 101.5t-101.5 69t-121 23.5
q-63 1 -121 -24t-101.5 -68.5t-68.5 -101t-24 -121.5q-1 -64 24 -121.5t68.5 -101t101.5 -68.5t121 -24q64 -1 121.5 24t101 68.5t68.5 101t24 121.5zM373 275q-3 -29 15 -49.5t49 -20.5q28 0 47.5 19t19.5 45q0 29 -20 48.5t-49 19.5q-19 0 -34.5 -8.5t-22.5 -21.5l-62 16
l47 187h193v-66h-141l-13 -51q17 6 38 6q54 0 92 -38q37 -37 37 -94q0 -26 -10.5 -49t-28.5 -40.5t-42 -28t-51 -10.5q-29 0 -53.5 10.5t-42 29t-27 43.5t-8.5 53h67z" />
    <glyph glyph-name="uni2785" unicode="&#x2785;" horiz-adv-x="878" 
d="M50 333q-2 79 29.5 150t85.5 124.5t125 85t149 29.5q78 2 149 -29.5t125 -85.5t85.5 -125t29.5 -149q2 -79 -29.5 -150t-85.5 -124.5t-125 -85t-149 -29.5q-79 -2 -150 29.5t-124.5 85t-84.5 124.5t-30 150zM754 333q2 63 -23.5 121t-69 101.5t-101.5 69t-121 23.5
q-63 1 -121 -24t-101.5 -68.5t-68.5 -101t-24 -121.5q-1 -64 24 -121.5t68.5 -101t101.5 -68.5t121 -24q64 -1 121.5 24t101 68.5t68.5 101t24 121.5zM441 515q86 0 126 -72l-50 -34q-27 43 -75 43q-29 -1 -53 -22.5t-30 -58.5q15 20 39 30t49 8q58 -1 91 -45
q33 -41 28 -100q-6 -57 -43 -90.5t-94 -33.5q-34 0 -59.5 13.5t-43 37.5t-26 56.5t-8.5 69.5q0 63 22 114q17 37 51 60.5t76 23.5zM430 205q30 0 51 20.5t19 54.5q-1 30 -20.5 48t-46.5 18t-48 -19.5t-21 -52.5q0 -32 19 -50.5t47 -18.5z" />
    <glyph glyph-name="uni2786" unicode="&#x2786;" horiz-adv-x="878" 
d="M828 333q2 -79 -29.5 -150t-85.5 -124.5t-125 -85t-149 -29.5q-79 -2 -150 29.5t-124.5 85t-84.5 124.5t-30 150q-2 79 29.5 150t85.5 124.5t125 85t149 29.5q78 2 149 -29.5t125 -85.5t85.5 -125t29.5 -149zM754 333q2 63 -23.5 121t-69 101.5t-101.5 69t-121 23.5
q-63 1 -121 -24t-101.5 -68.5t-68.5 -101t-24 -121.5q-1 -64 24 -121.5t68.5 -101t101.5 -68.5t121 -24q64 -1 121.5 24t101 68.5t68.5 101t24 121.5zM314 510h264v-70q-67 -49 -99 -114q-31 -63 -36 -104q-2 -20 -3.5 -39.5t-1.5 -38.5h-70q0 53 20 135q19 80 100 161h-174
v70z" />
    <glyph glyph-name="uni2787" unicode="&#x2787;" horiz-adv-x="878" 
d="M50 333q-2 79 29.5 150t85.5 124.5t125 85t149 29.5q78 2 149 -29.5t125 -85.5t85.5 -125t29.5 -149q2 -79 -29.5 -150t-85.5 -124.5t-125 -85t-149 -29.5q-79 -2 -150 29.5t-124.5 85t-84.5 124.5t-30 150zM754 333q2 63 -23.5 121t-69 101.5t-101.5 69t-121 23.5
q-63 1 -121 -24t-101.5 -68.5t-68.5 -101t-24 -121.5q-1 -64 24 -121.5t68.5 -101t101.5 -68.5t121 -24q64 -1 121.5 24t101 68.5t68.5 101t24 121.5zM303 255q0 27 14 51t36 39q-19 14 -28.5 33.5t-9.5 40.5q0 42 33.5 73t87.5 32q54 -1 86 -31t33 -72q0 -47 -39 -76
q23 -14 36.5 -38t13.5 -51q0 -45 -34 -78t-97 -34q-63 0 -97 33t-35 78zM491 418q0 17 -15 30t-41 13q-27 -1 -42 -13.5t-15 -29.5q1 -17 15.5 -29.5t41.5 -12.5q26 0 41 13t15 29zM501 259q0 20 -17 35t-49 15t-49 -15t-17 -36t17.5 -36t48.5 -15t48.5 15t17.5 37z" />
    <glyph glyph-name="uni2788" unicode="&#x2788;" horiz-adv-x="878" 
d="M50 333q-2 79 29.5 150t85.5 124.5t125 85t149 29.5q78 2 149 -29.5t125 -85.5t85.5 -125t29.5 -149q2 -79 -29.5 -150t-85.5 -124.5t-125 -85t-149 -29.5q-79 -2 -150 29.5t-124.5 85t-84.5 124.5t-30 150zM754 333q2 63 -23.5 121t-69 101.5t-101.5 69t-121 23.5
q-63 1 -121 -24t-101.5 -68.5t-68.5 -101t-24 -121.5q-1 -64 24 -121.5t68.5 -101t101.5 -68.5t121 -24q64 -1 121.5 24t101 68.5t68.5 101t24 121.5zM431 246q-25 0 -48 9t-40 25.5t-27 40t-10 51.5q0 29 10.5 55t29 45.5t43 30.5t52.5 11q45 0 78.5 -25.5t44.5 -68.5
q15 -48 15 -97q0 -79 -39 -132t-112 -53q-80 0 -121 71l54 32q11 -19 29.5 -29t37.5 -10q32 0 56.5 22.5t28.5 62.5q-11 -19 -34 -30t-48 -11zM441 451q-29 0 -50.5 -21t-20.5 -52q-1 -32 18.5 -51.5t48.5 -19.5t49.5 21t21.5 55q-2 29 -20 48.5t-47 19.5z" />
    <glyph glyph-name="DegarismLogo" horiz-adv-x="1528" 
d="M731 275h229v-267h-82l-10 80h-9q0 -3 -7 -18t-23.5 -30.5t-44.5 -28t-71 -11.5q-95 0 -155 64q-60 65 -60 189q0 65 19.5 113.5t52 80.5t75 48t88.5 16q37 0 73.5 -10.5t67 -32.5t52.5 -55t29 -78h-113q-10 36 -37.5 57.5t-69.5 21.5q-63 0 -94.5 -44.5t-31.5 -112.5
q0 -34 7.5 -63.5t23 -51t39 -33.5t54.5 -12q43 0 73 23t38 60h-113v95zM997 457q0 22 16 38t39 16t38.5 -15.5t15.5 -38.5t-16 -39t-38 -16t-38.5 16.5t-16.5 38.5zM1135 457q0 22 16 38t39 16t38.5 -15.5t15.5 -38.5t-16 -39t-38 -16t-38.5 16.5t-16.5 38.5zM1276 511h84
v-21h-30v-85h-25v85h-29v21zM1488 511v-106h-25v91l-15 -91h-35l-14 91v-91h-25v106h44l12 -88l14 88h44zM464 257q0 -124 -61 -186.5t-169 -62.5h-194v498h194q108 0 169 -62.5t61 -186.5zM354 257q0 96 -42 127q-40 31 -78 31h-66q-25 2 -42.5 12t-19.5 12l-8 -8
q3 -3 11.5 -11t18.5 -19q15 -13 18.5 -29t3.5 -27v-177q0 -25 -10 -39.5t-12 -16.5l-30 -30l8 -7q3 3 22.5 13.5t47.5 10.5h58q39 0 79 30q41 32 41 128zM1210 345q18 0 34 -3v-89q-4 1 -18 1q-49 0 -76.5 -25.5t-27.5 -80.5v-140h-108v257q0 49 -7 77h109q2 -10 2.5 -20
t1.5 -20q22 43 90 43z" />
    <glyph glyph-name="G.ss01" horiz-adv-x="774" 
d="M719 386v-73q1 -69 -22.5 -129t-67 -103.5t-104.5 -68t-135 -23.5q-78 0 -142.5 26t-110 74.5t-71 117t-25.5 152.5t25.5 153.5t71.5 119t110.5 76.5t143.5 27q111 0 192.5 -51.5t120.5 -142.5l-98 -37q-29 66 -84.5 100t-130.5 34q-55 0 -101 -19.5t-78.5 -56t-50.5 -88
t-18 -115.5t18 -114.5t50 -86t77.5 -54.5t100.5 -19q95 0 156.5 55t68.5 158h-243v88h347z" />
    <glyph glyph-name="a.ss01" horiz-adv-x="609" 
d="M449 0q-2 11 -3.5 29.5t-3.5 45.5q-24 -42 -70 -64.5t-103 -22.5q-54 0 -97 19t-73.5 52.5t-46.5 80.5t-16 102q0 57 16.5 105t47 82.5t74.5 54t98 19.5q57 0 102 -22.5t70 -64.5l5 73h86v-378q0 -23 2.5 -56.5t5.5 -54.5h-94zM436 245q0 78 -42 125.5t-111 47.5
q-33 0 -61 -12.5t-48.5 -35t-31.5 -54.5t-11 -71q0 -77 42 -125q44 -47 110 -47q69 0 111 47t42 125z" />
    <glyph glyph-name="ampersand.ss02" horiz-adv-x="711" 
d="M691 0q-36 1 -58.5 2t-38.5 7t-30 18t-34 34l-3 5q-83 -77 -219 -77q-56 0 -103 14.5t-80.5 42t-52 66.5t-18.5 87q1 42 13 74.5t34 60t53.5 53t72.5 52.5h-1q-36 45 -53 78t-17 71q0 31 11.5 58t32.5 47t50 31.5t64 11.5q67 0 111 -41t44 -103q0 -46 -31.5 -86.5
t-88.5 -80.5l170 -211q10 29 15 59.5t4 63.5h83q3 -114 -41 -200l11 -13q22 -28 38 -35q16 -6 34.5 -6h27.5v-83zM245 587q0 -21 12 -42t44 -59q42 27 63.5 50.5t21.5 51.5q0 31 -19.5 50t-51.5 19q-30 0 -50 -18.5t-20 -51.5zM276 377q-33 -22 -58 -41.5t-41.5 -40
t-24.5 -42t-8 -48.5q0 -34 14 -58.5t37 -41t52 -24.5t59 -8q51 0 92 17t71 47z" />
    <glyph glyph-name="at.ss04" horiz-adv-x="936" 
d="M886 375q0 -56 -15 -105t-41.5 -85.5t-63 -57.5t-79.5 -21q-48 0 -79.5 24.5t-38.5 62.5q-17 -34 -56.5 -56.5t-88.5 -22.5q-30 0 -56 8.5t-44.5 25t-29.5 40t-11 53.5q0 63 42.5 99.5t114.5 36.5h132q3 18 3 34q0 86 -93 86q-48 -1 -77 -21t-46 -59l-48 17
q24 57 70 84.5t101 27.5q72 0 110.5 -36t38.5 -105q0 -5 -0.5 -13t-1.5 -19l-16 -130q-1 -4 -1 -17q0 -36 20 -56t55 -20q33 0 59.5 18.5t45.5 49t29 70.5t10 83q1 67 -24 125.5t-69.5 101.5t-105 67.5t-129.5 23.5q-80 2 -152.5 -30.5t-127.5 -87.5t-87 -127.5t-30 -151.5
q-1 -71 26 -134.5t75 -110.5t112.5 -74t139.5 -26q76 0 147.5 27t128.5 78l33 -37q-66 -57 -148.5 -86.5t-167.5 -29.5q-87 -2 -161 29.5t-128 85.5t-84 126t-29 152q-2 89 34 170.5t98.5 143t146 97.5t175.5 34q82 1 152.5 -27t122 -77.5t80 -116t27.5 -141.5zM464 330
q-66 0 -95.5 -23.5t-29.5 -65.5q0 -40 25.5 -59t67.5 -19q61 0 95.5 43t40.5 124h-104z" />
    <glyph glyph-name="bracketleftsuperior" horiz-adv-x="208" 
d="M203 225h-157v647h157v-58h-88v-531h88v-58z" />
    <glyph glyph-name="bracketrightsuperior" horiz-adv-x="203" 
d="M88 283v531h-88v58h157v-647h-157v58h88z" />
    <glyph glyph-name="eight.dnom" horiz-adv-x="346" 
d="M41 99q0 28 13.5 52.5t36.5 38.5q-38 29 -38 73q0 20 8.5 39t24.5 34t38 24t50 9q27 0 49 -8.5t37.5 -23t24 -33t8.5 -39.5q0 -46 -38 -75q22 -15 36 -39t14 -51q0 -45 -34.5 -78t-97.5 -34q-63 0 -97 33t-35 78zM230 263q0 17 -15 29.5t-42 12.5q-28 0 -43 -12.5
t-13 -30.5q0 -17 15 -29.5t41 -12.5q27 1 42 13.5t15 29.5zM240 102q1 21 -17 36.5t-50 15.5t-49.5 -15.5t-16.5 -36.5q0 -21 17.5 -36t48.5 -15t49 15t18 36z" />
    <glyph glyph-name="eight.numr" horiz-adv-x="345" 
d="M41 447q0 27 14 51t36 39q-19 14 -28.5 33.5t-9.5 40.5q0 20 8.5 38.5t24.5 33.5t38.5 24t49.5 9q54 -1 86 -31.5t33 -72.5q0 -21 -9.5 -41t-29.5 -34q23 -14 36.5 -38t13.5 -51q0 -22 -9 -42.5t-26 -36t-41.5 -24.5t-56.5 -9q-63 0 -96 33t-34 78zM229 610
q0 17 -15 29.5t-41 12.5q-27 0 -42 -12.5t-15 -29.5q1 -17 15.5 -29.5t41.5 -12.5q26 0 41 13t15 29zM239 450q0 21 -17 36t-49 15q-31 0 -48 -14.5t-18 -34.5q-2 -21 16 -37.5t50 -16.5q31 0 48.5 15.5t17.5 36.5z" />
    <glyph glyph-name="eight.tf" horiz-adv-x="623" 
d="M569 196q0 -47 -19 -85.5t-53.5 -65.5t-81.5 -42t-103 -15t-103.5 15t-82 42.5t-53.5 66t-19 84.5q0 66 36.5 116.5t99.5 72.5q-51 22 -78.5 64t-27.5 96q0 45 17.5 80.5t48 60t72.5 37.5t90 13t89.5 -13t72 -37.5t47.5 -60t17 -80.5q0 -54 -27.5 -97t-78.5 -63
q66 -20 101.5 -71.5t35.5 -117.5zM172 540q0 -51 36.5 -83t102.5 -32q64 0 101.5 31t37.5 80q0 55 -38 85t-101 30q-60 0 -99.5 -28.5t-39.5 -82.5zM472 208q0 60 -45.5 93.5t-115.5 33.5q-34 0 -63.5 -8.5t-51 -24.5t-33.5 -39.5t-12 -53.5q0 -31 12 -55.5t34 -41.5
t51.5 -26t63.5 -9q35 0 64 9t50.5 26t33.5 41.5t12 54.5z" />
    <glyph glyph-name="five.dnom" horiz-adv-x="351" 
d="M108 126q-2 -30 16.5 -51t49.5 -21q29 0 49 19.5t20 47.5q0 30 -20 50t-51 20q-19 0 -35 -9t-23 -22l-63 16l47 192h199v-68h-145l-14 -52q20 6 39 6q58 0 95 -39q38 -38 38 -96q0 -27 -10.5 -51t-29 -42t-43.5 -28.5t-53 -10.5q-30 0 -55 11t-43 29.5t-27 44t-8 54.5h67
z" />
    <glyph glyph-name="five.numr" horiz-adv-x="345" 
d="M107 475q-2 -30 16 -50t48 -20q28 0 47.5 19t19.5 45q0 29 -19.5 48.5t-48.5 19.5q-19 0 -34.5 -8.5t-22.5 -21.5l-62 16l47 187h193v-66h-141l-14 -51q18 6 38 6q54 0 92 -38t38 -94q0 -26 -10.5 -49.5t-29 -41t-42.5 -27.5t-51 -10q-29 0 -53 10.5t-41.5 29t-27 43.5
t-8.5 53h66z" />
    <glyph glyph-name="five.tf" horiz-adv-x="623" 
d="M575 240q0 -55 -19 -101t-53.5 -79.5t-82.5 -52.5t-105 -19q-56 0 -103.5 18.5t-82.5 51.5t-54.5 78.5t-19.5 99.5h98q0 -71 46 -114q47 -44 118 -44q33 0 62 12t51 33.5t34.5 51t12.5 65.5t-12 66t-33 51.5t-51 33.5t-66 12q-45 0 -82 -17.5t-62 -48.5l-92 15l91 371
h359v-95h-283l-47 -178q56 38 131 38q56 0 101.5 -19.5t77.5 -53t49 -78.5t17 -97z" />
    <glyph glyph-name="four.dnom" horiz-adv-x="372" 
d="M331 66h-47v-70h-68v70h-175v67l175 235h68v-236h47v-66zM216 132v125l-91 -125h91z" />
    <glyph glyph-name="four.numr" horiz-adv-x="369" 
d="M328 412h-47v-70h-67v70h-173v65l173 233h67v-233h47v-65zM214 477v123l-91 -123h91z" />
    <glyph glyph-name="four.ss03" horiz-adv-x="651" 
d="M626 143h-89v-143h-94v143l-394 1v94h394v390l-281 -390h-113l351 485h113h24v-485l89 -1v-94z" />
    <glyph glyph-name="four.tf" horiz-adv-x="619" 
d="M580 143h-89v-143h-94v143l-354 1v89l311 490h113l-311 -490h241v223h94v-223h89v-90z" />
    <glyph glyph-name="g.ss02" horiz-adv-x="603" 
d="M537 488v-473q0 -117 -67 -181q-66 -66 -177 -66q-91 0 -153.5 42.5t-88.5 117.5l85 33q13 -51 56 -79.5t103 -28.5q72 0 111 41t39 116v87q-24 -39 -70 -61.5t-104 -22.5q-53 0 -96 18.5t-73 51t-46.5 77t-16.5 97.5t17 98t47.5 78t74 51.5t97.5 18.5q57 0 103 -22.5
t70 -65.5l5 73h84zM439 259q0 35 -11 64t-31 51t-48 34t-63 12q-34 0 -62 -12t-48 -33.5t-30.5 -51t-10.5 -64.5q0 -36 10.5 -65.5t30.5 -51.5t48 -34t62 -12t62 12.5t48.5 34.5t31.5 52t11 64z" />
    <glyph glyph-name="i.loclTRK" horiz-adv-x="208" 
d="M151 489v-489h-94v489h94zM38 616q0 27 19.5 46.5t45.5 19.5q27 0 46.5 -20t19.5 -46q0 -27 -19.5 -46.5t-46.5 -19.5t-46 19.5t-19 46.5z" />
    <glyph glyph-name="i.ss04" horiz-adv-x="251" 
d="M198 657l-72 -72l-72 72l72 72zM173 489v-489h-95v489h95z" />
    <glyph glyph-name="nine.dnom" horiz-adv-x="362" 
d="M171 97q-27 0 -51 10t-42 28t-28 44t-9 58q2 58 40 95q39 39 95 39q45 0 79 -25.5t48 -70.5q17 -56 17 -104q0 -39 -10 -73t-28.5 -58.5t-46.5 -39t-64 -14.5q-80 0 -126 73l55 33q11 -21 30.5 -31.5t40.5 -10.5q31 0 55.5 23t26.5 65q-10 -19 -34 -30t-48 -11zM182 307
q-31 2 -54 -19t-22 -55q0 -33 20.5 -53.5t49.5 -20.5t49 20.5t20 53.5q0 29 -17 49.5t-46 24.5z" />
    <glyph glyph-name="nine.numr" horiz-adv-x="357" 
d="M169 446q-52 0 -90 35q-38 36 -38 95q0 29 10.5 54.5t28.5 44t42.5 29t51.5 10.5q45 0 78.5 -25.5t45.5 -68.5q17 -54 17 -103q0 -39 -9.5 -71.5t-28 -56.5t-46 -37.5t-63.5 -13.5q-81 0 -122 71l54 32q11 -19 29 -29t37 -10q33 0 57 21.5t27 63.5q-10 -19 -33 -30
t-48 -11zM175 651q-28 0 -49 -20t-21 -51q0 -33 20 -53t49 -20t48.5 20t19.5 52q0 30 -18.5 51t-48.5 21z" />
    <glyph glyph-name="nine.tf" horiz-adv-x="649" 
d="M598 372q0 -81 -20 -151t-60 -122t-100 -81.5t-140 -29.5q-66 0 -121.5 21t-94.5 58l59 69q70 -58 162 -58q54 0 95 20t68.5 55.5t41.5 83.5t14 103q-26 -55 -81 -84.5t-121 -29.5q-54 0 -100 18t-80.5 51t-54 79t-19.5 101q0 57 19.5 104.5t54.5 82.5t82.5 54.5
t104.5 19.5q74 0 128.5 -28t90.5 -77t54 -115.5t18 -143.5zM476 479q0 39 -13 70t-35.5 53t-52.5 34t-65 12t-65.5 -12t-53 -34t-35.5 -53t-13 -70t13 -70t35.5 -53.5t53 -34.5t66.5 -12q35 0 65 12.5t52 35t35 54t13 68.5z" />
    <glyph glyph-name="one.dnom" horiz-adv-x="218" 
d="M41 336l69 32v-70l-69 -28v66zM177 368v-368h-66l-1 368h67z" />
    <glyph glyph-name="one.numr" horiz-adv-x="219" 
d="M41 678l69 32v-70l-69 -27v65zM178 710v-368h-67l-1 368h68z" />
    <glyph glyph-name="one.tf" horiz-adv-x="544" 
d="M492 85v-85h-241h-150v85h150v539l-128 -68v95l128 72h97v-638h144z" />
    <glyph glyph-name="registered.ss01" horiz-adv-x="531" 
d="M491 498q0 -47 -17.5 -88t-48 -72t-71.5 -48.5t-87 -17.5q-47 0 -88.5 17.5t-72 48.5t-48.5 72t-18 88q0 46 18 87t48.5 71.5t72 48t88.5 17.5q46 0 87 -18t71.5 -48.5t48 -71t17.5 -86.5zM452 497q0 39 -14.5 72.5t-39.5 58.5t-59 39.5t-73 14.5t-73 -14.5t-58.5 -39.5
t-39 -58.5t-14.5 -72.5t14 -73t39 -58.5t59 -38.5t73 -14t73 14t59 38.5t39.5 58.5t14.5 73zM346 397h-47l-34 78h-24v-78h-41v201h41h27q35 1 54.5 -13.5t20.5 -43.5v-3v-4q-2 -39 -34 -53zM241 511h35q12 1 16.5 6t5.5 17v2v2q-2 20 -30 20h-27v-47z" />
    <glyph glyph-name="seven.dnom" horiz-adv-x="347" 
d="M306 368v-70q-68 -51 -99 -115t-36 -105q-2 -20 -3.5 -39.5t-1.5 -38.5h-70q0 60 19 137q19 80 100 161h-174v70h265z" />
    <glyph glyph-name="seven.numr" horiz-adv-x="346" 
d="M305 710v-70q-67 -49 -99 -114q-31 -63 -36 -104q-2 -20 -3 -39.5t-1 -38.5h-71q0 53 20 135q19 80 100 161h-174v70h264z" />
    <glyph glyph-name="seven.tf" horiz-adv-x="569" 
d="M524 722v-97q-129 -103 -191 -239q-31 -67 -49 -123t-25 -103q-12 -91 -12 -160h-97q0 114 44 290q43 174 209 335h-364v97h485z" />
    <glyph glyph-name="six.dnom" horiz-adv-x="366" 
d="M322 128q0 -30 -10 -55t-28.5 -44t-44 -29.5t-56.5 -10.5q-35 0 -61.5 13.5t-44.5 38.5t-27 59t-9 74q0 85 40 140q41 56 116 56q43 0 76.5 -17t51.5 -47l-53 -36q-26 35 -73 35q-36 0 -58.5 -21.5t-29.5 -56.5q29 35 83 35q58 0 92 -40q36 -39 36 -94zM252 123
q0 33 -20 52.5t-49 19.5q-30 0 -49 -19.5t-19 -52.5q0 -34 19 -52.5t48 -18.5t49.5 19t20.5 52z" />
    <glyph glyph-name="six.numr" horiz-adv-x="366" 
d="M322 474q0 -57 -39 -98q-37 -39 -100 -39q-35 0 -61.5 14t-44.5 38.5t-27 58t-9 72.5q0 83 41 139t115 56q42 0 74.5 -16.5t53.5 -46.5l-53 -36q-25 34 -73 34q-36 0 -58.5 -21t-29.5 -56q14 17 36 26t47 9q58 0 92 -40q36 -39 36 -94zM252 470q0 32 -20 52t-49 20
q-30 0 -49 -20t-19 -53t19 -51t48 -18t49.5 18.5t20.5 51.5z" />
    <glyph glyph-name="six.tf" horiz-adv-x="642" 
d="M599 249q0 -57 -19.5 -104.5t-54.5 -82.5t-82.5 -54.5t-104.5 -19.5q-73 0 -127.5 28t-90.5 77t-54 115.5t-18 143.5q0 81 20 151t59.5 122t99.5 81.5t140 29.5q66 0 121.5 -21t94.5 -58l-59 -70q-35 29 -77.5 43.5t-84.5 14.5q-54 0 -94.5 -20t-68 -55.5t-41.5 -83
t-14 -102.5q25 55 80 84.5t121 29.5q54 0 100.5 -18t80.5 -51t53.5 -79t19.5 -101zM502 245q0 38 -13 69.5t-36 53.5t-54 34t-67 12q-34 0 -64 -12t-52 -34.5t-34.5 -53.5t-12.5 -69q0 -39 13 -70t35.5 -53t53 -34t65.5 -12t65 12t52.5 34t35.5 53t13 70z" />
    <glyph glyph-name="t.ss03" horiz-adv-x="350" 
d="M309 0q-46 -11 -77 -11q-66 0 -103 37.5t-37 110.5v272h-76v80h76v153h94v-153h115v-80h-115v-259q-1 -40 16 -58.5t47 -18.5q23 0 48 9z" />
    <glyph glyph-name="three.dnom" horiz-adv-x="345" 
d="M304 119q0 -27 -10 -50t-27.5 -39.5t-41.5 -26t-53 -9.5q-56 0 -94 35q-37 34 -37 87q0 12 1 15h67q-1 -3 -1 -14q0 -25 17.5 -41.5t46.5 -16.5q28 0 46.5 17t18.5 44t-19 44t-46 17q-15 0 -30 -6l-31 51h1h-1l77 76h-132v66h234v-59l-73 -71q38 -13 62.5 -44.5
t24.5 -74.5z" />
    <glyph glyph-name="three.numr" horiz-adv-x="339" 
d="M298 461q0 -51 -38 -89q-37 -36 -90 -36t-91 36t-38 88l1 13h66q-1 -3 -1 -13q0 -25 18 -41.5t45 -16.5q26 0 44 17t18 42q0 31 -23 49q-16 13 -39 13q-15 0 -29 -6l-31 51l74 75h-127v67h229v-59l-72 -72q33 -10 53 -35q31 -34 31 -83z" />
    <glyph glyph-name="three.tf" horiz-adv-x="594" 
d="M537 224q0 -53 -19.5 -96.5t-53.5 -74.5t-79.5 -48t-96.5 -17q-52 0 -97.5 17t-79.5 48.5t-53.5 75t-19.5 96.5h98q0 -32 11.5 -59t32.5 -47t49 -31t61 -11q32 0 59 10.5t47 30t31.5 46.5t11.5 60q0 61 -37.5 101.5t-101.5 44.5q-9 1 -24 1.5t-37 0.5h-47v67l202 195
h-322v89h449v-90l-188 -178q88 -13 146 -76q58 -61 58 -155z" />
    <glyph glyph-name="two.dnom" horiz-adv-x="337" 
d="M47 66l139 119q24 21 33 34t9 29q0 28 -16.5 43.5t-45.5 15.5q-27 -1 -43.5 -17t-16.5 -43l1 -11h-66q-2 29 7 53.5t27 43t43 29t54 10.5q55 -1 89 -34.5t34 -87.5q0 -60 -64 -114l-85 -71l142 1v-66h-241v66z" />
    <glyph glyph-name="two.numr" horiz-adv-x="337" 
d="M47 407l140 119q23 20 32 33t9 29q0 28 -16 43.5t-44 15.5q-29 0 -45.5 -16t-16.5 -44l1 -11h-66q-4 58 33 97q38 39 99 39q55 -1 88.5 -34.5t33.5 -87.5q0 -61 -64 -113l-85 -71h142v-66h-241v67z" />
    <glyph glyph-name="two.tf" horiz-adv-x="600" 
d="M200 90l328 1v-89l-460 -2v101l295 255q48 42 65.5 76.5t17.5 69.5q0 66 -40.5 106t-106.5 40t-106 -40.5t-40 -109.5h-97q0 55 18 99.5t50.5 75.5t77.5 47.5t99 16.5q57 0 102 -18t76.5 -49.5t48 -74.5t16.5 -92q0 -67 -30 -116t-88 -100z" />
    <glyph glyph-name="zero.dnom" horiz-adv-x="401" 
d="M205 -13q-37 -2 -67.5 11t-52 38t-33 60.5t-11.5 79.5q0 87 43.5 138.5t118.5 51.5q70 0 114 -53q43 -52 43 -137t-41.5 -136.5t-113.5 -52.5zM293 176q0 55 -25 88t-67 33t-67.5 -33t-25.5 -88t25.5 -88.5t67.5 -33.5q42 1 67 34t25 88z" />
    <glyph glyph-name="zero.numr" horiz-adv-x="403" 
d="M200 339q-36 0 -65.5 14t-50 39t-32 60.5t-11.5 78.5q0 87 43.5 138.5t118.5 51.5q36 0 65 -14t50 -39t32 -60t11 -77q0 -88 -43 -140t-118 -52zM293 531q0 55 -25 88t-67 33t-67 -33t-25 -88q0 -57 25 -90t68 -34q42 1 66.5 34t24.5 90z" />
    <glyph glyph-name="zero.tf" horiz-adv-x="717" 
d="M360 736q72 0 130.5 -27.5t100 -77.5t63.5 -119t22 -153q0 -83 -22 -151.5t-63.5 -117t-99.5 -75.5t-130 -27t-130.5 27t-99 76t-62.5 118t-22 153q0 82 22.5 151t64 118.5t99 77t127.5 27.5zM361 76q48 0 88 19t68.5 55.5t44.5 89.5t16 121t-16 121t-44.5 90t-68.5 56
t-88 19q-48 -1 -88.5 -20t-69 -55.5t-44.5 -89.5t-16 -121t16 -121t44.5 -89t69 -55t88.5 -20z" />
    </font>
</defs>
</svg>
