<?xml version="1.0" standalone="no"?>
<!DOCTYPE svg PUBLIC "-//W3C//DTD SVG 1.1//EN" "http://www.w3.org/Graphics/SVG/1.1/DTD/svg11.dtd" >
<svg xmlns="http://www.w3.org/2000/svg" xmlns:xlink="http://www.w3.org/1999/xlink" version="1.1">
<metadata>
Created by FontForge 20201107 at Sun Apr 23 04:35:11 2017
 By 
Copyright (c) 2016 by Deni Anggara. All rights reserved.
</metadata>
<defs>
<font id="Biotif-SemiBold" horiz-adv-x="0" >
  <font-face 
    font-family="Biotif Semi Bold"
    font-weight="600"
    font-stretch="normal"
    units-per-em="1000"
    panose-1="0 0 7 0 0 0 0 0 0 0"
    ascent="749"
    descent="-251"
    x-height="493"
    cap-height="730"
    bbox="-536 -249 1488 1095"
    underline-thickness="80"
    underline-position="-195"
    unicode-range="U+0020-FB02"
  />
<missing-glyph horiz-adv-x="548" 
d="M449 -228h-347v1095h347v-1095zM184 794v-36h71v-41h-72v-36h182v36h-73v41h73v36h-181zM183 652v-113h182v37h-73v76h-109zM255 576h-36v39h36v-39zM183 509v-36h72v-41h-72v-36h109v77h73v36h-182zM329 443v-72h-146v-37h182v109h-36zM255 310v-62h37v26h37v-52h-110
v88h-36v-124h182v124h-110zM183 120v-124h182v124h-182zM329 33h-110v51h110v-51zM183 -29v-36h77l-77 -51v-36h182v36h-112l77 51h35v36h-182z" />
    <glyph glyph-name="fi" unicode="fi" horiz-adv-x="618" 
d="M546 493v-493h-118v395h-225v-395h-119v395h-70v98h70v63q0 96 47 141.5t131 45.5q15 0 30 -1.5t30 -3.5v-105q-19 4 -43 4q-43 0 -59.5 -21t-16.5 -60v-63h343zM414 664q0 32 21.5 53.5t52.5 21.5q32 0 53.5 -21.5t21.5 -53.5q0 -31 -21.5 -53t-53.5 -22
q-31 0 -52.5 21.5t-21.5 53.5z" />
    <glyph glyph-name="fl" unicode="fl" horiz-adv-x="612" 
d="M541 743v-743h-119v395h-219v-395h-119v395h-70v98h70v63q0 96 47 141.5t131 45.5q15 0 30 -1.5t30 -3.5v-105q-19 4 -43 4q-43 0 -59.5 -21t-16.5 -60v-63h219v250h119z" />
    <glyph glyph-name="f_f" unicode="ff" horiz-adv-x="705" 
d="M631 637q-43 0 -59.5 -21t-16.5 -60v-63h100v-98h-100v-395h-119v395h-231v-395h-119v395h-71v98h70v63q0 96 47.5 141.5t131.5 45.5q15 0 30 -1.5t29 -3.5v-105q-19 4 -42 4q-43 0 -59.5 -21t-16.5 -60v-63h231v63q0 96 47 141.5t131 45.5q15 0 30 -1.5t30 -3.5v-105
q-19 4 -43 4z" />
    <glyph glyph-name="f_f_i" unicode="ffi" horiz-adv-x="969" 
d="M553 493h345v-493h-119v395h-226v-395h-118l-1 395h-231v-395h-119v395h-70v98h70v63q0 96 47 141.5t131 45.5q15 0 30 -1.5t30 -3.5v-105q-19 4 -43 4q-43 0 -59.5 -21t-16.5 -60v-63h231v63q0 96 47.5 141.5t131.5 45.5q14 0 29 -1.5t30 -3.5v-105q-19 4 -42 4
q-43 0 -60 -21t-17 -60v-63zM765 664q0 32 21.5 53.5t52.5 21.5q32 0 53.5 -21.5t21.5 -53.5q0 -31 -21.5 -53t-53.5 -22q-31 0 -52.5 21.5t-21.5 53.5z" />
    <glyph glyph-name="f_f_l" unicode="ffl" horiz-adv-x="963" 
d="M891 743v-743h-118v395h-220v-395h-118l-1 395h-231v-395h-119v395h-70v98h70v63q0 96 47 141.5t131 45.5q15 0 30 -1.5t30 -3.5v-105q-19 4 -43 4q-43 0 -59.5 -21t-16.5 -60v-63h231v63q0 96 47.5 141.5t131.5 45.5q14 0 29 -1.5t30 -3.5v-105q-19 4 -42 4
q-43 0 -60 -21t-17 -60v-63h220v250h118z" />
    <glyph glyph-name="f_t" unicode="ft" horiz-adv-x="687" 
d="M676 395h-115v-395h-117v395h-241v-395h-119v395h-70v98h70v63q0 96 47 141.5t131 45.5q15 0 30 -1.5t30 -3.5v-105q-19 4 -43 4q-43 0 -59.5 -21t-16.5 -60v-63h241v154h117v-154h115v-98z" />
    <glyph glyph-name="f_y" unicode="fy" horiz-adv-x="828" 
d="M819 493l-221 -593q-26 -72 -74.5 -103.5t-106.5 -31.5q-59 0 -109 26l32 100q13 -10 31 -16.5t37 -6.5q26 0 47.5 14t33.5 45l10 26l-1 -1l-174 443h-121v-395h-119v395h-70v98h70v63q0 96 47 141.5t131 45.5q15 0 30 -1.5t30 -3.5v-105q-19 4 -43 4q-43 0 -59.5 -21
t-16.5 -60v-63h213l142 -382l134 382h127z" />
    <glyph glyph-name="t_i" unicode="ti" horiz-adv-x="590" 
d="M390 664q0 32 21.5 53.5t52.5 21.5q32 0 53.5 -21.5t21.5 -53.5q0 -31 -21.5 -53t-53.5 -22q-31 0 -52.5 21.5t-21.5 53.5zM522 0h-118v395h-178v-395h-116v395h-96v98h96v154h116v-154h296v-493z" />
    <glyph glyph-name="t_t" unicode="tt" horiz-adv-x="671" 
d="M657 395h-95v-395h-117v395h-96h-123v-395h-116v395h-96v98h96v154h116v-154h165h54v154h117v-154h95v-98z" />
    <glyph glyph-name="t_y" unicode="ty" horiz-adv-x="828" 
d="M819 493l-222 -593q-26 -72 -74.5 -103.5t-105.5 -31.5q-59 0 -109 26l32 100q13 -10 31 -16.5t37 -6.5q26 0 47.5 14t33.5 45l9 25l-174 443h-98v-395h-116v395h-96v98h96v154h116v-154h157h33l141 -385l135 385h127z" />
    <glyph glyph-name=".notdef" horiz-adv-x="548" 
d="M449 -228h-347v1095h347v-1095zM184 794v-36h71v-41h-72v-36h182v36h-73v41h73v36h-181zM183 652v-113h182v37h-73v76h-109zM255 576h-36v39h36v-39zM183 509v-36h72v-41h-72v-36h109v77h73v36h-182zM329 443v-72h-146v-37h182v109h-36zM255 310v-62h37v26h37v-52h-110
v88h-36v-124h182v124h-110zM183 120v-124h182v124h-182zM329 33h-110v51h110v-51zM183 -29v-36h77l-77 -51v-36h182v36h-112l77 51h35v36h-182z" />
    <glyph glyph-name=".null" 
 />
    <glyph glyph-name="nonmarkingreturn" horiz-adv-x="333" 
 />
    <glyph glyph-name="space" unicode=" " horiz-adv-x="270" 
 />
    <glyph glyph-name="exclam" unicode="!" horiz-adv-x="330" 
d="M114 173q-6 33 -9.5 64.5t-5.5 64t-3 67.5t-1 75v285h140v-285q0 -40 -1 -75t-3 -67.5t-5.5 -64t-9.5 -64.5h-102zM91 58q0 32 21.5 52.5t53.5 20.5t53.5 -20.5t21.5 -52.5t-21.5 -52t-53.5 -20t-53.5 20t-21.5 52z" />
    <glyph glyph-name="quotedbl" unicode="&#x22;" horiz-adv-x="341" 
d="M124 432h-67l-22 193l-1 11q0 28 16.5 42.5t39.5 14.5q24 0 41 -17t14 -51zM285 432h-67l-22 193q-4 33 13 50.5t42 17.5q22 0 39 -14.5t17 -42.5l-1 -11z" />
    <glyph glyph-name="numbersign" unicode="#" horiz-adv-x="716" 
d="M549 420l-22 -111h112l-22 -118h-113l-38 -191h-118l38 191h-131l-37 -191h-118l38 191h-97l23 118h97l22 111h-109l22 119h110l37 190h118l-37 -190h130l38 190h117l-37 -190h103l-23 -119h-103zM431 420h-131l-21 -111h130z" />
    <glyph glyph-name="dollar" unicode="$" horiz-adv-x="655" 
d="M377 -90h-89v81q-96 10 -154 61t-69 135l120 17q11 -82 103 -100v216l-24 6q-176 47 -176 204q0 41 14.5 76.5t41 63.5t63 46.5t81.5 24.5v71h89v-71q81 -12 135.5 -58.5t71.5 -118.5l-118 -31q-8 36 -31.5 60t-57.5 33v-209l23 -6q87 -24 137.5 -75.5t50.5 -140.5
q0 -85 -57 -139t-154 -65v-81zM288 625q-35 -11 -55 -36t-20 -56q0 -68 75 -92v184zM467 200q-1 40 -24.5 62t-65.5 34v-191q46 8 68 34.5t22 60.5z" />
    <glyph glyph-name="percent" unicode="%" horiz-adv-x="924" 
d="M45 550q0 88 45 142q45 56 119 54q75 1 120.5 -52t45.5 -144q0 -45 -12 -81t-33.5 -62t-52.5 -40t-69 -14q-75 0 -119 53.5t-44 143.5zM801 729l-556 -729h-119l555 729h120zM210 437q38 1 59.5 30t21.5 83q0 48 -18.5 76.5t-50.5 33.5q-3 1 -12 1t-12 -1
q-33 -4 -51.5 -33t-18.5 -77q0 -52 22 -82t60 -31zM882 180q0 -45 -12 -81t-33.5 -62t-52.5 -40t-69 -14q-75 0 -119 53t-44 144q0 88 45 142q45 56 119 54q75 1 120.5 -52t45.5 -144zM798 180q0 48 -18.5 76.5t-50.5 33.5q-3 1 -12 1t-12 -1q-33 -4 -51.5 -33t-18.5 -77
q0 -52 22 -82t60 -31q38 1 59.5 30t21.5 83z" />
    <glyph glyph-name="ampersand" unicode="&#x26;" horiz-adv-x="733" 
d="M572 0l-43 52q-83 -64 -209 -64q-62 0 -111 15.5t-83.5 44.5t-53 69.5t-18.5 90.5q0 72 39.5 122.5t124.5 98.5q-43 52 -59.5 86t-16.5 70q0 77 51 117q53 41 129 41q79 0 128 -43q50 -42 50 -110q0 -49 -31 -92t-100 -88l149 -178q13 39 13 95v17t-1 12h123
q3 -134 -52 -223l112 -133h-141zM257 574q0 -19 12.5 -39.5t43.5 -57.5q73 45 73 100q0 27 -16.5 45t-47.5 18q-32 0 -49 -19.5t-16 -46.5zM277 357q-45 -29 -71.5 -66.5t-26.5 -79.5q0 -54 40 -86.5t112 -32.5q81 2 129 44z" />
    <glyph glyph-name="quotesingle" unicode="'" horiz-adv-x="240" 
d="M159 435h-77l-23 201q-1 3 -1 13q0 31 18.5 47.5t44.5 16.5q24 0 43 -17t19 -49l-1 -11z" />
    <glyph glyph-name="parenleft" unicode="(" horiz-adv-x="304" 
d="M210 -92q-76 87 -120.5 207.5t-44.5 258.5q0 132 42 253.5t123 212.5h94q-64 -87 -101 -207t-38 -259q1 -133 36.5 -254.5t102.5 -211.5h-94z" />
    <glyph glyph-name="parenright" unicode=")" horiz-adv-x="302" 
d="M139 374q-1 139 -38 259t-101 207h95q81 -91 122.5 -212.5t41.5 -253.5q0 -138 -44 -258.5t-120 -207.5h-95q67 90 102.5 211t36.5 255z" />
    <glyph glyph-name="asterisk" unicode="*" horiz-adv-x="417" 
d="M299 495l38 -59l-50 -35l-40 57q-23 29 -40 73q-10 -34 -38 -73l-42 -57l-51 35l41 59q23 32 56 62q-45 5 -82 18l-66 23l23 59l63 -22q42 -16 75 -37q-9 44 -9 83v70h62v-70q0 -48 -9 -83q16 10 34.5 19.5t40.5 17.5l65 22l22 -59l-67 -23q-37 -13 -81 -18
q14 -14 28 -29.5t27 -32.5z" />
    <glyph glyph-name="plus" unicode="+" horiz-adv-x="661" 
d="M581 286h-199v-200h-102v200h-200v102h200v199h102v-199h199v-102z" />
    <glyph glyph-name="comma" unicode="," horiz-adv-x="277" 
d="M215 34q0 -30 -10.5 -55.5t-28 -44.5t-40.5 -29.5t-48 -10.5v39q27 1 45.5 20t18.5 42q-12 -6 -26 -6q-27 0 -45 18.5t-18 49.5q0 32 20 52.5t52 20.5q34 0 57 -24t23 -72z" />
    <glyph glyph-name="hyphen" unicode="-" horiz-adv-x="537" 
d="M475 331v-106h-413v106h413z" />
    <glyph glyph-name="period" unicode="." horiz-adv-x="289" 
d="M65 62q0 33 23 56t56 23t56.5 -23t23.5 -56q0 -31 -24 -54.5t-56 -23.5q-33 0 -56 23t-23 55z" />
    <glyph glyph-name="slash" unicode="/" horiz-adv-x="403" 
d="M284 729h119l-286 -729h-117z" />
    <glyph glyph-name="zero" unicode="0" horiz-adv-x="763" 
d="M381 743q74 0 132.5 -27.5t100 -78t63.5 -120.5t22 -154t-23 -153.5t-64.5 -119t-100 -76.5t-130.5 -27q-74 0 -133 27.5t-100 77t-63 119.5t-22 154q-1 83 22 153t65.5 120t101.5 78t129 27zM381 97q92 0 143.5 71.5t51.5 195.5q0 126 -51 197t-142 71q-94 0 -146 -70.5
t-52 -198.5q0 -125 51.5 -195t144.5 -71z" />
    <glyph glyph-name="one" unicode="1" horiz-adv-x="415" 
d="M57 649l138 81h121v-730h-121v605l-138 -75v119z" />
    <glyph glyph-name="two" unicode="2" horiz-adv-x="599" 
d="M242 112h301v-111l-471 -1v119l274 242q48 43 67 77t19 69q0 58 -35 92t-90 34q-57 0 -93 -36.5t-36 -97.5h-122q0 57 18.5 102t51.5 76.5t79.5 48.5t102.5 17q59 0 105 -18.5t77.5 -51t48 -75.5t16.5 -91q0 -36 -8 -66t-24 -57t-40 -53t-55 -54z" />
    <glyph glyph-name="three" unicode="3" horiz-adv-x="592" 
d="M544 229q0 -54 -20 -99t-55 -76.5t-82.5 -49t-102.5 -17.5t-101.5 17t-80 49t-52.5 77t-19 102h123q0 -63 35.5 -98.5t96.5 -35.5t98.5 36.5t37.5 96.5q0 55 -33 90.5t-99 39.5q-17 1 -31 1.5t-25 0.5h-52v81l183 176h-300v110h462v-106l-170 -162q82 -19 134 -80
q53 -62 53 -153z" />
    <glyph glyph-name="four" unicode="4" horiz-adv-x="654" 
d="M62 254l298 476h140l-299 -476h208v191h118v-191h92v-111h-92v-143h-118v143l-347 1v110z" />
    <glyph glyph-name="five" unicode="5" horiz-adv-x="642" 
d="M590 246q0 -56 -20 -103.5t-56 -82t-85.5 -53.5t-108.5 -19q-58 0 -107 19t-85 52.5t-56 80.5t-20 103h123q0 -66 41 -105.5t107 -39.5q29 0 55 11t45.5 30.5t31.5 47t12 60.5q0 69 -41 109.5t-104 40.5q-42 0 -76.5 -17.5t-56.5 -47.5l-115 16l93 382h373v-119h-277
l-40 -144q50 32 121 32q56 0 101.5 -19.5t77.5 -54t49.5 -80.5t17.5 -99z" />
    <glyph glyph-name="six" unicode="6" horiz-adv-x="683" 
d="M630 254q0 -57 -20 -105.5t-56 -84.5t-85 -56.5t-107 -20.5q-77 -1 -134 28.5t-94 80t-54.5 118.5t-17.5 143q0 80 20 150t60.5 122.5t102 83t145.5 30.5q67 0 125 -21.5t97 -59.5l-74 -86q-32 26 -73.5 40t-80.5 14q-92 0 -146 -62q-54 -61 -57 -159q27 46 77.5 71
t113.5 25q55 -1 102.5 -19t82 -50.5t54 -78.5t19.5 -103zM508 251q0 69 -44 110q-43 42 -108 42q-31 0 -58.5 -11t-47.5 -30.5t-31.5 -47.5t-11.5 -63q0 -72 43 -112q44 -41 108 -41q32 0 59.5 10.5t47.5 30.5t31.5 48t11.5 64z" />
    <glyph glyph-name="seven" unicode="7" horiz-adv-x="553" 
d="M528 730v-111q-125 -98 -185 -227q-59 -131 -71 -223q-12 -93 -12 -169h-121q0 36 3 76t8 85q10 89 66 220q54 128 172 238h-363v111h503z" />
    <glyph glyph-name="eight" unicode="8" horiz-adv-x="642" 
d="M585 199q0 -48 -19.5 -86.5t-55 -66.5t-84 -43t-105.5 -15q-58 0 -106.5 15t-83.5 43t-54.5 66.5t-19.5 86.5q0 66 36 117.5t99 72.5q-49 21 -75.5 63t-26.5 97q0 45 18 81t49 61t73 38.5t91 13.5q48 0 90 -13t73 -37.5t49 -60.5t18 -81q0 -57 -27.5 -100t-76.5 -63
q66 -19 102 -71t36 -118zM196 537q0 -45 33 -72.5t91 -27.5q57 0 90 27.5t33 72.5q0 46 -34 73t-89 27t-89.5 -27t-34.5 -73zM462 215q0 54 -39.5 84.5t-102.5 30.5q-61 0 -101 -30t-40 -84q0 -57 39.5 -87.5t102.5 -30.5t102 31t39 86z" />
    <glyph glyph-name="nine" unicode="9" horiz-adv-x="684" 
d="M627 374q0 -80 -20 -150.5t-60.5 -123t-102.5 -83t-146 -30.5q-69 0 -125.5 22t-95.5 60l73 86q37 -29 75 -41.5t80 -12.5q92 0 146 62q55 62 56 159q-26 -46 -75 -71t-112 -25q-55 0 -103 18t-83.5 51t-55.5 79t-20 102q0 57 20 106t56 85t85.5 56t107.5 20
q77 0 133 -29t93.5 -79.5t55.5 -117.5t18 -143zM481 480q0 71 -44 112q-43 42 -106 42q-31 0 -58.5 -10.5t-48 -30.5t-32.5 -48.5t-12 -64.5q0 -69 43 -111q44 -41 109 -41q32 0 59 11t47 30.5t31.5 48t11.5 62.5z" />
    <glyph glyph-name="colon" unicode=":" horiz-adv-x="333" 
d="M87 430q0 32 23 55.5t56 23.5q32 0 56 -23.5t24 -55.5t-24 -55t-56 -23q-33 0 -56 23t-23 55zM87 62q0 33 23 56t56 23t56.5 -23t23.5 -56q0 -31 -24 -54.5t-56 -23.5q-33 0 -56 23t-23 55z" />
    <glyph glyph-name="semicolon" unicode=";" horiz-adv-x="283" 
d="M63 430q0 32 23 55.5t56 23.5q32 0 56 -23.5t24 -55.5t-24 -55t-56 -23q-33 0 -56 23t-23 55zM215 34q0 -30 -10.5 -55.5t-28 -44.5t-40.5 -29.5t-48 -10.5v39q27 1 45.5 19.5t18.5 41.5q-13 -5 -23 -5q-29 0 -47.5 18t-18.5 50t20 52.5t52 20.5q34 0 57 -24t23 -72z" />
    <glyph glyph-name="less" unicode="&#x3c;" horiz-adv-x="429" 
d="M36 311l350 183v-129l-224 -116l224 -116v-129l-350 183v124z" />
    <glyph glyph-name="equal" unicode="=" horiz-adv-x="592" 
d="M482 465v-101h-387v101h387zM95 233h387v-102h-387v102z" />
    <glyph glyph-name="greater" unicode="&#x3e;" horiz-adv-x="434" 
d="M43 133l224 116l-224 116v129l351 -183v-124l-351 -183v129z" />
    <glyph glyph-name="question" unicode="?" horiz-adv-x="551" 
d="M519 517q0 -52 -18 -91q-18 -38 -43.5 -64t-65.5 -58q-42 -33 -60.5 -55t-20.5 -51v-24h-119v29q0 38 15 66q15 29 36.5 50.5t58.5 51.5q49 39 73 68.5t24 70.5q0 48 -32.5 81t-86.5 33q-27 0 -50.5 -10t-41 -27t-27 -39t-9.5 -47h-120q0 51 19 95t52 76.5t78 51.5t98 19
q50 0 94 -16.5t76.5 -46t51 -71t18.5 -92.5zM335 60q0 -31 -22 -52t-56 -21t-56 21t-22 52t22 52t56 21q33 0 55.5 -21.5t22.5 -51.5z" />
    <glyph glyph-name="at" unicode="@" horiz-adv-x="958" 
d="M908 366q1 -63 -16 -118.5t-46.5 -97t-68.5 -65t-82 -22.5q-45 0 -74 24.5t-29 70.5q-25 -40 -70 -63.5t-100 -23.5q-44 0 -80.5 15t-63 42t-41 66t-14.5 87q0 23 3 47q8 55 31 100.5t56.5 78.5t76 51.5t88.5 18.5q55 0 97.5 -26t63.5 -71l15 82h68l-62 -359
q-3 -13 -3 -29q0 -40 29 -45q3 -1 12 -1q26 0 50.5 19t43.5 52.5t30 78t11 95.5q1 69 -23.5 125.5t-67.5 97t-101 62.5t-125 21q-80 2 -151.5 -29.5t-125.5 -85.5t-85 -125.5t-29 -151.5q-1 -68 22 -130t65 -108.5t102 -74t133 -25.5q66 0 135 21t126 59l31 -61
q-62 -38 -142 -60q-83 -23 -154 -23q-78 -1 -150 27t-126 80t-85.5 125.5t-30.5 163.5q-2 99 36 184.5t102.5 148t150 97.5t178.5 33q83 1 155 -27t124.5 -78.5t82 -120.5t28.5 -152zM604 326q3 23 3 43q0 72 -35 108t-92 36q-34 0 -64.5 -14t-54.5 -39.5t-40.5 -60.5
t-22.5 -78q-3 -19 -3 -37q0 -70 36 -109.5t96 -39.5q67 0 115.5 51.5t61.5 139.5z" />
    <glyph glyph-name="A" unicode="A" horiz-adv-x="678" 
d="M477 170h-278l-60 -170h-128l264 730h122h6l264 -730h-131zM441 275l-102 292l-103 -292h205z" />
    <glyph glyph-name="B" unicode="B" horiz-adv-x="654" 
d="M614 192q0 -45 -16.5 -81t-47.5 -60.5t-74 -37.5t-97 -13h-217h-80v729h122h173q53 0 95 -14.5t71.5 -40.5t45.5 -62.5t16 -80.5q0 -60 -27.5 -102.5t-72.5 -64.5q48 -23 78.5 -67t30.5 -105zM204 623v-212h163q57 0 86.5 30t29.5 75t-30 76t-87 31h-162zM492 209
q0 49 -31.5 78t-85.5 29h-171v-210h171q54 0 85.5 27.5t31.5 75.5z" />
    <glyph glyph-name="C" unicode="C" horiz-adv-x="747" 
d="M583 490q-20 63 -70 97.5t-119 34.5q-51 0 -92.5 -18.5t-70.5 -52t-45 -81t-16 -105.5q0 -59 16.5 -106.5t45.5 -80.5t70.5 -50.5t90.5 -17.5q72 0 126 34.5t75 91.5l117 -50q-38 -94 -123 -146t-196 -52q-78 0 -143 27t-111.5 76t-72 118.5t-25.5 153.5q0 85 26 155
t72.5 120t111.5 77.5t143 27.5q116 0 199 -59t110 -154z" />
    <glyph glyph-name="D" unicode="D" horiz-adv-x="740" 
d="M700 364q1 -79 -26.5 -146t-77 -116t-117.5 -76t-146 -26h-251v730h251q78 1 145.5 -26.5t117 -76.5t78 -116.5t26.5 -146.5zM569 364q0 55 -17 101t-48.5 79t-75 51.5t-97.5 18.5h-125v-499h125q54 0 98 18t75 50.5t48 78.5t17 102z" />
    <glyph glyph-name="E" unicode="E" horiz-adv-x="593" 
d="M535 117v-117h-453v730h453v-118h-329v-189h294v-110h-294v-196h329z" />
    <glyph glyph-name="F" unicode="F" horiz-adv-x="566" 
d="M206 613v-201h274v-112h-274v-300h-124v730h124h326v-117h-326z" />
    <glyph glyph-name="G" unicode="G" horiz-adv-x="777" 
d="M719 418v-418h-107l-6 82q-34 -45 -95 -69t-130 -24q-76 0 -139 28t-108 77.5t-69.5 118.5t-24.5 150q0 83 25.5 152.5t73 120t113.5 79t147 28.5q116 0 198 -54q85 -55 116 -145l-111 -46q-24 66 -78 97.5t-124 31.5q-54 0 -97.5 -19t-73.5 -54t-46.5 -84.5
t-16.5 -109.5q0 -61 17 -108.5t47 -80t71.5 -49.5t90.5 -17q76 0 138 38q63 38 74 128v38h-224v109h339z" />
    <glyph glyph-name="H" unicode="H" horiz-adv-x="734" 
d="M82 730h124v-305l322 -1v306h125v-730h-125v314l-322 1v-315h-124v730z" />
    <glyph glyph-name="I" unicode="I" horiz-adv-x="288" 
d="M82 0v730h124v-730h-124z" />
    <glyph glyph-name="J" unicode="J" horiz-adv-x="548" 
d="M473 730v-528q0 -47 -16 -86.5t-45.5 -68t-71.5 -44.5t-94 -16q-109 0 -167 59t-58 159v25h120v-25q0 -51 28.5 -77t73.5 -26q48 0 77 26.5t29 80.5v521h124z" />
    <glyph glyph-name="K" unicode="K" horiz-adv-x="677" 
d="M385 377l271 -377h-160l-189 279l-100 -127v-154h-125v732h125v-384l297 384h160z" />
    <glyph glyph-name="L" unicode="L" horiz-adv-x="527" 
d="M500 111v-111h-398h-20v730h126v-619h292z" />
    <glyph glyph-name="M" unicode="M" horiz-adv-x="883" 
d="M800 730v-730h-122v453l-180 -453h-118l-179 450v-450h-119v730h119l238 -585l239 585h122z" />
    <glyph glyph-name="N" unicode="N" horiz-adv-x="756" 
d="M675 730v-730h-123l-347 532v-532h-123v730h123l347 -532v532h123z" />
    <glyph glyph-name="O" unicode="O" horiz-adv-x="782" 
d="M390 743q78 0 143.5 -28t112 -78.5t72.5 -119.5t26 -151q1 -81 -25 -151t-73 -120.5t-112.5 -79t-143.5 -27.5q-78 -1 -143.5 27.5t-112.5 79t-72.5 120t-24.5 150.5q-1 81 25 151t73 120.5t112 79t143 27.5zM391 109q51 0 92 18t70 52t45 81.5t16 105.5t-16 105.5
t-45 81t-70 51.5t-92 18t-92 -18t-70 -51.5t-45 -81t-16 -105.5t15.5 -105.5t44.5 -81.5t70.5 -52t92.5 -18z" />
    <glyph glyph-name="P" unicode="P" horiz-adv-x="640" 
d="M611 492q0 -53 -16.5 -97t-48 -76t-76 -49.5t-100.5 -17.5h-164v-252h-124v730h124h165q56 0 100.5 -17t75.5 -48t47.5 -75t16.5 -98zM481 495q0 54 -33 89t-99 35h-143v-258h141q66 0 100 37t34 97z" />
    <glyph glyph-name="Q" unicode="Q" horiz-adv-x="783" 
d="M723 -3h-131l-28 32q-80 -41 -172 -41q-78 0 -143 28.5t-111.5 78.5t-72 119t-25.5 151q-1 81 25 151t73 120.5t112 79t143 27.5q78 0 143.5 -28t112 -78.5t72.5 -119.5t26 -151q0 -85 -26.5 -156t-77.5 -122zM379 237h132l49 -54q27 34 42 80t15 103q0 58 -16 105.5
t-45 81t-70 51.5t-92 18t-92.5 -18t-70.5 -51.5t-45 -81t-16 -105.5t16 -105.5t45 -81.5t70.5 -52t92.5 -18q48 0 85 15z" />
    <glyph glyph-name="R" unicode="R" horiz-adv-x="670" 
d="M628 0h-139l-121 276h-162v-276h-124v730h281q129 -1 195.5 -59t66.5 -167q0 -76 -34.5 -130t-97.5 -78zM494 503q0 54 -32.5 85t-98.5 31h-157v-234h157q66 0 98.5 32t32.5 86z" />
    <glyph glyph-name="S" unicode="S" horiz-adv-x="598" 
d="M297 743q102 0 167.5 -49t80.5 -130l-117 -32q-10 48 -46 73t-88 25q-57 0 -90 -27t-33 -72q0 -71 88 -92l119 -30q94 -24 139 -76.5t45 -127.5q0 -48 -18.5 -88.5t-52 -69t-81.5 -44.5t-108 -16q-107 0 -181 50q-73 51 -86 138l117 30q7 -49 48.5 -76t105.5 -27
q63 0 98 26t35 71q0 71 -88 93l-119 29q-94 22 -139 76t-45 129q0 48 18 88t50.5 68.5t78.5 44.5t102 16z" />
    <glyph glyph-name="T" unicode="T" horiz-adv-x="576" 
d="M559 613h-209v-613h-124v613h-209v117h542v-117z" />
    <glyph glyph-name="U" unicode="U" horiz-adv-x="736" 
d="M75 730h124v-463q0 -40 13 -70t35.5 -50.5t53.5 -30.5t67 -10q35 0 65.5 11t53.5 31.5t36.5 50.5t13.5 68v463h124v-467q0 -66 -23.5 -117.5t-63.5 -87t-93 -53.5t-113 -18q-58 0 -111.5 18t-93.5 53t-64 86.5t-24 118.5v467z" />
    <glyph glyph-name="V" unicode="V" horiz-adv-x="705" 
d="M694 730l-276 -730h-128l-279 730h135l208 -558l207 558h133z" />
    <glyph glyph-name="W" unicode="W" horiz-adv-x="1027" 
d="M1014 730l-221 -730h-120l-159 511l-161 -511h-122l-218 730h136l145 -519l153 519h137l149 -521l149 521h132z" />
    <glyph glyph-name="X" unicode="X" horiz-adv-x="696" 
d="M176 730l174 -264l174 264h154l-251 -365l252 -365h-158l-172 264l-176 -263h-155l254 364l-255 365h159z" />
    <glyph glyph-name="Y" unicode="Y" horiz-adv-x="639" 
d="M149 730l173 -317l173 317h135l-247 -437v-293h-125v293l-249 437h140z" />
    <glyph glyph-name="Z" unicode="Z" horiz-adv-x="573" 
d="M532 611l-355 -492h350v-119h-486l-1 119l354 492l-353 -1v120h491v-119z" />
    <glyph glyph-name="bracketleft" unicode="[" horiz-adv-x="296" 
d="M291 -91h-225v923h225v-94h-124v-735h124v-94z" />
    <glyph glyph-name="backslash" unicode="\" horiz-adv-x="403" 
d="M285 0l-285 729h118l285 -729h-118z" />
    <glyph glyph-name="bracketright" unicode="]" horiz-adv-x="296" 
d="M129 3v735h-124v94h224v-923h-224v94h124z" />
    <glyph glyph-name="asciicircum" unicode="^" horiz-adv-x="477" 
d="M312 480l-66 129l-65 -129h-102l116 230h102l117 -230h-102z" />
    <glyph glyph-name="underscore" unicode="_" horiz-adv-x="543" 
d="M483 -17v-88h-423v88h423z" />
    <glyph glyph-name="grave" unicode="`" horiz-adv-x="235" 
d="M10 928h114l80 -159h-90z" />
    <glyph glyph-name="a" unicode="a" horiz-adv-x="530" 
d="M372 0q-5 21 -8 56q-21 -31 -59.5 -50t-92.5 -19q-81 0 -130 42.5t-49 117.5q0 73 48 113.5t132 40.5h148v19q0 48 -27.5 70t-75.5 22q-86 0 -124 -72l-86 50q32 61 88 89.5t128 28.5q93 0 153 -48t60 -156v-196q0 -84 9 -108h-114zM362 219h-122q-42 0 -64.5 -19
t-22.5 -52q0 -35 23.5 -53t66.5 -18q49 0 84 31.5t35 99.5v11z" />
    <glyph glyph-name="b" unicode="b" horiz-adv-x="621" 
d="M589 245q0 -59 -17.5 -106.5t-49.5 -81.5t-76 -52t-97 -18q-61 0 -105 23t-67 59l-6 -69h-107v743h116v-314q26 39 72 59.5t98 20.5t96 -18t75.5 -52.5t49.5 -83t18 -110.5zM470 249q0 69 -39 111t-103 42t-103.5 -42t-39.5 -111q0 -70 39.5 -112t103.5 -42t103 42
t39 112z" />
    <glyph glyph-name="c" unicode="c" horiz-adv-x="551" 
d="M288 508q85 0 146 -41.5t82 -110.5l-102 -41q-13 40 -47 63t-77 23q-63 0 -99.5 -42t-36.5 -112q0 -72 36.5 -112t99.5 -40q45 0 78.5 22.5t46.5 60.5l101 -38q-25 -72 -86.5 -112.5t-142.5 -40.5q-56 0 -102.5 19t-79.5 53t-51.5 82t-18.5 106q0 59 18 107t51.5 82
t80 53t103.5 19z" />
    <glyph glyph-name="d" unicode="d" horiz-adv-x="632" 
d="M454 0q-2 16 -4 32.5t-4 33.5q-24 -38 -68.5 -58.5t-98.5 -20.5t-98.5 17.5t-77 50.5t-50.5 81.5t-18 110.5q0 58 18.5 106t51.5 82.5t78.5 53.5t99.5 19q48 0 92 -18.5t70 -53.5v307h118v-619q0 -26 3 -70q3 -42 6 -54h-118zM440 248q0 69 -39 111t-103 42t-103.5 -42
t-39.5 -111t39.5 -111t103.5 -42t103 42t39 111z" />
    <glyph glyph-name="e" unicode="e" horiz-adv-x="560" 
d="M525 203h-378q6 -57 43 -85.5t91 -28.5q45 0 77 19.5t49 55.5l99 -39q-28 -66 -87.5 -102t-137.5 -36q-54 0 -99.5 18.5t-78 52.5t-50.5 82t-18 106t18 106.5t50.5 83t78.5 53.5t101 19q54 0 99 -19t76.5 -53t49 -82t17.5 -107v-44zM405 286q-4 61 -37 92t-88 31
t-89.5 -31.5t-41.5 -91.5h256z" />
    <glyph glyph-name="f" unicode="f" horiz-adv-x="352" 
d="M281 637q-43 0 -59.5 -21t-16.5 -60v-63h117v-98h-117v-395h-119v395h-71v98h70v63q0 96 47.5 141.5t131.5 45.5q15 0 30 -1.5t29 -3.5v-105q-19 4 -42 4z" />
    <glyph glyph-name="g" unicode="g" horiz-adv-x="551" 
d="M533 -91q0 -84 -76 -120q-73 -36 -190 -38q-120 0 -185.5 31t-65.5 97q0 35 18 62t50 41q-47 32 -47 91q0 29 16.5 59t52.5 44q-56 54 -56 135q0 44 16.5 80t45.5 62t70.5 40.5t90.5 14.5q64 0 116 -24q16 32 48 51t75 19q14 0 19 -1v-97q-4 1 -18 1q-39 0 -62 -21
q43 -50 43 -124q0 -44 -16 -80t-44.5 -62t-69 -40t-90.5 -14q-49 0 -93 16q-22 -1 -34.5 -11t-12.5 -29q0 -14 12.5 -25t39.5 -11h174q82 0 127.5 -39t45.5 -108zM164 312q0 -45 30 -73.5t78 -28.5q49 1 78 29.5t29 70.5q0 43 -29.5 73.5t-77.5 30.5t-78 -28.5t-30 -73.5z
M418 -91q0 26 -21.5 38t-55.5 12h-170l-15 1q-38 -14 -38 -50t38.5 -47.5t113.5 -11.5q73 0 110.5 11.5t37.5 46.5z" />
    <glyph glyph-name="h" unicode="h" horiz-adv-x="589" 
d="M530 300v-300h-118v274q0 36 -8.5 60.5t-23.5 39t-35 21t-43 6.5q-21 0 -42.5 -7.5t-39.5 -23t-29 -40t-11 -58.5v-272h-118v743h118v-301q23 30 61.5 48t84.5 18q97 0 150.5 -53t53.5 -155z" />
    <glyph glyph-name="i" unicode="i" horiz-adv-x="252" 
d="M53 664q0 32 22 53.5t53 21.5t52.5 -22t21.5 -53t-21.5 -53t-52.5 -22t-53 22t-22 53zM187 493v-493h-118v493h118z" />
    <glyph glyph-name="j" unicode="j" horiz-adv-x="271" 
d="M65 664q0 32 22 53.5t53 21.5t52.5 -22t21.5 -53t-21.5 -53t-52.5 -22t-53 22t-22 53zM-36 -124q28 -9 47 -9q32 0 51.5 19t19.5 58l-1 549h119v-546q0 -88 -47 -136.5t-125 -48.5q-38 0 -86 14z" />
    <glyph glyph-name="k" unicode="k" horiz-adv-x="531" 
d="M62 0v743h118v-453l195 203h148l-213 -223l202 -270h-143l-137 188l-52 -55v-133h-118z" />
    <glyph glyph-name="l" unicode="l" horiz-adv-x="239" 
d="M62 743h118v-743h-118v743z" />
    <glyph glyph-name="m" unicode="m" horiz-adv-x="877" 
d="M819 314v-314h-115v296q0 52 -26.5 80.5t-71.5 28.5q-48 0 -77 -31t-29 -89v-285h-116v296q0 52 -26 80.5t-71 28.5q-48 0 -77.5 -31t-29.5 -89v-285h-118v493h110l4 -47q43 63 140 63q57 0 98 -23.5t63 -68.5q18 43 59.5 67.5t99.5 24.5q84 0 133.5 -51t49.5 -144z" />
    <glyph glyph-name="n" unicode="n" horiz-adv-x="584" 
d="M525 304v-304h-118v279q0 71 -33 96q-32 26 -74 26q-24 0 -45.5 -7.5t-38 -23.5t-26.5 -39.5t-10 -55.5v-275h-118v493h111l4 -53q21 31 60.5 49.5t87.5 18.5q96 0 148 -52.5t52 -151.5z" />
    <glyph glyph-name="o" unicode="o" horiz-adv-x="583" 
d="M292 507q57 0 104 -19t81 -53.5t52.5 -82.5t18.5 -105t-18.5 -104.5t-52.5 -82t-81 -53.5t-104 -19t-104.5 19t-81.5 53.5t-52.5 82t-18.5 104.5t18.5 105t52.5 82.5t81.5 53.5t104.5 19zM292 94q61 0 98.5 42.5t37.5 111.5t-37.5 111t-98.5 42q-63 0 -100.5 -42
t-37.5 -111t37.5 -111.5t100.5 -42.5z" />
    <glyph glyph-name="p" unicode="p" horiz-adv-x="621" 
d="M347 -13q-54 0 -99.5 20.5t-69.5 56.5v-292h-114v721h106l5 -62q22 34 66 55.5t102 21.5q55 0 100 -18t76.5 -51.5t49 -82.5t17.5 -112q0 -60 -18.5 -108t-50.5 -81t-75.5 -50.5t-94.5 -17.5zM469 248q0 69 -39.5 111t-103.5 42t-103.5 -42t-39.5 -111t39.5 -111
t103.5 -42t103.5 42t39.5 111z" />
    <glyph glyph-name="q" unicode="q" horiz-adv-x="624" 
d="M561 493v-721h-113v292q-24 -35 -69.5 -56t-99.5 -21q-52 0 -97 17.5t-77 51t-50.5 81.5t-18.5 109q0 62 17.5 110.5t50 82.5t78 51.5t101.5 17.5q57 0 100.5 -20.5t67.5 -56.5l5 62h105zM442 248q0 69 -39 111t-103 42t-103.5 -42t-39.5 -111t39.5 -111t103.5 -42
t103 42t39 111z" />
    <glyph glyph-name="r" unicode="r" horiz-adv-x="389" 
d="M309 500q33 0 58 -7v-109q-27 7 -55 7q-63 0 -97.5 -39t-34.5 -108v-244h-120v493h110l7 -58q15 32 51 48.5t81 16.5z" />
    <glyph glyph-name="s" unicode="s" horiz-adv-x="463" 
d="M231 82q35 0 57 14t22 43q0 39 -53 53l-68 18q-75 20 -107.5 56.5t-32.5 87.5q0 33 12.5 61.5t36 49t57.5 32t76 11.5q75 0 125.5 -34t61.5 -94l-106 -25q-4 27 -25 42.5t-52 15.5q-32 0 -51.5 -16t-19.5 -41q0 -40 60 -56l67 -17q67 -18 102 -54.5t35 -90.5
q0 -69 -51.5 -110t-144.5 -41q-87 0 -137.5 37.5t-59.5 100.5l108 19q3 -29 26 -45.5t62 -16.5z" />
    <glyph glyph-name="t" unicode="t" horiz-adv-x="344" 
d="M326 395h-95v-395h-117v395h-96v98h96v154h117v-154h95v-98z" />
    <glyph glyph-name="u" unicode="u" horiz-adv-x="595" 
d="M418 0q-6 21 -9 55q-21 -33 -59.5 -50.5t-86.5 -17.5q-84 0 -144 48q-59 48 -59 159v300h119v-278q0 -70 33 -97q34 -26 76 -26q47 0 83 30q36 32 36 96v274h118v-402q0 -20 3 -47.5t7 -43.5h-117z" />
    <glyph glyph-name="v" unicode="v" horiz-adv-x="542" 
d="M531 493l-206 -493h-117l-197 493h128l130 -353l139 353h123z" />
    <glyph glyph-name="w" unicode="w" horiz-adv-x="803" 
d="M789 493l-171 -493h-111l-105 318l-108 -318h-115l-165 493h128l96 -322l104 322h121l100 -326l101 326h125z" />
    <glyph glyph-name="x" unicode="x" horiz-adv-x="516" 
d="M16 0l172 242l-177 251h140q41 -57 112 -170l106 170h136l-175 -250l171 -243h-139q-19 26 -46 67t-62 97l-104 -164h-134z" />
    <glyph glyph-name="y" unicode="y" horiz-adv-x="549" 
d="M538 493l-234 -608q-48 -125 -163 -125q-53 0 -112 24l33 107q37 -23 70 -23q24 0 43 14t30 43l17 46l-210 522h124l142 -370l136 370h124z" />
    <glyph glyph-name="z" unicode="z" horiz-adv-x="469" 
d="M37 106l249 283h-249v104h396v-106l-253 -282h253v-105h-396v106z" />
    <glyph glyph-name="braceleft" unicode="{" horiz-adv-x="290" 
d="M170 368q53 -47 53 -129v-175q0 -68 62 -68v-87q-8 0 -27.5 0.5t-35.5 2.5q-46 3 -73 37t-27 88v182q0 66 -26 86q-25 20 -48 18v88q10 1 22.5 3.5t23.5 13t19 32t9 59.5v186q0 55 27 87.5t79 36.5q4 1 10.5 1t17.5 1t18 1h11v-87q-62 0 -62 -53v-193q0 -83 -53 -131z
" />
    <glyph glyph-name="bar" unicode="|" horiz-adv-x="199" 
d="M145 788v-878h-92v878h92z" />
    <glyph glyph-name="braceright" unicode="}" horiz-adv-x="290" 
d="M242 411v-88q-22 2 -48 -18t-26 -86v-182q0 -52 -27 -86.5t-72 -38.5q-17 -2 -36.5 -2.5t-27.5 -0.5v87q63 0 63 68v175q0 84 52 129q-52 46 -52 131v193q0 53 -63 53v87q9 0 26.5 -0.5t31.5 -2.5q51 -3 78 -36t27 -88v-186q1 -38 9 -59.5t19 -32t23.5 -13t22.5 -3.5z
" />
    <glyph glyph-name="asciitilde" unicode="~" horiz-adv-x="463" 
d="M423 310q0 -52 -30.5 -84.5t-78.5 -32.5q-27 0 -50 11t-50 30q-22 16 -37.5 23.5t-30.5 7.5q-41 0 -44 -43h-62q0 51 30.5 82.5t78.5 31.5q26 0 48.5 -10.5t51.5 -30.5q25 -17 39 -24t29 -7q42 0 45 46h61z" />
    <glyph glyph-name="exclamdown" unicode="&#xa1;" horiz-adv-x="330" 
d="M241 671q0 -32 -21.5 -52.5t-53.5 -20.5t-53.5 20.5t-21.5 52.5t21.5 52t53.5 20t53.5 -20t21.5 -52zM235 0h-140v285q0 41 1 75.5t3 67t5.5 64t9.5 64.5h102q6 -33 9.5 -64.5t5.5 -64t3 -67t1 -75.5v-285z" />
    <glyph glyph-name="cent" unicode="&#xa2;" horiz-adv-x="597" 
d="M250 618v111h101v-105q67 -10 118 -50t72 -100l-104 -37q-15 38 -45.5 62t-79.5 24q-33 0 -58.5 -12t-43.5 -33.5t-27.5 -50.5t-9.5 -63q0 -67 37 -113q38 -45 102 -45q88 0 119 76l104 -41q-22 -54 -71 -90t-113 -44v-108h-101v114q-42 10 -77 33.5t-61 57t-40.5 74.5
t-14.5 86t14.5 86.5t40.5 75.5t61.5 58t76.5 34z" />
    <glyph glyph-name="sterling" unicode="&#xa3;" horiz-adv-x="695" 
d="M634 224q0 -103 -53 -163.5t-159 -60.5h-357v117q46 4 80 46q34 41 34 100q0 30 -10 59h-99v101h60q-13 39 -13 83q0 51 18 94t50.5 75t77.5 50t99 18q91 0 154 -45t88 -121l-112 -36q-14 42 -48.5 65.5t-82.5 23.5q-60 0 -94 -35.5t-34 -92.5q0 -34 17 -79h254v-101
h-220q6 -25 6 -58q-1 -48 -15.5 -87t-47.5 -60h196q107 0 105 107h106z" />
    <glyph glyph-name="currency" unicode="&#xa4;" horiz-adv-x="707" 
d="M650 148l-77 -78l-78 77q-66 -42 -141 -42q-76 0 -142 42l-78 -77l-77 78l78 78q-40 61 -40 137q0 75 40 139l-78 78l77 78l78 -78q64 43 142 43q75 0 141 -42l78 77l77 -78l-78 -77q41 -65 41 -140q0 -74 -41 -138zM354 214q30 0 57.5 12t48 32.5t32.5 47.5t12 57
q0 31 -12 58.5t-32.5 48t-48 32.5t-57.5 12q-31 0 -58.5 -12t-47.5 -32.5t-32 -48t-12 -58.5q0 -30 12 -57t32 -47.5t47.5 -32.5t58.5 -12z" />
    <glyph glyph-name="yen" unicode="&#xa5;" horiz-adv-x="744" 
d="M476 377h107v-96h-154v-56h154v-96h-154v-129h-117v129h-154v96h154v56h-154v96h109l-207 352h140l171 -317v1l173 316h140z" />
    <glyph glyph-name="brokenbar" unicode="&#xa6;" horiz-adv-x="367" 
d="M234 791v-338h-102v338h102zM234 278v-348h-102v348h102z" />
    <glyph glyph-name="section" unicode="&#xa7;" horiz-adv-x="458" 
d="M344 259q61 -36 61 -108q0 -33 -13 -61t-36.5 -48.5t-56 -32.5t-70.5 -12q-69 0 -119 34t-63 91l93 22q17 -60 91 -60q37 0 57.5 17t20.5 44q0 40 -50 51l-63 15q-60 14 -103 48q-43 36 -43 105q0 76 63 116q-61 37 -61 109q0 33 13 61t36.5 48.5t56 32.5t70.5 12
q69 0 119.5 -34t63.5 -92l-94 -21q-7 29 -30.5 44.5t-60.5 15.5t-57.5 -17t-20.5 -45q0 -37 50 -51l63 -15q59 -14 102 -49q44 -35 44 -105q0 -39 -16 -66.5t-47 -48.5zM322 370q0 31 -24 47.5t-69 16.5q-48 0 -71 -18t-23 -47q0 -30 24 -46.5t70 -16.5q48 0 70.5 18
t22.5 46z" />
    <glyph glyph-name="dieresis" unicode="&#xa8;" horiz-adv-x="389" 
d="M20 846q0 30 21.5 51t51.5 21q29 0 50.5 -21.5t21.5 -50.5t-21.5 -50.5t-50.5 -21.5q-30 0 -51.5 21t-21.5 51zM223 846q0 30 21.5 51t51.5 21q29 0 51 -21.5t22 -50.5t-21.5 -50.5t-51.5 -21.5t-51.5 21t-21.5 51z" />
    <glyph glyph-name="copyright" unicode="&#xa9;" horiz-adv-x="820" 
d="M40 358q-1 75 28.5 142.5t80.5 118.5t119 80.5t142 27.5q75 2 143 -27.5t119 -80.5t80.5 -118.5t27.5 -142.5q2 -75 -27.5 -143.5t-80.5 -119.5t-119 -80.5t-143 -27.5q-75 -2 -143 27.5t-119 80.5t-80 119.5t-28 143.5zM694 358q1 57 -21.5 109t-61.5 91t-91 61.5
t-110 21.5q-57 1 -109 -21.5t-91 -61.5t-61.5 -91t-21.5 -109q-1 -58 21.5 -110.5t61.5 -91.5t91 -61.5t109 -21.5q58 -1 110 21.5t91 61.5t61.5 91.5t21.5 110.5zM507 408q-10 29 -34 47t-61 18q-48 0 -75.5 -34t-27.5 -83t28.5 -82.5t74.5 -33.5q69 0 90 57l69 -27
q-18 -45 -61.5 -72t-97.5 -27q-36 0 -68.5 14.5t-57 40t-39 59t-14.5 71.5t14 72t38.5 59t57 39.5t69.5 14.5q58 0 102.5 -29.5t60.5 -80.5z" />
    <glyph glyph-name="guillemotleft" unicode="&#xab;" horiz-adv-x="691" 
d="M409 247l216 -247h-151h-136l-216 247l216 246h150h137z" />
    <glyph glyph-name="logicalnot" unicode="&#xac;" horiz-adv-x="598" 
d="M429 81v170h-386v126h512v-296h-126z" />
    <glyph glyph-name="registered" unicode="&#xae;" horiz-adv-x="452" 
d="M422 547q0 -41 -15.5 -76.5t-42 -62t-62 -42t-75.5 -15.5t-76 15.5t-63 42t-42.5 62t-15.5 76.5q0 40 15.5 75.5t42.5 62t63 42t76 15.5t75.5 -15.5t62 -42t42 -62t15.5 -75.5zM381 547q0 33 -12 61t-33 49t-49 33t-60 12q-33 0 -61 -12t-49 -33t-33 -49t-12 -61
t11.5 -61t32.5 -49t49.5 -33t61.5 -12q32 0 60 12t49 33t33 49t12 61zM297 459h-42l-30 67h-20v-67h-36v175h36h22q64 0 67 -49v-3v-4q-1 -32 -30 -46zM205 560h31v-1q17 1 17 19v2v4q-2 14 -26 14h-22v-38z" />
    <glyph glyph-name="macron" unicode="&#xaf;" horiz-adv-x="352" 
d="M329 861v-78h-306v78h306z" />
    <glyph glyph-name="degree" unicode="&#xb0;" horiz-adv-x="270" 
d="M20 609q0 48 34 82t81 34q46 0 81 -35q34 -34 34 -81t-34 -81t-81 -34t-81 34t-34 81zM183 609q0 19 -14.5 33.5t-33.5 14.5t-33.5 -14t-14.5 -34q0 -19 14 -33t34 -14t34 14t14 33z" />
    <glyph glyph-name="plusminus" unicode="&#xb1;" horiz-adv-x="501" 
d="M461 378v-96h-162v-103h-96v103h-163v96h163v102h96v-102h162zM40 96h421v-96h-421v96z" />
    <glyph glyph-name="uni00B2" unicode="&#xb2;" horiz-adv-x="418" 
d="M48 386l207 170q22 18 30.5 34.5t8.5 35.5q0 38 -23 60t-62 22q-36 0 -60 -20.5t-26 -59.5h-83q4 75 50 118.5t118 43.5q39 0 70 -12.5t53.5 -34.5t34.5 -52t12 -64q0 -79 -72 -136l-136 -108l197 1v-83l-319 -1v86z" />
    <glyph glyph-name="uni00B3" unicode="&#xb3;" horiz-adv-x="418" 
d="M378 455q0 -36 -13.5 -66t-36.5 -52.5t-53.5 -35t-65.5 -12.5q-37 0 -68 13t-53.5 35t-35 51.5t-12.5 63.5h83q2 -35 25 -58t61 -23q36 0 60.5 23.5t24.5 60.5q0 39 -25.5 63t-65.5 24q-19 0 -37 -8l-30 66l100 94h-176v83h307v-73l-102 -95q51 -17 82 -57t31 -97z" />
    <glyph glyph-name="acute" unicode="&#xb4;" horiz-adv-x="264" 
d="M40 769l80 159h113l-103 -159h-90z" />
    <glyph glyph-name="uni00B5" unicode="&#xb5;" horiz-adv-x="702" 
d="M652 107v-107l-109 1q-70 0 -94 59q-46 -70 -138 -73h-5h-5q-81 3 -126 56v-291h-118v739h118v-227q0 -88 36.5 -130t93.5 -42q58 0 94.5 42t36.5 130v229h118l1 -342q0 -27 11 -35t35 -8z" />
    <glyph glyph-name="paragraph" unicode="&#xb6;" horiz-adv-x="523" 
d="M376 712v-797h-102v392h-50q-42 0 -76 14.5t-58 41.5t-37 64.5t-13 82.5t13 82t37 64t58 41.5t76 14.5h152zM483 710v-797h-46v797h46z" />
    <glyph glyph-name="periodcentered" unicode="&#xb7;" horiz-adv-x="329" 
d="M58 276q0 22 8.5 41.5t23 33.5t34 22.5t41.5 8.5q21 0 40.5 -8.5t33.5 -23t22.5 -34t8.5 -40.5q0 -42 -31 -73t-74 -31q-44 0 -75 31q-32 32 -32 73z" />
    <glyph glyph-name="cedilla" unicode="&#xb8;" horiz-adv-x="600" 
d="M240 -132h88q11 0 18.5 6.5t7.5 17.5t-7.5 16.5t-18.5 5.5h-88v55l46 62l51 -1v-31l-25 -31h35q34 0 54 -22.5t20 -55.5q0 -35 -20 -56.5t-53 -21.5h-108v56z" />
    <glyph glyph-name="uni00B9" unicode="&#xb9;" horiz-adv-x="305" 
d="M221 781v-481h-83v396l-98 -41v83l98 43h83z" />
    <glyph glyph-name="guillemotright" unicode="&#xbb;" horiz-adv-x="691" 
d="M570 247l-216 -247h-151h-136l216 247l-216 246h150h137z" />
    <glyph glyph-name="onequarter" unicode="&#xbc;" horiz-adv-x="727" 
d="M37 677l74 33v-77l-74 -29v73zM185 710v-367h-74v367h74zM19 0l541 710h105l-541 -710h-105zM690 61h-47v-68h-75v69h-173v74l173 232h75v-232h47v-75zM568 136v111l-81 -111h81z" />
    <glyph glyph-name="onehalf" unicode="&#xbd;" horiz-adv-x="753" 
d="M37 677l74 33v-77l-74 -29v73zM185 710v-367h-74v367h74zM19 0l541 710h105l-541 -710h-105zM466 73l133 113q24 20 33 32.5t9 28.5q0 24 -15 38.5t-40 14.5q-26 -1 -40.5 -15t-14.5 -39l1 -11h-73q-2 29 6.5 53.5t26 43t42.5 29t55 10.5q58 0 92.5 -33.5t34.5 -88.5
q0 -35 -17.5 -62t-47.5 -52l-76 -63l136 1v-73l-245 -1v74z" />
    <glyph glyph-name="threequarters" unicode="&#xbe;" horiz-adv-x="796" 
d="M294 464q0 -53 -38 -91q-37 -36 -91 -36q-28 0 -52.5 10.5t-42 29t-26.5 43.5t-7 53h73q-1 -3 -1 -12q0 -23 16 -37.5t40 -14.5q23 0 39.5 16t16.5 39q0 30 -20 45q-15 12 -36 12q-18 0 -31 -7l-30 57h1l63 65h-117v74h230v-64l-64 -64q33 -16 49 -37q28 -34 28 -81z
M88 0l541 710h105l-541 -710h-105zM759 61h-47v-68h-75v69h-173v74l173 232h75v-232h47v-75zM637 136v111l-81 -111h81z" />
    <glyph glyph-name="questiondown" unicode="&#xbf;" horiz-adv-x="551" 
d="M216 670q0 31 22 52t56 21t56 -21t22 -52t-22 -52t-56 -21q-33 0 -55.5 21.5t-22.5 51.5zM519 229q0 -51 -19 -95t-52 -76.5t-78 -51.5t-98 -19q-50 0 -94 16.5t-76.5 46t-51 71t-18.5 92.5q0 53 18 90q18 39 43.5 65t65.5 58q42 33 60.5 55t20.5 51v24h119v-29
q0 -37 -15 -66t-36.5 -50.5t-58.5 -51.5q-49 -39 -73 -68.5t-24 -70.5q0 -48 32.5 -81t86.5 -33q27 0 50.5 10t41 27t27 39t9.5 47h120z" />
    <glyph glyph-name="Agrave" unicode="&#xc0;" horiz-adv-x="678" 
d="M477 170h-278l-60 -170h-128l264 730h122h6l264 -730h-131zM441 275l-102 292l-103 -292h205zM191 941h114l80 -159h-90z" />
    <glyph glyph-name="Aacute" unicode="&#xc1;" horiz-adv-x="678" 
d="M477 170h-278l-60 -170h-128l264 730h122h6l264 -730h-131zM441 275l-102 292l-103 -292h205zM295 782l80 159h113l-103 -159h-90z" />
    <glyph glyph-name="Acircumflex" unicode="&#xc2;" horiz-adv-x="678" 
d="M477 170h-278l-60 -170h-128l264 730h122h6l264 -730h-131zM441 275l-102 292l-103 -292h205zM397 782l-57 96l-58 -96h-93l89 160h99h24l89 -160h-93z" />
    <glyph glyph-name="Atilde" unicode="&#xc3;" horiz-adv-x="678" 
d="M477 170h-278l-60 -170h-128l264 730h122h6l264 -730h-131zM441 275l-102 292l-103 -292h205zM167 833q0 51 27.5 79.5t67.5 28.5q21 0 38.5 -7t43.5 -21q37 -22 58 -22q18 0 26 12t6 33h76q1 -10 1.5 -16.5t0.5 -10.5q0 -51 -28 -78.5t-70 -27.5q-23 0 -43.5 7.5
t-43.5 21.5q-19 10 -30 14.5t-22 4.5q-33 0 -30 -47l-76 -1q-1 5 -1.5 12.5t-0.5 17.5z" />
    <glyph glyph-name="Adieresis" unicode="&#xc4;" horiz-adv-x="678" 
d="M477 170h-278l-60 -170h-128l264 730h122h6l264 -730h-131zM441 275l-102 292l-103 -292h205zM166 859q0 30 21.5 51t51.5 21q29 0 50.5 -21.5t21.5 -50.5t-21.5 -50.5t-50.5 -21.5q-30 0 -51.5 21t-21.5 51zM369 859q0 30 21.5 51t51.5 21q29 0 51 -21.5t22 -50.5
t-21.5 -50.5t-51.5 -21.5t-51.5 21t-21.5 51z" />
    <glyph glyph-name="Aring" unicode="&#xc5;" horiz-adv-x="678" 
d="M477 170h-278l-60 -170h-128l264 730h122h6l264 -730h-131zM441 275l-102 292l-103 -292h205zM215 896q0 26 10 49t27.5 40t40 27.5t47.5 10.5q26 0 48.5 -10.5t39.5 -27.5t27 -40t10 -49t-10 -49t-27 -40t-39.5 -27t-48.5 -10q-53 0 -89 36q-36 38 -36 90zM397 898
q0 23 -16.5 39t-40.5 16t-40 -16t-16 -39q0 -25 16 -41.5t40 -16.5t40.5 16.5t16.5 41.5z" />
    <glyph glyph-name="AE" unicode="&#xc6;" horiz-adv-x="937" 
d="M878 0l-335 1v-1h-118v182h-207l-69 -182h-139l287 729h127h1h118l336 -1l-1 -117l-335 1v-187h302l-1 -114h-301v-193l336 -1zM425 289v323h-45l-122 -323h167z" />
    <glyph glyph-name="Ccedilla" unicode="&#xc7;" horiz-adv-x="747" 
d="M420 -11l-20 -25h35q34 0 54 -22.5t20 -55.5q0 -35 -20 -56.5t-53 -21.5h-108v56h88q11 0 18.5 6.5t7.5 17.5t-7.5 16.5t-18.5 5.5h-88v55l19 26q-69 7 -126 36.5t-97 78t-62 114t-22 143.5q0 85 26 155t72.5 120t111.5 77.5t143 27.5q116 0 199 -59t110 -154l-119 -40
q-20 63 -70 97.5t-119 34.5q-51 0 -92.5 -18.5t-70.5 -52t-45 -81t-16 -105.5q0 -59 16.5 -106.5t45.5 -80.5t70.5 -50.5t90.5 -17.5q72 0 126 34.5t75 91.5l117 -50q-34 -88 -111.5 -139t-179.5 -58z" />
    <glyph glyph-name="Egrave" unicode="&#xc8;" horiz-adv-x="593" 
d="M535 117v-117h-453v730h453v-118h-329v-189h294v-110h-294v-196h329zM157 941h114l80 -159h-90z" />
    <glyph glyph-name="Eacute" unicode="&#xc9;" horiz-adv-x="593" 
d="M535 117v-117h-453v730h453v-118h-329v-189h294v-110h-294v-196h329zM261 782l80 159h113l-103 -159h-90z" />
    <glyph glyph-name="Ecircumflex" unicode="&#xca;" horiz-adv-x="593" 
d="M535 117v-117h-453v730h453v-118h-329v-189h294v-110h-294v-196h329zM364 782l-57 96l-58 -96h-93l89 160h99h24l89 -160h-93z" />
    <glyph glyph-name="Edieresis" unicode="&#xcb;" horiz-adv-x="593" 
d="M535 117v-117h-453v730h453v-118h-329v-189h294v-110h-294v-196h329zM132 859q0 30 21.5 51t51.5 21q29 0 50.5 -21.5t21.5 -50.5t-21.5 -50.5t-50.5 -21.5q-30 0 -51.5 21t-21.5 51zM335 859q0 30 21.5 51t51.5 21q29 0 51 -21.5t22 -50.5t-21.5 -50.5t-51.5 -21.5
t-51.5 21t-21.5 51z" />
    <glyph glyph-name="Igrave" unicode="&#xcc;" horiz-adv-x="288" 
d="M82 0v730h124v-730h-124zM-5 941h114l80 -159h-90z" />
    <glyph glyph-name="Iacute" unicode="&#xcd;" horiz-adv-x="288" 
d="M82 0v730h124v-730h-124zM99 782l80 159h113l-103 -159h-90z" />
    <glyph glyph-name="Icircumflex" unicode="&#xce;" horiz-adv-x="288" 
d="M82 0v730h124v-730h-124zM202 782l-57 96l-58 -96h-93l89 160h99h24l89 -160h-93z" />
    <glyph glyph-name="Idieresis" unicode="&#xcf;" horiz-adv-x="288" 
d="M82 0v730h124v-730h-124zM-30 859q0 30 21.5 51t51.5 21q29 0 50.5 -21.5t21.5 -50.5t-21.5 -50.5t-50.5 -21.5q-30 0 -51.5 21t-21.5 51zM173 859q0 30 21.5 51t51.5 21q29 0 51 -21.5t22 -50.5t-21.5 -50.5t-51.5 -21.5t-51.5 21t-21.5 51z" />
    <glyph glyph-name="Eth" unicode="&#xd0;" horiz-adv-x="752" 
d="M700 364q1 -79 -26.5 -146t-77 -116t-117.5 -76t-146 -26h-251v314h-69v103h69v313h251q78 1 145.5 -26.5t117 -76.5t78 -116.5t26.5 -146.5zM569 364q0 55 -17 101t-48.5 79t-75 51.5t-97.5 18.5h-125v-197h95v-103h-95v-199h125q54 0 98 18t75 50.5t48 78.5t17 102z
" />
    <glyph glyph-name="Ntilde" unicode="&#xd1;" horiz-adv-x="756" 
d="M675 730v-730h-123l-347 532v-532h-123v730h123l347 -532v532h123zM209 833q0 51 27.5 79.5t67.5 28.5q21 0 38.5 -7t43.5 -21q37 -22 58 -22q18 0 26 12t6 33h76q1 -10 1.5 -16.5t0.5 -10.5q0 -51 -28 -78.5t-70 -27.5q-23 0 -43.5 7.5t-43.5 21.5q-19 10 -30 14.5
t-22 4.5q-33 0 -30 -47l-76 -1q-1 5 -1.5 12.5t-0.5 17.5z" />
    <glyph glyph-name="Ograve" unicode="&#xd2;" horiz-adv-x="782" 
d="M390 743q78 0 143.5 -28t112 -78.5t72.5 -119.5t26 -151q1 -81 -25 -151t-73 -120.5t-112.5 -79t-143.5 -27.5q-78 -1 -143.5 27.5t-112.5 79t-72.5 120t-24.5 150.5q-1 81 25 151t73 120.5t112 79t143 27.5zM391 109q51 0 92 18t70 52t45 81.5t16 105.5t-16 105.5
t-45 81t-70 51.5t-92 18t-92 -18t-70 -51.5t-45 -81t-16 -105.5t15.5 -105.5t44.5 -81.5t70.5 -52t92.5 -18zM242 941h114l80 -159h-90z" />
    <glyph glyph-name="Oacute" unicode="&#xd3;" horiz-adv-x="782" 
d="M390 743q78 0 143.5 -28t112 -78.5t72.5 -119.5t26 -151q1 -81 -25 -151t-73 -120.5t-112.5 -79t-143.5 -27.5q-78 -1 -143.5 27.5t-112.5 79t-72.5 120t-24.5 150.5q-1 81 25 151t73 120.5t112 79t143 27.5zM391 109q51 0 92 18t70 52t45 81.5t16 105.5t-16 105.5
t-45 81t-70 51.5t-92 18t-92 -18t-70 -51.5t-45 -81t-16 -105.5t15.5 -105.5t44.5 -81.5t70.5 -52t92.5 -18zM346 782l80 159h113l-103 -159h-90z" />
    <glyph glyph-name="Ocircumflex" unicode="&#xd4;" horiz-adv-x="782" 
d="M390 743q78 0 143.5 -28t112 -78.5t72.5 -119.5t26 -151q1 -81 -25 -151t-73 -120.5t-112.5 -79t-143.5 -27.5q-78 -1 -143.5 27.5t-112.5 79t-72.5 120t-24.5 150.5q-1 81 25 151t73 120.5t112 79t143 27.5zM391 109q51 0 92 18t70 52t45 81.5t16 105.5t-16 105.5
t-45 81t-70 51.5t-92 18t-92 -18t-70 -51.5t-45 -81t-16 -105.5t15.5 -105.5t44.5 -81.5t70.5 -52t92.5 -18zM448 782l-57 96l-58 -96h-93l89 160h99h24l89 -160h-93z" />
    <glyph glyph-name="Otilde" unicode="&#xd5;" horiz-adv-x="782" 
d="M390 743q78 0 143.5 -28t112 -78.5t72.5 -119.5t26 -151q1 -81 -25 -151t-73 -120.5t-112.5 -79t-143.5 -27.5q-78 -1 -143.5 27.5t-112.5 79t-72.5 120t-24.5 150.5q-1 81 25 151t73 120.5t112 79t143 27.5zM391 109q51 0 92 18t70 52t45 81.5t16 105.5t-16 105.5
t-45 81t-70 51.5t-92 18t-92 -18t-70 -51.5t-45 -81t-16 -105.5t15.5 -105.5t44.5 -81.5t70.5 -52t92.5 -18zM218 833q0 51 27.5 79.5t67.5 28.5q21 0 38.5 -7t43.5 -21q37 -22 58 -22q18 0 26 12t6 33h76q1 -10 1.5 -16.5t0.5 -10.5q0 -51 -28 -78.5t-70 -27.5
q-23 0 -43.5 7.5t-43.5 21.5q-19 10 -30 14.5t-22 4.5q-33 0 -30 -47l-76 -1q-1 5 -1.5 12.5t-0.5 17.5z" />
    <glyph glyph-name="Odieresis" unicode="&#xd6;" horiz-adv-x="782" 
d="M390 743q78 0 143.5 -28t112 -78.5t72.5 -119.5t26 -151q1 -81 -25 -151t-73 -120.5t-112.5 -79t-143.5 -27.5q-78 -1 -143.5 27.5t-112.5 79t-72.5 120t-24.5 150.5q-1 81 25 151t73 120.5t112 79t143 27.5zM391 109q51 0 92 18t70 52t45 81.5t16 105.5t-16 105.5
t-45 81t-70 51.5t-92 18t-92 -18t-70 -51.5t-45 -81t-16 -105.5t15.5 -105.5t44.5 -81.5t70.5 -52t92.5 -18zM217 859q0 30 21.5 51t51.5 21q29 0 50.5 -21.5t21.5 -50.5t-21.5 -50.5t-50.5 -21.5q-30 0 -51.5 21t-21.5 51zM420 859q0 30 21.5 51t51.5 21q29 0 51 -21.5
t22 -50.5t-21.5 -50.5t-51.5 -21.5t-51.5 21t-21.5 51z" />
    <glyph glyph-name="multiply" unicode="&#xd7;" horiz-adv-x="586" 
d="M442 93l-148 148l-149 -152l-76 77l148 151l-150 149l76 76l149 -148l148 151l76 -77l-147 -150l150 -149z" />
    <glyph glyph-name="Oslash" unicode="&#xd8;" horiz-adv-x="787" 
d="M736 366q1 -81 -25 -150.5t-73.5 -120t-113 -79t-143.5 -27.5q-74 0 -140 26l-19 -30h-122l52 84q-60 51 -91.5 127t-31.5 170q-1 81 24.5 150.5t72.5 120t112.5 79t143.5 27.5q91 0 165 -38l26 42h118l-62 -101q51 -51 79 -122t28 -158zM483 601q-45 22 -101 22
q-51 0 -92 -18t-70 -52t-45 -81t-16 -106q0 -118 61 -188zM605 366q0 101 -45 168l-254 -412q35 -12 76 -12q51 0 92 18t70 51.5t45 81t16 105.5z" />
    <glyph glyph-name="Ugrave" unicode="&#xd9;" horiz-adv-x="736" 
d="M75 730h124v-463q0 -40 13 -70t35.5 -50.5t53.5 -30.5t67 -10q35 0 65.5 11t53.5 31.5t36.5 50.5t13.5 68v463h124v-467q0 -66 -23.5 -117.5t-63.5 -87t-93 -53.5t-113 -18q-58 0 -111.5 18t-93.5 53t-64 86.5t-24 118.5v467zM219 941h114l80 -159h-90z" />
    <glyph glyph-name="Uacute" unicode="&#xda;" horiz-adv-x="736" 
d="M75 730h124v-463q0 -40 13 -70t35.5 -50.5t53.5 -30.5t67 -10q35 0 65.5 11t53.5 31.5t36.5 50.5t13.5 68v463h124v-467q0 -66 -23.5 -117.5t-63.5 -87t-93 -53.5t-113 -18q-58 0 -111.5 18t-93.5 53t-64 86.5t-24 118.5v467zM323 782l80 159h113l-103 -159h-90z" />
    <glyph glyph-name="Ucircumflex" unicode="&#xdb;" horiz-adv-x="736" 
d="M75 730h124v-463q0 -40 13 -70t35.5 -50.5t53.5 -30.5t67 -10q35 0 65.5 11t53.5 31.5t36.5 50.5t13.5 68v463h124v-467q0 -66 -23.5 -117.5t-63.5 -87t-93 -53.5t-113 -18q-58 0 -111.5 18t-93.5 53t-64 86.5t-24 118.5v467zM425 782l-57 96l-58 -96h-93l89 160h99h24
l89 -160h-93z" />
    <glyph glyph-name="Udieresis" unicode="&#xdc;" horiz-adv-x="736" 
d="M75 730h124v-463q0 -40 13 -70t35.5 -50.5t53.5 -30.5t67 -10q35 0 65.5 11t53.5 31.5t36.5 50.5t13.5 68v463h124v-467q0 -66 -23.5 -117.5t-63.5 -87t-93 -53.5t-113 -18q-58 0 -111.5 18t-93.5 53t-64 86.5t-24 118.5v467zM194 859q0 30 21.5 51t51.5 21
q29 0 50.5 -21.5t21.5 -50.5t-21.5 -50.5t-50.5 -21.5q-30 0 -51.5 21t-21.5 51zM397 859q0 30 21.5 51t51.5 21q29 0 51 -21.5t22 -50.5t-21.5 -50.5t-51.5 -21.5t-51.5 21t-21.5 51z" />
    <glyph glyph-name="Yacute" unicode="&#xdd;" horiz-adv-x="639" 
d="M149 730l173 -317l173 317h135l-247 -437v-293h-125v293l-249 437h140zM277 782l80 159h113l-103 -159h-90z" />
    <glyph glyph-name="Thorn" unicode="&#xde;" horiz-adv-x="647" 
d="M85 730h118v-145l146 -1q56 0 99.5 -18.5t73 -49t45 -70.5t15.5 -83q0 -42 -15.5 -81.5t-45 -69.5t-73 -48.5t-99.5 -18.5h-146v-145h-118v730zM342 258q52 0 81.5 31.5t29.5 74.5q0 45 -29.5 76.5t-81.5 31.5h-139v-214h139z" />
    <glyph glyph-name="germandbls" unicode="&#xdf;" horiz-adv-x="587" 
d="M551 224q0 -52 -19 -93.5t-52.5 -70.5t-79 -44.5t-98.5 -15.5q-36 0 -69 9v113q33 -14 67 -14q63 0 99.5 35t36.5 89q0 63 -41.5 97t-110.5 31v95q51 0 76.5 27.5t25.5 63.5q0 45 -28.5 68t-70.5 23q-45 0 -73 -26.5t-28 -80.5l-1 -530h-118v518q0 106 56.5 165.5
t153.5 59.5q46 0 85.5 -13t68.5 -37.5t45.5 -60.5t16.5 -82q0 -39 -14 -72t-39 -58q54 -29 82.5 -78t28.5 -118z" />
    <glyph glyph-name="agrave" unicode="&#xe0;" horiz-adv-x="530" 
d="M372 0q-5 21 -8 56q-21 -31 -59.5 -50t-92.5 -19q-81 0 -130 42.5t-49 117.5q0 73 48 113.5t132 40.5h148v19q0 48 -27.5 70t-75.5 22q-86 0 -124 -72l-86 50q32 61 88 89.5t128 28.5q93 0 153 -48t60 -156v-196q0 -84 9 -108h-114zM362 219h-122q-42 0 -64.5 -19
t-22.5 -52q0 -35 23.5 -53t66.5 -18q49 0 84 31.5t35 99.5v11zM116 711h114l80 -159h-90z" />
    <glyph glyph-name="aacute" unicode="&#xe1;" horiz-adv-x="530" 
d="M372 0q-5 21 -8 56q-21 -31 -59.5 -50t-92.5 -19q-81 0 -130 42.5t-49 117.5q0 73 48 113.5t132 40.5h148v19q0 48 -27.5 70t-75.5 22q-86 0 -124 -72l-86 50q32 61 88 89.5t128 28.5q93 0 153 -48t60 -156v-196q0 -84 9 -108h-114zM362 219h-122q-42 0 -64.5 -19
t-22.5 -52q0 -35 23.5 -53t66.5 -18q49 0 84 31.5t35 99.5v11zM220 552l80 159h113l-103 -159h-90z" />
    <glyph glyph-name="acircumflex" unicode="&#xe2;" horiz-adv-x="530" 
d="M372 0q-5 21 -8 56q-21 -31 -59.5 -50t-92.5 -19q-81 0 -130 42.5t-49 117.5q0 73 48 113.5t132 40.5h148v19q0 48 -27.5 70t-75.5 22q-86 0 -124 -72l-86 50q32 61 88 89.5t128 28.5q93 0 153 -48t60 -156v-196q0 -84 9 -108h-114zM362 219h-122q-42 0 -64.5 -19
t-22.5 -52q0 -35 23.5 -53t66.5 -18q49 0 84 31.5t35 99.5v11zM323 552l-57 96l-58 -96h-93l89 160h99h24l89 -160h-93z" />
    <glyph glyph-name="atilde" unicode="&#xe3;" horiz-adv-x="530" 
d="M372 0q-5 21 -8 56q-21 -31 -59.5 -50t-92.5 -19q-81 0 -130 42.5t-49 117.5q0 73 48 113.5t132 40.5h148v19q0 48 -27.5 70t-75.5 22q-86 0 -124 -72l-86 50q32 61 88 89.5t128 28.5q93 0 153 -48t60 -156v-196q0 -84 9 -108h-114zM362 219h-122q-42 0 -64.5 -19
t-22.5 -52q0 -35 23.5 -53t66.5 -18q49 0 84 31.5t35 99.5v11zM93 603q0 51 27.5 79.5t67.5 28.5q21 0 38.5 -7t43.5 -21q37 -22 58 -22q18 0 26 12t6 33h76q1 -10 1.5 -16.5t0.5 -10.5q0 -51 -28 -78.5t-70 -27.5q-23 0 -43.5 7.5t-43.5 21.5q-19 10 -30 14.5t-22 4.5
q-33 0 -30 -47l-76 -1q-1 5 -1.5 12.5t-0.5 17.5z" />
    <glyph glyph-name="adieresis" unicode="&#xe4;" horiz-adv-x="530" 
d="M372 0q-5 21 -8 56q-21 -31 -59.5 -50t-92.5 -19q-81 0 -130 42.5t-49 117.5q0 73 48 113.5t132 40.5h148v19q0 48 -27.5 70t-75.5 22q-86 0 -124 -72l-86 50q32 61 88 89.5t128 28.5q93 0 153 -48t60 -156v-196q0 -84 9 -108h-114zM362 219h-122q-42 0 -64.5 -19
t-22.5 -52q0 -35 23.5 -53t66.5 -18q49 0 84 31.5t35 99.5v11zM91 629q0 30 21.5 51t51.5 21q29 0 50.5 -21.5t21.5 -50.5t-21.5 -50.5t-50.5 -21.5q-30 0 -51.5 21t-21.5 51zM294 629q0 30 21.5 51t51.5 21q29 0 51 -21.5t22 -50.5t-21.5 -50.5t-51.5 -21.5t-51.5 21
t-21.5 51z" />
    <glyph glyph-name="aring" unicode="&#xe5;" horiz-adv-x="530" 
d="M372 0q-5 21 -8 56q-21 -31 -59.5 -50t-92.5 -19q-81 0 -130 42.5t-49 117.5q0 73 48 113.5t132 40.5h148v19q0 48 -27.5 70t-75.5 22q-86 0 -124 -72l-86 50q32 61 88 89.5t128 28.5q93 0 153 -48t60 -156v-196q0 -84 9 -108h-114zM362 219h-122q-42 0 -64.5 -19
t-22.5 -52q0 -35 23.5 -53t66.5 -18q49 0 84 31.5t35 99.5v11zM140 666q0 26 10 49t27.5 40t40 27.5t47.5 10.5q26 0 48.5 -10.5t39.5 -27.5t27 -40t10 -49t-10 -49t-27 -40t-39.5 -27t-48.5 -10q-53 0 -89 36q-36 38 -36 90zM322 668q0 23 -16.5 39t-40.5 16t-40 -16
t-16 -39q0 -25 16 -41.5t40 -16.5t40.5 16.5t16.5 41.5z" />
    <glyph glyph-name="ae" unicode="&#xe6;" horiz-adv-x="896" 
d="M484 203q8 -54 44 -84t90 -30q43 0 77 20t53 54l90 -47q-30 -63 -89 -95.5t-134 -32.5q-63 0 -111 24.5t-75 67.5q-25 -45 -74 -68.5t-112 -23.5q-43 0 -79 10.5t-62 31t-40.5 50t-14.5 66.5q0 69 42.5 108.5t111.5 39.5h123q39 0 39 34q0 43 -30 62.5t-69 19.5
q-42 0 -74 -19.5t-51 -55.5l-86 50q33 57 89.5 90t120.5 33q60 0 104 -22t67 -62q30 42 77.5 63.5t104.5 21.5q54 0 98.5 -18t76 -51t48.5 -79t17 -102q1 -19 0.5 -33t-0.5 -23h-372zM737 289q-2 54 -37 88t-89 34q-52 0 -86.5 -33.5t-40.5 -88.5h253zM364 211h-125
q-35 0 -54 -18.5t-19 -46.5q0 -33 24.5 -50t64.5 -17q54 0 81.5 30.5t27.5 81.5v20z" />
    <glyph glyph-name="ccedilla" unicode="&#xe7;" horiz-adv-x="551" 
d="M415 178l101 -38q-22 -64 -75.5 -104t-125.5 -47l-19 -24h35q34 0 54 -22.5t20 -55.5q0 -35 -20 -56.5t-53 -21.5h-108v56h88q11 0 18.5 6.5t7.5 17.5t-7.5 16.5t-18.5 5.5h-88v55l18 25q-95 14 -151 82q-56 70 -56 174q0 59 18 107t51.5 82t80 53t103.5 19
q85 0 146 -41.5t82 -110.5l-102 -41q-13 40 -47 63t-77 23q-63 0 -99.5 -42t-36.5 -112q0 -72 36.5 -112t99.5 -40q45 0 78.5 22.5t46.5 60.5z" />
    <glyph glyph-name="egrave" unicode="&#xe8;" horiz-adv-x="560" 
d="M525 203h-378q6 -57 43 -85.5t91 -28.5q45 0 77 19.5t49 55.5l99 -39q-28 -66 -87.5 -102t-137.5 -36q-54 0 -99.5 18.5t-78 52.5t-50.5 82t-18 106t18 106.5t50.5 83t78.5 53.5t101 19q54 0 99 -19t76.5 -53t49 -82t17.5 -107v-44zM405 286q-4 61 -37 92t-88 31
t-89.5 -31.5t-41.5 -91.5h256zM134 711h114l80 -159h-90z" />
    <glyph glyph-name="eacute" unicode="&#xe9;" horiz-adv-x="560" 
d="M525 203h-378q6 -57 43 -85.5t91 -28.5q45 0 77 19.5t49 55.5l99 -39q-28 -66 -87.5 -102t-137.5 -36q-54 0 -99.5 18.5t-78 52.5t-50.5 82t-18 106t18 106.5t50.5 83t78.5 53.5t101 19q54 0 99 -19t76.5 -53t49 -82t17.5 -107v-44zM405 286q-4 61 -37 92t-88 31
t-89.5 -31.5t-41.5 -91.5h256zM237 552l80 159h113l-103 -159h-90z" />
    <glyph glyph-name="ecircumflex" unicode="&#xea;" horiz-adv-x="560" 
d="M525 203h-378q6 -57 43 -85.5t91 -28.5q45 0 77 19.5t49 55.5l99 -39q-28 -66 -87.5 -102t-137.5 -36q-54 0 -99.5 18.5t-78 52.5t-50.5 82t-18 106t18 106.5t50.5 83t78.5 53.5t101 19q54 0 99 -19t76.5 -53t49 -82t17.5 -107v-44zM405 286q-4 61 -37 92t-88 31
t-89.5 -31.5t-41.5 -91.5h256zM340 552l-57 96l-58 -96h-93l89 160h99h24l89 -160h-93z" />
    <glyph glyph-name="edieresis" unicode="&#xeb;" horiz-adv-x="560" 
d="M525 203h-378q6 -57 43 -85.5t91 -28.5q45 0 77 19.5t49 55.5l99 -39q-28 -66 -87.5 -102t-137.5 -36q-54 0 -99.5 18.5t-78 52.5t-50.5 82t-18 106t18 106.5t50.5 83t78.5 53.5t101 19q54 0 99 -19t76.5 -53t49 -82t17.5 -107v-44zM405 286q-4 61 -37 92t-88 31
t-89.5 -31.5t-41.5 -91.5h256zM102 615q0 30 21.5 51t51.5 21q29 0 50.5 -21.5t21.5 -50.5t-21.5 -50.5t-50.5 -21.5q-30 0 -51.5 21t-21.5 51zM305 615q0 30 21.5 51t51.5 21q29 0 51 -21.5t22 -50.5t-21.5 -50.5t-51.5 -21.5t-51.5 21t-21.5 51z" />
    <glyph glyph-name="igrave" unicode="&#xec;" horiz-adv-x="230" 
d="M174 493v-493h-118v493h118zM-34 711h114l80 -159h-90z" />
    <glyph glyph-name="iacute" unicode="&#xed;" horiz-adv-x="230" 
d="M174 493v-493h-118v493h118zM70 552l80 159h113l-103 -159h-90z" />
    <glyph glyph-name="icircumflex" unicode="&#xee;" horiz-adv-x="230" 
d="M174 493v-493h-118v493h118zM173 552l-57 96l-58 -96h-93l89 160h99h24l89 -160h-93z" />
    <glyph glyph-name="idieresis" unicode="&#xef;" horiz-adv-x="230" 
d="M174 493v-493h-118v493h118zM-59 629q0 30 21.5 51t51.5 21q29 0 50.5 -21.5t21.5 -50.5t-21.5 -50.5t-50.5 -21.5q-30 0 -51.5 21t-21.5 51zM144 629q0 30 21.5 51t51.5 21q29 0 51 -21.5t22 -50.5t-21.5 -50.5t-51.5 -21.5t-51.5 21t-21.5 51z" />
    <glyph glyph-name="eth" unicode="&#xf0;" horiz-adv-x="654" 
d="M614 302q0 -75 -22 -134t-61 -99t-92.5 -61t-116.5 -21q-64 0 -116 21.5t-89 59.5t-57 89.5t-20 111.5q-1 59 21 109t59.5 86.5t86.5 56.5t101 20q93 0 150 -45q-32 80 -89 133l-70 -58l-53 67l60 49q-33 29 -78 54l62 78q29 -15 54 -31.5t46 -33.5l67 55l55 -64l-60 -49
q77 -74 119 -180q43 -105 43 -214zM489 264q0 34 -11.5 64t-33 52.5t-51.5 36t-67 13.5q-38 0 -69 -13.5t-52.5 -36t-33 -53t-11.5 -64.5t11 -64t32 -52.5t51.5 -36t69.5 -13.5t70 13.5t52 36.5t32 53t11 64z" />
    <glyph glyph-name="ntilde" unicode="&#xf1;" horiz-adv-x="584" 
d="M525 0h-118v279q0 71 -33 96q-32 26 -74 26q-24 0 -45.5 -7.5t-38 -23.5t-26.5 -39.5t-10 -55.5v-275h-118v493h111l4 -53q21 31 60.5 49.5t87.5 18.5q96 0 148 -52.5t52 -151.5v-304zM127 603q0 51 27.5 79.5t67.5 28.5q21 0 38.5 -7t43.5 -21q37 -22 58 -22q18 0 26 12
t6 33h76q1 -10 1.5 -16.5t0.5 -10.5q0 -51 -28 -78.5t-70 -27.5q-23 0 -43.5 7.5t-43.5 21.5q-19 10 -30 14.5t-22 4.5q-33 0 -30 -47l-76 -1q-1 5 -1.5 12.5t-0.5 17.5z" />
    <glyph glyph-name="ograve" unicode="&#xf2;" horiz-adv-x="583" 
d="M292 507q57 0 104 -19t81 -53.5t52.5 -82.5t18.5 -105t-18.5 -104.5t-52.5 -82t-81 -53.5t-104 -19t-104.5 19t-81.5 53.5t-52.5 82t-18.5 104.5t18.5 105t52.5 82.5t81.5 53.5t104.5 19zM292 94q61 0 98.5 42.5t37.5 111.5t-37.5 111t-98.5 42q-63 0 -100.5 -42
t-37.5 -111t37.5 -111.5t100.5 -42.5zM143 711h114l80 -159h-90z" />
    <glyph glyph-name="oacute" unicode="&#xf3;" horiz-adv-x="583" 
d="M292 507q57 0 104 -19t81 -53.5t52.5 -82.5t18.5 -105t-18.5 -104.5t-52.5 -82t-81 -53.5t-104 -19t-104.5 19t-81.5 53.5t-52.5 82t-18.5 104.5t18.5 105t52.5 82.5t81.5 53.5t104.5 19zM292 94q61 0 98.5 42.5t37.5 111.5t-37.5 111t-98.5 42q-63 0 -100.5 -42
t-37.5 -111t37.5 -111.5t100.5 -42.5zM246 552l80 159h113l-103 -159h-90z" />
    <glyph glyph-name="ocircumflex" unicode="&#xf4;" horiz-adv-x="583" 
d="M292 507q57 0 104 -19t81 -53.5t52.5 -82.5t18.5 -105t-18.5 -104.5t-52.5 -82t-81 -53.5t-104 -19t-104.5 19t-81.5 53.5t-52.5 82t-18.5 104.5t18.5 105t52.5 82.5t81.5 53.5t104.5 19zM292 94q61 0 98.5 42.5t37.5 111.5t-37.5 111t-98.5 42q-63 0 -100.5 -42
t-37.5 -111t37.5 -111.5t100.5 -42.5zM349 552l-57 96l-58 -96h-93l89 160h99h24l89 -160h-93z" />
    <glyph glyph-name="otilde" unicode="&#xf5;" horiz-adv-x="583" 
d="M292 507q57 0 104 -19t81 -53.5t52.5 -82.5t18.5 -105t-18.5 -104.5t-52.5 -82t-81 -53.5t-104 -19t-104.5 19t-81.5 53.5t-52.5 82t-18.5 104.5t18.5 105t52.5 82.5t81.5 53.5t104.5 19zM292 94q61 0 98.5 42.5t37.5 111.5t-37.5 111t-98.5 42q-63 0 -100.5 -42
t-37.5 -111t37.5 -111.5t100.5 -42.5zM119 603q0 51 27.5 79.5t67.5 28.5q21 0 38.5 -7t43.5 -21q37 -22 58 -22q18 0 26 12t6 33h76q1 -10 1.5 -16.5t0.5 -10.5q0 -51 -28 -78.5t-70 -27.5q-23 0 -43.5 7.5t-43.5 21.5q-19 10 -30 14.5t-22 4.5q-33 0 -30 -47l-76 -1
q-1 5 -1.5 12.5t-0.5 17.5z" />
    <glyph glyph-name="odieresis" unicode="&#xf6;" horiz-adv-x="583" 
d="M292 507q57 0 104 -19t81 -53.5t52.5 -82.5t18.5 -105t-18.5 -104.5t-52.5 -82t-81 -53.5t-104 -19t-104.5 19t-81.5 53.5t-52.5 82t-18.5 104.5t18.5 105t52.5 82.5t81.5 53.5t104.5 19zM292 94q61 0 98.5 42.5t37.5 111.5t-37.5 111t-98.5 42q-63 0 -100.5 -42
t-37.5 -111t37.5 -111.5t100.5 -42.5zM117 629q0 30 21.5 51t51.5 21q29 0 50.5 -21.5t21.5 -50.5t-21.5 -50.5t-50.5 -21.5q-30 0 -51.5 21t-21.5 51zM320 629q0 30 21.5 51t51.5 21q29 0 51 -21.5t22 -50.5t-21.5 -50.5t-51.5 -21.5t-51.5 21t-21.5 51z" />
    <glyph glyph-name="divide" unicode="&#xf7;" horiz-adv-x="547" 
d="M200 494q0 30 21.5 51.5t52.5 21.5q29 0 51 -21.5t22 -51.5q0 -29 -22 -50.5t-51 -21.5q-31 0 -52.5 21.5t-21.5 50.5zM467 357v-93h-387v93h387zM200 119q0 30 21.5 51.5t52.5 21.5q29 0 51 -21.5t22 -51.5q0 -29 -22 -51t-51 -22q-30 0 -52 22t-22 51z" />
    <glyph glyph-name="oslash" unicode="&#xf8;" horiz-adv-x="583" 
d="M548 247q0 -57 -18.5 -104.5t-52.5 -82t-81 -53.5t-104 -19q-55 0 -96 16l-33 -54h-106l61 99q-39 35 -61 86t-22 112q0 57 18.5 105t52.5 82.5t81.5 53.5t104.5 19q52 0 100 -17l30 47h103l-58 -93q39 -36 60 -86.5t21 -110.5zM334 395q-19 6 -42 6q-63 0 -100.5 -42
t-37.5 -111q0 -58 28 -98zM428 248q0 56 -24 93l-149 -242q20 -5 37 -5q61 0 98.5 42.5t37.5 111.5z" />
    <glyph glyph-name="ugrave" unicode="&#xf9;" horiz-adv-x="595" 
d="M418 0q-6 21 -9 55q-21 -33 -59.5 -50.5t-86.5 -17.5q-84 0 -144 48q-59 48 -59 159v300h119v-278q0 -70 33 -97q34 -26 76 -26q47 0 83 30q36 32 36 96v274h118v-402q0 -20 3 -47.5t7 -43.5h-117zM144 711h114l80 -159h-90z" />
    <glyph glyph-name="uacute" unicode="&#xfa;" horiz-adv-x="595" 
d="M418 0q-6 21 -9 55q-21 -33 -59.5 -50.5t-86.5 -17.5q-84 0 -144 48q-59 48 -59 159v300h119v-278q0 -70 33 -97q34 -26 76 -26q47 0 83 30q36 32 36 96v274h118v-402q0 -20 3 -47.5t7 -43.5h-117zM247 552l80 159h113l-103 -159h-90z" />
    <glyph glyph-name="ucircumflex" unicode="&#xfb;" horiz-adv-x="595" 
d="M418 0q-6 21 -9 55q-21 -33 -59.5 -50.5t-86.5 -17.5q-84 0 -144 48q-59 48 -59 159v300h119v-278q0 -70 33 -97q34 -26 76 -26q47 0 83 30q36 32 36 96v274h118v-402q0 -20 3 -47.5t7 -43.5h-117zM350 552l-57 96l-58 -96h-93l89 160h99h24l89 -160h-93z" />
    <glyph glyph-name="udieresis" unicode="&#xfc;" horiz-adv-x="595" 
d="M418 0q-6 21 -9 55q-21 -33 -59.5 -50.5t-86.5 -17.5q-84 0 -144 48q-59 48 -59 159v300h119v-278q0 -70 33 -97q34 -26 76 -26q47 0 83 30q36 32 36 96v274h118v-402q0 -20 3 -47.5t7 -43.5h-117zM118 629q0 30 21.5 51t51.5 21q29 0 50.5 -21.5t21.5 -50.5t-21.5 -50.5
t-50.5 -21.5q-30 0 -51.5 21t-21.5 51zM321 629q0 30 21.5 51t51.5 21q29 0 51 -21.5t22 -50.5t-21.5 -50.5t-51.5 -21.5t-51.5 21t-21.5 51z" />
    <glyph glyph-name="yacute" unicode="&#xfd;" horiz-adv-x="549" 
d="M538 493l-234 -608q-48 -125 -163 -125q-53 0 -112 24l33 107q37 -23 70 -23q24 0 43 14t30 43l17 46l-210 522h124l142 -370l136 370h124zM230 552l80 159h113l-103 -159h-90z" />
    <glyph glyph-name="thorn" unicode="&#xfe;" horiz-adv-x="639" 
d="M358 -12q-55 0 -100 19t-69 53v-286h-118v956h118v-291q23 33 65.5 51.5t99.5 18.5q55 0 100 -18t77.5 -51.5t50 -82.5t17.5 -111q0 -61 -18 -109t-50.5 -81t-76.5 -50.5t-96 -17.5zM479 247q0 69 -39 111.5t-103 42.5q-66 0 -104.5 -42t-38.5 -112q0 -69 38.5 -110.5
t104.5 -41.5q64 0 103 41.5t39 110.5z" />
    <glyph glyph-name="ydieresis" unicode="&#xff;" horiz-adv-x="549" 
d="M538 493l-234 -608q-48 -125 -163 -125q-53 0 -112 24l33 107q37 -23 70 -23q24 0 43 14t30 43l17 46l-210 522h124l142 -370l136 370h124zM101 629q0 30 21.5 51t51.5 21q29 0 50.5 -21.5t21.5 -50.5t-21.5 -50.5t-50.5 -21.5q-30 0 -51.5 21t-21.5 51zM304 629
q0 30 21.5 51t51.5 21q29 0 51 -21.5t22 -50.5t-21.5 -50.5t-51.5 -21.5t-51.5 21t-21.5 51z" />
    <glyph glyph-name="Amacron" unicode="&#x100;" horiz-adv-x="678" 
d="M477 170h-278l-60 -170h-128l264 730h122h6l264 -730h-131zM441 275l-102 292l-103 -292h205zM493 875v-78h-306v78h306z" />
    <glyph glyph-name="amacron" unicode="&#x101;" horiz-adv-x="530" 
d="M372 0q-5 21 -8 56q-21 -31 -59.5 -50t-92.5 -19q-81 0 -130 42.5t-49 117.5q0 73 48 113.5t132 40.5h148v19q0 48 -27.5 70t-75.5 22q-86 0 -124 -72l-86 50q32 61 88 89.5t128 28.5q93 0 153 -48t60 -156v-196q0 -84 9 -108h-114zM362 219h-122q-42 0 -64.5 -19
t-22.5 -52q0 -35 23.5 -53t66.5 -18q49 0 84 31.5t35 99.5v11zM418 645v-78h-306v78h306z" />
    <glyph glyph-name="Abreve" unicode="&#x102;" horiz-adv-x="678" 
d="M477 170h-278l-60 -170h-128l264 730h122h6l264 -730h-131zM441 275l-102 292l-103 -292h205zM340 782q-35 0 -66 12.5t-53.5 33.5t-35.5 50t-13 62h91q1 -33 22.5 -51t54.5 -18t54.5 18.5t22.5 50.5h90q0 -33 -13 -61.5t-36 -50t-53 -34t-65 -12.5z" />
    <glyph glyph-name="abreve" unicode="&#x103;" horiz-adv-x="530" 
d="M372 0q-5 21 -8 56q-21 -31 -59.5 -50t-92.5 -19q-81 0 -130 42.5t-49 117.5q0 73 48 113.5t132 40.5h148v19q0 48 -27.5 70t-75.5 22q-86 0 -124 -72l-86 50q32 61 88 89.5t128 28.5q93 0 153 -48t60 -156v-196q0 -84 9 -108h-114zM362 219h-122q-42 0 -64.5 -19
t-22.5 -52q0 -35 23.5 -53t66.5 -18q49 0 84 31.5t35 99.5v11zM266 552q-35 0 -66 12.5t-53.5 33.5t-35.5 50t-13 62h91q1 -33 22.5 -51t54.5 -18t54.5 18.5t22.5 50.5h90q0 -33 -13 -61.5t-36 -50t-53 -34t-65 -12.5z" />
    <glyph glyph-name="Aogonek" unicode="&#x104;" horiz-adv-x="678" 
d="M477 170h-278l-60 -170h-128l264 730h122h6l264 -730h-131zM441 275l-102 292l-103 -292h205zM672 0q-34 -13 -51.5 -33t-17.5 -39q0 -16 10.5 -26.5t28.5 -10.5q13 0 25 5v-80q-28 -9 -51 -9q-45 0 -70.5 27t-25.5 64q0 32 19.5 60t58.5 42h74z" />
    <glyph glyph-name="aogonek" unicode="&#x105;" horiz-adv-x="530" 
d="M418 -72q0 -16 10.5 -26.5t28.5 -10.5q13 0 25 5v-80q-28 -9 -51 -9q-45 0 -70.5 27t-25.5 64q0 32 19.5 60t58.5 42h-41q-5 21 -8 56q-21 -31 -59.5 -50t-92.5 -19q-81 0 -130 42.5t-49 117.5q0 73 48 113.5t132 40.5h148v19q0 48 -27.5 70t-75.5 22q-86 0 -124 -72
l-86 50q32 61 88 89.5t128 28.5q93 0 153 -48t60 -156v-196q0 -84 9 -108h1q-34 -13 -51.5 -33t-17.5 -39zM362 219h-122q-42 0 -64.5 -19t-22.5 -52q0 -35 23.5 -53t66.5 -18q49 0 84 31.5t35 99.5v11z" />
    <glyph glyph-name="Cacute" unicode="&#x106;" horiz-adv-x="747" 
d="M583 490q-20 63 -70 97.5t-119 34.5q-51 0 -92.5 -18.5t-70.5 -52t-45 -81t-16 -105.5q0 -59 16.5 -106.5t45.5 -80.5t70.5 -50.5t90.5 -17.5q72 0 126 34.5t75 91.5l117 -50q-38 -94 -123 -146t-196 -52q-78 0 -143 27t-111.5 76t-72 118.5t-25.5 153.5q0 85 26 155
t72.5 120t111.5 77.5t143 27.5q116 0 199 -59t110 -154zM350 782l80 159h113l-103 -159h-90z" />
    <glyph glyph-name="cacute" unicode="&#x107;" horiz-adv-x="551" 
d="M288 508q85 0 146 -41.5t82 -110.5l-102 -41q-13 40 -47 63t-77 23q-63 0 -99.5 -42t-36.5 -112q0 -72 36.5 -112t99.5 -40q45 0 78.5 22.5t46.5 60.5l101 -38q-25 -72 -86.5 -112.5t-142.5 -40.5q-56 0 -102.5 19t-79.5 53t-51.5 82t-18.5 106q0 59 18 107t51.5 82
t80 53t103.5 19zM232 552l80 159h113l-103 -159h-90z" />
    <glyph glyph-name="Ccircumflex" unicode="&#x108;" horiz-adv-x="747" 
d="M583 490q-20 63 -70 97.5t-119 34.5q-51 0 -92.5 -18.5t-70.5 -52t-45 -81t-16 -105.5q0 -59 16.5 -106.5t45.5 -80.5t70.5 -50.5t90.5 -17.5q72 0 126 34.5t75 91.5l117 -50q-38 -94 -123 -146t-196 -52q-78 0 -143 27t-111.5 76t-72 118.5t-25.5 153.5q0 85 26 155
t72.5 120t111.5 77.5t143 27.5q116 0 199 -59t110 -154zM453 782l-57 96l-58 -96h-93l89 160h99h24l89 -160h-93z" />
    <glyph glyph-name="ccircumflex" unicode="&#x109;" horiz-adv-x="551" 
d="M288 508q85 0 146 -41.5t82 -110.5l-102 -41q-13 40 -47 63t-77 23q-63 0 -99.5 -42t-36.5 -112q0 -72 36.5 -112t99.5 -40q45 0 78.5 22.5t46.5 60.5l101 -38q-25 -72 -86.5 -112.5t-142.5 -40.5q-56 0 -102.5 19t-79.5 53t-51.5 82t-18.5 106q0 59 18 107t51.5 82
t80 53t103.5 19zM335 552l-57 96l-58 -96h-93l89 160h99h24l89 -160h-93z" />
    <glyph glyph-name="Cdotaccent" unicode="&#x10a;" horiz-adv-x="747" 
d="M583 490q-20 63 -70 97.5t-119 34.5q-51 0 -92.5 -18.5t-70.5 -52t-45 -81t-16 -105.5q0 -59 16.5 -106.5t45.5 -80.5t70.5 -50.5t90.5 -17.5q72 0 126 34.5t75 91.5l117 -50q-38 -94 -123 -146t-196 -52q-78 0 -143 27t-111.5 76t-72 118.5t-25.5 153.5q0 85 26 155
t72.5 120t111.5 77.5t143 27.5q116 0 199 -59t110 -154zM323 859q0 30 21.5 51.5t50.5 21.5t50.5 -22t21.5 -51t-21.5 -50.5t-50.5 -21.5q-30 0 -51 21t-21 51z" />
    <glyph glyph-name="cdotaccent" unicode="&#x10b;" horiz-adv-x="551" 
d="M288 508q85 0 146 -41.5t82 -110.5l-102 -41q-13 40 -47 63t-77 23q-63 0 -99.5 -42t-36.5 -112q0 -72 36.5 -112t99.5 -40q45 0 78.5 22.5t46.5 60.5l101 -38q-25 -72 -86.5 -112.5t-142.5 -40.5q-56 0 -102.5 19t-79.5 53t-51.5 82t-18.5 106q0 59 18 107t51.5 82
t80 53t103.5 19zM206 629q0 30 21.5 51.5t50.5 21.5t50.5 -22t21.5 -51t-21.5 -50.5t-50.5 -21.5q-30 0 -51 21t-21 51z" />
    <glyph glyph-name="Ccaron" unicode="&#x10c;" horiz-adv-x="747" 
d="M583 490q-20 63 -70 97.5t-119 34.5q-51 0 -92.5 -18.5t-70.5 -52t-45 -81t-16 -105.5q0 -59 16.5 -106.5t45.5 -80.5t70.5 -50.5t90.5 -17.5q72 0 126 34.5t75 91.5l117 -50q-38 -94 -123 -146t-196 -52q-78 0 -143 27t-111.5 76t-72 118.5t-25.5 153.5q0 85 26 155
t72.5 120t111.5 77.5t143 27.5q116 0 199 -59t110 -154zM546 942l-89 -160h-99h-24l-89 160h93l58 -96l57 96h93z" />
    <glyph glyph-name="ccaron" unicode="&#x10d;" horiz-adv-x="551" 
d="M288 508q85 0 146 -41.5t82 -110.5l-102 -41q-13 40 -47 63t-77 23q-63 0 -99.5 -42t-36.5 -112q0 -72 36.5 -112t99.5 -40q45 0 78.5 22.5t46.5 60.5l101 -38q-25 -72 -86.5 -112.5t-142.5 -40.5q-56 0 -102.5 19t-79.5 53t-51.5 82t-18.5 106q0 59 18 107t51.5 82
t80 53t103.5 19zM428 712l-89 -160h-99h-24l-89 160h93l58 -96l57 96h93z" />
    <glyph glyph-name="Dcaron" unicode="&#x10e;" horiz-adv-x="740" 
d="M700 364q1 -79 -26.5 -146t-77 -116t-117.5 -76t-146 -26h-251v730h251q78 1 145.5 -26.5t117 -76.5t78 -116.5t26.5 -146.5zM569 364q0 55 -17 101t-48.5 79t-75 51.5t-97.5 18.5h-125v-499h125q54 0 98 18t75 50.5t48 78.5t17 102zM444 942l-89 -160h-99h-24l-89 160
h93l58 -96l57 96h93z" />
    <glyph glyph-name="dcaron" unicode="&#x10f;" horiz-adv-x="743" 
d="M693 513h-57l-18 183q-3 25 12 40t36 15q20 0 34.5 -15t11.5 -40zM562 124q3 -106 10 -124h-119l-4 32t-4 33q-25 -37 -69 -57.5t-98 -20.5t-98.5 17.5t-77 50.5t-50.5 81.5t-18 110.5q0 58 18.5 106t51 82.5t77 53.5t97.5 19q51 0 96 -17.5t70 -51.5v304h118v-619z
M439 249q0 69 -39 110.5t-103 41.5t-103.5 -41.5t-39.5 -110.5t39.5 -111.5t103.5 -42.5t103 42t39 112z" />
    <glyph glyph-name="Dcroat" unicode="&#x110;" horiz-adv-x="752" 
d="M700 364q1 -79 -26.5 -146t-77 -116t-117.5 -76t-146 -26h-251v314h-69v103h69v313h251q78 1 145.5 -26.5t117 -76.5t78 -116.5t26.5 -146.5zM569 364q0 55 -17 101t-48.5 79t-75 51.5t-97.5 18.5h-125v-197h95v-103h-95v-199h125q54 0 98 18t75 50.5t48 78.5t17 102z
" />
    <glyph glyph-name="dcroat" unicode="&#x111;" horiz-adv-x="632" 
d="M563 563v-439q0 -26 3 -70q3 -42 6 -54h-118q-2 16 -4 32.5t-4 33.5q-24 -38 -68.5 -58.5t-98.5 -20.5t-98.5 17.5t-77 50.5t-50.5 81.5t-18 110.5q0 58 18.5 106t51.5 82.5t78.5 53.5t99.5 19q48 0 92 -18.5t70 -53.5v127h-170v95h170v85h118v-85h68v-95h-68zM440 248
q0 69 -39 111t-103 42t-103.5 -42t-39.5 -111t39.5 -111t103.5 -42t103 42t39 111z" />
    <glyph glyph-name="Emacron" unicode="&#x112;" horiz-adv-x="593" 
d="M535 117v-117h-453v730h453v-118h-329v-189h294v-110h-294v-196h329zM459 875v-78h-306v78h306z" />
    <glyph glyph-name="emacron" unicode="&#x113;" horiz-adv-x="560" 
d="M525 203h-378q6 -57 43 -85.5t91 -28.5q45 0 77 19.5t49 55.5l99 -39q-28 -66 -87.5 -102t-137.5 -36q-54 0 -99.5 18.5t-78 52.5t-50.5 82t-18 106t18 106.5t50.5 83t78.5 53.5t101 19q54 0 99 -19t76.5 -53t49 -82t17.5 -107v-44zM405 286q-4 61 -37 92t-88 31
t-89.5 -31.5t-41.5 -91.5h256zM436 645v-78h-306v78h306z" />
    <glyph glyph-name="Ebreve" unicode="&#x114;" horiz-adv-x="593" 
d="M535 117v-117h-453v730h453v-118h-329v-189h294v-110h-294v-196h329zM474 943q0 -33 -13 -62.5t-35.5 -51.5t-53 -34.5t-65.5 -12.5q-36 0 -66.5 12.5t-53 34.5t-35.5 51.5t-13 62.5h91q0 -34 21.5 -53t55.5 -19t55.5 19t21.5 53h90z" />
    <glyph glyph-name="ebreve" unicode="&#x115;" horiz-adv-x="560" 
d="M525 203h-378q6 -57 43 -85.5t91 -28.5q45 0 77 19.5t49 55.5l99 -39q-28 -66 -87.5 -102t-137.5 -36q-54 0 -99.5 18.5t-78 52.5t-50.5 82t-18 106t18 106.5t50.5 83t78.5 53.5t101 19q54 0 99 -19t76.5 -53t49 -82t17.5 -107v-44zM405 286q-4 61 -37 92t-88 31
t-89.5 -31.5t-41.5 -91.5h256zM450 713q0 -33 -13 -62.5t-35.5 -51.5t-53 -34.5t-65.5 -12.5q-36 0 -66.5 12.5t-53 34.5t-35.5 51.5t-13 62.5h91q0 -34 21.5 -53t55.5 -19t55.5 19t21.5 53h90z" />
    <glyph glyph-name="Edotaccent" unicode="&#x116;" horiz-adv-x="593" 
d="M535 117v-117h-453v730h453v-118h-329v-189h294v-110h-294v-196h329zM234 859q0 30 21.5 51.5t50.5 21.5t50.5 -22t21.5 -51t-21.5 -50.5t-50.5 -21.5q-30 0 -51 21t-21 51z" />
    <glyph glyph-name="edotaccent" unicode="&#x117;" horiz-adv-x="560" 
d="M525 203h-378q6 -57 43 -85.5t91 -28.5q45 0 77 19.5t49 55.5l99 -39q-28 -66 -87.5 -102t-137.5 -36q-54 0 -99.5 18.5t-78 52.5t-50.5 82t-18 106t18 106.5t50.5 83t78.5 53.5t101 19q54 0 99 -19t76.5 -53t49 -82t17.5 -107v-44zM405 286q-4 61 -37 92t-88 31
t-89.5 -31.5t-41.5 -91.5h256zM210 629q0 30 21.5 51.5t50.5 21.5t50.5 -22t21.5 -51t-21.5 -50.5t-50.5 -21.5q-30 0 -51 21t-21 51z" />
    <glyph glyph-name="Eogonek" unicode="&#x118;" horiz-adv-x="593" 
d="M535 117v-117h-453v730h453v-118h-329v-189h294v-110h-294v-196h329zM534 0q-34 -13 -51.5 -33t-17.5 -39q0 -16 10.5 -26.5t28.5 -10.5q13 0 25 5v-80q-28 -9 -51 -9q-45 0 -70.5 27t-25.5 64q0 32 19.5 60t58.5 42h74z" />
    <glyph glyph-name="eogonek" unicode="&#x119;" horiz-adv-x="560" 
d="M525 203h-378q6 -57 43 -85.5t91 -28.5q45 0 77 19.5t49 55.5l99 -39q-23 -54 -69 -88.5t-107 -45.5q-29 -13 -43.5 -31.5t-14.5 -36.5q0 -15 10.5 -25.5t28.5 -10.5q13 0 25 5v-80q-28 -9 -51 -9q-45 0 -70.5 27t-25.5 64q0 29 15.5 54t46.5 41q-99 11 -157 79
q-59 71 -59 178q0 58 18 106.5t50.5 83t78.5 53.5t101 19q54 0 99 -19t76.5 -53t49 -82t17.5 -107v-44zM405 286q-4 61 -37 92t-88 31t-89.5 -31.5t-41.5 -91.5h256z" />
    <glyph glyph-name="Ecaron" unicode="&#x11a;" horiz-adv-x="593" 
d="M535 117v-117h-453v730h453v-118h-329v-189h294v-110h-294v-196h329zM457 942l-89 -160h-99h-24l-89 160h93l58 -96l57 96h93z" />
    <glyph glyph-name="ecaron" unicode="&#x11b;" horiz-adv-x="560" 
d="M525 203h-378q6 -57 43 -85.5t91 -28.5q45 0 77 19.5t49 55.5l99 -39q-28 -66 -87.5 -102t-137.5 -36q-54 0 -99.5 18.5t-78 52.5t-50.5 82t-18 106t18 106.5t50.5 83t78.5 53.5t101 19q54 0 99 -19t76.5 -53t49 -82t17.5 -107v-44zM405 286q-4 61 -37 92t-88 31
t-89.5 -31.5t-41.5 -91.5h256zM433 712l-89 -160h-99h-24l-89 160h93l58 -96l57 96h93z" />
    <glyph glyph-name="Gcircumflex" unicode="&#x11c;" horiz-adv-x="777" 
d="M719 418v-418h-107l-6 82q-34 -45 -95 -69t-130 -24q-76 0 -139 28t-108 77.5t-69.5 118.5t-24.5 150q0 83 25.5 152.5t73 120t113.5 79t147 28.5q116 0 198 -54q85 -55 116 -145l-111 -46q-24 66 -78 97.5t-124 31.5q-54 0 -97.5 -19t-73.5 -54t-46.5 -84.5
t-16.5 -109.5q0 -61 17 -108.5t47 -80t71.5 -49.5t90.5 -17q76 0 138 38q63 38 74 128v38h-224v109h339zM436 783l-57 96l-58 -96h-93l89 160h99h24l89 -160h-93z" />
    <glyph glyph-name="gcircumflex" unicode="&#x11d;" horiz-adv-x="551" 
d="M215 574h-93l89 141h99h23l90 -141h-94l-57 85zM533 -91q0 -84 -76 -120q-73 -36 -190 -38q-120 0 -185.5 31t-65.5 97q0 35 18 62t50 41q-47 32 -47 91q0 29 16.5 59t52.5 44q-56 54 -56 135q0 44 16.5 80t45.5 62t70.5 40.5t90.5 14.5q64 0 116 -24q16 32 48 51t75 19
q14 0 19 -1v-97q-4 1 -18 1q-39 0 -62 -21q43 -50 43 -124q0 -44 -16 -80t-44.5 -62t-69 -40t-90.5 -14q-49 0 -93 16q-22 -1 -34.5 -11t-12.5 -29q0 -14 12.5 -25t39.5 -11h174q82 0 127.5 -39t45.5 -108zM164 312q0 -45 30 -73.5t78 -28.5q49 1 78 29.5t29 70.5
q0 43 -29.5 73.5t-77.5 30.5t-78 -28.5t-30 -73.5zM418 -91q0 26 -21.5 38t-55.5 12h-170l-15 1q-38 -14 -38 -50t38.5 -47.5t113.5 -11.5q73 0 110.5 11.5t37.5 46.5z" />
    <glyph glyph-name="Gbreve" unicode="&#x11e;" horiz-adv-x="777" 
d="M719 418v-418h-107l-6 82q-34 -45 -95 -69t-130 -24q-76 0 -139 28t-108 77.5t-69.5 118.5t-24.5 150q0 83 25.5 152.5t73 120t113.5 79t147 28.5q116 0 198 -54q85 -55 116 -145l-111 -46q-24 66 -78 97.5t-124 31.5q-54 0 -97.5 -19t-73.5 -54t-46.5 -84.5
t-16.5 -109.5q0 -61 17 -108.5t47 -80t71.5 -49.5t90.5 -17q76 0 138 38q63 38 74 128v38h-224v109h339zM546 944q0 -33 -13 -62.5t-35.5 -51.5t-53 -34.5t-65.5 -12.5q-36 0 -66.5 12.5t-53 34.5t-35.5 51.5t-13 62.5h91q0 -34 21.5 -53t55.5 -19t55.5 19t21.5 53h90z" />
    <glyph glyph-name="gbreve" unicode="&#x11f;" horiz-adv-x="551" 
d="M533 -91q0 -84 -76 -120q-73 -36 -190 -38q-120 0 -185.5 31t-65.5 97q0 35 18 62t50 41q-47 32 -47 91q0 29 16.5 59t52.5 44q-56 54 -56 135q0 44 16.5 80t45.5 62t70.5 40.5t90.5 14.5q64 0 116 -24q16 32 48 51t75 19q14 0 19 -1v-97q-4 1 -18 1q-39 0 -62 -21
q43 -50 43 -124q0 -44 -16 -80t-44.5 -62t-69 -40t-90.5 -14q-49 0 -93 16q-22 -1 -34.5 -11t-12.5 -29q0 -14 12.5 -25t39.5 -11h174q82 0 127.5 -39t45.5 -108zM164 312q0 -45 30 -73.5t78 -28.5q49 1 78 29.5t29 70.5q0 43 -29.5 73.5t-77.5 30.5t-78 -28.5t-30 -73.5z
M418 -91q0 26 -21.5 38t-55.5 12h-170l-15 1q-38 -14 -38 -50t38.5 -47.5t113.5 -11.5q73 0 110.5 11.5t37.5 46.5zM445 713q0 -33 -13 -62.5t-35.5 -51.5t-53 -34.5t-65.5 -12.5q-36 0 -66.5 12.5t-53 34.5t-35.5 51.5t-13 62.5h91q0 -34 21.5 -53t55.5 -19t55.5 19
t21.5 53h90z" />
    <glyph glyph-name="Gdotaccent" unicode="&#x120;" horiz-adv-x="777" 
d="M719 418v-418h-107l-6 82q-34 -45 -95 -69t-130 -24q-76 0 -139 28t-108 77.5t-69.5 118.5t-24.5 150q0 83 25.5 152.5t73 120t113.5 79t147 28.5q116 0 198 -54q85 -55 116 -145l-111 -46q-24 66 -78 97.5t-124 31.5q-54 0 -97.5 -19t-73.5 -54t-46.5 -84.5
t-16.5 -109.5q0 -61 17 -108.5t47 -80t71.5 -49.5t90.5 -17q76 0 138 38q63 38 74 128v38h-224v109h339zM307 860q0 30 21.5 51.5t50.5 21.5t50.5 -22t21.5 -51t-21.5 -50.5t-50.5 -21.5q-30 0 -51 21t-21 51z" />
    <glyph glyph-name="gdotaccent" unicode="&#x121;" horiz-adv-x="551" 
d="M533 -91q0 -84 -76 -120q-73 -36 -190 -38q-120 0 -185.5 31t-65.5 97q0 35 18 62t50 41q-47 32 -47 91q0 29 16.5 59t52.5 44q-56 54 -56 135q0 44 16.5 80t45.5 62t70.5 40.5t90.5 14.5q64 0 116 -24q16 32 48 51t75 19q14 0 19 -1v-97q-4 1 -18 1q-39 0 -62 -21
q43 -50 43 -124q0 -44 -16 -80t-44.5 -62t-69 -40t-90.5 -14q-49 0 -93 16q-22 -1 -34.5 -11t-12.5 -29q0 -14 12.5 -25t39.5 -11h174q82 0 127.5 -39t45.5 -108zM164 312q0 -45 30 -73.5t78 -28.5q49 1 78 29.5t29 70.5q0 43 -29.5 73.5t-77.5 30.5t-78 -28.5t-30 -73.5z
M418 -91q0 26 -21.5 38t-55.5 12h-170l-15 1q-38 -14 -38 -50t38.5 -47.5t113.5 -11.5q73 0 110.5 11.5t37.5 46.5zM206 629q0 30 21.5 51.5t50.5 21.5t50.5 -22t21.5 -51t-21.5 -50.5t-50.5 -21.5q-30 0 -51 21t-21 51z" />
    <glyph glyph-name="Gcommaaccent" unicode="&#x122;" horiz-adv-x="777" 
d="M719 418v-418h-107l-6 82q-34 -45 -95 -69t-130 -24q-76 0 -139 28t-108 77.5t-69.5 118.5t-24.5 150q0 83 25.5 152.5t73 120t113.5 79t147 28.5q116 0 198 -54q85 -55 116 -145l-111 -46q-24 66 -78 97.5t-124 31.5q-54 0 -97.5 -19t-73.5 -54t-46.5 -84.5
t-16.5 -109.5q0 -61 17 -108.5t47 -80t71.5 -49.5t90.5 -17q76 0 138 38q63 38 74 128v38h-224v109h339zM475 -124q0 -49 -31 -81q-31 -33 -72 -33v32q22 0 37 15.5t15 34.5q-7 -4 -21 -4q-22 0 -36.5 14.5t-14.5 40.5t16.5 42.5t42.5 16.5q27 0 45.5 -19.5t18.5 -58.5z" />
    <glyph glyph-name="gcommaaccent" unicode="&#x123;" horiz-adv-x="551" 
d="M533 -91q0 -84 -76 -120q-73 -36 -190 -38q-120 0 -185.5 31t-65.5 97q0 35 18 62t50 41q-47 32 -47 91q0 29 16.5 59t52.5 44q-56 54 -56 135q0 44 16.5 80t45.5 62t70.5 40.5t90.5 14.5q64 0 116 -24q16 32 48 51t75 19q14 0 19 -1v-97q-4 1 -18 1q-39 0 -62 -21
q43 -50 43 -124q0 -44 -16 -80t-44.5 -62t-69 -40t-90.5 -14q-49 0 -93 16q-22 -1 -34.5 -11t-12.5 -29q0 -14 12.5 -25t39.5 -11h174q82 0 127.5 -39t45.5 -108zM164 312q0 -45 30 -73.5t78 -28.5q49 1 78 29.5t29 70.5q0 43 -29.5 73.5t-77.5 30.5t-78 -28.5t-30 -73.5z
M418 -91q0 26 -21.5 38t-55.5 12h-170l-15 1q-38 -14 -38 -50t38.5 -47.5t113.5 -11.5q73 0 110.5 11.5t37.5 46.5zM233 552l80 159h113l-103 -159h-90z" />
    <glyph glyph-name="Hbar" unicode="&#x126;" horiz-adv-x="734" 
d="M729 541h-76v-541h-125v314l-322 1v-315h-124v541h-79v106h79v83h124v-83h322v83h125v-83h76v-106zM528 541h-322v-116l322 -1v117z" />
    <glyph glyph-name="hbar" unicode="&#x127;" horiz-adv-x="589" 
d="M530 300v-300h-118v274q0 36 -8.5 60.5t-23.5 39t-35 21t-43 6.5q-21 0 -42.5 -7.5t-39.5 -23t-29 -40t-11 -58.5v-272h-118v578h-54v70h54v95h118v-95h167v-70h-167v-136q23 30 61.5 48t84.5 18q97 0 150.5 -53t53.5 -155z" />
    <glyph glyph-name="Itilde" unicode="&#x128;" horiz-adv-x="288" 
d="M82 0v730h124v-730h-124zM-28 833q0 51 27.5 79.5t67.5 28.5q21 0 38.5 -7t43.5 -21q37 -22 58 -22q18 0 26 12t6 33h76q1 -10 1.5 -16.5t0.5 -10.5q0 -51 -28 -78.5t-70 -27.5q-23 0 -43.5 7.5t-43.5 21.5q-19 10 -30 14.5t-22 4.5q-33 0 -30 -47l-76 -1q-1 5 -1.5 12.5
t-0.5 17.5z" />
    <glyph glyph-name="itilde" unicode="&#x129;" horiz-adv-x="230" 
d="M174 493v-493h-118v493h118zM-57 603q0 51 27.5 79.5t67.5 28.5q21 0 38.5 -7t43.5 -21q37 -22 58 -22q18 0 26 12t6 33h76q1 -10 1.5 -16.5t0.5 -10.5q0 -51 -28 -78.5t-70 -27.5q-23 0 -43.5 7.5t-43.5 21.5q-19 10 -30 14.5t-22 4.5q-33 0 -30 -47l-76 -1
q-1 5 -1.5 12.5t-0.5 17.5z" />
    <glyph glyph-name="Imacron" unicode="&#x12a;" horiz-adv-x="288" 
d="M82 0v730h124v-730h-124zM297 875v-78h-306v78h306z" />
    <glyph glyph-name="imacron" unicode="&#x12b;" horiz-adv-x="230" 
d="M174 493v-493h-118v493h118zM268 645v-78h-306v78h306z" />
    <glyph glyph-name="Iogonek" unicode="&#x12e;" horiz-adv-x="288" 
d="M82 0v730h124v-730h-124zM207 0q-34 -13 -51.5 -33t-17.5 -39q0 -16 10.5 -26.5t28.5 -10.5q13 0 25 5v-80q-28 -9 -51 -9q-45 0 -70.5 27t-25.5 64q0 32 19.5 60t58.5 42h74z" />
    <glyph glyph-name="iogonek" unicode="&#x12f;" horiz-adv-x="230" 
d="M174 493v-493h-118v493h118zM175 0q-34 -13 -51.5 -33t-17.5 -39q0 -16 10.5 -26.5t28.5 -10.5q13 0 25 5v-80q-28 -9 -51 -9q-45 0 -70.5 27t-25.5 64q0 32 19.5 60t58.5 42h74zM43 629q0 30 21.5 51.5t50.5 21.5t50.5 -22t21.5 -51t-21.5 -50.5t-50.5 -21.5
q-30 0 -51 21t-21 51z" />
    <glyph glyph-name="Idotaccent" unicode="&#x130;" horiz-adv-x="288" 
d="M82 0v730h124v-730h-124zM72 859q0 30 21.5 51.5t50.5 21.5t50.5 -22t21.5 -51t-21.5 -50.5t-50.5 -21.5q-30 0 -51 21t-21 51z" />
    <glyph glyph-name="dotlessi" unicode="&#x131;" horiz-adv-x="230" 
d="M174 493v-493h-118v493h118z" />
    <glyph glyph-name="Jcircumflex" unicode="&#x134;" horiz-adv-x="548" 
d="M473 730v-528q0 -47 -16 -86.5t-45.5 -68t-71.5 -44.5t-94 -16q-109 0 -167 59t-58 159v25h120v-25q0 -51 28.5 -77t73.5 -26q48 0 77 26.5t29 80.5v521h124zM469 783l-57 96l-58 -96h-93l89 160h99h24l89 -160h-93z" />
    <glyph glyph-name="jcircumflex" unicode="&#x135;" horiz-adv-x="267" 
d="M-32 -124q29 -8 46 -8q70 0 70 76v549h121v-566q0 -78 -44.5 -123t-122.5 -45q-43 0 -93 14zM202 552l-57 96l-58 -96h-93l89 160h99h24l89 -160h-93z" />
    <glyph glyph-name="Kcommaaccent" unicode="&#x136;" horiz-adv-x="677" 
d="M385 377l271 -377h-160l-189 279l-100 -127v-154h-125v732h125v-384l297 384h160zM415 -111q0 -49 -31 -81q-31 -33 -72 -33v32q22 0 37 15.5t15 34.5q-7 -4 -21 -4q-22 0 -36.5 14.5t-14.5 40.5t16.5 42.5t42.5 16.5q27 0 45.5 -19.5t18.5 -58.5z" />
    <glyph glyph-name="kcommaaccent" unicode="&#x137;" horiz-adv-x="531" 
d="M62 0v743h118v-453l195 203h148l-213 -223l202 -270h-143l-137 188l-52 -55v-133h-118zM332 -111q0 -49 -31 -81q-31 -33 -72 -33v32q22 0 37 15.5t15 34.5q-7 -4 -21 -4q-22 0 -36.5 14.5t-14.5 40.5t16.5 42.5t42.5 16.5q27 0 45.5 -19.5t18.5 -58.5z" />
    <glyph glyph-name="Lacute" unicode="&#x139;" horiz-adv-x="527" 
d="M500 111v-111h-398h-20v730h126v-619h292zM99 769l80 159h113l-103 -159h-90z" />
    <glyph glyph-name="lacute" unicode="&#x13a;" horiz-adv-x="239" 
d="M62 743h118v-743h-118v743zM75 779l80 159h113l-103 -159h-90z" />
    <glyph glyph-name="Lcommaaccent" unicode="&#x13b;" horiz-adv-x="527" 
d="M500 111v-111h-398h-20v730h126v-619h292zM367 -111q0 -49 -31 -81q-31 -33 -72 -33v32q22 0 37 15.5t15 34.5q-7 -4 -21 -4q-22 0 -36.5 14.5t-14.5 40.5t16.5 42.5t42.5 16.5q27 0 45.5 -19.5t18.5 -58.5z" />
    <glyph glyph-name="lcommaaccent" unicode="&#x13c;" horiz-adv-x="239" 
d="M62 743h118v-743h-118v743zM185 -121q0 -49 -31 -81q-31 -33 -72 -33v32q22 0 37 15.5t15 34.5q-7 -4 -21 -4q-22 0 -36.5 14.5t-14.5 40.5t16.5 42.5t42.5 16.5q27 0 45.5 -19.5t18.5 -58.5z" />
    <glyph glyph-name="Lcaron" unicode="&#x13d;" horiz-adv-x="527" 
d="M500 111v-111h-398h-20v730h126v-619h292zM429 663q0 -49 -31 -81q-31 -33 -72 -33v32q22 0 37 15.5t15 34.5q-7 -4 -21 -4q-22 0 -36.5 14.5t-14.5 40.5t16.5 42.5t42.5 16.5q27 0 45.5 -19.5t18.5 -58.5z" />
    <glyph glyph-name="lcaron" unicode="&#x13e;" horiz-adv-x="239" 
d="M62 743h118v-743h-118v743z" />
    <glyph glyph-name="Ldot" unicode="&#x13f;" horiz-adv-x="527" 
d="M500 111v-111h-398h-20v730h126v-619h292zM287 383q0 35 25 60t60 25q17 0 32 -7t26.5 -18.5t18.5 -27t7 -32.5q0 -16 -7 -31.5t-18.5 -26.5t-26.5 -18t-32 -7q-35 0 -60 24.5t-25 58.5z" />
    <glyph glyph-name="ldot" unicode="&#x140;" horiz-adv-x="448" 
d="M62 743h118v-743h-118v743zM245 379q0 36 26 61.5t62 25.5q35 0 61 -26t26 -61t-26 -60.5t-61 -25.5q-36 0 -62 25.5t-26 60.5z" />
    <glyph glyph-name="Lslash" unicode="&#x141;" horiz-adv-x="526" 
d="M500 111v-111h-398h-20v321l-66 -32v99l66 32v310h126v-250l145 69v-99l-145 -69v-270h292z" />
    <glyph glyph-name="lslash" unicode="&#x142;" horiz-adv-x="268" 
d="M248 412l-53 -25v-387h-119v330l-56 -27v85l56 27v328h119v-271l53 25v-85z" />
    <glyph glyph-name="Nacute" unicode="&#x143;" horiz-adv-x="756" 
d="M675 730v-730h-123l-347 532v-532h-123v730h123l347 -532v532h123zM336 782l80 159h113l-103 -159h-90z" />
    <glyph glyph-name="nacute" unicode="&#x144;" horiz-adv-x="584" 
d="M525 0h-118v279q0 71 -33 96q-32 26 -74 26q-24 0 -45.5 -7.5t-38 -23.5t-26.5 -39.5t-10 -55.5v-275h-118v493h111l4 -53q21 31 60.5 49.5t87.5 18.5q96 0 148 -52.5t52 -151.5v-304zM254 552l80 159h113l-103 -159h-90z" />
    <glyph glyph-name="Ncommaaccent" unicode="&#x145;" horiz-adv-x="756" 
d="M675 730v-730h-123l-347 532v-532h-123v730h123l347 -532v532h123zM448 -111q0 -49 -31 -81q-31 -33 -72 -33v32q22 0 37 15.5t15 34.5q-7 -4 -21 -4q-22 0 -36.5 14.5t-14.5 40.5t16.5 42.5t42.5 16.5q27 0 45.5 -19.5t18.5 -58.5z" />
    <glyph glyph-name="ncommaaccent" unicode="&#x146;" horiz-adv-x="584" 
d="M525 0h-118v279q0 71 -33 96q-32 26 -74 26q-24 0 -45.5 -7.5t-38 -23.5t-26.5 -39.5t-10 -55.5v-275h-118v493h111l4 -53q21 31 60.5 49.5t87.5 18.5q96 0 148 -52.5t52 -151.5v-304zM358 -111q0 -49 -31 -81q-31 -33 -72 -33v32q22 0 37 15.5t15 34.5q-7 -4 -21 -4
q-22 0 -36.5 14.5t-14.5 40.5t16.5 42.5t42.5 16.5q27 0 45.5 -19.5t18.5 -58.5z" />
    <glyph glyph-name="Ncaron" unicode="&#x147;" horiz-adv-x="756" 
d="M675 730v-730h-123l-347 532v-532h-123v730h123l347 -532v532h123zM532 942l-89 -160h-99h-24l-89 160h93l58 -96l57 96h93z" />
    <glyph glyph-name="ncaron" unicode="&#x148;" horiz-adv-x="584" 
d="M525 0h-118v279q0 71 -33 96q-32 26 -74 26q-24 0 -45.5 -7.5t-38 -23.5t-26.5 -39.5t-10 -55.5v-275h-118v493h111l4 -53q21 31 60.5 49.5t87.5 18.5q96 0 148 -52.5t52 -151.5v-304zM450 712l-89 -160h-99h-24l-89 160h93l58 -96l57 96h93z" />
    <glyph glyph-name="Eng" unicode="&#x14a;" horiz-adv-x="749" 
d="M81 730h122l344 -528v528h122v-790q0 -80 -49 -119q-48 -39 -114 -39q-26 0 -49 6l1 98q14 -3 29 -3q30 0 50.5 17t20.5 59v41h-11l-344 528v-528h-122v730z" />
    <glyph glyph-name="eng" unicode="&#x14b;" horiz-adv-x="598" 
d="M534 302v-340q0 -39 -11 -67t-30.5 -46t-45 -27t-54.5 -9q-30 0 -54 9v90q12 -3 24 -3q24 0 39.5 13.5t15.5 39.5v317q0 71 -33 96q-34 26 -77 26q-24 0 -46 -7.5t-38.5 -23t-26.5 -39t-10 -56.5v-275h-116v493h109l4 -54q22 33 61 50t88 17q82 0 141 -47q60 -46 60 -157
z" />
    <glyph glyph-name="Omacron" unicode="&#x14c;" horiz-adv-x="782" 
d="M390 743q78 0 143.5 -28t112 -78.5t72.5 -119.5t26 -151q1 -81 -25 -151t-73 -120.5t-112.5 -79t-143.5 -27.5q-78 -1 -143.5 27.5t-112.5 79t-72.5 120t-24.5 150.5q-1 81 25 151t73 120.5t112 79t143 27.5zM391 109q51 0 92 18t70 52t45 81.5t16 105.5t-16 105.5
t-45 81t-70 51.5t-92 18t-92 -18t-70 -51.5t-45 -81t-16 -105.5t15.5 -105.5t44.5 -81.5t70.5 -52t92.5 -18zM544 875v-78h-306v78h306z" />
    <glyph glyph-name="omacron" unicode="&#x14d;" horiz-adv-x="583" 
d="M292 507q57 0 104 -19t81 -53.5t52.5 -82.5t18.5 -105t-18.5 -104.5t-52.5 -82t-81 -53.5t-104 -19t-104.5 19t-81.5 53.5t-52.5 82t-18.5 104.5t18.5 105t52.5 82.5t81.5 53.5t104.5 19zM292 94q61 0 98.5 42.5t37.5 111.5t-37.5 111t-98.5 42q-63 0 -100.5 -42
t-37.5 -111t37.5 -111.5t100.5 -42.5zM445 645v-78h-306v78h306z" />
    <glyph glyph-name="Ohungarumlaut" unicode="&#x150;" horiz-adv-x="782" 
d="M390 743q78 0 143.5 -28t112 -78.5t72.5 -119.5t26 -151q1 -81 -25 -151t-73 -120.5t-112.5 -79t-143.5 -27.5q-78 -1 -143.5 27.5t-112.5 79t-72.5 120t-24.5 150.5q-1 81 25 151t73 120.5t112 79t143 27.5zM391 109q51 0 92 18t70 52t45 81.5t16 105.5t-16 105.5
t-45 81t-70 51.5t-92 18t-92 -18t-70 -51.5t-45 -81t-16 -105.5t15.5 -105.5t44.5 -81.5t70.5 -52t92.5 -18zM279 783l80 159h113l-103 -159h-90zM421 783l102 159h113l-125 -159h-90z" />
    <glyph glyph-name="ohungarumlaut" unicode="&#x151;" horiz-adv-x="583" 
d="M292 507q57 0 104 -19t81 -53.5t52.5 -82.5t18.5 -105t-18.5 -104.5t-52.5 -82t-81 -53.5t-104 -19t-104.5 19t-81.5 53.5t-52.5 82t-18.5 104.5t18.5 105t52.5 82.5t81.5 53.5t104.5 19zM292 94q61 0 98.5 42.5t37.5 111.5t-37.5 111t-98.5 42q-63 0 -100.5 -42
t-37.5 -111t37.5 -111.5t100.5 -42.5zM176 554l80 159h113l-103 -159h-90zM318 554l102 159h113l-125 -159h-90z" />
    <glyph glyph-name="OE" unicode="&#x152;" horiz-adv-x="1131" 
d="M745 612v-188h294v-112h-294v-195h329v-117h-452v91q-15 -23 -39.5 -42t-55.5 -33t-66 -21.5t-73 -7.5q-78 0 -143 28.5t-111.5 79t-72 120t-25.5 151.5q-1 80 25 149.5t73.5 120.5t113.5 80t144 28q69 0 130.5 -25t99.5 -70v81h452v-118h-329zM620 366q0 59 -17 106.5
t-47.5 81.5t-72 52t-90.5 18t-90.5 -18t-72 -52t-47.5 -81t-17 -106t17 -107t47.5 -81.5t72.5 -52t91 -18.5t90.5 18t71.5 51.5t47 81t17 107.5z" />
    <glyph glyph-name="oe" unicode="&#x153;" horiz-adv-x="952" 
d="M915 200h-367q8 -57 44 -84t87 -27q43 0 76 19.5t53 54.5l88 -47q-28 -60 -86.5 -94t-134.5 -34q-64 0 -116 26t-79 71q-28 -45 -79 -71t-114 -26q-55 0 -101 19t-79 53.5t-51.5 82t-18.5 104.5t18.5 105t51.5 82.5t79 53.5t101 19q66 0 116 -26t79 -71q28 48 78.5 73.5
t114.5 25.5q54 0 98.5 -18.5t76 -52.5t48.5 -82t17 -108v-48zM795 285q-1 57 -35.5 91.5t-86.5 34.5t-86.5 -34.5t-39.5 -91.5h248zM429 248q0 69 -37.5 111t-98.5 42t-98.5 -42t-37.5 -111t37.5 -111.5t98.5 -42.5t98.5 42.5t37.5 111.5z" />
    <glyph glyph-name="Racute" unicode="&#x154;" horiz-adv-x="670" 
d="M628 0h-139l-121 276h-162v-276h-124v730h281q129 -1 195.5 -59t66.5 -167q0 -76 -34.5 -130t-97.5 -78zM494 503q0 54 -32.5 85t-98.5 31h-157v-234h157q66 0 98.5 32t32.5 86zM258 783l80 159h113l-103 -159h-90z" />
    <glyph glyph-name="racute" unicode="&#x155;" horiz-adv-x="389" 
d="M309 500q33 0 58 -7v-109q-27 7 -55 7q-63 0 -97.5 -39t-34.5 -108v-244h-120v493h110l7 -58q15 32 51 48.5t81 16.5zM70 555l80 159h113l-103 -159h-90z" />
    <glyph glyph-name="Rcommaaccent" unicode="&#x156;" horiz-adv-x="670" 
d="M628 0h-139l-121 276h-162v-276h-124v730h281q129 -1 195.5 -59t66.5 -167q0 -76 -34.5 -130t-97.5 -78zM494 503q0 54 -32.5 85t-98.5 31h-157v-234h157q66 0 98.5 32t32.5 86zM413 -111q0 -49 -31 -81q-31 -33 -72 -33v32q22 0 37 15.5t15 34.5q-7 -4 -21 -4
q-22 0 -36.5 14.5t-14.5 40.5t16.5 42.5t42.5 16.5q27 0 45.5 -19.5t18.5 -58.5z" />
    <glyph glyph-name="rcommaaccent" unicode="&#x157;" horiz-adv-x="389" 
d="M309 500q33 0 58 -7v-109q-27 7 -55 7q-63 0 -97.5 -39t-34.5 -108v-244h-120v493h110l7 -58q15 32 51 48.5t81 16.5zM185 -111q0 -49 -31 -81q-31 -33 -72 -33v32q22 0 37 15.5t15 34.5q-7 -4 -21 -4q-22 0 -36.5 14.5t-14.5 40.5t16.5 42.5t42.5 16.5q27 0 45.5 -19.5
t18.5 -58.5z" />
    <glyph glyph-name="Rcaron" unicode="&#x158;" horiz-adv-x="670" 
d="M628 0h-139l-121 276h-162v-276h-124v730h281q129 -1 195.5 -59t66.5 -167q0 -76 -34.5 -130t-97.5 -78zM494 503q0 54 -32.5 85t-98.5 31h-157v-234h157q66 0 98.5 32t32.5 86zM454 943l-89 -160h-99h-24l-89 160h93l58 -96l57 96h93z" />
    <glyph glyph-name="rcaron" unicode="&#x159;" horiz-adv-x="389" 
d="M309 500q33 0 58 -7v-109q-27 7 -55 7q-63 0 -97.5 -39t-34.5 -108v-244h-120v493h110l7 -58q15 32 51 48.5t81 16.5zM266 715l-89 -160h-99h-24l-89 160h93l58 -96l57 96h93z" />
    <glyph glyph-name="Sacute" unicode="&#x15a;" horiz-adv-x="598" 
d="M297 743q102 0 167.5 -49t80.5 -130l-117 -32q-10 48 -46 73t-88 25q-57 0 -90 -27t-33 -72q0 -71 88 -92l119 -30q94 -24 139 -76.5t45 -127.5q0 -48 -18.5 -88.5t-52 -69t-81.5 -44.5t-108 -16q-107 0 -181 50q-73 51 -86 138l117 30q7 -49 48.5 -76t105.5 -27
q63 0 98 26t35 71q0 71 -88 93l-119 29q-94 22 -139 76t-45 129q0 48 18 88t50.5 68.5t78.5 44.5t102 16zM253 782l80 159h113l-103 -159h-90z" />
    <glyph glyph-name="sacute" unicode="&#x15b;" horiz-adv-x="463" 
d="M231 82q35 0 57 14t22 43q0 39 -53 53l-68 18q-75 20 -107.5 56.5t-32.5 87.5q0 33 12.5 61.5t36 49t57.5 32t76 11.5q75 0 125.5 -34t61.5 -94l-106 -25q-4 27 -25 42.5t-52 15.5q-32 0 -51.5 -16t-19.5 -41q0 -40 60 -56l67 -17q67 -18 102 -54.5t35 -90.5
q0 -69 -51.5 -110t-144.5 -41q-87 0 -137.5 37.5t-59.5 100.5l108 19q3 -29 26 -45.5t62 -16.5zM188 562l80 159h113l-103 -159h-90z" />
    <glyph glyph-name="Scircumflex" unicode="&#x15c;" horiz-adv-x="598" 
d="M297 743q102 0 167.5 -49t80.5 -130l-117 -32q-10 48 -46 73t-88 25q-57 0 -90 -27t-33 -72q0 -71 88 -92l119 -30q94 -24 139 -76.5t45 -127.5q0 -48 -18.5 -88.5t-52 -69t-81.5 -44.5t-108 -16q-107 0 -181 50q-73 51 -86 138l117 30q7 -49 48.5 -76t105.5 -27
q63 0 98 26t35 71q0 71 -88 93l-119 29q-94 22 -139 76t-45 129q0 48 18 88t50.5 68.5t78.5 44.5t102 16zM356 782l-57 96l-58 -96h-93l89 160h99h24l89 -160h-93z" />
    <glyph glyph-name="scircumflex" unicode="&#x15d;" horiz-adv-x="463" 
d="M231 82q35 0 57 14t22 43q0 39 -53 53l-68 18q-75 20 -107.5 56.5t-32.5 87.5q0 33 12.5 61.5t36 49t57.5 32t76 11.5q75 0 125.5 -34t61.5 -94l-106 -25q-4 27 -25 42.5t-52 15.5q-32 0 -51.5 -16t-19.5 -41q0 -40 60 -56l67 -17q67 -18 102 -54.5t35 -90.5
q0 -69 -51.5 -110t-144.5 -41q-87 0 -137.5 37.5t-59.5 100.5l108 19q3 -29 26 -45.5t62 -16.5zM291 562l-57 96l-58 -96h-93l89 160h99h24l89 -160h-93z" />
    <glyph glyph-name="Scedilla" unicode="&#x15e;" horiz-adv-x="598" 
d="M330 -12l-24 -23h34q35 0 54.5 -22.5t19.5 -55.5q0 -35 -19.5 -56.5t-53.5 -21.5h-107v55h87q11 0 18.5 6.5t7.5 17.5q0 23 -26 23h-87v55l22 24q-91 11 -149.5 59t-71.5 126l117 30q7 -49 48.5 -76t105.5 -27q63 0 98 26t35 71q0 71 -88 93l-119 29q-94 22 -139 76
t-45 129q0 48 18 88t50.5 68.5t78.5 44.5t102 16q102 0 167.5 -49t80.5 -130l-117 -32q-10 48 -46 73t-88 25q-57 0 -90 -27t-33 -72q0 -71 88 -92l119 -30q94 -24 139 -76.5t45 -127.5q0 -91 -63 -151q-61 -58 -169 -66z" />
    <glyph glyph-name="scedilla" unicode="&#x15f;" horiz-adv-x="463" 
d="M267 -11l-28 -27h34q35 0 54.5 -22.5t19.5 -55.5q0 -35 -19.5 -56.5t-53.5 -21.5h-107v55h87q11 0 18.5 6.5t7.5 17.5q0 23 -26 23h-87v55l25 27q-69 9 -109 45t-48 90l108 19q3 -29 26 -45.5t62 -16.5q35 0 57 14t22 43q0 39 -53 53l-68 18q-75 20 -107.5 56.5
t-32.5 87.5q0 33 12.5 61.5t36 49t57.5 32t76 11.5q75 0 125.5 -34t61.5 -94l-106 -25q-4 27 -25 42.5t-52 15.5q-32 0 -51.5 -16t-19.5 -41q0 -40 60 -56l67 -17q67 -18 102 -54.5t35 -90.5q0 -63 -42.5 -102.5t-118.5 -46.5z" />
    <glyph glyph-name="Scaron" unicode="&#x160;" horiz-adv-x="598" 
d="M297 743q102 0 167.5 -49t80.5 -130l-117 -32q-10 48 -46 73t-88 25q-57 0 -90 -27t-33 -72q0 -71 88 -92l119 -30q94 -24 139 -76.5t45 -127.5q0 -48 -18.5 -88.5t-52 -69t-81.5 -44.5t-108 -16q-107 0 -181 50q-73 51 -86 138l117 30q7 -49 48.5 -76t105.5 -27
q63 0 98 26t35 71q0 71 -88 93l-119 29q-94 22 -139 76t-45 129q0 48 18 88t50.5 68.5t78.5 44.5t102 16zM449 942l-89 -160h-99h-24l-89 160h93l58 -96l57 96h93z" />
    <glyph glyph-name="scaron" unicode="&#x161;" horiz-adv-x="463" 
d="M231 82q35 0 57 14t22 43q0 39 -53 53l-68 18q-75 20 -107.5 56.5t-32.5 87.5q0 33 12.5 61.5t36 49t57.5 32t76 11.5q75 0 125.5 -34t61.5 -94l-106 -25q-4 27 -25 42.5t-52 15.5q-32 0 -51.5 -16t-19.5 -41q0 -40 60 -56l67 -17q67 -18 102 -54.5t35 -90.5
q0 -69 -51.5 -110t-144.5 -41q-87 0 -137.5 37.5t-59.5 100.5l108 19q3 -29 26 -45.5t62 -16.5zM384 722l-89 -160h-99h-24l-89 160h93l58 -96l57 96h93z" />
    <glyph glyph-name="uni0162" unicode="&#x162;" horiz-adv-x="576" 
d="M559 613h-209v-613h-124v613h-209v117h542v-117zM221 -136h87q11 0 18.5 6.5t7.5 17.5q0 23 -26 23h-87v55l54 59l47 -1v-31l-29 -28h34q35 0 54.5 -22.5t19.5 -55.5q0 -35 -19.5 -56.5t-53.5 -21.5h-107v55z" />
    <glyph glyph-name="uni0163" unicode="&#x163;" horiz-adv-x="344" 
d="M326 395h-95v-395h-117v395h-96v98h96v154h117v-154h95v-98zM105 -131h87q11 0 18.5 6.5t7.5 17.5q0 23 -26 23h-87v55l54 59l47 -1v-31l-29 -28h34q35 0 54.5 -22.5t19.5 -55.5q0 -35 -19.5 -56.5t-53.5 -21.5h-107v55z" />
    <glyph glyph-name="Tcaron" unicode="&#x164;" horiz-adv-x="576" 
d="M559 613h-209v-613h-124v613h-209v117h542v-117zM439 942l-89 -160h-99h-24l-89 160h93l58 -96l57 96h93z" />
    <glyph glyph-name="tcaron" unicode="&#x165;" horiz-adv-x="353" 
d="M337 544h-57l-19 158q-3 25 12 40t36 15t35.5 -15t11.5 -40zM226 493h95v-101h-95v-392h-117v392h-95v101h95v154h117v-154z" />
    <glyph glyph-name="Tbar" unicode="&#x166;" horiz-adv-x="576" 
d="M350 613v-181h145v-106h-145v-326h-124v326h-144v106h144v181h-209v117h542v-117h-209z" />
    <glyph glyph-name="tbar" unicode="&#x167;" horiz-adv-x="344" 
d="M231 395v-71h86v-92h-86v-232h-117v232h-95v92h95v71h-96v98h96v154h117v-154h95v-98h-95z" />
    <glyph glyph-name="Utilde" unicode="&#x168;" horiz-adv-x="736" 
d="M75 730h124v-463q0 -40 13 -70t35.5 -50.5t53.5 -30.5t67 -10q35 0 65.5 11t53.5 31.5t36.5 50.5t13.5 68v463h124v-467q0 -66 -23.5 -117.5t-63.5 -87t-93 -53.5t-113 -18q-58 0 -111.5 18t-93.5 53t-64 86.5t-24 118.5v467zM195 833q0 51 27.5 79.5t67.5 28.5
q21 0 38.5 -7t43.5 -21q37 -22 58 -22q18 0 26 12t6 33h76q1 -10 1.5 -16.5t0.5 -10.5q0 -51 -28 -78.5t-70 -27.5q-23 0 -43.5 7.5t-43.5 21.5q-19 10 -30 14.5t-22 4.5q-33 0 -30 -47l-76 -1q-1 5 -1.5 12.5t-0.5 17.5z" />
    <glyph glyph-name="utilde" unicode="&#x169;" horiz-adv-x="595" 
d="M418 0q-6 21 -9 55q-21 -33 -59.5 -50.5t-86.5 -17.5q-84 0 -144 48q-59 48 -59 159v300h119v-278q0 -70 33 -97q34 -26 76 -26q47 0 83 30q36 32 36 96v274h118v-402q0 -20 3 -47.5t7 -43.5h-117zM120 603q0 51 27.5 79.5t67.5 28.5q21 0 38.5 -7t43.5 -21
q37 -22 58 -22q18 0 26 12t6 33h76q1 -10 1.5 -16.5t0.5 -10.5q0 -51 -28 -78.5t-70 -27.5q-23 0 -43.5 7.5t-43.5 21.5q-19 10 -30 14.5t-22 4.5q-33 0 -30 -47l-76 -1q-1 5 -1.5 12.5t-0.5 17.5z" />
    <glyph glyph-name="Umacron" unicode="&#x16a;" horiz-adv-x="736" 
d="M75 730h124v-463q0 -40 13 -70t35.5 -50.5t53.5 -30.5t67 -10q35 0 65.5 11t53.5 31.5t36.5 50.5t13.5 68v463h124v-467q0 -66 -23.5 -117.5t-63.5 -87t-93 -53.5t-113 -18q-58 0 -111.5 18t-93.5 53t-64 86.5t-24 118.5v467zM521 875v-78h-306v78h306z" />
    <glyph glyph-name="umacron" unicode="&#x16b;" horiz-adv-x="595" 
d="M418 0q-6 21 -9 55q-21 -33 -59.5 -50.5t-86.5 -17.5q-84 0 -144 48q-59 48 -59 159v300h119v-278q0 -70 33 -97q34 -26 76 -26q47 0 83 30q36 32 36 96v274h118v-402q0 -20 3 -47.5t7 -43.5h-117zM446 645v-78h-306v78h306z" />
    <glyph glyph-name="Uring" unicode="&#x16e;" horiz-adv-x="736" 
d="M75 730h124v-463q0 -40 13 -70t35.5 -50.5t53.5 -30.5t67 -10q35 0 65.5 11t53.5 31.5t36.5 50.5t13.5 68v463h124v-467q0 -66 -23.5 -117.5t-63.5 -87t-93 -53.5t-113 -18q-58 0 -111.5 18t-93.5 53t-64 86.5t-24 118.5v467zM243 896q0 26 10 49t27.5 40t40 27.5
t47.5 10.5q26 0 48.5 -10.5t39.5 -27.5t27 -40t10 -49t-10 -49t-27 -40t-39.5 -27t-48.5 -10q-53 0 -89 36q-36 38 -36 90zM425 898q0 23 -16.5 39t-40.5 16t-40 -16t-16 -39q0 -25 16 -41.5t40 -16.5t40.5 16.5t16.5 41.5z" />
    <glyph glyph-name="uring" unicode="&#x16f;" horiz-adv-x="595" 
d="M418 0q-6 21 -9 55q-21 -33 -59.5 -50.5t-86.5 -17.5q-84 0 -144 48q-59 48 -59 159v300h119v-278q0 -70 33 -97q34 -26 76 -26q47 0 83 30q36 32 36 96v274h118v-402q0 -20 3 -47.5t7 -43.5h-117zM167 666q0 26 10 49t27.5 40t40 27.5t47.5 10.5q26 0 48.5 -10.5
t39.5 -27.5t27 -40t10 -49t-10 -49t-27 -40t-39.5 -27t-48.5 -10q-53 0 -89 36q-36 38 -36 90zM349 668q0 23 -16.5 39t-40.5 16t-40 -16t-16 -39q0 -25 16 -41.5t40 -16.5t40.5 16.5t16.5 41.5z" />
    <glyph glyph-name="Uhungarumlaut" unicode="&#x170;" horiz-adv-x="736" 
d="M75 730h124v-463q0 -40 13 -70t35.5 -50.5t53.5 -30.5t67 -10q35 0 65.5 11t53.5 31.5t36.5 50.5t13.5 68v463h124v-467q0 -66 -23.5 -117.5t-63.5 -87t-93 -53.5t-113 -18q-58 0 -111.5 18t-93.5 53t-64 86.5t-24 118.5v467zM251 782l80 159h113l-103 -159h-90zM393 782
l102 159h113l-125 -159h-90z" />
    <glyph glyph-name="uhungarumlaut" unicode="&#x171;" horiz-adv-x="595" 
d="M418 0q-6 21 -9 55q-21 -33 -59.5 -50.5t-86.5 -17.5q-84 0 -144 48q-59 48 -59 159v300h119v-278q0 -70 33 -97q34 -26 76 -26q47 0 83 30q36 32 36 96v274h118v-402q0 -20 3 -47.5t7 -43.5h-117zM176 552l80 159h113l-103 -159h-90zM318 552l102 159h113l-125 -159h-90
z" />
    <glyph glyph-name="Uogonek" unicode="&#x172;" horiz-adv-x="736" 
d="M661 730v-467q0 -59 -18.5 -106.5t-51.5 -82t-77.5 -55.5t-95.5 -28q-30 -13 -44.5 -31.5t-14.5 -37.5q0 -15 10.5 -25.5t28.5 -10.5q13 0 25 5v-80q-28 -9 -51 -9q-45 0 -70.5 27t-25.5 64q0 28 16 53.5t47 41.5q-55 4 -103 24t-84 55t-56.5 84t-20.5 112v467h124v-463
q0 -40 13 -70t35.5 -50.5t53.5 -30.5t67 -10q35 0 65.5 11t53.5 31.5t36.5 50.5t13.5 68v463h124z" />
    <glyph glyph-name="uogonek" unicode="&#x173;" horiz-adv-x="595" 
d="M465 -72q0 -16 10.5 -26.5t28.5 -10.5q13 0 25 5v-80q-28 -9 -51 -9q-45 0 -70.5 27t-25.5 64q0 32 19.5 60t58.5 42h-42q-6 21 -9 55q-21 -33 -59.5 -50.5t-86.5 -17.5q-84 0 -144 48q-59 48 -59 159v300h119v-278q0 -70 33 -97q34 -26 76 -26q47 0 83 30q36 32 36 96
v274h118v-402q0 -20 3 -47.5t7 -43.5h-1q-34 -13 -51.5 -33t-17.5 -39z" />
    <glyph glyph-name="Wcircumflex" unicode="&#x174;" horiz-adv-x="1027" 
d="M1014 730l-221 -730h-120l-159 511l-161 -511h-122l-218 730h136l145 -519l153 519h137l149 -521l149 521h132zM570 782l-57 96l-58 -96h-93l89 160h99h24l89 -160h-93z" />
    <glyph glyph-name="wcircumflex" unicode="&#x175;" horiz-adv-x="803" 
d="M789 493l-171 -493h-111l-105 318l-108 -318h-115l-165 493h128l96 -322l104 322h121l100 -326l101 326h125zM461 552l-57 96l-58 -96h-93l89 160h99h24l89 -160h-93z" />
    <glyph glyph-name="Ycircumflex" unicode="&#x176;" horiz-adv-x="639" 
d="M149 730l173 -317l173 317h135l-247 -437v-293h-125v293l-249 437h140zM379 782l-57 96l-58 -96h-93l89 160h99h24l89 -160h-93z" />
    <glyph glyph-name="ycircumflex" unicode="&#x177;" horiz-adv-x="549" 
d="M538 493l-234 -608q-48 -125 -163 -125q-53 0 -112 24l33 107q37 -23 70 -23q24 0 43 14t30 43l17 46l-210 522h124l142 -370l136 370h124zM333 552l-57 96l-58 -96h-93l89 160h99h24l89 -160h-93z" />
    <glyph glyph-name="Ydieresis" unicode="&#x178;" horiz-adv-x="639" 
d="M149 730l173 -317l173 317h135l-247 -437v-293h-125v293l-249 437h140zM148 859q0 30 21.5 51t51.5 21q29 0 50.5 -21.5t21.5 -50.5t-21.5 -50.5t-50.5 -21.5q-30 0 -51.5 21t-21.5 51zM351 859q0 30 21.5 51t51.5 21q29 0 51 -21.5t22 -50.5t-21.5 -50.5t-51.5 -21.5
t-51.5 21t-21.5 51z" />
    <glyph glyph-name="Zacute" unicode="&#x179;" horiz-adv-x="573" 
d="M532 611l-355 -492h350v-119h-486l-1 119l354 492l-353 -1v120h491v-119zM241 782l80 159h113l-103 -159h-90z" />
    <glyph glyph-name="zacute" unicode="&#x17a;" horiz-adv-x="469" 
d="M37 106l249 283h-249v104h396v-106l-253 -282h253v-105h-396v106zM189 552l80 159h113l-103 -159h-90z" />
    <glyph glyph-name="Zdotaccent" unicode="&#x17b;" horiz-adv-x="573" 
d="M532 611l-355 -492h350v-119h-486l-1 119l354 492l-353 -1v120h491v-119zM215 859q0 30 21.5 51.5t50.5 21.5t50.5 -22t21.5 -51t-21.5 -50.5t-50.5 -21.5q-30 0 -51 21t-21 51z" />
    <glyph glyph-name="zdotaccent" unicode="&#x17c;" horiz-adv-x="469" 
d="M37 106l249 283h-249v104h396v-106l-253 -282h253v-105h-396v106zM163 629q0 30 21.5 51.5t50.5 21.5t50.5 -22t21.5 -51t-21.5 -50.5t-50.5 -21.5q-30 0 -51 21t-21 51z" />
    <glyph glyph-name="Zcaron" unicode="&#x17d;" horiz-adv-x="573" 
d="M532 611l-355 -492h350v-119h-486l-1 119l354 492l-353 -1v120h491v-119zM437 942l-89 -160h-99h-24l-89 160h93l58 -96l57 96h93z" />
    <glyph glyph-name="zcaron" unicode="&#x17e;" horiz-adv-x="469" 
d="M37 106l249 283h-249v104h396v-106l-253 -282h253v-105h-396v106zM385 712l-89 -160h-99h-24l-89 160h93l58 -96l57 96h93z" />
    <glyph glyph-name="florin" unicode="&#x192;" horiz-adv-x="597" 
d="M385 493h145v-98h-159l-3 -20h1l-57 -398q-10 -75 -57 -114.5t-128 -39.5h-66l-1 108h69q27 0 44.5 14.5t21.5 41.5l52 369l5 39h-132v98h146l10 72q11 79 62 126.5t129 47.5h69l1 -109h-77q-58 0 -65 -65z" />
    <glyph glyph-name="Aringacute" unicode="&#x1fa;" horiz-adv-x="678" 
d="M395 936h-90l80 159h113zM477 170h-278l-60 -170h-128l251 694q-44 38 -44 96q0 26 10 49t27.5 40t40 27t47.5 10q26 0 48.5 -10t39.5 -27t27 -40t10 -49q0 -30 -13.5 -56.5t-36.5 -44.5l249 -689h-131zM287 792q0 -25 16 -41.5t40 -16.5t40 16.5t16 41.5q0 23 -16 39
t-40 16t-40 -16t-16 -39zM441 275l-102 292l-103 -292h205z" />
    <glyph glyph-name="aringacute" unicode="&#x1fb;" horiz-adv-x="530" 
d="M320 711h-86l77 144h108zM372 0q-5 21 -8 56q-21 -31 -59.5 -50t-92.5 -19q-81 0 -130 42.5t-49 117.5q0 73 48 113.5t132 40.5h148v19q0 48 -27.5 70t-75.5 22q-86 0 -124 -72l-86 50q39 77 124 105q-21 32 -21 71q0 26 10 49t27 40t39.5 27t47.5 10q26 0 49 -10.5
t40 -28t27 -40t10 -47.5q0 -46 -28 -78q104 -47 104 -184v-196q0 -84 9 -108h-114zM220 568q0 -25 16 -41.5t40 -16.5t40 16.5t16 41.5q0 23 -16 39t-40 16t-40 -16t-16 -39zM362 219h-122q-42 0 -64.5 -19t-22.5 -52q0 -35 23.5 -53t66.5 -18q49 0 84 31.5t35 99.5v11z" />
    <glyph glyph-name="AEacute" unicode="&#x1fc;" horiz-adv-x="937" 
d="M878 0l-335 1v-1h-118v182h-207l-69 -182h-139l287 729h127h1h118l336 -1l-1 -117l-335 1v-187h302l-1 -114h-301v-193l336 -1zM425 289v323h-45l-122 -323h167zM517 782l80 159h113l-103 -159h-90z" />
    <glyph glyph-name="aeacute" unicode="&#x1fd;" horiz-adv-x="896" 
d="M484 203q8 -54 44 -84t90 -30q43 0 77 20t53 54l90 -47q-30 -63 -89 -95.5t-134 -32.5q-63 0 -111 24.5t-75 67.5q-25 -45 -74 -68.5t-112 -23.5q-43 0 -79 10.5t-62 31t-40.5 50t-14.5 66.5q0 69 42.5 108.5t111.5 39.5h123q39 0 39 34q0 43 -30 62.5t-69 19.5
q-42 0 -74 -19.5t-51 -55.5l-86 50q33 57 89.5 90t120.5 33q60 0 104 -22t67 -62q30 42 77.5 63.5t104.5 21.5q54 0 98.5 -18t76 -51t48.5 -79t17 -102q1 -19 0.5 -33t-0.5 -23h-372zM737 289q-2 54 -37 88t-89 34q-52 0 -86.5 -33.5t-40.5 -88.5h253zM364 211h-125
q-35 0 -54 -18.5t-19 -46.5q0 -33 24.5 -50t64.5 -17q54 0 81.5 30.5t27.5 81.5v20zM402 552l80 159h113l-103 -159h-90z" />
    <glyph glyph-name="Oslashacute" unicode="&#x1fe;" horiz-adv-x="787" 
d="M736 366q1 -81 -25 -150.5t-73.5 -120t-113 -79t-143.5 -27.5q-74 0 -140 26l-19 -30h-122l52 84q-60 51 -91.5 127t-31.5 170q-1 81 24.5 150.5t72.5 120t112.5 79t143.5 27.5q91 0 165 -38l26 42h118l-62 -101q51 -51 79 -122t28 -158zM483 601q-45 22 -101 22
q-51 0 -92 -18t-70 -52t-45 -81t-16 -106q0 -118 61 -188zM605 366q0 101 -45 168l-254 -412q35 -12 76 -12q51 0 92 18t70 51.5t45 81t16 105.5zM338 772l80 159h113l-103 -159h-90z" />
    <glyph glyph-name="oslashacute" unicode="&#x1ff;" horiz-adv-x="583" 
d="M548 247q0 -57 -18.5 -104.5t-52.5 -82t-81 -53.5t-104 -19q-55 0 -96 16l-33 -54h-106l61 99q-39 35 -61 86t-22 112q0 57 18.5 105t52.5 82.5t81.5 53.5t104.5 19q52 0 100 -17l30 47h103l-58 -93q39 -36 60 -86.5t21 -110.5zM334 395q-19 6 -42 6q-63 0 -100.5 -42
t-37.5 -111q0 -58 28 -98zM428 248q0 56 -24 93l-149 -242q20 -5 37 -5q61 0 98.5 42.5t37.5 111.5zM246 552l80 159h113l-103 -159h-90z" />
    <glyph glyph-name="Scommaaccent" unicode="&#x218;" horiz-adv-x="598" 
d="M297 743q102 0 167.5 -49t80.5 -130l-117 -32q-10 48 -46 73t-88 25q-57 0 -90 -27t-33 -72q0 -71 88 -92l119 -30q94 -24 139 -76.5t45 -127.5q0 -48 -18.5 -88.5t-52 -69t-81.5 -44.5t-108 -16q-107 0 -181 50q-73 51 -86 138l117 30q7 -49 48.5 -76t105.5 -27
q63 0 98 26t35 71q0 71 -88 93l-119 29q-94 22 -139 76t-45 129q0 48 18 88t50.5 68.5t78.5 44.5t102 16zM365 -111q0 -49 -31 -81q-31 -33 -72 -33v32q22 0 37 15.5t15 34.5q-7 -4 -21 -4q-22 0 -36.5 14.5t-14.5 40.5t16.5 42.5t42.5 16.5q27 0 45.5 -19.5t18.5 -58.5z
" />
    <glyph glyph-name="scommaaccent" unicode="&#x219;" horiz-adv-x="463" 
d="M231 82q35 0 57 14t22 43q0 39 -53 53l-68 18q-75 20 -107.5 56.5t-32.5 87.5q0 33 12.5 61.5t36 49t57.5 32t76 11.5q75 0 125.5 -34t61.5 -94l-106 -25q-4 27 -25 42.5t-52 15.5q-32 0 -51.5 -16t-19.5 -41q0 -40 60 -56l67 -17q67 -18 102 -54.5t35 -90.5
q0 -69 -51.5 -110t-144.5 -41q-87 0 -137.5 37.5t-59.5 100.5l108 19q3 -29 26 -45.5t62 -16.5zM298 -115q0 -49 -31 -81q-31 -33 -72 -33v32q22 0 37 15.5t15 34.5q-7 -4 -21 -4q-22 0 -36.5 14.5t-14.5 40.5t16.5 42.5t42.5 16.5q27 0 45.5 -19.5t18.5 -58.5z" />
    <glyph glyph-name="uni021A" unicode="&#x21a;" horiz-adv-x="576" 
d="M559 613h-209v-613h-124v613h-209v117h542v-117zM352 -111q0 -49 -31 -81q-31 -33 -72 -33v32q22 0 37 15.5t15 34.5q-7 -4 -21 -4q-22 0 -36.5 14.5t-14.5 40.5t16.5 42.5t42.5 16.5q27 0 45.5 -19.5t18.5 -58.5z" />
    <glyph glyph-name="uni021B" unicode="&#x21b;" horiz-adv-x="344" 
d="M326 395h-95v-395h-117v395h-96v98h96v154h117v-154h95v-98zM236 -106q0 -49 -31 -81q-31 -33 -72 -33v32q22 0 37 15.5t15 34.5q-7 -4 -21 -4q-22 0 -36.5 14.5t-14.5 40.5t16.5 42.5t42.5 16.5q27 0 45.5 -19.5t18.5 -58.5z" />
    <glyph glyph-name="uni0237" unicode="&#x237;" horiz-adv-x="267" 
d="M-32 -124q29 -8 46 -8q70 0 70 76v549h121v-566q0 -78 -44.5 -123t-122.5 -45q-43 0 -93 14z" />
    <glyph glyph-name="circumflex" unicode="&#x2c6;" horiz-adv-x="374" 
d="M248 769l-57 96l-58 -96h-93l89 160h99h24l89 -160h-93z" />
    <glyph glyph-name="caron" unicode="&#x2c7;" horiz-adv-x="371" 
d="M329 929l-89 -160h-99h-24l-89 160h93l58 -96l57 96h93z" />
    <glyph glyph-name="breve" unicode="&#x2d8;" horiz-adv-x="383" 
d="M191 769q-35 0 -66 12.5t-53.5 33.5t-35.5 50t-13 62h91q1 -33 22.5 -51t54.5 -18t54.5 18.5t22.5 50.5h90q0 -33 -13 -61.5t-36 -50t-53 -34t-65 -12.5z" />
    <glyph glyph-name="dotaccent" unicode="&#x2d9;" horiz-adv-x="185" 
d="M20 846q0 30 21.5 51t51.5 21q29 0 50.5 -21.5t21.5 -50.5t-21.5 -50.5t-50.5 -21.5q-30 0 -51.5 21t-21.5 51z" />
    <glyph glyph-name="ring" unicode="&#x2da;" horiz-adv-x="283" 
d="M13 883q0 26 10 49t27.5 40t40 27.5t47.5 10.5q26 0 48.5 -10.5t39.5 -27.5t27 -40t10 -49t-10 -49t-27 -40t-39.5 -27t-48.5 -10q-53 0 -89 36q-36 38 -36 90zM195 885q0 23 -16.5 39t-40.5 16t-40 -16t-16 -39q0 -25 16 -41.5t40 -16.5t40.5 16.5t16.5 41.5z" />
    <glyph glyph-name="ogonek" unicode="&#x2db;" horiz-adv-x="458" 
d="M294 0q-34 -13 -51.5 -33t-17.5 -39q0 -16 10.5 -26.5t28.5 -10.5q13 0 25 5v-80q-28 -9 -51 -9q-45 0 -70.5 27t-25.5 64q0 32 19.5 60t58.5 42h74z" />
    <glyph glyph-name="tilde" unicode="&#x2dc;" horiz-adv-x="399" 
d="M24 820q0 51 27.5 79.5t67.5 28.5q21 0 38.5 -7t43.5 -21q37 -22 58 -22q18 0 26 12t6 33h76q1 -10 1.5 -16.5t0.5 -10.5q0 -51 -28 -78.5t-70 -27.5q-23 0 -43.5 7.5t-43.5 21.5q-19 10 -30 14.5t-22 4.5q-33 0 -30 -47l-76 -1q-1 5 -1.5 12.5t-0.5 17.5z" />
    <glyph glyph-name="hungarumlaut" unicode="&#x2dd;" horiz-adv-x="419" 
d="M33 769l80 159h113l-103 -159h-90zM175 769l102 159h113l-125 -159h-90z" />
    <glyph glyph-name="gravecomb" unicode="&#x300;" 
d="M-237 929h112l80 -160h-90z" />
    <glyph glyph-name="acutecomb" unicode="&#x301;" 
d="M-207 769l80 159h113l-103 -159h-90z" />
    <glyph glyph-name="uni0302" unicode="&#x302;" 
d="M-133 769l-57 96l-58 -96h-93l89 160h99h24l89 -160h-93z" />
    <glyph glyph-name="tildecomb" unicode="&#x303;" 
d="M-371 820q0 51 27.5 79.5t67.5 28.5q21 0 38.5 -7t43.5 -21q37 -22 58 -22q18 0 26 12t6 33h76q1 -10 1.5 -16.5t0.5 -10.5q0 -51 -28 -78.5t-70 -27.5q-23 0 -43.5 7.5t-43.5 21.5q-19 10 -30 14.5t-22 4.5q-33 0 -30 -47l-76 -1q-1 5 -1.5 12.5t-0.5 17.5z" />
    <glyph glyph-name="uni0304" unicode="&#x304;" 
d="M-23 898v-78h-306v78h306z" />
    <glyph glyph-name="uni0306" unicode="&#x306;" 
d="M-24 930q0 -33 -13 -62.5t-35.5 -51.5t-53 -34.5t-65.5 -12.5q-36 0 -67 12.5t-53.5 34.5t-35 51.5t-12.5 62.5h91q0 -34 21.5 -53t55.5 -19t55.5 19t21.5 53h90z" />
    <glyph glyph-name="uni0307" unicode="&#x307;" 
d="M-297 846q0 30 21.5 51.5t50.5 21.5t50.5 -22t21.5 -51t-21.5 -50.5t-50.5 -21.5q-30 0 -51 21t-21 51z" />
    <glyph glyph-name="uni0308" unicode="&#x308;" 
d="M-348 846q0 30 21.5 51.5t51.5 21.5q29 0 50.5 -21.5t21.5 -51.5q0 -29 -21.5 -50.5t-50.5 -21.5q-30 0 -51.5 21.5t-21.5 50.5zM-154 846q0 30 21.5 51.5t50.5 21.5t50.5 -22t21.5 -51t-21.5 -50.5t-50.5 -21.5q-30 0 -51 21t-21 51z" />
    <glyph glyph-name="uni030A" unicode="&#x30a;" 
d="M-264 883q0 26 10 49t27.5 40t40 27.5t47.5 10.5t48 -10.5t40 -27.5t27 -40t10 -49t-10 -49t-27 -40t-40 -27t-48 -10q-53 0 -89 36q-36 38 -36 90zM-82 885q0 23 -16.5 39t-40.5 16t-40 -16t-16 -39q0 -25 16 -41.5t40 -16.5t40.5 16.5t16.5 41.5z" />
    <glyph glyph-name="uni030B" unicode="&#x30b;" 
d="M-383 769l80 159h113l-103 -159h-90zM-249 769l105 159h113l-128 -159h-90z" />
    <glyph glyph-name="uni030C" unicode="&#x30c;" 
d="M-35 929l-89 -160h-99h-24l-89 160h93l58 -96l57 96h93z" />
    <glyph glyph-name="uni0312" unicode="&#x312;" 
d="M-42 837q0 -26 -16.5 -42.5t-42.5 -16.5q-27 0 -45.5 19.5t-18.5 58.5q0 24 8 45t22.5 36.5t33 24t39.5 8.5v-32q-23 0 -38 -15.5t-14 -34.5q7 4 20 4q22 0 37 -14.5t15 -40.5z" />
    <glyph glyph-name="uni0326" unicode="&#x326;" 
d="M-42 -108q0 -49 -31 -81q-32 -33 -72 -33v32q22 0 37 15.5t15 34.5q-7 -4 -21 -4q-22 0 -36.5 14.5t-14.5 40.5t16.5 42.5t42.5 16.5q27 0 45.5 -19.5t18.5 -58.5z" />
    <glyph glyph-name="uni0327" unicode="&#x327;" 
d="M-277 -130h87q11 0 18.5 6.5t7.5 17.5q0 23 -26 23h-87v55l54 59l47 -1v-31l-29 -28h34q35 0 54.5 -22.5t19.5 -55.5q0 -35 -19.5 -56.5t-53.5 -21.5h-107v55z" />
    <glyph glyph-name="uni0338" unicode="&#x338;" 
d="M-536 -43l365 587h103l-362 -587h-106z" />
    <glyph glyph-name="uni03A9" unicode="&#x3a9;" horiz-adv-x="656" 
d="M598 91v-91h-228v91q57 23 86.5 68t29.5 102q0 65 -44 106t-108 41q-65 0 -109 -41q-43 -40 -43 -106q0 -60 31 -105t85 -65v-91h-229v91h90q-38 36 -59 81.5t-21 99.5q0 49 19 92t53 75t81 50.5t103 18.5q57 0 104 -18.5t80 -51t51.5 -75t18.5 -90.5q0 -105 -81 -182h90
z" />
    <glyph glyph-name="pi" unicode="&#x3c0;" horiz-adv-x="649" 
d="M509 395l1 -244q0 -27 11 -35t35 -8l52 -1v-107l-111 1q-54 0 -80 35t-26 96v263h-168v-395h-116v395h-92v98h208h286h99v-98h-99z" />
    <glyph glyph-name="Wgrave" unicode="&#x1e80;" horiz-adv-x="1027" 
d="M1014 730l-221 -730h-120l-159 511l-161 -511h-122l-218 730h136l145 -519l153 519h137l149 -521l149 521h132zM364 941h114l80 -159h-90z" />
    <glyph glyph-name="wgrave" unicode="&#x1e81;" horiz-adv-x="803" 
d="M789 493l-171 -493h-111l-105 318l-108 -318h-115l-165 493h128l96 -322l104 322h121l100 -326l101 326h125zM255 711h114l80 -159h-90z" />
    <glyph glyph-name="Wacute" unicode="&#x1e82;" horiz-adv-x="1027" 
d="M1014 730l-221 -730h-120l-159 511l-161 -511h-122l-218 730h136l145 -519l153 519h137l149 -521l149 521h132zM468 782l80 159h113l-103 -159h-90z" />
    <glyph glyph-name="wacute" unicode="&#x1e83;" horiz-adv-x="803" 
d="M789 493l-171 -493h-111l-105 318l-108 -318h-115l-165 493h128l96 -322l104 322h121l100 -326l101 326h125zM359 552l80 159h113l-103 -159h-90z" />
    <glyph glyph-name="Wdieresis" unicode="&#x1e84;" horiz-adv-x="1027" 
d="M1014 730l-221 -730h-120l-159 511l-161 -511h-122l-218 730h136l145 -519l153 519h137l149 -521l149 521h132zM339 859q0 30 21.5 51t51.5 21q29 0 50.5 -21.5t21.5 -50.5t-21.5 -50.5t-50.5 -21.5q-30 0 -51.5 21t-21.5 51zM542 859q0 30 21.5 51t51.5 21
q29 0 51 -21.5t22 -50.5t-21.5 -50.5t-51.5 -21.5t-51.5 21t-21.5 51z" />
    <glyph glyph-name="wdieresis" unicode="&#x1e85;" horiz-adv-x="803" 
d="M789 493l-171 -493h-111l-105 318l-108 -318h-115l-165 493h128l96 -322l104 322h121l100 -326l101 326h125zM230 629q0 30 21.5 51t51.5 21q29 0 50.5 -21.5t21.5 -50.5t-21.5 -50.5t-50.5 -21.5q-30 0 -51.5 21t-21.5 51zM433 629q0 30 21.5 51t51.5 21q29 0 51 -21.5
t22 -50.5t-21.5 -50.5t-51.5 -21.5t-51.5 21t-21.5 51z" />
    <glyph glyph-name="Ygrave" unicode="&#x1ef2;" horiz-adv-x="639" 
d="M149 730l173 -317l173 317h135l-247 -437v-293h-125v293l-249 437h140zM173 941h114l80 -159h-90z" />
    <glyph glyph-name="ygrave" unicode="&#x1ef3;" horiz-adv-x="549" 
d="M538 493l-234 -608q-48 -125 -163 -125q-53 0 -112 24l33 107q37 -23 70 -23q24 0 43 14t30 43l17 46l-210 522h124l142 -370l136 370h124zM127 711h114l80 -159h-90z" />
    <glyph glyph-name="endash" unicode="&#x2013;" horiz-adv-x="931" 
d="M864 325v-106h-797v106h797z" />
    <glyph glyph-name="emdash" unicode="&#x2014;" horiz-adv-x="1146" 
d="M1075 325v-106h-1003v106h1003z" />
    <glyph glyph-name="quoteleft" unicode="&#x2018;" horiz-adv-x="281" 
d="M217 553q0 -32 -20.5 -52.5t-52.5 -20.5q-34 0 -56.5 23.5t-22.5 71.5q0 30 10.5 55.5t28 44.5t40 29.5t47.5 10.5v-39q-26 0 -44.5 -18t-18.5 -41q8 3 22 3q29 0 48 -18t19 -49z" />
    <glyph glyph-name="quoteright" unicode="&#x2019;" horiz-adv-x="281" 
d="M217 609q0 -30 -10.5 -55.5t-28 -44.5t-40.5 -29.5t-48 -10.5v39q27 1 45.5 19.5t18.5 41.5q-13 -5 -23 -5q-29 0 -47.5 18t-18.5 50t20 52.5t52 20.5q34 0 57 -24t23 -72z" />
    <glyph glyph-name="quotesinglbase" unicode="&#x201a;" horiz-adv-x="254" 
d="M205 34q0 -30 -10.5 -55.5t-28 -44.5t-40.5 -29.5t-48 -10.5v39q27 1 45.5 20t18.5 42q-12 -6 -26 -6q-27 0 -45 18.5t-18 49.5q0 32 20 52.5t52 20.5q34 0 57 -24t23 -72z" />
    <glyph glyph-name="quotedblleft" unicode="&#x201c;" horiz-adv-x="458" 
d="M217 553q0 -32 -20.5 -52.5t-52.5 -20.5q-34 0 -56.5 23.5t-22.5 71.5q0 30 10.5 55.5t28 44.5t40 29.5t47.5 10.5v-39q-26 0 -44.5 -18.5t-18.5 -41.5q8 4 22 4q29 0 48 -18t19 -49zM393 553q0 -32 -20 -52.5t-52 -20.5q-34 0 -57 23.5t-23 71.5q0 29 10.5 54.5t28 44.5
t40.5 30t48 11v-39q-27 -1 -45.5 -19t-18.5 -41q9 4 22 4q30 0 48.5 -17.5t18.5 -49.5z" />
    <glyph glyph-name="quotedblright" unicode="&#x201d;" horiz-adv-x="458" 
d="M217 609q0 -30 -10.5 -55.5t-28 -44.5t-40.5 -29.5t-48 -10.5v39q27 1 45.5 19t18.5 41q-9 -4 -22 -4q-30 0 -48.5 18t-18.5 50t20 52.5t52 20.5q34 0 57 -24t23 -72zM393 609q0 -30 -10.5 -55.5t-28 -44.5t-40 -29.5t-47.5 -10.5v39q26 1 44.5 19.5t18.5 41.5
q-13 -5 -22 -5q-29 0 -48 18.5t-19 49.5q0 32 20.5 52.5t52.5 20.5q34 0 56.5 -23.5t22.5 -72.5z" />
    <glyph glyph-name="quotedblbase" unicode="&#x201e;" horiz-adv-x="458" 
d="M217 34q0 -30 -10.5 -55.5t-28 -44.5t-40.5 -29.5t-48 -10.5v39q27 1 45.5 19.5t18.5 41.5q-13 -5 -24 -5q-28 0 -46.5 18.5t-18.5 49.5q0 32 20 52.5t52 20.5q34 0 57 -24t23 -72zM393 34q0 -30 -10.5 -55.5t-28 -44.5t-40 -29.5t-47.5 -10.5v39q27 1 45.5 19.5
t17.5 41.5q-12 -5 -25 -5q-27 0 -45.5 18.5t-18.5 49.5q0 32 20.5 52.5t52.5 20.5q34 0 56.5 -23.5t22.5 -72.5z" />
    <glyph glyph-name="dagger" unicode="&#x2020;" horiz-adv-x="329" 
d="M309 535h-107v-271h-75v271h-107v75h107v100h75v-100h107v-75z" />
    <glyph glyph-name="daggerdbl" unicode="&#x2021;" horiz-adv-x="332" 
d="M312 374h-106v-110h-75v110h-109v75h109v76h-111v75h111v110h75v-110h103v-75h-103v-76h106v-75z" />
    <glyph glyph-name="bullet" unicode="&#x2022;" horiz-adv-x="430" 
d="M58 269q0 32 12.5 60.5t34.5 49.5t50.5 33.5t60.5 12.5t60 -12.5t49 -34t33.5 -50t12.5 -59.5t-12.5 -59.5t-34 -49.5t-49.5 -33.5t-59 -12.5q-32 0 -60.5 12.5t-50.5 33.5t-34.5 49.5t-12.5 59.5z" />
    <glyph glyph-name="ellipsis" unicode="&#x2026;" horiz-adv-x="795" 
d="M64 62q0 33 23.5 56t56.5 23t56.5 -23t23.5 -56q0 -31 -24 -54.5t-56 -23.5q-33 0 -56.5 23t-23.5 55zM318 62q0 33 23.5 56t56.5 23q32 0 56 -23t24 -56q0 -31 -24 -54.5t-56 -23.5q-33 0 -56.5 23t-23.5 55zM572 62q0 33 23 56t56 23t56.5 -23t23.5 -56
q0 -31 -24 -54.5t-56 -23.5q-33 0 -56 23t-23 55z" />
    <glyph glyph-name="perthousand" unicode="&#x2030;" horiz-adv-x="1297" 
d="M45 550q0 88 45 142q45 56 119 54q75 1 120.5 -52t45.5 -144q0 -45 -12 -81t-33.5 -62t-52.5 -40t-69 -14q-75 0 -119 53.5t-44 143.5zM801 729l-556 -729h-119l555 729h120zM210 437q38 1 59.5 30t21.5 83q0 48 -18.5 76.5t-50.5 33.5q-3 1 -12 1t-12 -1
q-33 -4 -51.5 -33t-18.5 -77q0 -52 22 -82t60 -31zM882 180q0 -45 -12 -81t-33.5 -62t-52.5 -40t-69 -14q-75 0 -119 53t-44 144q0 88 45 142q45 56 119 54q75 1 120.5 -52t45.5 -144zM1255 180q0 -90 -46 -143q-46 -54 -122 -54q-75 0 -119 53.5t-44 143.5q0 88 45 142
q45 56 119 54q76 1 121.5 -52t45.5 -144zM1171 180q0 48 -18.5 76.5t-50.5 33.5q-3 1 -13 1q-9 0 -12 -1q-32 -5 -50.5 -33.5t-18.5 -76.5q0 -52 22 -82t60 -31q38 1 59.5 31t21.5 82zM798 180q0 48 -18.5 76.5t-50.5 33.5q-3 1 -12 1t-12 -1q-33 -4 -51.5 -33t-18.5 -77
q0 -52 22 -82t60 -31q38 1 59.5 30t21.5 83z" />
    <glyph glyph-name="minute" unicode="&#x2032;" horiz-adv-x="188" 
d="M125 490h-60l-22 186q-3 30 12.5 46t37.5 16t38 -15.5t13 -46.5z" />
    <glyph glyph-name="guilsinglleft" unicode="&#x2039;" horiz-adv-x="428" 
d="M209 247l216 -247h-151l-216 247l216 246h151z" />
    <glyph glyph-name="guilsinglright" unicode="&#x203a;" horiz-adv-x="438" 
d="M393 247l-216 -247h-150l216 247l-216 246h150z" />
    <glyph glyph-name="uni2042" unicode="&#x2042;" horiz-adv-x="924" 
d="M540 401l-40 57q-14 18 -22 34t-18 39q-4 -16 -13.5 -34t-23.5 -39l-42 -57l-51 35l40 59q27 36 56 62q-43 5 -81 18l-67 23l23 59l64 -22q20 -8 38.5 -17t35.5 -20q-1 5 -5 28.5t-4 54.5v70h62v-70q0 -23 -2 -43.5t-6 -39.5q14 10 32.5 19.5t41.5 17.5l65 22l22 -59
l-67 -23q-37 -13 -81 -18q13 -12 27 -27.5t28 -34.5l39 -59zM325 185q-37 -13 -81 -18q14 -14 28 -29.5t27 -32.5l38 -59l-50 -35l-40 57q-23 29 -40 73q-10 -34 -38 -73l-42 -57l-51 35l41 59q23 32 56 62q-45 5 -82 18l-66 23l23 59l63 -22q42 -16 75 -37q-9 44 -9 83v70
h62v-70q0 -48 -9 -83q16 10 34.5 19.5t40.5 17.5l65 22l22 -59zM844 46l-51 -35l-39 57q-23 29 -40 73q-5 -16 -14.5 -34.5t-23.5 -38.5l-42 -57l-51 35l40 59q11 16 25 31t31 31q-43 5 -81 18l-66 23l22 59l64 -22q42 -16 75 -37q-9 44 -9 83v70h62v-70q0 -42 -9 -83
q14 10 33 19.5t42 17.5l64 22l23 -59l-68 -23q-37 -13 -81 -18q25 -22 56 -62z" />
    <glyph glyph-name="fraction" unicode="&#x2044;" horiz-adv-x="160" 
d="M-243 0l541 710h105l-541 -710h-105z" />
    <glyph glyph-name="uni2070" unicode="&#x2070;" horiz-adv-x="508" 
d="M254 292h-1q-100 1 -157 70q-56 70 -56 179q0 54 14.5 100t42 79t67 51.5t89.5 18.5h1h1q50 0 89.5 -19t67 -52t42 -78.5t14.5 -99.5q0 -111 -57 -180q-55 -67 -156 -69h-1zM376 541q0 73 -32 117t-90 44q-60 0 -91.5 -44.5t-31.5 -116.5t31.5 -117t91.5 -45t91 45
t31 117z" />
    <glyph glyph-name="uni2074" unicode="&#x2074;" horiz-adv-x="457" 
d="M417 390h-61v-90h-83v90h-233v83l233 307h83v-307h61v-83zM273 473v176l-132 -176h132z" />
    <glyph glyph-name="uni2075" unicode="&#x2075;" horiz-adv-x="426" 
d="M386 460q0 -35 -14 -65.5t-37.5 -53.5t-55.5 -36t-68 -13t-67 13t-54.5 36t-36.5 53.5t-13 65.5h83q0 -36 25 -60t63 -24q39 0 65 25.5t26 63.5q0 45 -25 70t-70 25q-26 0 -47.5 -12t-28.5 -29l-76 20l61 241h253v-84h-189l-22 -80q28 16 62 16q38 0 68.5 -13t52 -35.5
t33.5 -54t12 -69.5z" />
    <glyph glyph-name="uni2076" unicode="&#x2076;" horiz-adv-x="457" 
d="M417 469q0 -38 -13.5 -70.5t-38.5 -56.5t-59 -37.5t-75 -13.5q-96 0 -144 69q-47 70 -47 172q0 113 51 186q53 74 154 74q51 0 93.5 -21t68.5 -61l-70 -43q-35 41 -91 41q-54 0 -85.5 -33.5t-35.5 -88.5q20 27 50.5 41t66.5 14q33 0 64 -11.5t56 -33.5t40 -54t15 -73z
M334 467q0 45 -28 70.5t-70 25.5t-70 -25.5t-28 -70.5q0 -43 28 -69t70 -26t70 26t28 69z" />
    <glyph glyph-name="uni2077" unicode="&#x2077;" horiz-adv-x="414" 
d="M374 780v-85q-114 -88 -144 -198q-14 -55 -21.5 -103.5t-7.5 -93.5h-86q0 79 26 189q25 108 128 206h-229v85h334z" />
    <glyph glyph-name="uni2078" unicode="&#x2078;" horiz-adv-x="427" 
d="M387 428q-2 -63 -50 -100q-49 -37 -123 -37q-38 0 -69.5 10.5t-55 29t-36.5 44t-13 56.5q0 42 23.5 76.5t65.5 48.5q-32 13 -50 42t-18 65q0 29 11.5 52.5t32 40t48.5 25.5t61 9t60.5 -9t48 -25.5t32 -40t11.5 -51.5q0 -37 -19 -66t-51 -42q42 -13 66.5 -49t24.5 -79z
M214 589q34 0 56 17.5t22 45.5q0 29 -23 46t-57 17q-33 0 -56 -17.5t-23 -46.5q0 -26 23.5 -44t57.5 -18zM212 515q-39 0 -64.5 -20t-25.5 -53q1 -32 27 -52.5t64 -20.5q39 0 64.5 22t26.5 54q0 32 -27 51t-65 19z" />
    <glyph glyph-name="uni2079" unicode="&#x2079;" horiz-adv-x="457" 
d="M213 291q-52 0 -94.5 20t-68.5 62l70 42q18 -21 40 -31t53 -10q54 0 84.5 31.5t35.5 91.5q-19 -27 -49.5 -41t-64.5 -14t-66 11.5t-57 33t-40.5 53.5t-15.5 73q0 39 13.5 72t38.5 56.5t59 37t75 13.5q98 0 144 -70q47 -70 47 -175q1 -112 -51 -184t-153 -72zM320 615
q0 45 -28.5 70.5t-70.5 25.5t-70 -25.5t-28 -70.5t28.5 -70t70.5 -25t70 25t28 70z" />
    <glyph glyph-name="uni2080" unicode="&#x2080;" horiz-adv-x="508" 
d="M254 -108h-1q-100 1 -157 70q-56 70 -56 179q0 54 14.5 100t42 79t67 51.5t89.5 18.5h1h1q50 0 89.5 -19t67 -52t42 -78.5t14.5 -99.5q0 -111 -57 -179q-55 -68 -156 -70h-1zM376 141q0 73 -32 117t-90 44q-60 0 -91.5 -44.5t-31.5 -116.5t31.5 -117t91.5 -45t91 45
t31 117z" />
    <glyph glyph-name="uni2081" unicode="&#x2081;" horiz-adv-x="305" 
d="M221 381v-481h-83v396l-98 -41v83l98 43h83z" />
    <glyph glyph-name="uni2082" unicode="&#x2082;" horiz-adv-x="418" 
d="M48 -14l207 170q22 18 30.5 34.5t8.5 35.5q0 38 -23 60t-62 22q-36 0 -60 -20.5t-26 -59.5h-83q4 75 50 118.5t118 43.5q39 0 70 -12.5t53.5 -34.5t34.5 -52t12 -64q0 -79 -72 -136l-136 -108l197 1v-83l-319 -1v86z" />
    <glyph glyph-name="uni2083" unicode="&#x2083;" horiz-adv-x="418" 
d="M378 57q0 -35 -13.5 -65.5t-36.5 -52.5t-53.5 -34.5t-65.5 -12.5q-37 0 -68 13t-53.5 35t-35 51.5t-12.5 62.5h83q2 -34 25 -57t61 -23q36 0 60.5 23t24.5 60q0 39 -25 63.5t-64 24.5q-17 0 -39 -8l-30 66l100 93l-176 1v83h307v-73l-102 -96q51 -16 82 -56.5t31 -97.5z
" />
    <glyph glyph-name="uni2084" unicode="&#x2084;" horiz-adv-x="457" 
d="M417 -10h-61v-90h-83v90h-233v83l233 307h83v-307h61v-83zM273 73v176l-132 -176h132z" />
    <glyph glyph-name="uni2085" unicode="&#x2085;" horiz-adv-x="426" 
d="M386 60q0 -35 -14 -65.5t-37.5 -53.5t-55.5 -36t-68 -13t-67 13t-54.5 36t-36.5 53.5t-13 65.5h83q0 -36 25 -60t63 -24q39 0 65 25.5t26 63.5q0 45 -25 70t-70 25q-26 0 -47.5 -12t-28.5 -29l-76 20l61 241h253v-84h-189l-22 -80q28 16 62 16q38 0 68.5 -13t52 -35.5
t33.5 -54t12 -69.5z" />
    <glyph glyph-name="uni2086" unicode="&#x2086;" horiz-adv-x="457" 
d="M417 69q0 -38 -13.5 -70.5t-38.5 -56.5t-59 -37.5t-75 -13.5q-96 0 -144 69q-47 70 -47 172q0 113 51 186q53 74 154 74q51 0 93.5 -21t68.5 -61l-70 -43q-35 41 -91 41q-54 0 -85.5 -33.5t-35.5 -88.5q20 27 50.5 41t66.5 14q33 0 64 -11.5t56 -33.5t40 -54t15 -73z
M334 67q0 45 -28 70.5t-70 25.5t-70 -25.5t-28 -70.5q0 -43 28 -69t70 -26t70 26t28 69z" />
    <glyph glyph-name="uni2087" unicode="&#x2087;" horiz-adv-x="414" 
d="M374 380v-85q-114 -88 -144 -198q-14 -55 -21.5 -103.5t-7.5 -93.5h-86q0 79 26 189q25 108 128 206h-229v85h334z" />
    <glyph glyph-name="uni2088" unicode="&#x2088;" horiz-adv-x="427" 
d="M387 29q0 -30 -12.5 -55.5t-35.5 -43.5t-54.5 -28.5t-69.5 -10.5q-78 0 -126 38t-49 101q0 42 23.5 77t65.5 49q-32 13 -50 42t-18 65q0 58 43 92.5t110 34.5q33 0 61 -9t48 -25.5t31.5 -39.5t11.5 -52q0 -37 -18.5 -66t-51.5 -42q42 -13 66.5 -49t24.5 -78zM133 253
q0 -28 23 -46t58 -18q34 0 56 17.5t22 45.5q0 29 -22 46t-57 17t-57.5 -17t-22.5 -45zM214 115q-40 0 -66 -20t-26 -54q1 -33 27 -52.5t65 -19.5t64 20t26 53q0 34 -25.5 53.5t-64.5 19.5z" />
    <glyph glyph-name="uni2089" unicode="&#x2089;" horiz-adv-x="457" 
d="M213 -109q-52 0 -94.5 20t-68.5 62l70 42q18 -21 40 -31t53 -10q54 0 84.5 31.5t35.5 91.5q-19 -27 -49.5 -41t-64.5 -14t-66 11.5t-57 33t-40.5 53.5t-15.5 73q0 39 13.5 72t38.5 56.5t59 37t75 13.5q98 0 144 -70q47 -70 47 -175q1 -112 -51 -184t-153 -72zM320 215
q0 45 -28.5 70.5t-70.5 25.5t-70 -25.5t-28 -70.5t28.5 -70t70.5 -25t70 25t28 70z" />
    <glyph glyph-name="Euro" unicode="&#x20ac;" horiz-adv-x="769" 
d="M709 64q-45 -36 -104 -56t-119 -20q-111 0 -203 62q-90 62 -134 164h-89v111h61q-1 6 -1 15v22q0 14 0.5 23.5t1.5 16.5h-62v111h89q44 104 134 166q92 63 203 63q97 0 194 -52l-54 -97q-38 20 -71 29t-69 9q-66 0 -121.5 -31.5t-90.5 -86.5h272l-29 -111h-283
q-1 -13 -1.5 -23t-0.5 -17q0 -13 0.5 -22t1.5 -15h264l-27 -111h-196q34 -54 89.5 -85t121.5 -31q42 0 82 14t71 38z" />
    <glyph glyph-name="uni2116" unicode="&#x2116;" horiz-adv-x="1358" 
d="M1238 486q1 -50 -19 -93t-54 -75t-78 -50t-91 -17q-46 -1 -90 17.5t-78.5 50.5t-55 75.5t-19.5 91.5q-1 50 19 93.5t54.5 75.5t78.5 50t91 17q48 0 92 -18t77 -49.5t53 -74.5t20 -94zM572 710h102v-710h-102l-350 533v-533h-102v710h102l350 -533v533zM1137 486
q0 30 -10.5 55.5t-29 43.5t-44.5 28.5t-57 10.5q-62 0 -102 -40q-40 -39 -40 -98q0 -27 11 -52t30 -44.5t45 -31t56 -11.5q31 0 57 11t44.5 30t29 44.5t10.5 53.5zM854 180h285v-83h-285v83z" />
    <glyph glyph-name="uni2117" unicode="&#x2117;" horiz-adv-x="532" 
d="M492 498q0 -47 -18 -88t-48.5 -72t-71.5 -48.5t-87 -17.5q-47 0 -88.5 17.5t-72 48.5t-48.5 72t-18 88q0 46 18 87t48.5 71.5t72 48.5t88.5 18q46 0 87 -18t71.5 -48.5t48.5 -71.5t18 -87zM447 498q0 38 -14 70.5t-38.5 57t-57.5 38.5t-70 14q-38 0 -71 -14t-57.5 -38.5
t-38.5 -57t-14 -70.5t14 -71t38 -57t57 -38t72 -14q37 0 70 14t57.5 38t38.5 57t14 71zM350 538v-6q-1 -30 -21.5 -45.5t-55.5 -13.5h-24v-78h-44v203h44h24q36 2 56 -12.5t21 -43.5v-4zM302 532q3 23 -29 23h-24v-43h35q18 1 19 20h-1z" />
    <glyph glyph-name="trademark" unicode="&#x2122;" horiz-adv-x="643" 
d="M39 730h221v-52h-87v-231h-50v231h-84v52zM583 730v-283h-49v165l-70 -165h-52l-69 162v-162h-49v283h49l95 -223l96 223h49z" />
    <glyph glyph-name="estimated" unicode="&#x212e;" horiz-adv-x="759" 
d="M380 710q73 0 133 -22.5t103.5 -65.5t67.5 -103.5t24 -137.5q1 -5 1 -27v-15.5t-1 -10.5h-558v-180q39 -57 101 -87t141 -30q78 0 142 36.5t96 96.5l38 -14q-37 -75 -110.5 -117t-167.5 -42q-75 0 -137.5 26t-107.5 73t-70 112t-25 144q0 80 24.5 147t68 115t104.5 75
t133 27zM150 364h459v200q-37 51 -96 78.5t-129 27.5q-75 0 -135 -33t-99 -91v-182z" />
    <glyph glyph-name="oneeighth" unicode="&#x215b;" horiz-adv-x="759" 
d="M37 677l74 33v-77l-74 -29v73zM185 710v-367h-74v367h74zM19 0l541 710h105l-541 -710h-105zM459 100q0 28 13 52t36 38q-38 29 -38 74q0 20 8.5 39t24.5 34t38.5 24t49.5 9t49 -8.5t38 -23.5t24.5 -34.5t8.5 -40.5q0 -44 -38 -73q22 -14 36 -38t14 -50q0 -22 -9 -42
t-26 -36t-41.5 -25.5t-55.5 -9.5t-55.5 9.5t-41.5 25t-26 35.5t-9 41zM643 262q0 15 -13.5 26.5t-38.5 11.5t-39 -11.5t-13 -26.5q0 -16 13.5 -27.5t38.5 -11.5q24 0 38 11.5t14 27.5zM652 107q0 18 -16 32t-45 14q-30 0 -46 -14.5t-15 -33.5q0 -20 16 -33.5t45 -13.5t45 14
t16 35z" />
    <glyph glyph-name="threeeighths" unicode="&#x215c;" horiz-adv-x="828" 
d="M294 464q0 -53 -38 -91q-37 -36 -91 -36q-28 0 -52.5 10.5t-42 29t-26.5 43.5t-7 53h73q-1 -3 -1 -12q0 -23 16 -37.5t40 -14.5q23 0 39.5 16t16.5 39q0 30 -20 45q-15 12 -36 12q-18 0 -31 -7l-30 57h1l63 65h-117v74h230v-64l-64 -64q33 -16 49 -37q28 -34 28 -81z
M88 0l541 710h105l-541 -710h-105zM528 100q0 28 13 52t36 38q-38 29 -38 74q0 20 8.5 39t24.5 34t38.5 24t49.5 9t49 -8.5t38 -23.5t24.5 -34.5t8.5 -40.5q0 -44 -38 -73q22 -14 36 -38t14 -50q0 -22 -9 -42t-26 -36t-41.5 -25.5t-55.5 -9.5t-55.5 9.5t-41.5 25t-26 35.5
t-9 41zM712 262q0 15 -13.5 26.5t-38.5 11.5t-39 -11.5t-13 -26.5q0 -16 13.5 -27.5t38.5 -11.5q24 0 38 11.5t14 27.5zM721 107q0 18 -16 32t-45 14q-30 0 -46 -14.5t-15 -33.5q0 -20 16 -33.5t45 -13.5t45 14t16 35z" />
    <glyph glyph-name="fiveeighths" unicode="&#x215d;" horiz-adv-x="835" 
d="M110 477q-3 -27 13.5 -46t44.5 -19q26 0 43.5 17t17.5 42q0 29 -17.5 46.5t-46.5 17.5q-16 0 -30.5 -8t-19.5 -19l-68 17l46 185h196v-73h-139l-11 -40q12 4 34 4q27 0 50.5 -10t41 -27.5t27 -41.5t9.5 -53q0 -27 -10.5 -50.5t-29 -41t-42.5 -28t-51 -10.5
q-29 0 -53.5 11t-42.5 29.5t-27 44t-8 53.5h73zM95 0l541 710h105l-541 -710h-105zM535 100q0 28 13 52t36 38q-38 29 -38 74q0 20 8.5 39t24.5 34t38.5 24t49.5 9t49 -8.5t38 -23.5t24.5 -34.5t8.5 -40.5q0 -44 -38 -73q22 -14 36 -38t14 -50q0 -22 -9 -42t-26 -36
t-41.5 -25.5t-55.5 -9.5t-55.5 9.5t-41.5 25t-26 35.5t-9 41zM719 262q0 15 -13.5 26.5t-38.5 11.5t-39 -11.5t-13 -26.5q0 -16 13.5 -27.5t38.5 -11.5q24 0 38 11.5t14 27.5zM728 107q0 18 -16 32t-45 14q-30 0 -46 -14.5t-15 -33.5q0 -20 16 -33.5t45 -13.5t45 14t16 35z
" />
    <glyph glyph-name="seveneighths" unicode="&#x215e;" horiz-adv-x="784" 
d="M303 710v-77q-65 -47 -95 -109q-31 -63 -35 -101q-2 -20 -3 -40t-1 -40h-77q0 178 112 290h-167v77h266zM44 0l541 710h105l-541 -710h-105zM483 100q0 28 13 52t36 38q-38 29 -38 74q0 20 8.5 39t24.5 34t38.5 24t49.5 9t49 -8.5t38 -23.5t24.5 -34.5t8.5 -40.5
q0 -44 -38 -73q22 -14 36 -38t14 -50q0 -22 -9 -42t-26 -36t-41.5 -25.5t-55.5 -9.5t-55.5 9.5t-41.5 25t-26 35.5t-9 41zM667 262q0 15 -13.5 26.5t-38.5 11.5t-39 -11.5t-13 -26.5q0 -16 13.5 -27.5t38.5 -11.5q24 0 38 11.5t14 27.5zM676 107q0 18 -16 32t-45 14
q-30 0 -46 -14.5t-15 -33.5q0 -20 16 -33.5t45 -13.5t45 14t16 35z" />
    <glyph glyph-name="arrowleft" unicode="&#x2190;" horiz-adv-x="970" 
d="M60 281l350 350l64 -64l-239 -240h675v-90h-675l239 -239l-64 -65z" />
    <glyph glyph-name="arrowup" unicode="&#x2191;" horiz-adv-x="821" 
d="M411 817l350 -348l-64 -65l-241 238v-642h-91v642l-240 -238l-65 65z" />
    <glyph glyph-name="arrowright" unicode="&#x2192;" horiz-adv-x="969" 
d="M909 303l-349 -348l-64 64l239 239h-675v90l675 1l-239 239l64 64z" />
    <glyph glyph-name="arrowdown" unicode="&#x2193;" horiz-adv-x="817" 
d="M408 -116l-348 350l65 65l239 -239v688h90v-689l240 240l63 -65z" />
    <glyph glyph-name="arrowboth" unicode="&#x2194;" horiz-adv-x="1123" 
d="M793 131l99 95h-427h-234l100 -96v-130l-271 272l271 270v-130l-99 -95l232 1v1l110 -1l92 1v-1l225 -1l-98 95v130l270 -269l-270 -273v131z" />
    <glyph glyph-name="arrowupdn" unicode="&#x2195;" horiz-adv-x="662" 
d="M472 90h130l-272 -271l-270 271h130l95 -98l-1 232v100v101l1 225l-95 -98h-130l270 270l272 -270h-130l-96 99v-427v-233z" />
    <glyph glyph-name="uni2196" unicode="&#x2196;" horiz-adv-x="833" 
d="M416 592h-33l-56 61h89v-61zM674 275l-165 -53l-136 151l-11 -237l-287 212v245l308 -1z" />
    <glyph glyph-name="uni2197" unicode="&#x2197;" horiz-adv-x="851" 
d="M791 730v-493h-92v338l-575 -575l-64 64l575 575h-338v91h494z" />
    <glyph glyph-name="uni2198" unicode="&#x2198;" horiz-adv-x="849" 
d="M789 1h-494v92h338l-573 573l64 64l574 -573v338h91v-494z" />
    <glyph glyph-name="uni2199" unicode="&#x2199;" horiz-adv-x="852" 
d="M60 0l1 493h91v-338l576 576l64 -63l-576 -577l339 -1l-1 -90h-494z" />
    <glyph glyph-name="partialdiff" unicode="&#x2202;" horiz-adv-x="633" 
d="M587 299q0 -80 -23 -138.5t-61 -97t-88.5 -57t-104.5 -18.5t-102.5 18t-85 52.5t-58 83.5t-21.5 112q0 61 20 110.5t55 84t81.5 53.5t99.5 19q38 0 75.5 -11.5t64.5 -35.5q-25 64 -77 131.5t-127 124.5h153q96 -87 148 -206q51 -115 51 -225zM478 261q0 35 -12.5 65.5
t-35 53t-52.5 35.5t-66 13t-67 -13t-53.5 -36t-35 -53.5t-12.5 -65.5t13 -65.5t35.5 -53.5t53 -36t66.5 -13t66 13t52.5 36t35 54t12.5 66z" />
    <glyph glyph-name="emptyset" unicode="&#x2205;" horiz-adv-x="824" 
d="M708 567q54 -85 54 -197q1 -83 -25 -154t-73 -123.5t-111.5 -81.5t-140.5 -28q-70 0 -131 25t-109 73l-76 -70l-56 61l81 73q-58 91 -58 209q-1 78 25.5 146t73.5 118.5t111 78.5t138 27q72 0 134.5 -24t110.5 -69l73 66l55 -61zM573 555q-64 61 -162 61q-52 0 -95.5 -19
t-74.5 -53.5t-48 -83t-17 -106.5q0 -72 29 -132zM253 154q31 -30 71 -46.5t88 -16.5q54 0 98 19t74.5 54t47.5 83.5t17 106.5q0 77 -28 134z" />
    <glyph glyph-name="uni2206" unicode="&#x2206;" horiz-adv-x="701" 
d="M641 100v-100h-581v100l235 610h110zM168 100h364l-182 469z" />
    <glyph glyph-name="product" unicode="&#x220f;" horiz-adv-x="653" 
d="M513 493v-302q0 -40 19 -59.5t51 -19.5q14 0 29 3v-112q-14 -2 -27 -3.5t-24 -1.5q-73 0 -119.5 42t-46.5 129v324h-151v-493h-119v493h-91v119h210h269h99v-119h-99z" />
    <glyph glyph-name="summation" unicode="&#x2211;" horiz-adv-x="540" 
d="M40 125l232 243l-232 237v125h453v-123h-301l226 -239l-228 -244h303v-124h-453v125z" />
    <glyph glyph-name="minus" unicode="&#x2212;" horiz-adv-x="513" 
d="M443 373v-101h-373v101h373z" />
    <glyph glyph-name="radical" unicode="&#x221a;" horiz-adv-x="729" 
d="M703 727v-109h-161l-246 -618h-111l-185 492h110l132 -349l230 584h231z" />
    <glyph glyph-name="infinity" unicode="&#x221e;" horiz-adv-x="896" 
d="M248 488q125 0 200 -119q75 119 200 119q42 0 79 -15.5t64 -42.5t42.5 -64t15.5 -79t-15.5 -79t-42.5 -64t-64 -42.5t-79 -15.5q-123 0 -200 119q-77 -119 -200 -119q-42 0 -79 15.5t-64 42.5t-42.5 64t-15.5 79t15.5 79t42.5 64t64 42.5t79 15.5zM249 195
q35 0 69.5 21.5t56.5 70.5q-22 49 -56.5 70.5t-69.5 21.5q-40 0 -66.5 -26t-26.5 -66t26.5 -66t66.5 -26zM647 195q40 0 66.5 26t26.5 66t-26.5 66t-66.5 26q-35 0 -69.5 -21.5t-56.5 -70.5q22 -49 56.5 -70.5t69.5 -21.5z" />
    <glyph glyph-name="integral" unicode="&#x222b;" horiz-adv-x="399" 
d="M369 743v-108h-55q-55 0 -55 -65v-214v-195q0 -77 -47 -126q-46 -48 -119 -48h-63v109h55q55 0 55 65v214v195q0 78 45.5 125.5t120.5 47.5h63z" />
    <glyph glyph-name="approxequal" unicode="&#x2248;" horiz-adv-x="463" 
d="M423 390q0 -52 -30.5 -84.5t-78.5 -32.5q-27 0 -50 11t-50 30q-22 16 -37.5 23.5t-30.5 7.5q-41 0 -44 -43h-62q0 51 30.5 82.5t78.5 31.5q26 0 48.5 -10.5t51.5 -30.5q25 -17 39 -24t29 -7q42 0 45 46h61zM423 226q0 -52 -30.5 -84.5t-78.5 -32.5q-27 0 -50 11t-50 30
q-22 16 -37.5 23.5t-30.5 7.5q-41 0 -44 -43h-62q0 51 30.5 82.5t78.5 31.5q26 0 48.5 -10.5t51.5 -30.5q25 -17 39 -24t29 -7q42 0 45 46h61z" />
    <glyph glyph-name="notequal" unicode="&#x2260;" horiz-adv-x="583" 
d="M377 404l-72 -131h225v-102h-280l-60 -110h-112l60 110h-85v102h141l71 131h-212v101h268l65 121h112l-66 -121h98v-101h-153z" />
    <glyph glyph-name="lessequal" unicode="&#x2264;" horiz-adv-x="546" 
d="M36 456l467 159v-129l-277 -92l277 -92v-129l-467 159v124zM36 129h467v-129h-467v129z" />
    <glyph glyph-name="greaterequal" unicode="&#x2265;" horiz-adv-x="580" 
d="M521 427v-108l-455 -155v111l293 98l-293 98v111zM66 111h455v-111h-455v111z" />
    <glyph glyph-name="filledbox" unicode="&#x25a0;" horiz-adv-x="830" 
d="M770 710v-710h-710v710h710z" />
    <glyph glyph-name="uni25A1" unicode="&#x25a1;" horiz-adv-x="830" 
d="M770 710v-710h-710v710h710zM150 90h530v530h-530v-530z" />
    <glyph glyph-name="triagup" unicode="&#x25b2;" horiz-adv-x="966" 
d="M906 0h-846l423 710z" />
    <glyph glyph-name="uni25B3" unicode="&#x25b3;" horiz-adv-x="967" 
d="M60 3l424 710l423 -710h-847zM483 549l-278 -467h557z" />
    <glyph glyph-name="lozenge" unicode="&#x25ca;" horiz-adv-x="639" 
d="M579 355l-203 -355h-114l-202 355l202 355h114zM458 355l-139 252l-139 -252l139 -252z" />
    <glyph glyph-name="circle" unicode="&#x25cb;" horiz-adv-x="897" 
d="M60 333q-1 78 30 149t84.5 124.5t124.5 85t149 29.5q78 2 149 -29.5t125 -85t85.5 -124.5t29.5 -149q2 -78 -29.5 -149t-85.5 -124.5t-125 -85t-149 -29.5q-78 -2 -149 29.5t-124.5 85t-84.5 124.5t-30 149zM752 333q2 61 -22.5 116.5t-66.5 97.5t-98 66.5t-117 23.5
q-61 2 -116.5 -22.5t-97.5 -66.5t-66 -98t-23 -117q-1 -61 23 -117t66 -98t97.5 -66t116.5 -23q62 -1 117.5 23t97.5 66t66 98t23 117z" />
    <glyph glyph-name="uni25CF" unicode="&#x25cf;" horiz-adv-x="897" 
d="M60 333q-1 78 30 149t84.5 124.5t124.5 85t149 29.5q78 2 149 -29.5t125 -85t85.5 -124.5t29.5 -149q2 -78 -29.5 -149t-85.5 -124.5t-125 -85t-149 -29.5q-78 -2 -149 29.5t-124.5 85t-84.5 124.5t-30 149z" />
    <glyph glyph-name="uni262E" unicode="&#x262e;" horiz-adv-x="897" 
d="M837 333q2 -78 -29.5 -149t-85.5 -124.5t-125 -85t-149 -29.5q-78 -2 -149 29.5t-124.5 85t-84.5 124.5t-30 149q-1 78 30 149t84.5 124.5t124.5 85t149 29.5q78 2 149 -29.5t125 -85t85.5 -124.5t29.5 -149zM145 333q0 -63 25 -120l240 164v257q-56 -7 -104.5 -33
t-84 -66.5t-56 -92.5t-20.5 -109zM487 377l240 -164q25 57 25 120q1 56 -20 107.5t-57 92.5t-85 68t-103 33v-257zM410 283l-201 -136q36 -48 88.5 -78t112.5 -37v251zM487 283v-251q60 7 112.5 37t88.5 78z" />
    <glyph glyph-name="smileface" unicode="&#x263a;" horiz-adv-x="896" 
d="M60 334q-1 77 30 147.5t84.5 124t125.5 84.5t151 29q77 2 147.5 -29t124 -84.5t84.5 -124t29 -147.5q2 -79 -29 -150.5t-84.5 -125t-124 -84.5t-147.5 -29q-79 -2 -151 29t-125.5 84.5t-84.5 125t-30 150.5zM760 333q1 63 -23.5 120t-67 100t-99 67.5t-119.5 22.5
q-65 1 -122 -23t-100 -66.5t-67 -99.5t-23 -121q-1 -65 22.5 -122t66 -99t100 -65.5t123.5 -22.5q63 -1 119.5 23t99 66t67 99t23.5 121zM268 422q0 24 17.5 42t42.5 18q24 0 41 -18t17 -42t-17 -42.5t-41 -18.5q-25 0 -42.5 18.5t-17.5 42.5zM516 418q0 24 17.5 42t42.5 18
q24 0 41.5 -18t17.5 -42t-17.5 -42t-41.5 -18q-25 0 -42.5 18t-17.5 42zM350 298q-4 -44 25 -78q30 -32 76 -32q23 0 42.5 8.5t33 23.5t21 35t5.5 43h69q2 -37 -11 -69.5t-36 -57t-55 -38.5t-69 -14t-68.5 14.5t-55 39t-36 57t-11.5 68.5h70z" />
    <glyph glyph-name="uni2713" unicode="&#x2713;" horiz-adv-x="708" 
d="M105 313l144 -154l312 376l77 -65l-385 -463l-217 233z" />
    <glyph glyph-name="uni2776" unicode="&#x2776;" horiz-adv-x="805" 
d="M50 348q-1 71 27 135.5t77 113.5t113.5 77.5t135.5 26.5q71 2 135.5 -26.5t113 -77.5t77 -113.5t26.5 -135.5q2 -72 -26.5 -136.5t-77 -113.5t-113 -77.5t-135.5 -26.5q-71 -2 -135.5 26.5t-113.5 77.5t-77 113.5t-27 136.5zM447 550h-67l-75 -39v-69l71 34v-317h71v391z
" />
    <glyph glyph-name="uni2777" unicode="&#x2777;" horiz-adv-x="805" 
d="M755 348q2 -72 -26.5 -136.5t-77 -113.5t-113 -77.5t-135.5 -26.5q-71 -2 -135.5 26.5t-113.5 77.5t-77 113.5t-27 136.5q-1 71 27 135.5t76.5 113.5t113 77.5t135.5 26.5q71 2 136 -26.5t113.5 -77.5t77 -113.5t26.5 -135.5zM397 248l70 63q34 31 48.5 55.5t14.5 56.5
q0 57 -35 90t-92 33q-28 0 -52 -10t-41.5 -28t-26 -42.5t-7.5 -53.5h71q0 60 56 62q26 0 40.5 -14.5t14.5 -39.5q0 -13 -6 -24t-22 -26l-145 -135v-60l237 1v72h-125z" />
    <glyph glyph-name="uni2778" unicode="&#x2778;" horiz-adv-x="805" 
d="M50 348q-1 71 27 135.5t77 113.5t113.5 77.5t135.5 26.5q71 2 135.5 -26.5t113 -77.5t77 -113.5t26.5 -135.5q2 -72 -26.5 -136.5t-77 -113.5t-113 -77.5t-135.5 -26.5q-71 -2 -135.5 26.5t-113.5 77.5t-77 113.5t-27 136.5zM408 157q57 0 93 34t36 91q0 46 -25.5 77.5
t-65.5 40.5l74 77v57h-226v-74h116l-63 -69v-49h54q28 1 46.5 -14t18.5 -46q0 -25 -16.5 -41t-41.5 -16q-28 0 -44.5 18t-15.5 48h-69q-1 -28 8 -52.5t26 -42.5t41.5 -28.5t53.5 -10.5z" />
    <glyph glyph-name="uni2779" unicode="&#x2779;" horiz-adv-x="805" 
d="M50 348q-1 71 27 135.5t77 113.5t113.5 77.5t135.5 26.5q71 2 135.5 -26.5t113 -77.5t77 -113.5t26.5 -135.5q2 -72 -26.5 -136.5t-77 -113.5t-113 -77.5t-135.5 -26.5q-71 -2 -135.5 26.5t-113.5 77.5t-77 113.5t-27 136.5zM478 159v71h60v70h-60v250h-69l-179 -248v-72
h176v-71h72zM406 431v-131h-99z" />
    <glyph glyph-name="uni277A" unicode="&#x277a;" horiz-adv-x="805" 
d="M50 348q-1 71 27 135.5t77 113.5t113.5 77.5t135.5 26.5q71 2 135.5 -26.5t113 -77.5t77 -113.5t26.5 -135.5q2 -72 -26.5 -136.5t-77 -113.5t-113 -77.5t-135.5 -26.5q-71 -2 -135.5 26.5t-113.5 77.5t-77 113.5t-27 136.5zM359 473h154v72h-211l-38 -218l63 -10
q10 18 28.5 28t39.5 10q32 0 51 -19t19 -51t-18.5 -51t-49.5 -19q-30 0 -48.5 16t-22.5 47l-70 -18q8 -54 45 -85.5t94 -31.5q32 0 58 10.5t45.5 29.5t30 45t10.5 57q0 60 -38 101t-95 41q-34 0 -58 -15z" />
    <glyph glyph-name="uni277B" unicode="&#x277b;" horiz-adv-x="805" 
d="M50 348q-1 71 27 135.5t76.5 113.5t113 77.5t135.5 26.5q71 2 136 -26.5t113.5 -77t77 -113.5t26.5 -136q2 -72 -26.5 -136.5t-77 -113.5t-113 -77.5t-135.5 -26.5q-71 -2 -135.5 26.5t-113.5 77.5t-77 113.5t-27 136.5zM399 484q55 0 77 -40l67 23q-18 42 -54.5 65
t-84.5 23q-78 0 -120.5 -53.5t-42.5 -150.5q0 -96 40 -150.5t109 -54.5q31 0 58 10.5t47 30t31.5 46.5t11.5 60q0 58 -40 97q-40 40 -99 40q-56 0 -85 -32q2 39 26 62.5t59 23.5zM321 289q0 31 20.5 50.5t51.5 19.5t50.5 -19.5t19.5 -50.5q0 -32 -19.5 -52t-50.5 -20
q-32 0 -52 20t-20 52z" />
    <glyph glyph-name="uni277C" unicode="&#x277c;" horiz-adv-x="805" 
d="M50 348q-1 71 27 135.5t77 113.5t113.5 77.5t135.5 26.5q71 2 135.5 -26.5t113 -77.5t77 -113.5t26.5 -135.5q2 -72 -26.5 -136.5t-77 -113.5t-113 -77.5t-135.5 -26.5q-71 -2 -135.5 26.5t-113.5 77.5t-77 113.5t-27 136.5zM400 159q18 185 136 310v60h-249v-66h162
q-54 -72 -84 -145.5t-39 -158.5h74z" />
    <glyph glyph-name="uni277D" unicode="&#x277d;" horiz-adv-x="805" 
d="M50 348q-1 71 27 135.5t77 113.5t113.5 77.5t135.5 26.5q71 2 135.5 -26.5t113 -77.5t77 -113.5t26.5 -135.5q2 -72 -26.5 -136.5t-77 -113.5t-113 -77.5t-135.5 -26.5q-71 -2 -135.5 26.5t-113.5 77.5t-77 113.5t-27 136.5zM546 277q0 31 -13.5 58t-36.5 40
q13 11 21.5 31t8.5 40q0 49 -34 79t-91 30q-58 0 -93 -29.5t-35 -80.5q0 -18 8.5 -38t21.5 -33q-22 -12 -36 -39.5t-14 -59.5q0 -58 40.5 -92.5t107.5 -34.5t106 34.5t39 94.5zM347 442q0 19 15.5 30.5t38.5 11.5t37.5 -11.5t14.5 -30.5t-14.5 -30t-37.5 -11q-24 0 -39 11.5
t-15 29.5zM327 279q0 28 20.5 44.5t53.5 16.5q32 0 52.5 -16.5t20.5 -44.5q0 -27 -20.5 -43.5t-52.5 -16.5q-33 0 -53.5 16.5t-20.5 43.5z" />
    <glyph glyph-name="uni277E" unicode="&#x277e;" horiz-adv-x="805" 
d="M50 348q-1 71 27 135.5t77 113.5t113.5 77.5t135.5 26.5q71 2 135.5 -26.5t113 -77.5t77 -113.5t26.5 -135.5q2 -72 -26.5 -136.5t-77 -113.5t-113 -77.5t-135.5 -26.5q-71 -2 -135.5 26.5t-113.5 77.5t-77 113.5t-27 136.5zM400 218q-59 0 -79 43l-68 -24
q17 -42 55 -65.5t89 -23.5q73 0 114 49.5t41 146.5q0 100 -39.5 155.5t-114.5 55.5q-61 0 -102 -41q-40 -40 -40 -104q0 -57 39 -98q41 -39 98 -39q53 0 88 35q-1 -40 -22.5 -64.5t-58.5 -25.5zM469 413q0 -31 -20 -50.5t-52 -19.5q-29 0 -49 19.5t-20 49.5q0 32 20 52
t53 20q29 0 48.5 -20t19.5 -51z" />
    <glyph glyph-name="uni2780" unicode="&#x2780;" horiz-adv-x="877" 
d="M50 333q-1 78 30 149t84.5 124.5t124.5 85t149 29.5q78 2 149 -29.5t125 -85t85.5 -124.5t29.5 -149q2 -78 -29.5 -149t-85.5 -124.5t-125 -85t-149 -29.5q-78 -2 -149 29.5t-124.5 85t-84.5 124.5t-30 149zM742 333q2 61 -22.5 116.5t-66.5 97.5t-98 66.5t-117 23.5
q-61 2 -116.5 -22.5t-97.5 -66.5t-66 -98t-23 -117q-1 -61 23 -117t66 -98t97.5 -66t116.5 -23q62 -1 117.5 23t97.5 66t66 98t23 117zM341 471l76 39v-74l-76 -39v74zM417 510h75v-367h-74z" />
    <glyph glyph-name="uni2781" unicode="&#x2781;" horiz-adv-x="877" 
d="M827 333q2 -78 -29.5 -149t-85.5 -124.5t-125 -85t-149 -29.5q-78 -2 -149 29.5t-124.5 85t-84.5 124.5t-30 149q-1 78 30 149t84.5 124.5t124.5 85t149 29.5q78 2 149 -29.5t125 -85t85.5 -124.5t29.5 -149zM742 333q2 61 -22.5 116.5t-66.5 97.5t-98 66.5t-117 23.5
q-61 2 -116.5 -22.5t-97.5 -66.5t-66 -98t-23 -117q-1 -61 23 -117t66 -98t97.5 -66t116.5 -23q62 -1 117.5 23t97.5 66t66 98t23 117zM442 225l125 1v-73l-237 -1v60l145 135q16 15 22 26t6 25q0 25 -14.5 39t-40.5 15q-56 -2 -56 -62h-71q-1 29 8 53.5t26 42t41.5 27.5
t53.5 10q55 0 90 -33t35 -90q0 -32 -14.5 -56t-48.5 -56z" />
    <glyph glyph-name="uni2782" unicode="&#x2782;" horiz-adv-x="877" 
d="M827 333q2 -78 -29.5 -149t-85.5 -124.5t-125 -85t-149 -29.5q-78 -2 -149 29.5t-124.5 85t-84.5 124.5t-30 149q-1 78 30 149t84.5 124.5t124.5 85t149 29.5q78 2 149 -29.5t125 -85t85.5 -124.5t29.5 -149zM742 333q2 61 -22.5 116.5t-66.5 97.5t-98 66.5t-117 23.5
q-61 2 -116.5 -22.5t-97.5 -66.5t-66 -98t-23 -117q-1 -61 23 -117t66 -98t97.5 -66t116.5 -23q62 -1 117.5 23t97.5 66t66 98t23 117zM568 258q0 -57 -36 -91t-93 -34q-29 0 -53.5 10.5t-41.5 28.5t-26 42.5t-8 52.5h69q-1 -30 15 -48t45 -18q24 0 41 16t17 41
q0 30 -18.5 45.5t-46.5 14.5h-54l-1 49l64 69h-116v74h226v-57l-74 -77q40 -10 65.5 -41t25.5 -77z" />
    <glyph glyph-name="uni2783" unicode="&#x2783;" horiz-adv-x="877" 
d="M827 333q2 -78 -29.5 -149t-85.5 -124.5t-125 -85t-149 -29.5q-78 -2 -149 29.5t-124.5 85t-84.5 124.5t-30 149q-1 78 30 149t84.5 124.5t124.5 85t149 29.5q78 2 149 -29.5t125 -85t85.5 -124.5t29.5 -149zM742 333q2 61 -22.5 116.5t-66.5 97.5t-98 66.5t-117 23.5
q-61 2 -116.5 -22.5t-97.5 -66.5t-66 -98t-23 -117q-1 -61 23 -117t66 -98t97.5 -66t116.5 -23q62 -1 117.5 23t97.5 66t66 98t23 117zM522 290h45v-72h-45v-67h-74v67l-171 1v72l171 228h74v-229zM448 291v108l-81 -108h81z" />
    <glyph glyph-name="uni2784" unicode="&#x2784;" horiz-adv-x="877" 
d="M50 333q-1 78 30 149t84.5 124.5t124.5 85t149 29.5q78 2 149 -29.5t125 -85t85.5 -124.5t29.5 -149q2 -78 -29.5 -149t-85.5 -124.5t-125 -85t-149 -29.5q-78 -2 -149 29.5t-124.5 85t-84.5 124.5t-30 149zM742 333q2 61 -22.5 116.5t-66.5 97.5t-98 66.5t-117 23.5
q-61 2 -116.5 -22.5t-97.5 -66.5t-66 -98t-23 -117q-1 -61 23 -117t66 -98t97.5 -66t116.5 -23q62 -1 117.5 23t97.5 66t66 98t23 117zM376 277q-3 -27 13.5 -46t44.5 -19q26 0 43.5 17t17.5 42q0 29 -17.5 46.5t-46.5 17.5q-16 0 -30.5 -8t-19.5 -19l-68 17l46 185h196v-73
h-139l-11 -40q12 4 34 4q27 0 50.5 -10t41 -27.5t27 -41.5t9.5 -53q0 -27 -10.5 -50.5t-29 -41t-42.5 -28t-51 -10.5q-29 0 -53.5 11t-42.5 29.5t-27 44t-8 53.5h73z" />
    <glyph glyph-name="uni2785" unicode="&#x2785;" horiz-adv-x="877" 
d="M50 333q-1 78 30 149t84.5 124.5t124.5 85t149 29.5q78 2 149 -29.5t125 -85t85.5 -124.5t29.5 -149q2 -78 -29.5 -149t-85.5 -124.5t-125 -85t-149 -29.5q-78 -2 -149 29.5t-124.5 85t-84.5 124.5t-30 149zM742 333q2 61 -22.5 116.5t-66.5 97.5t-98 66.5t-117 23.5
q-61 2 -116.5 -22.5t-97.5 -66.5t-66 -98t-23 -117q-1 -61 23 -117t66 -98t97.5 -66t116.5 -23q62 -1 117.5 23t97.5 66t66 98t23 117zM438 516q86 -2 126 -70l-54 -36q-25 37 -68 37q-27 0 -50.5 -19t-29.5 -54q13 18 34 27.5t44 8.5q56 2 89 -38q34 -37 34 -92
q0 -30 -9.5 -55t-27.5 -44t-43.5 -29.5t-56.5 -10.5q-67 1 -103 52q-35 53 -35 126q0 58 21 109q16 38 51.5 62.5t77.5 25.5zM426 210q27 0 46 18.5t19 48.5q0 28 -18 46t-44 18q-25 0 -43.5 -18.5t-18.5 -47.5q0 -30 16.5 -47.5t42.5 -17.5z" />
    <glyph glyph-name="uni2786" unicode="&#x2786;" horiz-adv-x="877" 
d="M827 333q2 -78 -29.5 -149t-85.5 -124.5t-125 -85t-149 -29.5q-78 -2 -149 29.5t-124.5 85t-84.5 124.5t-30 149q-1 78 30 149t84.5 124.5t124.5 85t149 29.5q78 2 149 -29.5t125 -85t85.5 -124.5t29.5 -149zM742 333q2 61 -22.5 116.5t-66.5 97.5t-98 66.5t-117 23.5
q-61 2 -116.5 -22.5t-97.5 -66.5t-66 -98t-23 -117q-1 -61 23 -117t66 -98t97.5 -66t116.5 -23q62 -1 117.5 23t97.5 66t66 98t23 117zM308 510h267v-77q-65 -47 -95 -109q-31 -63 -35 -101q-2 -20 -3 -40t-1 -40h-78q0 178 112 290h-167v77z" />
    <glyph glyph-name="uni2787" unicode="&#x2787;" horiz-adv-x="877" 
d="M50 333q-1 78 30 149t84.5 124.5t124.5 85t149 29.5q78 2 149 -29.5t125 -85t85.5 -124.5t29.5 -149q2 -78 -29.5 -149t-85.5 -124.5t-125 -85t-149 -29.5q-78 -2 -149 29.5t-124.5 85t-84.5 124.5t-30 149zM742 333q2 61 -22.5 116.5t-66.5 97.5t-98 66.5t-117 23.5
q-61 2 -116.5 -22.5t-97.5 -66.5t-66 -98t-23 -117q-1 -61 23 -117t66 -98t97.5 -66t116.5 -23q62 -1 117.5 23t97.5 66t66 98t23 117zM303 255q0 27 13.5 51t35.5 38q-38 30 -38 73q0 21 9 40t24.5 33.5t38 23.5t49.5 9t49 -9t37.5 -23.5t24.5 -33t9 -39.5q-2 -46 -39 -74
q22 -14 35.5 -38t13.5 -50q0 -22 -9 -42t-26 -35.5t-41.5 -25t-56.5 -9.5q-60 0 -94.5 33t-34.5 78zM485 417q0 15 -13.5 26t-37.5 11q-25 0 -38 -11t-14 -27q0 -16 14 -27.5t38 -11.5q25 0 39 12.5t12 27.5zM494 259q0 20 -16 34t-44 14t-44 -14t-16 -33t16 -33.5t44 -14.5
t44 14t16 33z" />
    <glyph glyph-name="uni2788" unicode="&#x2788;" horiz-adv-x="877" 
d="M50 333q-1 78 30 149t84.5 124.5t124.5 85t149 29.5q78 2 149 -29.5t125 -85t85.5 -124.5t29.5 -149q2 -78 -29.5 -149t-85.5 -124.5t-125 -85t-149 -29.5q-78 -2 -149 29.5t-124.5 85t-84.5 124.5t-30 149zM742 333q2 61 -22.5 116.5t-66.5 97.5t-98 66.5t-117 23.5
q-61 2 -116.5 -22.5t-97.5 -66.5t-66 -98t-23 -117q-1 -61 23 -117t66 -98t97.5 -66t116.5 -23q62 -1 117.5 23t97.5 66t66 98t23 117zM428 247q-24 0 -46.5 8.5t-39.5 25t-27.5 40.5t-10.5 54q0 29 10.5 54.5t29 44t42.5 29t51 10.5q51 0 85.5 -28t44.5 -76q5 -23 8 -44.5
t3 -41.5q0 -80 -39 -133q-37 -52 -110 -52q-38 0 -70 18t-53 53l59 34q11 -18 29.5 -27t38.5 -8q27 2 48 21.5t27 54.5q-11 -18 -34 -27.5t-46 -9.5zM443 446q-28 1 -48.5 -18t-20.5 -49q0 -31 18.5 -49t44.5 -18t44.5 19t19.5 50q-2 26 -17.5 44.5t-40.5 20.5z" />
    <glyph glyph-name="DegarismLogo" horiz-adv-x="1528" 
d="M731 275h229v-267h-82l-10 80h-9q0 -3 -7 -18t-23.5 -30.5t-44.5 -28t-71 -11.5q-95 0 -155 64q-60 65 -60 189q0 65 19.5 113.5t52 80.5t75 48t88.5 16q37 0 73.5 -10.5t67 -32.5t52.5 -55t29 -78h-113q-10 36 -37.5 57.5t-69.5 21.5q-63 0 -94.5 -44.5t-31.5 -112.5
q0 -34 7.5 -63.5t23 -51t39 -33.5t54.5 -12q43 0 73 23t38 60h-113v95zM997 457q0 22 16 38t39 16t38.5 -15.5t15.5 -38.5t-16 -39t-38 -16t-38.5 16.5t-16.5 38.5zM1135 457q0 22 16 38t39 16t38.5 -15.5t15.5 -38.5t-16 -39t-38 -16t-38.5 16.5t-16.5 38.5zM1276 511h84
v-21h-30v-85h-25v85h-29v21zM1488 511v-106h-25v91l-15 -91h-35l-14 91v-91h-25v106h44l12 -88l14 88h44zM464 257q0 -124 -61 -186.5t-169 -62.5h-194v498h194q108 0 169 -62.5t61 -186.5zM354 257q0 96 -42 127q-40 31 -78 31h-66q-25 2 -42.5 12t-19.5 12l-8 -8
q3 -3 11.5 -11t18.5 -19q15 -13 18.5 -29t3.5 -27v-177q0 -25 -10 -39.5t-12 -16.5l-30 -30l8 -7q3 3 22.5 13.5t47.5 10.5h58q39 0 79 30q41 32 41 128zM1210 345q18 0 34 -3v-89q-4 1 -18 1q-49 0 -76.5 -25.5t-27.5 -80.5v-140h-108v257q0 49 -7 77h109q2 -10 2.5 -20
t1.5 -20q22 43 90 43z" />
    <glyph glyph-name="G.ss01" horiz-adv-x="784" 
d="M729 395v-87q0 -67 -23.5 -125.5t-67 -101.5t-106 -68t-139.5 -25q-79 0 -144.5 26.5t-112 75.5t-72 118.5t-25.5 154.5t25.5 155t72.5 119.5t112.5 77t145.5 27.5q112 0 196 -52t123 -146l-122 -46q-27 60 -78.5 91t-118.5 31q-50 0 -91.5 -17.5t-71.5 -50.5t-46.5 -81
t-16.5 -108t16 -107t45.5 -79.5t71 -49.5t92.5 -17q82 0 138 45t65 130h-218v110h350z" />
    <glyph glyph-name="a.ss01" horiz-adv-x="630" 
d="M446 0q-3 16 -4.5 32t-2.5 32q-24 -37 -67.5 -57t-97.5 -20q-55 0 -99 19t-75.5 53t-48.5 81t-17 104q0 58 17 106.5t48.5 83.5t76.5 54.5t101 19.5q54 0 97 -19.5t67 -54.5l5 59h109v-377q0 -23 3 -61q3 -39 6 -55h-118zM433 248q0 35 -10.5 63t-29.5 48t-44.5 31
t-55.5 11q-60 0 -99.5 -41.5t-39.5 -111.5t40 -111q41 -42 99 -42q29 0 54.5 11t44.5 31t30 48.5t11 62.5z" />
    <glyph glyph-name="ampersand.ss02" horiz-adv-x="722" 
d="M702 0q-36 0 -61 1.5t-44 7.5t-34 18t-32 33q-83 -71 -213 -71q-60 0 -108.5 15t-83 42.5t-53.5 67.5t-19 90q0 39 11 71.5t32 60.5t52 53.5t70 50.5q-35 43 -51.5 76.5t-16.5 70.5q0 32 12 60.5t34.5 49.5t54 33.5t69.5 12.5q36 0 66 -11t51 -31t33 -47.5t12 -60.5
q0 -45 -29 -85.5t-84 -82.5l150 -184q14 40 14 82q0 17 -1 22h105q3 -116 -40 -199l5 -7q12 -18 26 -25.5t28 -9t26 -0.5t19 0v-104zM261 587q0 -16 11 -35.5t39 -53.5q71 47 71 89q0 27 -16.5 43t-43.5 16t-44 -16t-17 -43zM280 366q-57 -37 -86 -71.5t-29 -82.5
q0 -58 45 -90q45 -30 105 -30q84 1 144 55z" />
    <glyph glyph-name="at.ss04" horiz-adv-x="952" 
d="M903 384q0 -58 -15.5 -108.5t-43.5 -88t-65.5 -59t-81.5 -21.5q-48 0 -80.5 23.5t-40.5 61.5q-17 -33 -57 -55t-89 -22q-64 0 -104 35.5t-40 95.5q0 63 45 101.5t120 38.5h129q3 18 3 34q0 80 -88 80q-49 0 -79.5 -20t-49.5 -59l-53 20q27 60 74.5 87t104.5 27
q72 0 112.5 -37t40.5 -106q0 -11 -0.5 -19.5t-1.5 -13.5l-18 -130q-1 -4 -1 -17q0 -35 19 -56t53 -21q33 0 60 19t46.5 50.5t30 72.5t10.5 84q1 66 -24 123.5t-69.5 100t-105 66.5t-129.5 23q-76 2 -147 -28t-126 -81t-89.5 -118t-39.5 -141q-1 -5 -1 -13v-18
q-1 -72 26 -135t75 -109.5t114 -73t143 -25.5q78 0 151 26t131 77l34 -43q-66 -55 -152 -84t-174 -29q-90 -2 -165.5 29t-130 84.5t-84.5 126t-29 153.5v19.5t1 14.5q5 86 43.5 163.5t101.5 135.5t145 91.5t173 31.5q84 2 155.5 -26.5t123.5 -78t81 -116.5t28 -143zM474 333
q-67 0 -96.5 -24t-29.5 -63q0 -38 24.5 -56.5t66.5 -18.5q122 0 136 162h-101z" />
    <glyph glyph-name="bracketleftsuperior" horiz-adv-x="208" 
d="M203 220h-160v657h160v-64h-82v-529h82v-64z" />
    <glyph glyph-name="bracketrightsuperior" horiz-adv-x="203" 
d="M82 284v529h-82v64h160v-657h-160v64h82z" />
    <glyph glyph-name="eight.dnom" horiz-adv-x="337" 
d="M37 100q0 28 13 52t36 38q-38 29 -38 74q0 20 8.5 39t24.5 34t38.5 24t49.5 9t49 -8.5t38 -23.5t24.5 -34.5t8.5 -40.5q0 -44 -38 -73q22 -14 36 -38t14 -50q0 -22 -9 -42t-26 -36t-41.5 -25.5t-55.5 -9.5t-55.5 9.5t-41.5 25t-26 35.5t-9 41zM221 262q0 15 -13.5 26.5
t-38.5 11.5t-39 -11.5t-13 -26.5q0 -16 13.5 -27.5t38.5 -11.5q24 0 38 11.5t14 27.5zM230 107q0 18 -16 32t-45 14q-30 0 -46 -14.5t-15 -33.5q0 -20 16 -33.5t45 -13.5t45 14t16 35z" />
    <glyph glyph-name="eight.numr" horiz-adv-x="335" 
d="M37 448q0 26 13.5 50t35.5 38q-38 32 -38 74q0 20 8.5 39t24.5 33.5t38.5 23.5t49.5 9t49 -8.5t37.5 -23t24.5 -33t9 -39.5q-1 -45 -39 -75q22 -14 35.5 -37.5t13.5 -49.5q0 -22 -9 -42.5t-26 -36t-41.5 -25t-54.5 -9.5q-31 0 -55 9.5t-41 25t-26 35.5t-9 42zM219 610
q0 15 -14 26t-37 11q-24 0 -37.5 -11.5t-14.5 -27.5q0 -15 14 -27t38 -12q25 1 39 13t12 28zM228 452q0 19 -16 33t-44 14t-44 -13.5t-16 -32.5t16 -33.5t44 -14.5t44 14t16 33z" />
    <glyph glyph-name="eight.tf" horiz-adv-x="636" 
d="M581 199q0 -48 -19.5 -86.5t-55 -66.5t-84 -43t-105.5 -15t-105.5 15t-83.5 43t-54.5 66.5t-19.5 86.5q0 66 35.5 117.5t98.5 72.5q-48 21 -74.5 63t-26.5 96q0 46 18 82.5t49 61.5t73 38t91 13q48 0 90 -13t73 -37.5t49 -60.5t18 -82q0 -57 -27 -99.5t-76 -61.5
q66 -20 101 -72t35 -118zM193 537q0 -45 33 -73t91 -28q57 0 90 27t33 72q0 48 -34 75t-89 27t-89.5 -26t-34.5 -74zM459 215q0 54 -39.5 84.5t-102.5 30.5q-61 0 -101 -30t-40 -84q0 -57 39.5 -87.5t102.5 -30.5q61 0 101 31t40 86z" />
    <glyph glyph-name="five.dnom" horiz-adv-x="344" 
d="M111 129q-3 -28 14 -47t45 -19q27 0 45 17t18 43q0 29 -18 47t-47 18q-17 0 -32 -8t-20 -19l-70 18l47 189h202v-75h-143l-11 -41q20 5 34 5q58 0 95 -38t37 -98q0 -27 -10.5 -51t-29 -42.5t-43.5 -29t-54 -10.5q-30 0 -55 11t-43 30.5t-27 45t-8 54.5h74z" />
    <glyph glyph-name="five.numr" horiz-adv-x="338" 
d="M110 477q-3 -27 13.5 -46t44.5 -19q26 0 43.5 17t17.5 42q0 29 -17.5 46.5t-46.5 17.5q-16 0 -30.5 -8t-19.5 -19l-68 17l46 185h196v-73h-139l-11 -40q12 4 34 4q27 0 50.5 -10t41 -27.5t27 -41.5t9.5 -53q0 -27 -10.5 -50.5t-29 -41t-42.5 -28t-51 -10.5
q-29 0 -53.5 11t-42.5 29.5t-27 44t-8 53.5h73z" />
    <glyph glyph-name="five.tf" horiz-adv-x="642" 
d="M596 246q0 -56 -20 -103.5t-56 -82t-85.5 -53.5t-108.5 -19q-58 0 -107 19t-85 52.5t-56 80.5t-20 103h123q0 -66 40.5 -105t106.5 -39q29 0 55.5 11t46 30.5t31 46.5t11.5 60q0 67 -40.5 108t-103.5 41q-43 0 -77.5 -17t-56.5 -47l-114 16l93 382h373v-119h-278
l-39 -143q50 31 120 31q57 0 102.5 -19.5t77.5 -54t49.5 -80.5t17.5 -99z" />
    <glyph glyph-name="four.dnom" horiz-adv-x="369" 
d="M332 61h-47v-68h-75v69h-173v74l173 232h75v-232h47v-75zM210 136v111l-81 -111h81z" />
    <glyph glyph-name="four.numr" horiz-adv-x="363" 
d="M327 409h-46v-67h-74v68h-170v72l170 228h74v-228h46v-73zM207 482v109l-80 -109h80z" />
    <glyph glyph-name="four.ss03" horiz-adv-x="674" 
d="M649 138h-93v-138h-116v138l-388 1v117h388v348l-249 -348h-139l338 474h140h26v-474h93v-118z" />
    <glyph glyph-name="four.tf" horiz-adv-x="642" 
d="M599 138h-91v-138h-118v138l-348 1v110l298 481h140l-300 -481h210v196h118v-197h91v-110z" />
    <glyph glyph-name="g.ss02" horiz-adv-x="620" 
d="M556 493v-475q0 -62 -18 -110t-51.5 -81t-80.5 -50.5t-106 -17.5q-96 0 -160 45t-92 123l105 39q13 -48 53 -74t97 -26q67 0 102 38.5t35 105.5v71q-23 -33 -67 -52t-99 -19q-54 0 -97.5 18t-75 51t-48.5 78.5t-17 100.5t17 101t48.5 79.5t76 52t99.5 18.5t99.5 -19.5
t67.5 -56.5l6 60h106zM436 260q0 32 -10 58.5t-29 45.5t-45 30t-58 11q-63 0 -100.5 -40.5t-37.5 -104.5q0 -32 10 -59t28 -46.5t43.5 -30.5t56.5 -11q62 0 102 42q40 41 40 105z" />
    <glyph glyph-name="i.loclTRK" horiz-adv-x="230" 
d="M174 493v-493h-118v493h118zM43 629q0 30 21.5 51.5t50.5 21.5t50.5 -22t21.5 -51t-21.5 -50.5t-50.5 -21.5q-30 0 -51 21t-21 51z" />
    <glyph glyph-name="i.ss04" horiz-adv-x="270" 
d="M219 656l-84 -84l-84 84l84 83zM194 493v-493h-119v493h119z" />
    <glyph glyph-name="nine.dnom" horiz-adv-x="353" 
d="M164 98q-24 1 -47 9.5t-41 25t-28.5 41t-10.5 55.5q0 60 38 101t95 41q51 0 87 -29t46 -78q12 -46 12 -92q0 -39 -9.5 -73t-28 -58.5t-46 -39t-63.5 -14.5q-81 0 -128 72l59 36q11 -19 29.5 -28.5t37.5 -9.5q28 0 51 21t27 59q-11 -18 -33.5 -28.5t-46.5 -10.5zM172 302
q-26 0 -45.5 -19t-19.5 -49q1 -33 19.5 -51t45.5 -18t46 19t18 52q-2 28 -19 47t-45 19z" />
    <glyph glyph-name="nine.numr" horiz-adv-x="348" 
d="M162 447q-24 0 -46.5 8.5t-40 25t-28 40.5t-10.5 54q0 29 10.5 54.5t28 44t41.5 29t51 10.5q49 0 84.5 -28t46.5 -76q12 -45 12 -89q0 -39 -9.5 -72.5t-28 -58t-46 -38t-63.5 -13.5q-38 0 -70 18t-53 53l58 34q11 -18 29.5 -27t38.5 -8q28 2 48.5 21.5t25.5 54.5
q-11 -18 -33.5 -27.5t-45.5 -9.5zM174 646q-27 1 -47 -17t-20 -48q0 -32 18.5 -50.5t44.5 -18.5t44.5 19t18.5 50q-2 26 -17.5 44.5t-41.5 20.5z" />
    <glyph glyph-name="nine.tf" horiz-adv-x="670" 
d="M619 374q0 -80 -19.5 -150.5t-60 -123t-102.5 -83t-146 -30.5q-69 0 -126 22t-96 60l74 86q36 -29 74 -41.5t80 -12.5q94 0 146 61q54 61 57 160q-26 -45 -75.5 -70.5t-112.5 -25.5q-55 0 -103 18t-83.5 51t-55.5 79t-20 102q0 57 20 106t56 85t85.5 56t107.5 20
q77 0 133 -29t93.5 -79.5t55.5 -117.5t18 -143zM473 480q0 71 -44 112q-43 42 -106 42t-107 -42q-43 -40 -43 -112q0 -34 11.5 -62.5t31.5 -48t47.5 -30.5t60.5 -11q32 0 59 11t47 30.5t31.5 48t11.5 62.5z" />
    <glyph glyph-name="one.dnom" horiz-adv-x="222" 
d="M37 335l74 32v-77l-74 -28v73zM185 367v-367h-74v367h74z" />
    <glyph glyph-name="one.numr" horiz-adv-x="222" 
d="M37 677l74 33v-77l-74 -29v73zM185 710v-367h-74v367h74z" />
    <glyph glyph-name="one.tf" horiz-adv-x="567" 
d="M515 104v-104h-267h-154v104h154v501l-134 -72v119l134 78h121v-626h146z" />
    <glyph glyph-name="registered.ss01" horiz-adv-x="532" 
d="M492 498q0 -47 -18 -88t-48.5 -72t-71.5 -48.5t-87 -17.5q-47 0 -88.5 17.5t-72 48.5t-48.5 72t-18 88q0 46 18 87t48.5 71.5t72 48.5t88.5 18q46 0 87 -18t71.5 -48.5t48.5 -71.5t18 -87zM447 498q0 38 -14 70.5t-38.5 57t-57.5 38.5t-70 14q-38 0 -71 -14t-57.5 -38.5
t-38.5 -57t-14 -70.5t14 -71t38 -57t57 -38t72 -14q37 0 70 14t57.5 38t38.5 57t14 71zM348 397h-50l-33 77h-22v-77h-44v202h44h24q36 2 56 -12.5t21 -43.5v-4v-6q-2 -39 -33 -52zM243 513h35q18 1 18 20l1 2v4q-1 18 -30 18h-24v-44z" />
    <glyph glyph-name="seven.dnom" horiz-adv-x="341" 
d="M304 368v-77q-65 -48 -95 -110q-31 -63 -35 -102q-2 -20 -3.5 -39.5t-1.5 -39.5h-77q0 179 112 291h-167v77h267z" />
    <glyph glyph-name="seven.numr" horiz-adv-x="340" 
d="M303 710v-77q-65 -47 -95 -109q-31 -63 -35 -101q-2 -20 -3 -40t-1 -40h-77q0 178 112 290h-167v77h266z" />
    <glyph glyph-name="seven.tf" horiz-adv-x="584" 
d="M540 729v-122q-126 -99 -185 -224q-59 -129 -71 -219q-12 -91 -12 -164h-121q0 34 2.5 72.5t7.5 82.5q5 45 21.5 98.5t42.5 117.5q53 129 164 236h-352v122h503z" />
    <glyph glyph-name="six.dnom" horiz-adv-x="360" 
d="M319 129q0 -28 -10 -53.5t-28 -44.5t-43.5 -30t-57.5 -11q-36 0 -63 14t-44.5 39t-26.5 59.5t-9 75.5q0 82 41 138q42 55 119 55q85 -2 126 -62l-57 -40q-24 31 -69 31q-34 0 -55 -19t-29 -49q14 16 35 23.5t45 7.5q57 0 91 -40q35 -40 35 -94zM241 123q0 30 -18 48.5
t-45 18.5t-44.5 -18.5t-17.5 -49.5t17.5 -48t44.5 -17q26 0 44.5 17.5t18.5 48.5z" />
    <glyph glyph-name="six.numr" horiz-adv-x="359" 
d="M319 475q0 -58 -38 -99q-37 -40 -101 -40q-36 0 -63 14t-44.5 39t-26.5 59.5t-9 74.5q0 81 41 137q42 55 117 55q45 0 76.5 -16.5t50.5 -45.5l-56 -39q-12 15 -30.5 23t-38.5 8q-34 0 -55 -19t-29 -49q14 15 35 22.5t45 7.5q57 0 91 -39q35 -40 35 -93zM241 468
q0 30 -18 48.5t-45 18.5t-44.5 -18.5t-17.5 -48.5q0 -31 17.5 -48t44.5 -17q26 0 44.5 17.5t18.5 47.5z" />
    <glyph glyph-name="six.tf" horiz-adv-x="661" 
d="M616 254q0 -57 -20 -105.5t-56 -84.5t-85 -56.5t-108 -20.5q-76 -1 -133 28.5t-94 80t-55 118.5t-18 143q0 80 20 150t60.5 122.5t102.5 83t146 30.5q67 0 124.5 -21t96.5 -60l-73 -86q-32 26 -73.5 40t-81.5 14q-46 0 -83 -17t-63 -46.5t-40 -70t-16 -87.5
q26 46 76.5 71t113.5 25q55 -1 102.5 -19t82 -50.5t54.5 -78.5t20 -103zM494 251q0 69 -44 110q-43 42 -108 42q-31 0 -58.5 -11t-47.5 -30.5t-31.5 -47.5t-11.5 -63q0 -36 11.5 -64t31.5 -48t47.5 -30.5t59.5 -10.5q63 0 107 41t44 112z" />
    <glyph glyph-name="t.ss03" horiz-adv-x="373" 
d="M334 0q-49 -11 -86 -11q-73 0 -115.5 39.5t-42.5 123.5v241h-76v100h76v154h117v-154h114v-100h-114v-220q0 -80 62 -80q21 0 50 10z" />
    <glyph glyph-name="three.dnom" horiz-adv-x="337" 
d="M301 122q0 -54 -39 -92q-37 -37 -95 -37q-30 0 -54.5 11t-42 29.5t-26.5 44t-7 53.5h74q-1 -3 -1 -12q0 -23 15.5 -38t41.5 -15q25 0 42 15.5t17 41.5q0 25 -17 40.5t-41 15.5q-14 0 -33 -8l-29 57v1l65 66h-120v73h234v-64l-66 -64q36 -14 59 -45t23 -73z" />
    <glyph glyph-name="three.numr" horiz-adv-x="331" 
d="M294 464q0 -53 -38 -91q-37 -36 -91 -36q-28 0 -52.5 10.5t-42 29t-26.5 43.5t-7 53h73q-1 -3 -1 -12q0 -23 16 -37.5t40 -14.5q23 0 39.5 16t16.5 39q0 30 -20 45q-15 12 -36 12q-18 0 -31 -7l-30 57h1l63 65h-117v74h230v-64l-64 -64q33 -16 49 -37q28 -34 28 -81z" />
    <glyph glyph-name="three.tf" horiz-adv-x="605" 
d="M550 230q0 -55 -20 -100t-55 -76.5t-81.5 -49t-100.5 -17.5t-100.5 17t-81 49t-54.5 77.5t-20 101.5h122q0 -60 38 -97t98 -37q58 0 95 36t37 96q0 55 -34 91.5t-97 39.5q-17 1 -31 1.5t-25 0.5h-53v81l184 176h-300v110h462v-106l-171 -162q42 -9 76.5 -29.5t59 -50.5
t38.5 -68.5t14 -83.5z" />
    <glyph glyph-name="two.dnom" horiz-adv-x="331" 
d="M44 73l133 113q24 20 33 32.5t9 28.5q0 24 -15 38.5t-40 14.5q-26 -1 -40.5 -15t-14.5 -39l1 -11h-73q-2 29 6.5 53.5t26 43t42.5 29t55 10.5q58 0 92.5 -33.5t34.5 -88.5q0 -35 -17.5 -62t-47.5 -52l-76 -63l136 1v-73l-245 -1v74z" />
    <glyph glyph-name="two.numr" horiz-adv-x="331" 
d="M44 414l133 113q25 21 33.5 33t8.5 29q0 24 -15 38t-40 14q-26 0 -40.5 -14t-14.5 -39l1 -11h-73q-2 29 6.5 53.5t26.5 43t43.5 29t56.5 10.5q57 -1 90.5 -34.5t33.5 -87.5q0 -35 -17 -62t-48 -53l-76 -63l136 1v-73h-245v73z" />
    <glyph glyph-name="two.tf" horiz-adv-x="607" 
d="M239 112h301v-110l-471 -2v119l282 247q48 42 64.5 74t16.5 64q0 60 -36.5 94.5t-91.5 34.5q-57 0 -93 -36.5t-36 -97.5h-123q0 57 18.5 102t52 77t80 49t102.5 17q59 0 105.5 -18.5t78.5 -51t49 -76.5t17 -94q0 -35 -8 -64t-23.5 -55.5t-39 -52t-53.5 -52.5z" />
    <glyph glyph-name="zero.dnom" horiz-adv-x="392" 
d="M194 -13q-72 0 -114.5 51t-42.5 138t43.5 138.5t118.5 51.5q72 0 114 -51.5t42 -138.5t-44 -138t-117 -51zM280 176q0 51 -20.5 80.5t-56.5 32.5l-7 1l-5 -1q-36 -2 -57.5 -32t-21.5 -81q0 -52 23 -82.5t61 -31.5q39 1 61.5 31.5t22.5 82.5z" />
    <glyph glyph-name="zero.numr" horiz-adv-x="394" 
d="M197 341q-73 0 -116.5 51.5t-43.5 139.5q0 43 11.5 78.5t32 60.5t50 38.5t65.5 13.5q74 2 117 -51q45 -52 45 -140q0 -43 -11.5 -78.5t-32.5 -60.5t-51 -38.5t-66 -13.5zM281 532q0 51 -21 81.5t-57 32.5h-6h-8q-35 -3 -55.5 -33t-20.5 -81q0 -54 22.5 -84t62.5 -31
q38 1 60.5 32t22.5 83z" />
    <glyph glyph-name="zero.tf" horiz-adv-x="720" 
d="M361 743q74 0 133 -27.5t100 -77.5t63 -120t22 -155q0 -84 -22.5 -153.5t-64 -119t-100 -76.5t-130.5 -27q-74 0 -133 27t-100 76.5t-63 119t-22 154.5q0 84 23 153.5t64.5 119.5t100 78t129.5 28zM361 97q91 0 143.5 69t52.5 198t-51.5 198.5t-141.5 69.5
q-91 0 -144.5 -69t-53.5 -199q0 -129 52 -197.5t143 -69.5z" />
    </font>
</defs>
</svg>
