<?xml version="1.0" standalone="no"?>
<!DOCTYPE svg PUBLIC "-//W3C//DTD SVG 1.1//EN" "http://www.w3.org/Graphics/SVG/1.1/DTD/svg11.dtd" >
<svg xmlns="http://www.w3.org/2000/svg" xmlns:xlink="http://www.w3.org/1999/xlink" version="1.1">
<metadata>
Created by FontForge 20201107 at Sun Apr 23 04:35:12 2017
 By 
Copyright (c) 2016 by Deni Anggara. All rights reserved.
</metadata>
<defs>
<font id="Biotif-ExtraBold" horiz-adv-x="0" >
  <font-face 
    font-family="Biotif Extra Bold"
    font-weight="800"
    font-stretch="normal"
    units-per-em="1000"
    panose-1="0 0 9 0 0 0 0 0 0 0"
    ascent="743"
    descent="-257"
    x-height="498"
    cap-height="737"
    bbox="-542 -260 1488 1128"
    underline-thickness="80"
    underline-position="-195"
    unicode-range="U+0020-FB02"
  />
<missing-glyph horiz-adv-x="553" 
d="M453 -236h-350v1105h350v-1105zM186 795v-36h71v-41h-72v-37h183v37h-73v41h73v36h-182zM185 652v-114h183v37h-73v77h-110zM257 575h-36v40h36v-40zM185 508v-37h72v-41h-72v-36h110v77h73v37h-183zM332 441v-73h-147v-37h183v110h-36zM257 307v-62h38v25h37v-52h-111
v89h-36v-125h183v125h-111zM185 115v-124h183v124h-183zM332 27h-111v52h111v-52zM185 -35v-36h77l-77 -52v-37h183v37h-113l78 52h35v36h-183z" />
    <glyph glyph-name="fi" unicode="fi" horiz-adv-x="659" 
d="M591 497v-497h-142v379h-225v-379h-143l-1 380h-68v118h68v47q0 106 51.5 155.5t145.5 49.5q18 0 34.5 -1.5t31.5 -3.5v-127q-25 5 -46 5q-42 0 -57.5 -20.5t-15.5 -57.5v-48h367zM439 665q0 35 24 59t59 24t59 -24t24 -59q0 -34 -24 -58.5t-59 -24.5t-59 24t-24 59z" />
    <glyph glyph-name="fl" unicode="fl" horiz-adv-x="655" 
d="M588 750v-750h-143v380h-221v-380h-143l-1 380h-68v118h68v47q0 106 51.5 155.5t145.5 49.5q18 0 34.5 -1.5t31.5 -3.5v-127q-25 5 -46 5q-42 0 -57.5 -20.5t-15.5 -57.5v-47h221v252h143z" />
    <glyph glyph-name="f_f" unicode="ff" horiz-adv-x="752" 
d="M673 623q-42 0 -57.5 -20.5t-15.5 -57.5v-47h100v-118h-100v-380h-143l-1 380h-232v-380h-143v380h-69v118h69l-1 47q0 105 51.5 155t145.5 50q18 0 34.5 -1.5t31.5 -3.5v-127q-25 5 -46 5q-42 0 -57.5 -20.5t-15.5 -57.5v-47h232v47q0 106 51.5 155.5t145.5 49.5
q18 0 34.5 -1.5t31.5 -3.5v-127q-11 2 -22.5 3.5t-23.5 1.5z" />
    <glyph glyph-name="f_f_i" unicode="ffi" horiz-adv-x="1035" 
d="M599 497h370v-497h-143v379h-227v-379h-143v380h-232v-380h-143l-1 380h-68v118h68v47q0 106 51.5 155.5t145.5 49.5q18 0 34.5 -1.5t31.5 -3.5v-127q-25 5 -46 5q-42 0 -57.5 -20.5t-15.5 -57.5v-47h231v47q0 106 51.5 155.5t145.5 49.5q18 0 34.5 -1.5t31.5 -3.5v-127
q-11 2 -22.5 3.5t-23.5 1.5q-42 0 -57.5 -20.5t-15.5 -57.5v-48zM815 665q0 35 24 59t59 24t59 -24t24 -59q0 -34 -24 -58.5t-59 -24.5q-34 0 -58.5 24.5t-24.5 58.5z" />
    <glyph glyph-name="f_f_l" unicode="ffl" horiz-adv-x="1032" 
d="M963 750v-750h-143v380h-221v-380h-143v380h-232v-380h-143l-1 380h-68v118h68v47q0 106 51.5 155.5t145.5 49.5q18 0 34.5 -1.5t31.5 -3.5v-127q-25 5 -46 5q-42 0 -57.5 -20.5t-15.5 -57.5v-47h231v47q0 106 51.5 155.5t145.5 49.5q18 0 34.5 -1.5t31.5 -3.5v-127
q-11 2 -22.5 3.5t-23.5 1.5q-42 0 -57.5 -20.5t-15.5 -57.5v-47h221v252h143z" />
    <glyph glyph-name="f_t" unicode="ft" horiz-adv-x="734" 
d="M723 380h-114v-380h-140v380h-245v-380h-143l-1 380h-68v118h68v47q0 106 51.5 155.5t145.5 49.5q18 0 34.5 -1.5t31.5 -3.5v-127q-25 5 -46 5q-42 0 -57.5 -20.5t-15.5 -57.5v-47h245v154h140v-154h114v-118z" />
    <glyph glyph-name="f_y" unicode="fy" horiz-adv-x="855" 
d="M846 498l-221 -592q-30 -79 -83.5 -114t-116.5 -35q-59 0 -116 26l37 120q13 -10 31 -16.5t37 -6.5q57 0 80 59l4 9l-1 -1l-168 433h-105v-380h-143l-1 380h-68v118h68v47q0 106 51.5 155.5t145.5 49.5q18 0 34.5 -1.5t31.5 -3.5v-127q-25 5 -46 5q-42 0 -57.5 -20.5
t-15.5 -57.5v-47h215l131 -359l123 359h153z" />
    <glyph glyph-name="t_i" unicode="ti" horiz-adv-x="625" 
d="M408 665q0 35 24 59t59 24t59 -24t24 -59q0 -34 -24 -58.5t-59 -24.5q-34 0 -58.5 24.5t-24.5 58.5zM561 0h-143v380h-171v-380h-140v380h-95v118h95v154h140v-154h314v-498z" />
    <glyph glyph-name="t_t" unicode="tt" horiz-adv-x="708" 
d="M696 380h-95v-380h-140v380h-95h-119v-380h-140v380h-95v118h95v154h140v-154h164h50v154h140v-154h95v-118z" />
    <glyph glyph-name="t_y" unicode="ty" horiz-adv-x="869" 
d="M860 498l-222 -592q-30 -79 -83.5 -114t-116.5 -35q-59 0 -116 26l37 120q13 -10 31.5 -16.5t37.5 -6.5q57 0 80 59l3 8l-169 433h-95v-380h-140v380h-95v118h95v154h140v-154h163h43l130 -360l124 360h153z" />
    <glyph glyph-name=".notdef" horiz-adv-x="553" 
d="M453 -236h-350v1105h350v-1105zM186 795v-36h71v-41h-72v-37h183v37h-73v41h73v36h-182zM185 652v-114h183v37h-73v77h-110zM257 575h-36v40h36v-40zM185 508v-37h72v-41h-72v-36h110v77h73v37h-183zM332 441v-73h-147v-37h183v110h-36zM257 307v-62h38v25h37v-52h-111
v89h-36v-125h183v125h-111zM185 115v-124h183v124h-183zM332 27h-111v52h111v-52zM185 -35v-36h77l-77 -52v-37h183v37h-113l78 52h35v36h-183z" />
    <glyph glyph-name=".null" 
 />
    <glyph glyph-name="nonmarkingreturn" horiz-adv-x="333" 
 />
    <glyph glyph-name="space" unicode=" " horiz-adv-x="267" 
 />
    <glyph glyph-name="exclam" unicode="!" horiz-adv-x="343" 
d="M109 180q-6 36 -10.5 68.5t-7.5 66t-4 69t-1 77.5v274h172v-274q0 -42 -1 -77.5t-4 -69t-7.5 -66t-11.5 -68.5h-125zM91 63q0 36 23.5 57.5t58.5 21.5t58 -21.5t23 -57.5t-23 -57t-58 -21q-36 0 -59 21t-23 57z" />
    <glyph glyph-name="quotedbl" unicode="&#x22;" horiz-adv-x="366" 
d="M135 419h-78l-24 198q-1 3 -1 13q0 32 18.5 48.5t45.5 16.5q25 0 44 -16.5t19 -49.5l-1 -12zM310 419h-78l-24 198l-1 12q0 32 18.5 49t45.5 17q25 0 44 -16.5t19 -49.5l-1 -12z" />
    <glyph glyph-name="numbersign" unicode="#" horiz-adv-x="736" 
d="M568 413l-17 -90h113l-27 -142h-114l-36 -181h-142l36 181h-109l-35 -181h-142l36 181h-93l28 142h93l18 90h-104l28 142h103l36 180h141l-35 -180h108l36 180h141l-35 -180h102l-28 -142h-102zM427 413h-109l-18 -90h109z" />
    <glyph glyph-name="dollar" unicode="$" horiz-adv-x="661" 
d="M389 -91h-104v83q-97 11 -154.5 63.5t-68.5 137.5l144 20q11 -67 79 -83v183l-22 6q-180 47 -180 209q0 84 56 145q55 61 146 75v71h104v-73q81 -13 132.5 -61t69.5 -120l-142 -36q-14 57 -60 76v-174l19 -5q91 -24 141 -77.5t50 -147.5q0 -85 -56.5 -140t-153.5 -68v-84
zM285 605q-25 -11 -38 -30.5t-13 -42.5q0 -52 51 -72v145zM453 209q-1 31 -17 48t-47 27v-153q34 9 49 30t15 48z" />
    <glyph glyph-name="percent" unicode="%" horiz-adv-x="939" 
d="M42 554q0 45 12 81.5t33.5 62.5t52.5 40t68 14q76 1 121.5 -53t45.5 -145q0 -45 -11.5 -81.5t-33.5 -62.5t-52.5 -40t-68.5 -14q-76 -1 -121.5 53t-45.5 145zM820 735l-560 -735h-140l560 735h140zM209 449q34 2 52.5 29t18.5 76q0 91 -61 102v-1q-2 1 -11 1q-8 0 -11 -1
v1q-29 -5 -45.5 -31t-16.5 -71q0 -48 19.5 -75.5t54.5 -29.5zM899 181q0 -45 -12 -81.5t-33.5 -62.5t-52.5 -40t-69 -14q-74 -1 -121 53q-46 55 -46 145q0 45 12 82t33.5 63t52.5 40t69 14q75 1 121 -54t46 -145zM804 181q0 45 -16 71.5t-45 30.5q-8 0 -11 1q-3 -1 -11 -1
q-29 -4 -45.5 -30.5t-16.5 -71.5q0 -49 19 -76t54 -28q35 1 53.5 28t18.5 76z" />
    <glyph glyph-name="ampersand" unicode="&#x26;" horiz-adv-x="758" 
d="M570 0l-38 46q-86 -59 -205 -59q-63 0 -113.5 16t-86 46t-54.5 71.5t-19 92.5q0 69 37.5 119.5t121.5 98.5q-21 26 -34.5 46t-21.5 38t-11.5 34.5t-3.5 34.5q0 81 55 123q55 43 136 43q42 0 76.5 -11.5t60 -32.5t39.5 -50.5t14 -65.5q0 -49 -30.5 -91.5t-100.5 -88.5
l128 -152q12 46 9 103h149q0 -131 -57 -223l117 -138h-168zM279 574q0 -18 10.5 -36.5t36.5 -49.5q60 41 60 85q0 23 -13 38.5t-40 15.5q-28 0 -41 -16t-13 -37zM284 345q-37 -26 -57.5 -59t-20.5 -66q0 -46 35.5 -77t98.5 -31q64 0 110 33z" />
    <glyph glyph-name="quotesingle" unicode="'" horiz-adv-x="271" 
d="M181 423h-90l-26 209q-1 3 -1 15q0 37 21 56t52 19q28 0 49.5 -19.5t21.5 -56.5q0 -11 -1 -14z" />
    <glyph glyph-name="parenleft" unicode="(" horiz-adv-x="329" 
d="M219 -107q-84 88 -130.5 212.5t-46.5 271.5q0 138 44.5 263.5t132.5 219.5h110q-66 -90 -104.5 -214t-38.5 -269q0 -137 36.5 -262.5t106.5 -221.5h-110z" />
    <glyph glyph-name="parenright" unicode=")" horiz-adv-x="326" 
d="M143 377q0 145 -38.5 269t-104.5 214h110q88 -94 132.5 -219.5t44.5 -263.5q0 -147 -46.5 -271.5t-130.5 -212.5h-110q70 96 106.5 221.5t36.5 262.5z" />
    <glyph glyph-name="asterisk" unicode="*" horiz-adv-x="426" 
d="M310 499l40 -62l-59 -40l-41 58q-15 19 -23 34.5t-16 36.5q-8 -30 -36 -71l-44 -58l-59 40l42 62q13 16 26.5 30.5t29.5 28.5q-47 5 -80 16l-68 25l26 67l66 -22q19 -8 36.5 -17t34.5 -20q-1 5 -5 28.5t-4 52.5v72h72v-72q0 -46 -9 -81q29 20 73 37l67 22l25 -67l-70 -25
q-31 -11 -79 -16q12 -10 25.5 -24.5t29.5 -34.5z" />
    <glyph glyph-name="plus" unicode="+" horiz-adv-x="661" 
d="M581 277h-190v-191h-120v191h-191v120h191v190h120v-190h190v-120z" />
    <glyph glyph-name="comma" unicode="," horiz-adv-x="293" 
d="M231 39q0 -32 -10.5 -60t-29 -49t-44 -33t-54.5 -12v43q31 1 50.5 21t18.5 44q-15 -5 -28 -5q-31 0 -50.5 20t-19.5 55q0 36 22 58.5t58 22.5q37 0 62 -25.5t25 -79.5z" />
    <glyph glyph-name="hyphen" unicode="-" horiz-adv-x="554" 
d="M493 341v-127h-432v127h432z" />
    <glyph glyph-name="period" unicode="." horiz-adv-x="302" 
d="M63 69q0 36 25.5 61.5t62.5 25.5q36 0 62 -25.5t26 -61.5q0 -35 -26.5 -60.5t-61.5 -25.5q-37 0 -62.5 25.5t-25.5 60.5z" />
    <glyph glyph-name="slash" unicode="/" horiz-adv-x="429" 
d="M287 735h142l-288 -735h-141z" />
    <glyph glyph-name="zero" unicode="0" horiz-adv-x="772" 
d="M386 750q75 0 134.5 -28t101 -78.5t63.5 -121t22 -156.5q0 -85 -23 -154.5t-65.5 -119.5t-101.5 -77.5t-131 -27.5q-75 0 -134.5 27.5t-101.5 77.5t-64 120t-22 155q-1 84 22.5 155t66 122t102.5 79t131 27zM386 118q82 0 127.5 64t45.5 185t-44.5 186t-126.5 65
q-85 0 -130.5 -64t-45.5 -188q0 -121 45 -184t129 -64z" />
    <glyph glyph-name="one" unicode="1" horiz-adv-x="444" 
d="M55 653l143 84h145v-737h-145v586l-143 -76v143z" />
    <glyph glyph-name="two" unicode="2" horiz-adv-x="614" 
d="M284 133h275v-131l-483 -2v138l268 236q46 42 62.5 72.5t16.5 60.5q0 54 -31.5 82.5t-76.5 28.5q-48 0 -80 -32t-32 -86h-147q0 58 19 104.5t53 78.5t82 49.5t105 17.5q62 0 109.5 -19.5t80 -52.5t49.5 -77.5t17 -94.5q-1 -41 -10 -72t-25.5 -58t-40 -51.5t-54.5 -52.5z
" />
    <glyph glyph-name="three" unicode="3" horiz-adv-x="601" 
d="M553 235q0 -56 -20.5 -102t-56.5 -78.5t-84.5 -50t-104.5 -17.5q-55 0 -102.5 17t-83 49.5t-55.5 79t-20 106.5h147q0 -57 31.5 -88.5t85.5 -31.5q52 0 84 31.5t32 85.5q0 51 -31 83t-94 33q-8 1 -20.5 1h-29.5h-58v96l164 156h-277v132h475v-122l-155 -147
q78 -24 125.5 -83.5t47.5 -149.5z" />
    <glyph glyph-name="four" unicode="4" horiz-adv-x="676" 
d="M64 272l285 465h168l-287 -465l175 -1v162h142v-162h94v-131h-94v-140h-142v140l-341 1v131z" />
    <glyph glyph-name="five" unicode="5" horiz-adv-x="658" 
d="M607 253q0 -58 -20.5 -107t-57.5 -84t-88.5 -54.5t-113.5 -19.5q-59 0 -109.5 19t-87.5 53.5t-58 83t-21 106.5h149q0 -61 36.5 -95.5t94.5 -34.5q24 0 47 9.5t41 26.5t28.5 42t10.5 55q0 63 -36.5 99.5t-90.5 36.5q-40 0 -72 -17t-50 -45l-138 18l95 392h387v-143h-272
l-31 -108q45 24 109 24q57 0 103 -20t78 -54.5t49.5 -81.5t17.5 -101z" />
    <glyph glyph-name="six" unicode="6" horiz-adv-x="690" 
d="M644 260q0 -58 -20.5 -107.5t-57 -86.5t-87.5 -58t-111 -21q-80 0 -138.5 30.5t-96.5 82t-56 119.5t-18 143q0 78 19.5 148.5t61 124t105 85t151.5 30.5q70 0 129 -21.5t98 -61.5l-88 -103q-30 23 -70 36.5t-77 13.5q-40 0 -73 -13t-57.5 -37t-38.5 -57t-17 -74
q26 38 72.5 58.5t106.5 20.5q57 0 105 -18t83 -51t55 -79.5t20 -103.5zM497 256q0 63 -38.5 99t-95.5 36q-28 0 -53 -9.5t-43 -26.5t-28.5 -42t-10.5 -57t10.5 -57.5t28.5 -43t43 -27t53 -9.5t52.5 9.5t42.5 27t28.5 43t10.5 57.5z" />
    <glyph glyph-name="seven" unicode="7" horiz-adv-x="570" 
d="M545 737v-132q-121 -92 -177 -215q-57 -123 -69 -216t-12 -174h-145q0 38 2.5 79t7.5 85q5 45 20.5 97.5t41.5 115.5q53 125 165 228h-354v132h520z" />
    <glyph glyph-name="eight" unicode="8" horiz-adv-x="649" 
d="M595 202q0 -48 -20 -87.5t-56 -67.5t-85.5 -43.5t-109.5 -15.5q-59 0 -108.5 15.5t-85.5 43.5t-56 67.5t-20 87.5q0 66 35 118t98 73q-46 20 -71.5 62t-25.5 97q0 46 18 83t49.5 62.5t74.5 39t93 13.5t92.5 -13.5t74 -38.5t49.5 -61.5t18 -82.5q0 -57 -26 -100t-74 -62
q66 -19 101 -71.5t35 -118.5zM216 535q0 -39 29 -63t78 -24t78 24t29 63q0 40 -29 64.5t-78 24.5q-48 0 -77.5 -24.5t-29.5 -64.5zM447 222q0 48 -34.5 75t-88.5 27t-88.5 -26.5t-34.5 -74.5q0 -49 34.5 -76.5t88.5 -27.5t88.5 27t34.5 76z" />
    <glyph glyph-name="nine" unicode="9" horiz-adv-x="696" 
d="M643 375q0 -78 -19.5 -148.5t-61 -124t-105.5 -85t-152 -30.5q-72 0 -130 22.5t-97 61.5l89 103q36 -28 70.5 -39t76.5 -11q78 0 130 50q51 50 56 131q-27 -38 -73.5 -59t-106.5 -21q-56 0 -104 18t-83.5 51t-55.5 79.5t-20 103.5q-1 57 19.5 107.5t58 87.5t88.5 58
t111 20q80 1 138 -30t96 -82.5t56.5 -120t18.5 -142.5zM473 481q0 66 -39 102t-95 36t-95 -36t-39 -102q0 -63 39 -98.5t96 -35.5t95 35.5t38 98.5z" />
    <glyph glyph-name="colon" unicode=":" horiz-adv-x="340" 
d="M82 431q0 36 25.5 61.5t62.5 25.5q36 0 62 -25.5t26 -61.5q0 -35 -26.5 -60.5t-61.5 -25.5q-37 0 -62.5 25.5t-25.5 60.5zM82 69q0 36 25.5 61.5t62.5 25.5q36 0 62 -25.5t26 -61.5q0 -35 -26.5 -60.5t-61.5 -25.5q-37 0 -62.5 25.5t-25.5 60.5z" />
    <glyph glyph-name="semicolon" unicode=";" horiz-adv-x="301" 
d="M64 431q0 36 25.5 61.5t61.5 25.5t62 -25.5t26 -61.5q0 -35 -26.5 -60.5t-61.5 -25.5q-36 0 -61.5 25.5t-25.5 60.5zM231 39q0 -32 -10.5 -60t-29 -49t-44 -33t-54.5 -12v43q31 1 50.5 20.5t18.5 44.5q-10 -5 -24 -5q-33 0 -53.5 20t-20.5 55q0 36 22 58.5t58 22.5
q37 0 62 -25.5t25 -79.5z" />
    <glyph glyph-name="less" unicode="&#x3c;" horiz-adv-x="436" 
d="M36 326l359 177v-156l-203 -96l203 -96v-156l-359 177v150z" />
    <glyph glyph-name="equal" unicode="=" horiz-adv-x="631" 
d="M501 481v-120h-391v120h391zM110 238h391v-120h-391v120z" />
    <glyph glyph-name="greater" unicode="&#x3e;" horiz-adv-x="442" 
d="M41 155l203 96l-203 96v156l359 -177v-150l-359 -177v156z" />
    <glyph glyph-name="question" unicode="?" horiz-adv-x="568" 
d="M537 519q0 -54 -19 -93q-18 -40 -43.5 -66t-65.5 -59q-38 -31 -56 -52t-21 -46v-22h-143v29q2 29 9.5 51.5t22 42t34.5 37.5t45 39q47 39 69.5 66.5t22.5 63.5q0 40 -27 68.5t-75 28.5q-51 0 -82.5 -32t-31.5 -77h-145q0 53 19.5 99t54 80t82 53.5t102.5 19.5
q51 0 96 -16.5t79 -46.5t53.5 -72.5t19.5 -95.5zM352 66q0 -33 -24 -56t-62 -23q-37 0 -61 23t-24 56t24 56.5t61 23.5t61.5 -23.5t24.5 -56.5z" />
    <glyph glyph-name="at" unicode="@" horiz-adv-x="973" 
d="M923 367q0 -65 -17.5 -121.5t-47 -98.5t-69.5 -66t-85 -24q-43 0 -73 22.5t-33 67.5q-25 -39 -68 -61t-100 -22q-46 0 -84 15.5t-65 44t-41.5 69t-14.5 89.5q0 23 3 47q8 56 31.5 103t58.5 81t78 52.5t89 18.5q54 0 96 -25t64 -67l14 76h77l-62 -361q-4 -16 -4 -35
q0 -35 26 -40q3 -1 11 -1q26 0 49.5 19t41.5 52.5t29 78t11 95.5q1 69 -24 125t-68 95.5t-100.5 61t-122.5 20.5q-79 2 -150.5 -29.5t-125 -85.5t-84 -125t-29.5 -149q-1 -66 21 -127.5t63.5 -109t101 -75t134.5 -26.5q67 0 137 21.5t128 60.5l35 -69q-62 -39 -145 -62
q-82 -24 -159 -24q-79 -1 -151.5 27t-128 81t-87.5 128t-31 167q-2 102 37 189t105 150t153 98t180 33q84 1 156.5 -27t126.5 -79.5t84.5 -122.5t28.5 -155zM609 327q3 23 3 42q0 72 -36 107.5t-90 35.5q-31 0 -60.5 -14t-53.5 -39.5t-40.5 -60.5t-22.5 -78
q-1 -12 -1.5 -20.5t-0.5 -13.5q0 -70 35.5 -109.5t93.5 -39.5q32 0 60.5 13t51.5 38t39 60t22 79z" />
    <glyph glyph-name="A" unicode="A" horiz-adv-x="695" 
d="M472 161h-251l-56 -161h-155l264 737h146h2l263 -737h-158zM429 286l-82 242l-83 -242h165z" />
    <glyph glyph-name="B" unicode="B" horiz-adv-x="662" 
d="M625 193q0 -92 -65.5 -142.5t-175.5 -50.5h-199h-107v735h148h159q53 0 96 -15t73 -41.5t46 -63.5t16 -81q0 -61 -27 -104t-72 -63q48 -23 78 -66.5t30 -107.5zM226 608v-186h144q48 0 73 27t25 65t-25 66t-74 28h-143zM478 218q0 42 -27.5 67.5t-72.5 25.5h-152v-184
h152q45 0 72.5 24.5t27.5 66.5z" />
    <glyph glyph-name="C" unicode="C" horiz-adv-x="756" 
d="M568 487q-18 58 -62.5 88t-107.5 30q-48 0 -85.5 -17t-64 -47.5t-40.5 -74.5t-14 -98q0 -109 55 -171t148 -62q66 0 116 31.5t70 82.5l141 -60q-37 -96 -127 -149q-88 -52 -201 -52q-81 0 -147 27t-113 76.5t-73 119.5t-26 155q0 86 26 156.5t73.5 121t114 78.5t147.5 28
q117 0 202 -59q84 -58 111 -156z" />
    <glyph glyph-name="D" unicode="D" horiz-adv-x="753" 
d="M716 367q1 -80 -27 -147.5t-78.5 -117t-118.5 -76.5t-146 -26h-268v737h268q77 1 144.5 -27t118 -78t79.5 -118t28 -147zM558 367q0 51 -15.5 93.5t-43.5 72.5t-67.5 47t-87.5 17h-117v-459h117q49 0 88.5 16.5t67.5 46.5t43 72.5t15 93.5z" />
    <glyph glyph-name="E" unicode="E" horiz-adv-x="598" 
d="M542 140v-140h-464v737h464v-142h-315v-157h280v-132h-280v-166h315z" />
    <glyph glyph-name="F" unicode="F" horiz-adv-x="576" 
d="M227 596v-169h266l-1 -134h-265v-293h-149v737h149h316l-1 -141h-315z" />
    <glyph glyph-name="G" unicode="G" horiz-adv-x="787" 
d="M730 431v-431h-128l-8 72q-33 -42 -91 -62.5t-122 -20.5q-77 -1 -140.5 27.5t-109 79.5t-70.5 120t-24 150q-1 83 25.5 153.5t74.5 122.5t115.5 80.5t149.5 27.5q118 0 206 -56q87 -56 119 -148l-134 -55q-23 61 -73 90t-116 29q-99 0 -158 -68q-58 -67 -58 -179
q0 -57 15 -100.5t42.5 -73.5t66 -45.5t85.5 -15.5q71 0 126 34q56 35 68 116v22h-206v131h345z" />
    <glyph glyph-name="H" unicode="H" horiz-adv-x="746" 
d="M78 737h149v-298l292 -1v299h150v-737h-150v305l-292 2v-307h-149v737z" />
    <glyph glyph-name="I" unicode="I" horiz-adv-x="305" 
d="M78 0v737h149v-737h-149z" />
    <glyph glyph-name="J" unicode="J" horiz-adv-x="565" 
d="M494 737v-532q0 -47 -17 -87t-47.5 -69.5t-74.5 -46t-98 -16.5q-57 0 -101.5 16t-74.5 45.5t-45.5 70.5t-15.5 91v26h144v-26q0 -36 23.5 -60t66.5 -24q45 0 67.5 23.5t22.5 65.5v523h150z" />
    <glyph glyph-name="K" unicode="K" horiz-adv-x="702" 
d="M404 368l279 -368h-194l-178 249l-83 -108v-144h-150v740h150v-360l270 360h194z" />
    <glyph glyph-name="L" unicode="L" horiz-adv-x="546" 
d="M520 134v-134h-418h-24v737h151v-603h291z" />
    <glyph glyph-name="M" unicode="M" horiz-adv-x="900" 
d="M822 737v-737h-147v403l-158 -403h-141l-156 400v-400h-142v737h142l227 -563l228 563h147z" />
    <glyph glyph-name="N" unicode="N" horiz-adv-x="774" 
d="M697 737v-737h-148l-323 499v-499h-148v737h148l323 -500v500h148z" />
    <glyph glyph-name="O" unicode="O" horiz-adv-x="785" 
d="M392 750q81 0 147 -28.5t113.5 -79t73.5 -120.5t26 -153q1 -82 -25 -152.5t-74 -121.5t-115 -79.5t-147 -27.5q-79 -1 -145.5 27.5t-114 79.5t-73.5 121t-25 152q-1 82 25 152.5t74 122t114.5 80t145.5 27.5zM393 134q94 0 148 63t54 172q0 111 -54 173.5t-148 62.5
t-148 -62.5t-54 -173.5t54 -173t148 -62z" />
    <glyph glyph-name="P" unicode="P" horiz-adv-x="649" 
d="M622 493q0 -55 -17 -100t-49 -77.5t-78 -50.5t-105 -18h-146v-247h-149v737h149h148q117 0 182 -65t65 -179zM465 496q0 45 -29.5 76.5t-89.5 31.5h-119v-227h119q60 0 89.5 34t29.5 85z" />
    <glyph glyph-name="Q" unicode="Q" horiz-adv-x="787" 
d="M734 -3h-152l-24 27q-73 -36 -163 -36q-79 -1 -145.5 27.5t-114 79.5t-73.5 121t-25 152q-1 82 25 152.5t74 122t114.5 80t145.5 27.5q79 1 145.5 -27.5t114.5 -80t74.5 -121.5t25.5 -152q0 -85 -26.5 -155.5t-77.5 -122.5zM364 243h154l33 -37q47 64 47 163q0 54 -14 98
t-40 74.5t-63 47t-84 16.5q-94 0 -148.5 -62.5t-54.5 -173.5t53.5 -173t149.5 -62q35 0 57 7z" />
    <glyph glyph-name="R" unicode="R" horiz-adv-x="681" 
d="M643 0h-167l-113 266h-136v-266h-149v737h284q138 -1 207 -61t69 -175q0 -75 -32.5 -129.5t-92.5 -80.5zM480 501q0 46 -28.5 74.5t-89.5 28.5h-135v-208h135q60 0 89 28.5t29 76.5z" />
    <glyph glyph-name="S" unicode="S" horiz-adv-x="609" 
d="M302 750q105 0 172.5 -50t83.5 -135l-141 -37q-9 42 -40.5 63.5t-77.5 21.5q-51 0 -78 -22.5t-27 -59.5q0 -59 76 -78l116 -29q100 -25 145.5 -79.5t45.5 -132.5q0 -51 -19 -92.5t-54.5 -71t-85 -45.5t-110.5 -16q-112 0 -189 53q-75 53 -89 142l141 36q7 -45 45.5 -69
t96.5 -24q55 0 85 21t30 58q0 58 -74 78l-118 28q-99 24 -145 80.5t-46 134.5q0 51 18 92.5t52 71t81.5 45.5t105.5 16z" />
    <glyph glyph-name="T" unicode="T" horiz-adv-x="593" 
d="M575 595h-204v-595h-149v595h-204v142h557v-142z" />
    <glyph glyph-name="U" unicode="U" horiz-adv-x="752" 
d="M72 737h149v-459q0 -70 42.5 -109t111.5 -39q65 0 111 41q45 41 45 107v459h149v-464q1 -67 -23 -120t-66 -90t-98 -56.5t-118 -18.5q-61 -1 -116.5 18.5t-97.5 56.5t-66 90.5t-23 119.5v464z" />
    <glyph glyph-name="V" unicode="V" horiz-adv-x="731" 
d="M721 737l-276 -737h-154l-281 737h163l195 -527l193 527h160z" />
    <glyph glyph-name="W" unicode="W" horiz-adv-x="1048" 
d="M1037 737l-224 -737h-145l-143 468l-147 -468h-146l-221 737h165l131 -476l136 476h166l132 -478l136 478h160z" />
    <glyph glyph-name="X" unicode="X" horiz-adv-x="731" 
d="M211 737l156 -247l158 247h188l-251 -369l251 -368h-192l-154 247l-161 -246h-188l255 367l-255 369h193z" />
    <glyph glyph-name="Y" unicode="Y" horiz-adv-x="670" 
d="M177 737l161 -302l161 302h162l-250 -448v-289h-150v289l-252 448h168z" />
    <glyph glyph-name="Z" unicode="Z" horiz-adv-x="575" 
d="M536 594l-335 -451h330v-143h-494v143l333 450l-333 -1v145h499v-143z" />
    <glyph glyph-name="bracketleft" unicode="[" horiz-adv-x="317" 
d="M312 -106h-239v963h239v-110h-119v-743h119v-110z" />
    <glyph glyph-name="backslash" unicode="\" horiz-adv-x="429" 
d="M288 0l-288 735h142l287 -735h-141z" />
    <glyph glyph-name="bracketright" unicode="]" horiz-adv-x="317" 
d="M124 4v743h-119v110h238v-963h-238v110h119z" />
    <glyph glyph-name="asciicircum" unicode="^" horiz-adv-x="436" 
d="M281 480l-60 115l-61 -115h-120l120 230h121l121 -230h-121z" />
    <glyph glyph-name="underscore" unicode="_" horiz-adv-x="555" 
d="M495 -16v-102h-435v102h435z" />
    <glyph glyph-name="grave" unicode="`" horiz-adv-x="253" 
d="M3 947h130l90 -177h-104z" />
    <glyph glyph-name="a" unicode="a" horiz-adv-x="534" 
d="M359 0q-2 10 -3.5 21.5t-3.5 25.5q-19 -27 -55.5 -43.5t-87.5 -16.5q-39 0 -72 11.5t-57 32.5t-37.5 51t-13.5 68q0 75 48 115.5t133 40.5h138v17q0 39 -24.5 57.5t-66.5 18.5q-78 0 -113 -66l-103 58q65 122 224 122q97 0 159 -50q63 -49 63 -164v-184q0 -39 3 -71
t7 -44h-138zM349 210h-105q-34 0 -52 -15.5t-18 -42.5q0 -59 76 -59q37 0 68 23q31 22 31 85v9z" />
    <glyph glyph-name="b" unicode="b" horiz-adv-x="634" 
d="M606 246q0 -61 -18.5 -109t-51 -81.5t-77.5 -51t-99 -17.5q-60 0 -102 21t-64 51l-7 -59h-130v750h140v-306q26 35 69.5 52.5t94.5 17.5q53 0 97.5 -18t77.5 -52t51.5 -84t18.5 -114zM463 252q0 61 -36.5 97.5t-93.5 36.5t-94.5 -36.5t-37.5 -97.5q0 -63 37 -99t95 -36
q57 0 93.5 36t36.5 99z" />
    <glyph glyph-name="c" unicode="c" horiz-adv-x="556" 
d="M290 513q87 0 151 -44t83 -114l-122 -48q-11 35 -41 56t-68 21q-55 0 -86.5 -36t-31.5 -99t32 -98t86 -35q39 0 69.5 20.5t41.5 54.5l120 -45q-23 -73 -87 -116t-147 -43q-58 0 -105.5 19t-81.5 53.5t-52.5 82.5t-18.5 107t18.5 108t52.5 83.5t81.5 53.5t105.5 19z" />
    <glyph glyph-name="d" unicode="d" horiz-adv-x="649" 
d="M451 0q-2 8 -3.5 22t-3.5 34q-24 -33 -66.5 -51t-93.5 -18q-55 0 -101 16.5t-79.5 49.5t-52.5 82t-19 114q0 60 19.5 108.5t54 83t81 53.5t101.5 19q45 0 86.5 -15t67.5 -45v297h142v-619q0 -27 3 -74q3 -46 6 -57h-142zM438 251q0 61 -37 97.5t-94 36.5t-94 -36.5
t-37 -97.5q0 -63 37 -99t94 -36t94 36t37 99z" />
    <glyph glyph-name="e" unicode="e" horiz-adv-x="565" 
d="M534 200h-369q6 -48 39.5 -70t79.5 -22q80 0 112 65l119 -46q-27 -66 -88.5 -103t-142.5 -37q-55 0 -101.5 19t-80 53.5t-52 82.5t-18.5 107t18.5 107.5t52 83.5t80.5 54t103 19t102 -19t78.5 -53.5t50 -83.5t17.5 -108v-49zM389 298q-4 49 -32 73.5t-74 24.5
q-97 0 -115 -98h221z" />
    <glyph glyph-name="f" unicode="f" horiz-adv-x="373" 
d="M297 623q-42 0 -57.5 -20.5t-15.5 -57.5v-47h119v-118h-119v-380h-143v380h-69v118h69l-1 47q0 105 51.5 155t145.5 50q18 0 34.5 -1.5t31.5 -3.5v-127q-25 5 -46 5z" />
    <glyph glyph-name="g" unicode="g" horiz-adv-x="562" 
d="M527 454q-38 0 -60 -19q39 -49 39 -121q0 -90 -62 -146q-61 -54 -166 -54q-46 0 -91 14q-19 0 -31.5 -10t-12.5 -27q0 -13 12.5 -23.5t39.5 -10.5h170q85 0 132 -40t47 -113q0 -89 -81 -126q-81 -38 -199 -38q-256 0 -256 128q0 35 18 62t50 40q-48 35 -48 98q0 29 16 62
t55 50q-54 51 -54 133q0 45 17 82t47.5 63t73.5 40.5t95 14.5q65 0 116 -22q17 35 51 56t80 21q16 0 21 -1v-114q-4 1 -19 1zM367 312q0 36 -25 62.5t-67 26.5q-40 0 -66 -24.5t-26 -62.5t25.5 -63t67.5 -25t66.5 24.5t24.5 61.5zM172 -58l-17 1q-25 -12 -25 -36
q0 -29 33 -38.5t109 -9.5q69 0 101.5 8.5t32.5 36.5q0 38 -67 38h-167z" />
    <glyph glyph-name="h" unicode="h" horiz-adv-x="594" 
d="M541 306v-306h-142v273q0 66 -30 88q-31 23 -66 23q-38 0 -73 -24q-34 -24 -34 -87v-273h-142v750h143v-293q22 26 58.5 41t78.5 15q102 0 154.5 -55t52.5 -152z" />
    <glyph glyph-name="i" unicode="i" horiz-adv-x="264" 
d="M51 665q0 35 24.5 59t59.5 24q34 0 58 -24t24 -59q0 -34 -24 -58.5t-58 -24.5q-35 0 -59.5 24t-24.5 59zM206 498v-498h-143v498h143z" />
    <glyph glyph-name="j" unicode="j" horiz-adv-x="281" 
d="M62 665q0 35 24.5 59t59.5 24t59 -24t24 -59q0 -34 -24 -58.5t-59 -24.5t-59.5 24t-24.5 59zM-36 -113q25 -9 45 -9q29 0 48 17t19 55l-1 548h143v-544q0 -96 -52.5 -148.5t-139.5 -52.5q-39 0 -89 14z" />
    <glyph glyph-name="k" unicode="k" horiz-adv-x="552" 
d="M54 0v750h143v-434l172 182h178l-218 -230l203 -268h-174l-123 169l-38 -41v-128h-143z" />
    <glyph glyph-name="l" unicode="l" horiz-adv-x="246" 
d="M54 750h143v-750h-143v750z" />
    <glyph glyph-name="m" unicode="m" horiz-adv-x="890" 
d="M838 313v-313h-139v291q0 48 -23.5 73.5t-63.5 25.5q-42 0 -68 -27.5t-26 -85.5v-277h-140v291q0 48 -23 73t-63 25q-42 0 -68.5 -27t-26.5 -85v-277h-143v498h133l5 -43q41 59 137 59q57 0 98.5 -22.5t64.5 -67.5q19 42 60 66t99 24q85 0 136 -52.5t51 -148.5z" />
    <glyph glyph-name="n" unicode="n" horiz-adv-x="592" 
d="M539 307v-307h-142v274q0 65 -30 87q-29 23 -64 23q-39 0 -74 -24q-33 -22 -33 -86v-274h-142v498h135l4 -45q21 28 58.5 44t82.5 16q100 0 152.5 -54.5t52.5 -151.5z" />
    <glyph glyph-name="o" unicode="o" horiz-adv-x="588" 
d="M295 512q59 0 107 -19t82.5 -53.5t53.5 -83t19 -106.5t-19 -106.5t-53.5 -83t-82.5 -53.5t-107 -19q-60 0 -108.5 19t-83 53.5t-53 83t-18.5 106.5t18.5 106.5t53 83t83 53.5t108.5 19zM295 115q54 0 86 37.5t32 98.5q0 60 -32 97t-86 37q-55 0 -87.5 -37t-32.5 -97
q0 -61 33 -98.5t87 -37.5z" />
    <glyph glyph-name="p" unicode="p" horiz-adv-x="634" 
d="M357 -13q-51 0 -95 18t-67 47v-288h-138v734h128l6 -51q22 28 63 47t98 19q56 0 102 -17t79 -50.5t51.5 -83t18.5 -113.5q0 -63 -19.5 -112t-52.5 -82.5t-78 -50.5t-96 -17zM462 251q0 61 -37 97.5t-94 36.5t-94.5 -36.5t-37.5 -97.5q0 -63 37 -99t95 -36q57 0 94 36
t37 99z" />
    <glyph glyph-name="q" unicode="q" horiz-adv-x="637" 
d="M582 498v-734h-137v289q-23 -29 -67 -47.5t-95 -18.5q-53 0 -98.5 17t-79.5 50.5t-53 82.5t-19 112q0 128 69 195q71 69 186 69q55 0 97 -17.5t64 -48.5l6 51h127zM441 251q0 61 -37 97.5t-94 36.5t-94.5 -36.5t-37.5 -97.5q0 -63 37 -99t95 -36q57 0 94 36t37 99z" />
    <glyph glyph-name="r" unicode="r" horiz-adv-x="406" 
d="M327 505q28 0 59 -7v-131q-27 7 -56 7q-63 0 -97.5 -39t-34.5 -109v-226h-145v497h133l8 -56q15 32 51 48t82 16z" />
    <glyph glyph-name="s" unicode="s" horiz-adv-x="475" 
d="M237 99q29 0 46.5 11.5t17.5 33.5q0 31 -43 41l-65 18q-79 21 -113 58t-34 91q0 35 13 64.5t38 51t60.5 33.5t80.5 12q78 0 130 -34.5t65 -97.5l-128 -30q-3 23 -20 36t-43 13q-25 0 -41 -12t-16 -33q0 -16 12 -27t40 -19l63 -16q143 -38 143 -150q0 -72 -53.5 -114
t-150.5 -42q-94 0 -146 39t-61 105l130 22q2 -25 21.5 -39.5t53.5 -14.5z" />
    <glyph glyph-name="t" unicode="t" horiz-adv-x="362" 
d="M346 380h-94v-380h-141v380h-95v118h95v154h141v-154h94v-118z" />
    <glyph glyph-name="u" unicode="u" horiz-adv-x="604" 
d="M410 0q-6 18 -9 46q-44 -59 -139 -59q-86 0 -148 47q-61 46 -61 160v304h143v-274q0 -65 30 -88q31 -22 67 -22q38 0 71 24q34 24 34 86v274h142v-406q0 -19 3 -47t8 -45h-141z" />
    <glyph glyph-name="v" unicode="v" horiz-adv-x="564" 
d="M554 498l-208 -498h-140l-196 498h154l116 -328l127 328h147z" />
    <glyph glyph-name="w" unicode="w" horiz-adv-x="828" 
d="M816 498l-175 -498h-132l-95 287l-97 -287h-139l-166 498h155l83 -291l93 291h145l88 -296l89 296h151z" />
    <glyph glyph-name="x" unicode="x" horiz-adv-x="541" 
d="M17 0l170 242l-177 256h168q17 -24 38.5 -58.5t48.5 -80.5l11 -19l93 158h163l-175 -254l169 -244h-167q-20 29 -43 66t-50 85l-90 -151h-159z" />
    <glyph glyph-name="y" unicode="y" horiz-adv-x="577" 
d="M567 498l-242 -616q-49 -132 -173 -132q-51 0 -122 24l39 129q37 -22 70 -22q52 0 70 52l14 39l-212 526h150l130 -344l126 344h150z" />
    <glyph glyph-name="z" unicode="z" horiz-adv-x="482" 
d="M36 127l232 245h-232v126h411v-127l-238 -244h238v-127h-411v127z" />
    <glyph glyph-name="braceleft" unicode="{" horiz-adv-x="311" 
d="M306 -5v-101h-45t-27 1q-51 1 -80 38.5t-29 95.5v172q0 45 -10 69.5t-23.5 36t-26.5 13t-19 0.5v102h20q20 0 39.5 32t19.5 92v178q0 61 29 96t89 36q5 1 21 1h42v-101q-31 0 -46.5 -10t-15.5 -40v-187q0 -92 -57 -146q57 -54 57 -145v-163q0 -40 15.5 -55t46.5 -15z" />
    <glyph glyph-name="bar" unicode="|" horiz-adv-x="225" 
d="M167 788v-878h-109v878h109z" />
    <glyph glyph-name="braceright" unicode="}" horiz-adv-x="311" 
d="M265 422v-102q-4 2 -17 0t-26.5 -13.5t-24 -36.5t-10.5 -69v-172q0 -58 -29 -95.5t-80 -38.5q-9 -1 -27 -1h-46v101q31 0 47 15t16 55v163q0 93 57 145q-57 53 -57 146v187q0 30 -15.5 40t-47.5 10v101h42.5t21.5 -1q60 0 89 -35.5t29 -96.5v-178q0 -59 17 -88
q17 -27 83 -47q34 -10 28.5 -7t-50.5 18z" />
    <glyph glyph-name="asciitilde" unicode="~" horiz-adv-x="474" 
d="M434 308q0 -57 -32 -90.5t-83 -33.5q-28 0 -51 11.5t-52 31.5q-23 16 -37 23.5t-28 7.5q-39 0 -42 -41h-69q0 54 32 88t83 34q27 0 50 -11t52 -32q22 -16 37 -23.5t30 -7.5q20 0 30 11t12 32h68z" />
    <glyph glyph-name="exclamdown" unicode="&#xa1;" horiz-adv-x="343" 
d="M254 672q0 -36 -23 -57.5t-58 -21.5t-58.5 21.5t-23.5 57.5t23 57t59 21q35 0 58 -21t23 -57zM258 0h-172v274q0 42 1 77.5t4 69t7.5 66t10.5 68.5h125q7 -36 11.5 -68.5t7.5 -66t4 -69t1 -77.5v-274z" />
    <glyph glyph-name="cent" unicode="&#xa2;" horiz-adv-x="611" 
d="M245 621v114h120v-106q66 -11 116.5 -51.5t70.5 -100.5l-124 -45q-32 77 -108 77q-60 0 -90.5 -40t-30.5 -103t30.5 -102.5t90.5 -39.5q45 0 67 18t35 50l125 -50q-21 -54 -70 -90t-112 -46v-107h-120v115q-82 26 -134 94q-52 70 -52 158q0 44 14 85t39 74.5t59 58.5
t74 37z" />
    <glyph glyph-name="sterling" unicode="&#xa3;" horiz-adv-x="714" 
d="M653 238q0 -109 -56 -173.5t-168 -64.5h-367v140q20 2 39 12t33.5 27.5t23.5 41t9 50.5q0 24 -7 48h-97v118h54q-8 34 -8 66q0 53 19 98t53.5 78t82 52t103.5 19q97 0 161.5 -45.5t91.5 -124.5l-133 -43q-15 38 -47 58.5t-74 20.5q-54 0 -86 -33t-32 -85q0 -30 11 -61
h252v-118h-214q2 -14 3 -25.5t1 -20.5q-1 -97 -51 -133h178q101 0 99 98h126z" />
    <glyph glyph-name="currency" unicode="&#xa4;" horiz-adv-x="745" 
d="M686 151l-92 -93l-78 78q-67 -41 -143 -41q-78 0 -143 41l-79 -78l-92 93l79 78q-38 65 -38 139q0 75 38 140l-79 78l92 93l79 -78q65 41 143 41q76 0 143 -40l78 77l92 -93l-78 -77q39 -66 39 -141t-39 -140zM373 225q29 0 55.5 11.5t46 31t31 45.5t11.5 55t-11.5 55.5
t-31 46t-46 31t-55.5 11.5q-30 0 -56 -11.5t-45.5 -31t-30.5 -46t-11 -55.5t11.5 -55t31 -45.5t45.5 -31t55 -11.5z" />
    <glyph glyph-name="yen" unicode="&#xa5;" horiz-adv-x="779" 
d="M515 392h87v-112h-144v-41h144v-113h-144v-126h-141v126h-144v113h144v41h-144v112h89l-202 343h169l159 -300l161 300h170z" />
    <glyph glyph-name="brokenbar" unicode="&#xa6;" horiz-adv-x="289" 
d="M205 791v-333h-121v333h121zM205 273v-343h-121v343h121z" />
    <glyph glyph-name="section" unicode="&#xa7;" horiz-adv-x="456" 
d="M352 267q57 -37 57 -108q0 -34 -13.5 -63t-37.5 -50.5t-57 -33.5t-72 -12q-34 0 -65 9t-55.5 26t-42 40.5t-24.5 53.5l111 25q7 -25 27.5 -38t51.5 -13q30 0 47 13t17 35q0 30 -42 42l-62 16q-55 13 -101 50q-45 36 -45 109q0 74 58 114q-57 38 -57 108q0 34 13.5 63
t37.5 50.5t57 34t72 12.5q68 0 120 -36q53 -35 67 -94l-112 -25q-7 25 -27.5 38t-50.5 13t-47 -13t-17 -35q0 -30 42 -42l62 -16q55 -13 101 -50q45 -34 45 -109q0 -74 -58 -114zM311 375q0 25 -20.5 39.5t-62.5 14.5q-45 0 -64 -15t-19 -40t20.5 -39t62.5 -14q43 0 63 15
t20 39z" />
    <glyph glyph-name="dieresis" unicode="&#xa8;" horiz-adv-x="418" 
d="M20 855q0 33 23.5 56t56.5 23q32 0 55 -23.5t23 -55.5t-23 -55t-55 -23q-33 0 -56.5 23t-23.5 55zM239 855q0 33 23.5 56t56.5 23q32 0 55.5 -23.5t23.5 -55.5t-23.5 -55t-55.5 -23q-33 0 -56.5 23t-23.5 55z" />
    <glyph glyph-name="copyright" unicode="&#xa9;" horiz-adv-x="822" 
d="M40 359q-1 74 28.5 142t80.5 119t119 81t143 28q75 2 143 -28t119 -81t81 -119t28 -142q2 -75 -28 -143.5t-81 -119.5t-119 -81t-143 -28q-75 -2 -143 28t-119 81t-80.5 119.5t-28.5 143.5zM682 359q1 55 -20 104.5t-58.5 86.5t-87 58.5t-105.5 20.5q-55 1 -104.5 -20.5
t-87 -58.5t-59 -86.5t-20.5 -104.5q-1 -55 20.5 -105t59 -87.5t87 -59t104.5 -20.5q55 -1 104.5 20.5t87 59t59 87.5t20.5 105zM493 404q-19 57 -82 57q-42 0 -66 -30.5t-24 -73.5q0 -45 24 -74.5t66 -29.5q33 0 50.5 13t27.5 36l76 -30q-17 -43 -58.5 -68.5t-95.5 -25.5
q-35 0 -67 14t-56 38.5t-38 57t-14 69.5t14 69.5t38 57t56 38.5t67 14q57 0 99 -28.5t58 -77.5z" />
    <glyph glyph-name="guillemotleft" unicode="&#xab;" horiz-adv-x="754" 
d="M265 249l218 -249h-184l-218 249l218 249h184zM510 249l218 -249h-184l-218 249l218 249h184z" />
    <glyph glyph-name="logicalnot" unicode="&#xac;" horiz-adv-x="621" 
d="M426 82v162h-382v152h534v-314h-152z" />
    <glyph glyph-name="registered" unicode="&#xae;" horiz-adv-x="463" 
d="M433 549q0 -42 -16 -79t-43 -64.5t-63.5 -43.5t-77.5 -16q-42 0 -79 16t-64.5 43.5t-43.5 64.5t-16 79q0 41 16 77.5t43.5 63.5t64.5 43t79 16q41 0 77.5 -16t63.5 -43t43 -63.5t16 -77.5zM390 549q0 33 -12.5 61.5t-33.5 49.5t-49.5 33.5t-61.5 12.5t-62 -12.5
t-50 -33.5t-33.5 -49.5t-12.5 -61.5q0 -34 12 -63t33 -50t50 -33t63 -12q33 0 61.5 12.5t49.5 33.5t33.5 50t12.5 62zM306 457h-45l-31 69h-18v-69h-40v182h40h20q66 0 71 -50v-4v-6q-3 -32 -30 -46zM212 563h31q15 0 16 16h-1l1 3q0 4 -1 5q-2 14 -26 14h-20v-38z" />
    <glyph glyph-name="macron" unicode="&#xaf;" horiz-adv-x="364" 
d="M343 877v-89h-322v89h322z" />
    <glyph glyph-name="degree" unicode="&#xb0;" horiz-adv-x="279" 
d="M20 604q0 50 35 85q37 35 85 35q50 0 84 -36q35 -35 35 -84t-35 -84t-84 -35q-48 0 -85 35q-35 35 -35 84zM185 604q0 18 -14 32t-31 14q-19 0 -32.5 -14t-13.5 -32t13.5 -31.5t32.5 -13.5q18 0 31.5 13.5t13.5 31.5z" />
    <glyph glyph-name="plusminus" unicode="&#xb1;" horiz-adv-x="501" 
d="M461 386v-112h-154v-95h-112v95h-155v112h155v94h112v-94h154zM40 112h421v-112h-421v112z" />
    <glyph glyph-name="uni00B2" unicode="&#xb2;" horiz-adv-x="425" 
d="M49 394l207 169q20 16 28 31.5t8 32.5q0 35 -21.5 55.5t-57.5 20.5q-33 0 -55.5 -18.5t-25.5 -55.5h-92q4 78 51 121.5t120 43.5q39 0 71.5 -13t55 -35.5t35 -52.5t12.5 -65q0 -81 -72 -138l-126 -98l187 1v-92l-325 -1v94z" />
    <glyph glyph-name="uni00B3" unicode="&#xb3;" horiz-adv-x="424" 
d="M384 458q0 -36 -13.5 -67.5t-37 -54t-54.5 -35.5t-67 -13q-37 0 -68.5 13.5t-54.5 36t-36 52.5t-13 64h92q2 -32 22.5 -53t57.5 -21q33 0 56 22t23 56q0 37 -22.5 59.5t-59.5 23.5q-20 0 -40 -10l-34 73l1 2l88 81l-165 1v92h313v-79l-95 -89q49 -18 78 -59t29 -95z" />
    <glyph glyph-name="acute" unicode="&#xb4;" horiz-adv-x="296" 
d="M40 770l89 177h130l-115 -177h-104z" />
    <glyph glyph-name="uni00B5" unicode="&#xb5;" horiz-adv-x="725" 
d="M674 128v-128l-125 1q-66 0 -95 57q-43 -65 -130 -70h-6h-7q-73 4 -113 49v-288h-142v746h142v-223q0 -84 36 -122q36 -37 83 -37q24 0 46 9t38.5 28.5t26 49.5t9.5 72v225h142l1 -333q0 -24 11 -29.5t37 -5.5z" />
    <glyph glyph-name="paragraph" unicode="&#xb6;" horiz-adv-x="541" 
d="M391 712v-806h-121v401h-47q-43 0 -77 14.5t-57.5 41.5t-36 64.5t-12.5 82.5q0 90 48 145q50 57 135 57h168zM501 710v-806h-46v806h46z" />
    <glyph glyph-name="periodcentered" unicode="&#xb7;" horiz-adv-x="355" 
d="M62 286q0 24 9 45t25 36.5t37 24.5t45 9q47 0 81 -34t34 -81q0 -46 -34 -80q-34 -33 -81 -33t-82 33q-34 34 -34 80z" />
    <glyph glyph-name="cedilla" unicode="&#xb8;" horiz-adv-x="600" 
d="M239 -141h92q11 0 18.5 5.5t7.5 17.5q0 11 -7.5 16.5t-18.5 5.5h-92v62l48 66l60 -1v-32l-28 -34h34q36 0 57.5 -23.5t21.5 -60.5q0 -39 -21.5 -61.5t-57.5 -22.5h-114v62z" />
    <glyph glyph-name="uni00B9" unicode="&#xb9;" horiz-adv-x="314" 
d="M232 785v-485h-93v391l-99 -42v92l99 44h93z" />
    <glyph glyph-name="guillemotright" unicode="&#xbb;" horiz-adv-x="754" 
d="M428 249l-218 -249h-184l218 249l-218 249h184zM673 249l-218 -249h-184l218 249l-218 249h184z" />
    <glyph glyph-name="onequarter" unicode="&#xbc;" horiz-adv-x="750" 
d="M32 676l80 34v-84l-80 -30v80zM193 710v-367h-81v367h81zM24 0l541 710h122l-541 -710h-122zM718 57h-47v-66h-81v66l-173 1v82l173 228h81v-229h47v-82zM590 140v97l-72 -97h72z" />
    <glyph glyph-name="onehalf" unicode="&#xbd;" horiz-adv-x="772" 
d="M32 676l80 34v-84l-80 -30v80zM193 710v-367h-81v367h81zM24 0l541 710h122l-541 -710h-122zM487 80l127 107q24 21 32.5 31.5t9.5 26.5q0 21 -13 34.5t-36 13.5q-22 -1 -35.5 -13.5t-13.5 -34.5l1 -10h-81q-1 29 7.5 53.5t26.5 43t43.5 29t56.5 10.5q60 0 93.5 -34
t33.5 -88q0 -38 -18 -64t-48 -51l-67 -55l130 1v-80l-249 -1v81z" />
    <glyph glyph-name="threequarters" unicode="&#xbe;" horiz-adv-x="807" 
d="M291 467q0 -55 -38 -93q-37 -37 -92 -37q-28 0 -53 10.5t-42.5 29t-26.5 43.5t-7 54h79l-1 -10q0 -22 14 -35t37 -13q21 0 35.5 14.5t14.5 36.5q0 27 -17 41q-13 12 -34 12q-16 0 -33 -9l-29 62l3 3l51 53h-106v81h230v-68l-57 -58q29 -14 47 -38q25 -34 25 -79zM82 0
l541 710h122l-541 -710h-122zM775 57h-47v-66h-81v66l-173 1v82l173 228h81v-229h47v-82zM647 140v97l-72 -97h72z" />
    <glyph glyph-name="questiondown" unicode="&#xbf;" horiz-adv-x="568" 
d="M216 671q0 33 24 56t62 23q37 0 61 -23t24 -56t-24 -56t-61 -23t-61.5 23t-24.5 56zM537 240q0 -53 -19.5 -99t-54 -80.5t-81.5 -54t-103 -19.5q-51 0 -96 16.5t-78.5 46.5t-53.5 72.5t-20 95.5t18 93q19 41 44.5 67.5t65.5 58.5q38 30 56 50.5t21 46.5v23h144v-30
q0 -37 -16 -66q-15 -30 -37 -52t-58 -51q-48 -38 -70.5 -66t-22.5 -65q0 -40 27 -68t75 -28q51 0 82.5 32t31.5 77h145z" />
    <glyph glyph-name="Agrave" unicode="&#xc0;" horiz-adv-x="695" 
d="M472 161h-251l-56 -161h-155l264 737h146h2l263 -737h-158zM429 286l-82 242l-83 -242h165zM181 965h130l90 -177h-104z" />
    <glyph glyph-name="Aacute" unicode="&#xc1;" horiz-adv-x="695" 
d="M472 161h-251l-56 -161h-155l264 737h146h2l263 -737h-158zM429 286l-82 242l-83 -242h165zM297 788l89 177h130l-115 -177h-104z" />
    <glyph glyph-name="Acircumflex" unicode="&#xc2;" horiz-adv-x="695" 
d="M472 161h-251l-56 -161h-155l264 737h146h2l263 -737h-158zM429 286l-82 242l-83 -242h165zM410 788l-60 105l-61 -105h-105l96 178h111h28l96 -178h-105z" />
    <glyph glyph-name="Atilde" unicode="&#xc3;" horiz-adv-x="695" 
d="M472 161h-251l-56 -161h-155l264 737h146h2l263 -737h-158zM429 286l-82 242l-83 -242h165zM163 845q0 57 30.5 87.5t73.5 30.5q23 0 43 -8t44 -22q23 -12 35 -17t25 -5q15 0 23.5 9t8.5 24q0 9 -1 12h88q3 -18 3 -33q0 -57 -31 -85.5t-76 -28.5q-24 0 -44.5 8t-47.5 22
q-19 10 -31 15t-23 5q-18 0 -25 -13.5t-5 -35.5l-87 -1q-3 20 -3 36z" />
    <glyph glyph-name="Adieresis" unicode="&#xc4;" horiz-adv-x="695" 
d="M472 161h-251l-56 -161h-155l264 737h146h2l263 -737h-158zM429 286l-82 242l-83 -242h165zM161 873q0 33 23.5 56t56.5 23q32 0 55 -23.5t23 -55.5t-23 -55t-55 -23q-33 0 -56.5 23t-23.5 55zM380 873q0 33 23.5 56t56.5 23q32 0 55.5 -23.5t23.5 -55.5t-23.5 -55
t-55.5 -23q-33 0 -56.5 23t-23.5 55z" />
    <glyph glyph-name="Aring" unicode="&#xc5;" horiz-adv-x="695" 
d="M472 161h-251l-56 -161h-155l264 737h146h2l263 -737h-158zM429 286l-82 242l-83 -242h165zM216 907q0 27 10.5 52t29 43.5t43 29.5t51.5 11t51 -11t42.5 -29.5t29 -43.5t10.5 -52t-10.5 -51.5t-29 -43t-42.5 -29.5t-51 -11q-28 0 -52.5 10.5t-42.5 29t-28.5 43
t-10.5 52.5zM406 909q0 23 -16 39t-40 16t-40 -16t-16 -39q0 -25 16 -41.5t40 -16.5t40 16.5t16 41.5z" />
    <glyph glyph-name="AE" unicode="&#xc6;" horiz-adv-x="963" 
d="M905 0l-324 1v-1h-141v170h-196l-64 -170h-170l295 735h154h122h325l-1 -141h-324v-153l291 -1l-1 -136h-290v-162l325 -1zM440 298v296l-35 1l-112 -297h147z" />
    <glyph glyph-name="Ccedilla" unicode="&#xc7;" horiz-adv-x="756" 
d="M424 -11l-22 -27h34q36 0 57.5 -23.5t21.5 -60.5q0 -39 -21.5 -61.5t-57.5 -22.5h-114v62h92q11 0 18.5 5.5t7.5 17.5q0 11 -7.5 16.5t-18.5 5.5h-92v62l21 28q-70 8 -126.5 38.5t-96.5 79.5t-61.5 114t-21.5 143q0 86 26 156.5t73.5 121t114 78.5t147.5 28
q117 0 202 -59q84 -58 111 -156l-143 -48q-18 58 -62.5 88t-107.5 30q-48 0 -85.5 -17t-64 -47.5t-40.5 -74.5t-14 -98q0 -109 55 -171t148 -62q66 0 116 31.5t70 82.5l141 -60q-36 -91 -115.5 -142.5t-184.5 -57.5z" />
    <glyph glyph-name="Egrave" unicode="&#xc8;" horiz-adv-x="598" 
d="M542 140v-140h-464v737h464v-142h-315v-157h280v-132h-280v-166h315zM141 965h130l90 -177h-104z" />
    <glyph glyph-name="Eacute" unicode="&#xc9;" horiz-adv-x="598" 
d="M542 140v-140h-464v737h464v-142h-315v-157h280v-132h-280v-166h315zM257 788l89 177h130l-115 -177h-104z" />
    <glyph glyph-name="Ecircumflex" unicode="&#xca;" horiz-adv-x="598" 
d="M542 140v-140h-464v737h464v-142h-315v-157h280v-132h-280v-166h315zM370 788l-60 105l-61 -105h-105l96 178h111h28l96 -178h-105z" />
    <glyph glyph-name="Edieresis" unicode="&#xcb;" horiz-adv-x="598" 
d="M542 140v-140h-464v737h464v-142h-315v-157h280v-132h-280v-166h315zM121 873q0 33 23.5 56t56.5 23q32 0 55 -23.5t23 -55.5t-23 -55t-55 -23q-33 0 -56.5 23t-23.5 55zM340 873q0 33 23.5 56t56.5 23q32 0 55.5 -23.5t23.5 -55.5t-23.5 -55t-55.5 -23q-33 0 -56.5 23
t-23.5 55z" />
    <glyph glyph-name="Igrave" unicode="&#xcc;" horiz-adv-x="305" 
d="M78 0v737h149v-737h-149zM-15 965h130l90 -177h-104z" />
    <glyph glyph-name="Iacute" unicode="&#xcd;" horiz-adv-x="305" 
d="M78 0v737h149v-737h-149zM100 788l89 177h130l-115 -177h-104z" />
    <glyph glyph-name="Icircumflex" unicode="&#xce;" horiz-adv-x="305" 
d="M78 0v737h149v-737h-149zM213 788l-60 105l-61 -105h-105l96 178h111h28l96 -178h-105z" />
    <glyph glyph-name="Idieresis" unicode="&#xcf;" horiz-adv-x="305" 
d="M78 0v737h149v-737h-149zM-36 873q0 33 23.5 56t56.5 23q32 0 55 -23.5t23 -55.5t-23 -55t-55 -23q-33 0 -56.5 23t-23.5 55zM183 873q0 33 23.5 56t56.5 23q32 0 55.5 -23.5t23.5 -55.5t-23.5 -55t-55.5 -23q-33 0 -56.5 23t-23.5 55z" />
    <glyph glyph-name="Eth" unicode="&#xd0;" horiz-adv-x="771" 
d="M716 367q1 -80 -27 -147.5t-78.5 -117t-118.5 -76.5t-146 -26h-268v308h-67v122h67v307h268q77 1 144.5 -27t118 -78t79.5 -118t28 -147zM558 367q0 51 -15.5 93.5t-43.5 72.5t-67.5 47t-87.5 17h-117v-167h89v-122h-89v-170h117q49 0 88.5 16.5t67.5 46.5t43 72.5
t15 93.5z" />
    <glyph glyph-name="Ntilde" unicode="&#xd1;" horiz-adv-x="774" 
d="M697 737v-737h-148l-323 499v-499h-148v737h148l323 -500v500h148zM206 845q0 57 30.5 87.5t73.5 30.5q23 0 43 -8t44 -22q23 -12 35 -17t25 -5q15 0 23.5 9t8.5 24q0 9 -1 12h88q3 -18 3 -33q0 -57 -31 -85.5t-76 -28.5q-24 0 -44.5 8t-47.5 22q-19 10 -31 15t-23 5
q-18 0 -25 -13.5t-5 -35.5l-87 -1q-3 20 -3 36z" />
    <glyph glyph-name="Ograve" unicode="&#xd2;" horiz-adv-x="785" 
d="M392 750q81 0 147 -28.5t113.5 -79t73.5 -120.5t26 -153q1 -82 -25 -152.5t-74 -121.5t-115 -79.5t-147 -27.5q-79 -1 -145.5 27.5t-114 79.5t-73.5 121t-25 152q-1 82 25 152.5t74 122t114.5 80t145.5 27.5zM393 134q94 0 148 63t54 172q0 111 -54 173.5t-148 62.5
t-148 -62.5t-54 -173.5t54 -173t148 -62zM225 965h130l90 -177h-104z" />
    <glyph glyph-name="Oacute" unicode="&#xd3;" horiz-adv-x="785" 
d="M392 750q81 0 147 -28.5t113.5 -79t73.5 -120.5t26 -153q1 -82 -25 -152.5t-74 -121.5t-115 -79.5t-147 -27.5q-79 -1 -145.5 27.5t-114 79.5t-73.5 121t-25 152q-1 82 25 152.5t74 122t114.5 80t145.5 27.5zM393 134q94 0 148 63t54 172q0 111 -54 173.5t-148 62.5
t-148 -62.5t-54 -173.5t54 -173t148 -62zM341 788l89 177h130l-115 -177h-104z" />
    <glyph glyph-name="Ocircumflex" unicode="&#xd4;" horiz-adv-x="785" 
d="M392 750q81 0 147 -28.5t113.5 -79t73.5 -120.5t26 -153q1 -82 -25 -152.5t-74 -121.5t-115 -79.5t-147 -27.5q-79 -1 -145.5 27.5t-114 79.5t-73.5 121t-25 152q-1 82 25 152.5t74 122t114.5 80t145.5 27.5zM393 134q94 0 148 63t54 172q0 111 -54 173.5t-148 62.5
t-148 -62.5t-54 -173.5t54 -173t148 -62zM453 788l-60 105l-61 -105h-105l96 178h111h28l96 -178h-105z" />
    <glyph glyph-name="Otilde" unicode="&#xd5;" horiz-adv-x="785" 
d="M392 750q81 0 147 -28.5t113.5 -79t73.5 -120.5t26 -153q1 -82 -25 -152.5t-74 -121.5t-115 -79.5t-147 -27.5q-79 -1 -145.5 27.5t-114 79.5t-73.5 121t-25 152q-1 82 25 152.5t74 122t114.5 80t145.5 27.5zM393 134q94 0 148 63t54 172q0 111 -54 173.5t-148 62.5
t-148 -62.5t-54 -173.5t54 -173t148 -62zM207 845q0 57 30.5 87.5t73.5 30.5q23 0 43 -8t44 -22q23 -12 35 -17t25 -5q15 0 23.5 9t8.5 24q0 9 -1 12h88q3 -18 3 -33q0 -57 -31 -85.5t-76 -28.5q-24 0 -44.5 8t-47.5 22q-19 10 -31 15t-23 5q-18 0 -25 -13.5t-5 -35.5
l-87 -1q-3 20 -3 36z" />
    <glyph glyph-name="Odieresis" unicode="&#xd6;" horiz-adv-x="785" 
d="M392 750q81 0 147 -28.5t113.5 -79t73.5 -120.5t26 -153q1 -82 -25 -152.5t-74 -121.5t-115 -79.5t-147 -27.5q-79 -1 -145.5 27.5t-114 79.5t-73.5 121t-25 152q-1 82 25 152.5t74 122t114.5 80t145.5 27.5zM393 134q94 0 148 63t54 172q0 111 -54 173.5t-148 62.5
t-148 -62.5t-54 -173.5t54 -173t148 -62zM204 873q0 33 23.5 56t56.5 23q32 0 55 -23.5t23 -55.5t-23 -55t-55 -23q-33 0 -56.5 23t-23.5 55zM423 873q0 33 23.5 56t56.5 23q32 0 55.5 -23.5t23.5 -55.5t-23.5 -55t-55.5 -23q-33 0 -56.5 23t-23.5 55z" />
    <glyph glyph-name="multiply" unicode="&#xd7;" horiz-adv-x="627" 
d="M460 86l-146 144l-145 -148l-90 91l144 147l-147 145l90 90l147 -144l144 148l90 -91l-143 -147l147 -145z" />
    <glyph glyph-name="Oslash" unicode="&#xd8;" horiz-adv-x="799" 
d="M745 370q1 -82 -25 -152.5t-74 -121.5t-115 -79.5t-147 -27.5q-69 0 -131 22l-19 -31h-146l59 94q-58 51 -89.5 126.5t-31.5 168.5q-1 82 25 152t74 121.5t114.5 80t145.5 27.5q89 0 161 -34l27 43h140l-70 -113q49 -51 75.5 -121.5t26.5 -154.5zM468 591q-36 15 -82 15
q-94 0 -148 -62.5t-54 -173.5q0 -101 46 -162zM588 370q0 82 -30 137l-225 -366q26 -6 53 -6q94 0 148 63t54 172z" />
    <glyph glyph-name="Ugrave" unicode="&#xd9;" horiz-adv-x="752" 
d="M72 737h149v-459q0 -70 42.5 -109t111.5 -39q65 0 111 41q45 41 45 107v459h149v-464q1 -67 -23 -120t-66 -90t-98 -56.5t-118 -18.5q-61 -1 -116.5 18.5t-97.5 56.5t-66 90.5t-23 119.5v464zM208 965h130l90 -177h-104z" />
    <glyph glyph-name="Uacute" unicode="&#xda;" horiz-adv-x="752" 
d="M72 737h149v-459q0 -70 42.5 -109t111.5 -39q65 0 111 41q45 41 45 107v459h149v-464q1 -67 -23 -120t-66 -90t-98 -56.5t-118 -18.5q-61 -1 -116.5 18.5t-97.5 56.5t-66 90.5t-23 119.5v464zM324 788l89 177h130l-115 -177h-104z" />
    <glyph glyph-name="Ucircumflex" unicode="&#xdb;" horiz-adv-x="752" 
d="M72 737h149v-459q0 -70 42.5 -109t111.5 -39q65 0 111 41q45 41 45 107v459h149v-464q1 -67 -23 -120t-66 -90t-98 -56.5t-118 -18.5q-61 -1 -116.5 18.5t-97.5 56.5t-66 90.5t-23 119.5v464zM436 788l-60 105l-61 -105h-105l96 178h111h28l96 -178h-105z" />
    <glyph glyph-name="Udieresis" unicode="&#xdc;" horiz-adv-x="752" 
d="M72 737h149v-459q0 -70 42.5 -109t111.5 -39q65 0 111 41q45 41 45 107v459h149v-464q1 -67 -23 -120t-66 -90t-98 -56.5t-118 -18.5q-61 -1 -116.5 18.5t-97.5 56.5t-66 90.5t-23 119.5v464zM187 873q0 33 23.5 56t56.5 23q32 0 55 -23.5t23 -55.5t-23 -55t-55 -23
q-33 0 -56.5 23t-23.5 55zM406 873q0 33 23.5 56t56.5 23q32 0 55.5 -23.5t23.5 -55.5t-23.5 -55t-55.5 -23q-33 0 -56.5 23t-23.5 55z" />
    <glyph glyph-name="Yacute" unicode="&#xdd;" horiz-adv-x="670" 
d="M177 737l161 -302l161 302h162l-250 -448v-289h-150v289l-252 448h168zM286 788l89 177h130l-115 -177h-104z" />
    <glyph glyph-name="Thorn" unicode="&#xde;" horiz-adv-x="664" 
d="M84 737h142v-143l142 -1q57 0 101.5 -19t75 -50.5t46 -72.5t15.5 -85q0 -43 -15.5 -83.5t-45.5 -72t-74.5 -50t-102.5 -18.5h-142v-142h-142v737zM359 277q43 0 67 26.5t24 63.5t-24 64.5t-67 27.5h-133v-182h133z" />
    <glyph glyph-name="germandbls" unicode="&#xdf;" horiz-adv-x="598" 
d="M566 227q0 -54 -20 -96t-54.5 -71.5t-80.5 -44.5t-98 -15q-34 0 -64 8v135q30 -14 62 -14q54 0 85.5 30t31.5 78q0 55 -34 85t-94 28h-4h-6v113q49 0 69.5 25t20.5 54q0 42 -25.5 62t-61.5 20q-38 0 -64 -23.5t-26 -69.5l-1 -531h-143v515q0 109 59 172t162 63
q48 0 89.5 -13.5t72 -39t47.5 -63.5t17 -86q0 -74 -45 -125q51 -30 78 -78.5t27 -117.5z" />
    <glyph glyph-name="agrave" unicode="&#xe0;" horiz-adv-x="534" 
d="M359 0q-2 10 -3.5 21.5t-3.5 25.5q-19 -27 -55.5 -43.5t-87.5 -16.5q-39 0 -72 11.5t-57 32.5t-37.5 51t-13.5 68q0 75 48 115.5t133 40.5h138v17q0 39 -24.5 57.5t-66.5 18.5q-78 0 -113 -66l-103 58q65 122 224 122q97 0 159 -50q63 -49 63 -164v-184q0 -39 3 -71
t7 -44h-138zM349 210h-105q-34 0 -52 -15.5t-18 -42.5q0 -59 76 -59q37 0 68 23q31 22 31 85v9zM101 735h130l90 -177h-104z" />
    <glyph glyph-name="aacute" unicode="&#xe1;" horiz-adv-x="534" 
d="M359 0q-2 10 -3.5 21.5t-3.5 25.5q-19 -27 -55.5 -43.5t-87.5 -16.5q-39 0 -72 11.5t-57 32.5t-37.5 51t-13.5 68q0 75 48 115.5t133 40.5h138v17q0 39 -24.5 57.5t-66.5 18.5q-78 0 -113 -66l-103 58q65 122 224 122q97 0 159 -50q63 -49 63 -164v-184q0 -39 3 -71
t7 -44h-138zM349 210h-105q-34 0 -52 -15.5t-18 -42.5q0 -59 76 -59q37 0 68 23q31 22 31 85v9zM217 558l89 177h130l-115 -177h-104z" />
    <glyph glyph-name="acircumflex" unicode="&#xe2;" horiz-adv-x="534" 
d="M359 0q-2 10 -3.5 21.5t-3.5 25.5q-19 -27 -55.5 -43.5t-87.5 -16.5q-39 0 -72 11.5t-57 32.5t-37.5 51t-13.5 68q0 75 48 115.5t133 40.5h138v17q0 39 -24.5 57.5t-66.5 18.5q-78 0 -113 -66l-103 58q65 122 224 122q97 0 159 -50q63 -49 63 -164v-184q0 -39 3 -71
t7 -44h-138zM349 210h-105q-34 0 -52 -15.5t-18 -42.5q0 -59 76 -59q37 0 68 23q31 22 31 85v9zM330 558l-60 105l-61 -105h-105l96 178h111h28l96 -178h-105z" />
    <glyph glyph-name="atilde" unicode="&#xe3;" horiz-adv-x="534" 
d="M359 0q-2 10 -3.5 21.5t-3.5 25.5q-19 -27 -55.5 -43.5t-87.5 -16.5q-39 0 -72 11.5t-57 32.5t-37.5 51t-13.5 68q0 75 48 115.5t133 40.5h138v17q0 39 -24.5 57.5t-66.5 18.5q-78 0 -113 -66l-103 58q65 122 224 122q97 0 159 -50q63 -49 63 -164v-184q0 -39 3 -71
t7 -44h-138zM349 210h-105q-34 0 -52 -15.5t-18 -42.5q0 -59 76 -59q37 0 68 23q31 22 31 85v9zM83 615q0 57 30.5 87.5t73.5 30.5q23 0 43 -8t44 -22q23 -12 35 -17t25 -5q15 0 23.5 9t8.5 24q0 9 -1 12h88q3 -18 3 -33q0 -57 -31 -85.5t-76 -28.5q-24 0 -44.5 8t-47.5 22
q-19 10 -31 15t-23 5q-18 0 -25 -13.5t-5 -35.5l-87 -1q-3 20 -3 36z" />
    <glyph glyph-name="adieresis" unicode="&#xe4;" horiz-adv-x="534" 
d="M359 0q-2 10 -3.5 21.5t-3.5 25.5q-19 -27 -55.5 -43.5t-87.5 -16.5q-39 0 -72 11.5t-57 32.5t-37.5 51t-13.5 68q0 75 48 115.5t133 40.5h138v17q0 39 -24.5 57.5t-66.5 18.5q-78 0 -113 -66l-103 58q65 122 224 122q97 0 159 -50q63 -49 63 -164v-184q0 -39 3 -71
t7 -44h-138zM349 210h-105q-34 0 -52 -15.5t-18 -42.5q0 -59 76 -59q37 0 68 23q31 22 31 85v9zM80 643q0 33 23.5 56t56.5 23q32 0 55 -23.5t23 -55.5t-23 -55t-55 -23q-33 0 -56.5 23t-23.5 55zM299 643q0 33 23.5 56t56.5 23q32 0 55.5 -23.5t23.5 -55.5t-23.5 -55
t-55.5 -23q-33 0 -56.5 23t-23.5 55z" />
    <glyph glyph-name="aring" unicode="&#xe5;" horiz-adv-x="534" 
d="M359 0q-2 10 -3.5 21.5t-3.5 25.5q-19 -27 -55.5 -43.5t-87.5 -16.5q-39 0 -72 11.5t-57 32.5t-37.5 51t-13.5 68q0 75 48 115.5t133 40.5h138v17q0 39 -24.5 57.5t-66.5 18.5q-78 0 -113 -66l-103 58q65 122 224 122q97 0 159 -50q63 -49 63 -164v-184q0 -39 3 -71
t7 -44h-138zM349 210h-105q-34 0 -52 -15.5t-18 -42.5q0 -59 76 -59q37 0 68 23q31 22 31 85v9zM135 677q0 27 10.5 52t29 43.5t43 29.5t51.5 11t51 -11t42.5 -29.5t29 -43.5t10.5 -52t-10.5 -51.5t-29 -43t-42.5 -29.5t-51 -11q-28 0 -52.5 10.5t-42.5 29t-28.5 43
t-10.5 52.5zM325 679q0 23 -16 39t-40 16t-40 -16t-16 -39q0 -25 16 -41.5t40 -16.5t40 16.5t16 41.5z" />
    <glyph glyph-name="ae" unicode="&#xe6;" horiz-adv-x="896" 
d="M856 197h-358q9 -42 40.5 -65t76.5 -23q37 0 68 17t49 46l106 -57q-29 -60 -90 -93.5t-136 -33.5q-60 0 -107 21.5t-74 59.5q-27 -39 -75 -60t-108 -21q-93 0 -148.5 43t-55.5 121q0 69 43.5 111t115.5 42h109q41 0 41 32q0 17 -7.5 28t-19 18.5t-26.5 10.5t-30 3
q-37 0 -68 -18.5t-49 -51.5l-103 59q35 60 93.5 94t124.5 34q57 0 101 -19.5t68 -54.5q30 36 75.5 55t99.5 19q55 0 100 -18.5t77 -51.5t49.5 -79.5t17.5 -103.5v-64zM712 298q-2 43 -31.5 71.5t-74.5 28.5q-43 0 -72.5 -27.5t-36.5 -72.5h215zM354 208h-101
q-32 0 -49 -16.5t-17 -40.5q0 -26 20 -41.5t55 -15.5q45 0 68.5 24.5t23.5 69.5v20z" />
    <glyph glyph-name="ccedilla" unicode="&#xe7;" horiz-adv-x="556" 
d="M404 191l120 -45q-20 -66 -74.5 -107.5t-127.5 -49.5l-20 -24h34q36 0 57.5 -23.5t21.5 -60.5q0 -39 -21.5 -61.5t-57.5 -22.5h-114v62h92q11 0 18.5 5.5t7.5 17.5q0 11 -7.5 16.5t-18.5 5.5h-92v62l18 25q-97 15 -152.5 83.5t-55.5 174.5q0 59 18.5 108t52.5 83.5
t81.5 53.5t105.5 19q87 0 151 -44t83 -114l-122 -48q-11 35 -41 56t-68 21q-55 0 -86.5 -36t-31.5 -99t32 -98t86 -35q39 0 69.5 20.5t41.5 54.5z" />
    <glyph glyph-name="egrave" unicode="&#xe8;" horiz-adv-x="565" 
d="M534 200h-369q6 -48 39.5 -70t79.5 -22q80 0 112 65l119 -46q-27 -66 -88.5 -103t-142.5 -37q-55 0 -101.5 19t-80 53.5t-52 82.5t-18.5 107t18.5 107.5t52 83.5t80.5 54t103 19t102 -19t78.5 -53.5t50 -83.5t17.5 -108v-49zM389 298q-4 49 -32 73.5t-74 24.5
q-97 0 -115 -98h221zM118 735h130l90 -177h-104z" />
    <glyph glyph-name="eacute" unicode="&#xe9;" horiz-adv-x="565" 
d="M534 200h-369q6 -48 39.5 -70t79.5 -22q80 0 112 65l119 -46q-27 -66 -88.5 -103t-142.5 -37q-55 0 -101.5 19t-80 53.5t-52 82.5t-18.5 107t18.5 107.5t52 83.5t80.5 54t103 19t102 -19t78.5 -53.5t50 -83.5t17.5 -108v-49zM389 298q-4 49 -32 73.5t-74 24.5
q-97 0 -115 -98h221zM234 558l89 177h130l-115 -177h-104z" />
    <glyph glyph-name="ecircumflex" unicode="&#xea;" horiz-adv-x="565" 
d="M534 200h-369q6 -48 39.5 -70t79.5 -22q80 0 112 65l119 -46q-27 -66 -88.5 -103t-142.5 -37q-55 0 -101.5 19t-80 53.5t-52 82.5t-18.5 107t18.5 107.5t52 83.5t80.5 54t103 19t102 -19t78.5 -53.5t50 -83.5t17.5 -108v-49zM389 298q-4 49 -32 73.5t-74 24.5
q-97 0 -115 -98h221zM347 558l-60 105l-61 -105h-105l96 178h111h28l96 -178h-105z" />
    <glyph glyph-name="edieresis" unicode="&#xeb;" horiz-adv-x="565" 
d="M534 200h-369q6 -48 39.5 -70t79.5 -22q80 0 112 65l119 -46q-27 -66 -88.5 -103t-142.5 -37q-55 0 -101.5 19t-80 53.5t-52 82.5t-18.5 107t18.5 107.5t52 83.5t80.5 54t103 19t102 -19t78.5 -53.5t50 -83.5t17.5 -108v-49zM389 298q-4 49 -32 73.5t-74 24.5
q-97 0 -115 -98h221zM87 625q0 33 23.5 56t56.5 23q32 0 55 -23.5t23 -55.5t-23 -55t-55 -23q-33 0 -56.5 23t-23.5 55zM306 625q0 33 23.5 56t56.5 23q32 0 55.5 -23.5t23.5 -55.5t-23.5 -55t-55.5 -23q-33 0 -56.5 23t-23.5 55z" />
    <glyph glyph-name="igrave" unicode="&#xec;" horiz-adv-x="252" 
d="M197 498v-498h-142v498h142zM-42 735h130l90 -177h-104z" />
    <glyph glyph-name="iacute" unicode="&#xed;" horiz-adv-x="252" 
d="M197 498v-498h-142v498h142zM74 558l89 177h130l-115 -177h-104z" />
    <glyph glyph-name="icircumflex" unicode="&#xee;" horiz-adv-x="252" 
d="M197 498v-498h-142v498h142zM187 558l-60 105l-61 -105h-105l96 178h111h28l96 -178h-105z" />
    <glyph glyph-name="idieresis" unicode="&#xef;" horiz-adv-x="252" 
d="M197 498v-498h-142v498h142zM-62 643q0 33 23.5 56t56.5 23q32 0 55 -23.5t23 -55.5t-23 -55t-55 -23q-33 0 -56.5 23t-23.5 55zM157 643q0 33 23.5 56t56.5 23q32 0 55.5 -23.5t23.5 -55.5t-23.5 -55t-55.5 -23q-33 0 -56.5 23t-23.5 55z" />
    <glyph glyph-name="eth" unicode="&#xf0;" horiz-adv-x="679" 
d="M639 315q0 -80 -23.5 -141.5t-64 -103t-96 -62.5t-120.5 -21q-66 0 -120.5 21.5t-93.5 60t-60 92t-21 117.5q-1 62 21.5 113t61 88.5t88.5 58t103 20.5q91 0 143 -37q-27 68 -73 111l-69 -54l-60 79l57 43q-41 34 -71 50l75 93q57 -31 98 -64l68 53l63 -75l-60 -46
q37 -37 65 -82t48 -99q41 -108 41 -215zM488 271q0 31 -10 59t-29.5 49t-47.5 33.5t-64 12.5q-72 0 -113 -45q-40 -43 -40 -108q0 -31 10.5 -59t30 -49t48 -33.5t64.5 -12.5t64 11.5t47.5 32t29.5 48.5t10 61z" />
    <glyph glyph-name="ntilde" unicode="&#xf1;" horiz-adv-x="592" 
d="M539 0h-142v274q0 65 -30 87q-29 23 -64 23q-39 0 -74 -24q-33 -22 -33 -86v-274h-142v498h135l4 -45q21 28 58.5 44t82.5 16q100 0 152.5 -54.5t52.5 -151.5v-307zM119 615q0 57 30.5 87.5t73.5 30.5q23 0 43 -8t44 -22q23 -12 35 -17t25 -5q15 0 23.5 9t8.5 24
q0 9 -1 12h88q3 -18 3 -33q0 -57 -31 -85.5t-76 -28.5q-24 0 -44.5 8t-47.5 22q-19 10 -31 15t-23 5q-18 0 -25 -13.5t-5 -35.5l-87 -1q-3 20 -3 36z" />
    <glyph glyph-name="ograve" unicode="&#xf2;" horiz-adv-x="588" 
d="M295 512q59 0 107 -19t82.5 -53.5t53.5 -83t19 -106.5t-19 -106.5t-53.5 -83t-82.5 -53.5t-107 -19q-60 0 -108.5 19t-83 53.5t-53 83t-18.5 106.5t18.5 106.5t53 83t83 53.5t108.5 19zM295 115q54 0 86 37.5t32 98.5q0 60 -32 97t-86 37q-55 0 -87.5 -37t-32.5 -97
q0 -61 33 -98.5t87 -37.5zM127 735h130l90 -177h-104z" />
    <glyph glyph-name="oacute" unicode="&#xf3;" horiz-adv-x="588" 
d="M295 512q59 0 107 -19t82.5 -53.5t53.5 -83t19 -106.5t-19 -106.5t-53.5 -83t-82.5 -53.5t-107 -19q-60 0 -108.5 19t-83 53.5t-53 83t-18.5 106.5t18.5 106.5t53 83t83 53.5t108.5 19zM295 115q54 0 86 37.5t32 98.5q0 60 -32 97t-86 37q-55 0 -87.5 -37t-32.5 -97
q0 -61 33 -98.5t87 -37.5zM242 558l89 177h130l-115 -177h-104z" />
    <glyph glyph-name="ocircumflex" unicode="&#xf4;" horiz-adv-x="588" 
d="M295 512q59 0 107 -19t82.5 -53.5t53.5 -83t19 -106.5t-19 -106.5t-53.5 -83t-82.5 -53.5t-107 -19q-60 0 -108.5 19t-83 53.5t-53 83t-18.5 106.5t18.5 106.5t53 83t83 53.5t108.5 19zM295 115q54 0 86 37.5t32 98.5q0 60 -32 97t-86 37q-55 0 -87.5 -37t-32.5 -97
q0 -61 33 -98.5t87 -37.5zM355 558l-60 105l-61 -105h-105l96 178h111h28l96 -178h-105z" />
    <glyph glyph-name="otilde" unicode="&#xf5;" horiz-adv-x="588" 
d="M295 512q59 0 107 -19t82.5 -53.5t53.5 -83t19 -106.5t-19 -106.5t-53.5 -83t-82.5 -53.5t-107 -19q-60 0 -108.5 19t-83 53.5t-53 83t-18.5 106.5t18.5 106.5t53 83t83 53.5t108.5 19zM295 115q54 0 86 37.5t32 98.5q0 60 -32 97t-86 37q-55 0 -87.5 -37t-32.5 -97
q0 -61 33 -98.5t87 -37.5zM108 615q0 57 30.5 87.5t73.5 30.5q23 0 43 -8t44 -22q23 -12 35 -17t25 -5q15 0 23.5 9t8.5 24q0 9 -1 12h88q3 -18 3 -33q0 -57 -31 -85.5t-76 -28.5q-24 0 -44.5 8t-47.5 22q-19 10 -31 15t-23 5q-18 0 -25 -13.5t-5 -35.5l-87 -1q-3 20 -3 36z
" />
    <glyph glyph-name="odieresis" unicode="&#xf6;" horiz-adv-x="588" 
d="M295 512q59 0 107 -19t82.5 -53.5t53.5 -83t19 -106.5t-19 -106.5t-53.5 -83t-82.5 -53.5t-107 -19q-60 0 -108.5 19t-83 53.5t-53 83t-18.5 106.5t18.5 106.5t53 83t83 53.5t108.5 19zM295 115q54 0 86 37.5t32 98.5q0 60 -32 97t-86 37q-55 0 -87.5 -37t-32.5 -97
q0 -61 33 -98.5t87 -37.5zM106 643q0 33 23.5 56t56.5 23q32 0 55 -23.5t23 -55.5t-23 -55t-55 -23q-33 0 -56.5 23t-23.5 55zM325 643q0 33 23.5 56t56.5 23q32 0 55.5 -23.5t23.5 -55.5t-23.5 -55t-55.5 -23q-33 0 -56.5 23t-23.5 55z" />
    <glyph glyph-name="divide" unicode="&#xf7;" horiz-adv-x="550" 
d="M195 493q0 33 24 56t57 23q32 0 55.5 -23t23.5 -56q0 -31 -23.5 -54.5t-55.5 -23.5q-33 0 -57 23t-24 55zM470 368v-109h-390v109h390zM195 125q0 32 24 55.5t57 23.5q32 0 55.5 -23.5t23.5 -55.5q0 -31 -23.5 -55t-55.5 -24q-33 0 -57 23.5t-24 55.5z" />
    <glyph glyph-name="oslash" unicode="&#xf8;" horiz-adv-x="588" 
d="M557 250q0 -58 -19 -106.5t-53.5 -83t-82.5 -53.5t-107 -19q-47 0 -88 12l-31 -50h-128l64 103q-80 72 -80 197q0 58 18.5 106.5t53 83t83 53.5t108.5 19q52 0 95 -15l29 46h121l-61 -99q37 -35 57.5 -84.5t20.5 -109.5zM319 383q-8 1 -14 1.5t-10 0.5q-55 0 -87.5 -37
t-32.5 -97q0 -45 16 -73zM413 251q0 37 -12 65l-123 -200l17 -1q54 0 86 37.5t32 98.5z" />
    <glyph glyph-name="ugrave" unicode="&#xf9;" horiz-adv-x="604" 
d="M410 0q-6 18 -9 46q-44 -59 -139 -59q-86 0 -148 47q-61 46 -61 160v304h143v-274q0 -65 30 -88q31 -22 67 -22q38 0 71 24q34 24 34 86v274h142v-406q0 -19 3 -47t8 -45h-141zM129 735h130l90 -177h-104z" />
    <glyph glyph-name="uacute" unicode="&#xfa;" horiz-adv-x="604" 
d="M410 0q-6 18 -9 46q-44 -59 -139 -59q-86 0 -148 47q-61 46 -61 160v304h143v-274q0 -65 30 -88q31 -22 67 -22q38 0 71 24q34 24 34 86v274h142v-406q0 -19 3 -47t8 -45h-141zM244 558l89 177h130l-115 -177h-104z" />
    <glyph glyph-name="ucircumflex" unicode="&#xfb;" horiz-adv-x="604" 
d="M410 0q-6 18 -9 46q-44 -59 -139 -59q-86 0 -148 47q-61 46 -61 160v304h143v-274q0 -65 30 -88q31 -22 67 -22q38 0 71 24q34 24 34 86v274h142v-406q0 -19 3 -47t8 -45h-141zM357 558l-60 105l-61 -105h-105l96 178h111h28l96 -178h-105z" />
    <glyph glyph-name="udieresis" unicode="&#xfc;" horiz-adv-x="604" 
d="M410 0q-6 18 -9 46q-44 -59 -139 -59q-86 0 -148 47q-61 46 -61 160v304h143v-274q0 -65 30 -88q31 -22 67 -22q38 0 71 24q34 24 34 86v274h142v-406q0 -19 3 -47t8 -45h-141zM108 643q0 33 23.5 56t56.5 23q32 0 55 -23.5t23 -55.5t-23 -55t-55 -23q-33 0 -56.5 23
t-23.5 55zM327 643q0 33 23.5 56t56.5 23q32 0 55.5 -23.5t23.5 -55.5t-23.5 -55t-55.5 -23q-33 0 -56.5 23t-23.5 55z" />
    <glyph glyph-name="yacute" unicode="&#xfd;" horiz-adv-x="577" 
d="M567 498l-242 -616q-49 -132 -173 -132q-51 0 -122 24l39 129q37 -22 70 -22q52 0 70 52l14 39l-212 526h150l130 -344l126 344h150zM237 558l89 177h130l-115 -177h-104z" />
    <glyph glyph-name="thorn" unicode="&#xfe;" horiz-adv-x="660" 
d="M373 -12q-52 0 -96 16t-67 44v-281h-142v970h142v-280q23 26 62.5 41.5t94.5 15.5q115 0 184 -70q69 -69 69 -197q0 -63 -19 -111.5t-52.5 -81t-78.5 -49.5t-97 -17zM476 249q0 61 -36.5 98.5t-93.5 37.5q-58 0 -94.5 -36.5t-36.5 -99.5t36.5 -98t94.5 -35t94 35t36 98z
" />
    <glyph glyph-name="ydieresis" unicode="&#xff;" horiz-adv-x="577" 
d="M567 498l-242 -616q-49 -132 -173 -132q-51 0 -122 24l39 129q37 -22 70 -22q52 0 70 52l14 39l-212 526h150l130 -344l126 344h150zM100 643q0 33 23.5 56t56.5 23q32 0 55 -23.5t23 -55.5t-23 -55t-55 -23q-33 0 -56.5 23t-23.5 55zM319 643q0 33 23.5 56t56.5 23
q32 0 55.5 -23.5t23.5 -55.5t-23.5 -55t-55.5 -23q-33 0 -56.5 23t-23.5 55z" />
    <glyph glyph-name="Amacron" unicode="&#x100;" horiz-adv-x="695" 
d="M472 161h-251l-56 -161h-155l264 737h146h2l263 -737h-158zM429 286l-82 242l-83 -242h165zM510 895v-89h-322v89h322z" />
    <glyph glyph-name="amacron" unicode="&#x101;" horiz-adv-x="534" 
d="M359 0q-2 10 -3.5 21.5t-3.5 25.5q-19 -27 -55.5 -43.5t-87.5 -16.5q-39 0 -72 11.5t-57 32.5t-37.5 51t-13.5 68q0 75 48 115.5t133 40.5h138v17q0 39 -24.5 57.5t-66.5 18.5q-78 0 -113 -66l-103 58q65 122 224 122q97 0 159 -50q63 -49 63 -164v-184q0 -39 3 -71
t7 -44h-138zM349 210h-105q-34 0 -52 -15.5t-18 -42.5q0 -59 76 -59q37 0 68 23q31 22 31 85v9zM430 665v-89h-322v89h322z" />
    <glyph glyph-name="Abreve" unicode="&#x102;" horiz-adv-x="695" 
d="M472 161h-251l-56 -161h-155l264 737h146h2l263 -737h-158zM429 286l-82 242l-83 -242h165zM350 788q-39 0 -73 14t-59 37.5t-39.5 55.5t-14.5 68h104q1 -35 24 -54t58 -19q34 0 57 19t24 54h103q-1 -36 -15.5 -68t-39 -55.5t-58 -37.5t-71.5 -14z" />
    <glyph glyph-name="abreve" unicode="&#x103;" horiz-adv-x="534" 
d="M359 0q-2 10 -3.5 21.5t-3.5 25.5q-19 -27 -55.5 -43.5t-87.5 -16.5q-39 0 -72 11.5t-57 32.5t-37.5 51t-13.5 68q0 75 48 115.5t133 40.5h138v17q0 39 -24.5 57.5t-66.5 18.5q-78 0 -113 -66l-103 58q65 122 224 122q97 0 159 -50q63 -49 63 -164v-184q0 -39 3 -71
t7 -44h-138zM349 210h-105q-34 0 -52 -15.5t-18 -42.5q0 -59 76 -59q37 0 68 23q31 22 31 85v9zM270 558q-39 0 -73 14t-59 37.5t-39.5 55.5t-14.5 68h104q1 -35 24 -54t58 -19q34 0 57 19t24 54h103q-1 -36 -15.5 -68t-39 -55.5t-58 -37.5t-71.5 -14z" />
    <glyph glyph-name="Aogonek" unicode="&#x104;" horiz-adv-x="695" 
d="M472 161h-251l-56 -161h-155l264 737h146h2l263 -737h-158zM429 286l-82 242l-83 -242h165zM691 0q-38 -13 -57 -34.5t-19 -43.5q0 -17 11.5 -28t30.5 -11q13 0 28 6v-92q-29 -10 -58 -10q-49 0 -78 30t-29 72q0 35 21.5 65t64.5 46h85z" />
    <glyph glyph-name="aogonek" unicode="&#x105;" horiz-adv-x="534" 
d="M421 -78q0 -17 11.5 -28t30.5 -11q13 0 28 6v-92q-29 -10 -58 -10q-49 0 -78 30t-29 72q0 35 21.5 65t64.5 46h-53q-2 10 -3.5 21.5t-3.5 25.5q-19 -27 -55.5 -43.5t-87.5 -16.5q-39 0 -72 11.5t-57 32.5t-37.5 51t-13.5 68q0 75 48 115.5t133 40.5h138v17
q0 39 -24.5 57.5t-66.5 18.5q-78 0 -113 -66l-103 58q65 122 224 122q97 0 159 -50q63 -49 63 -164v-184q0 -39 3 -71t7 -44q-38 -13 -57 -34.5t-19 -43.5zM349 210h-105q-34 0 -52 -15.5t-18 -42.5q0 -59 76 -59q37 0 68 23q31 22 31 85v9z" />
    <glyph glyph-name="Cacute" unicode="&#x106;" horiz-adv-x="756" 
d="M568 487q-18 58 -62.5 88t-107.5 30q-48 0 -85.5 -17t-64 -47.5t-40.5 -74.5t-14 -98q0 -109 55 -171t148 -62q66 0 116 31.5t70 82.5l141 -60q-37 -96 -127 -149q-88 -52 -201 -52q-81 0 -147 27t-113 76.5t-73 119.5t-26 155q0 86 26 156.5t73.5 121t114 78.5t147.5 28
q117 0 202 -59q84 -58 111 -156zM346 788l90 177h129l-115 -177h-104z" />
    <glyph glyph-name="cacute" unicode="&#x107;" horiz-adv-x="556" 
d="M290 513q87 0 151 -44t83 -114l-122 -48q-11 35 -41 56t-68 21q-55 0 -86.5 -36t-31.5 -99t32 -98t86 -35q39 0 69.5 20.5t41.5 54.5l120 -45q-23 -73 -87 -116t-147 -43q-58 0 -105.5 19t-81.5 53.5t-52.5 82.5t-18.5 107t18.5 108t52.5 83.5t81.5 53.5t105.5 19z
M227 558l90 177h129l-115 -177h-104z" />
    <glyph glyph-name="Ccircumflex" unicode="&#x108;" horiz-adv-x="756" 
d="M568 487q-18 58 -62.5 88t-107.5 30q-48 0 -85.5 -17t-64 -47.5t-40.5 -74.5t-14 -98q0 -109 55 -171t148 -62q66 0 116 31.5t70 82.5l141 -60q-37 -96 -127 -149q-88 -52 -201 -52q-81 0 -147 27t-113 76.5t-73 119.5t-26 155q0 86 26 156.5t73.5 121t114 78.5t147.5 28
q117 0 202 -59q84 -58 111 -156zM460 788l-60 105l-61 -105h-105l96 178h111h28l96 -178h-105z" />
    <glyph glyph-name="ccircumflex" unicode="&#x109;" horiz-adv-x="556" 
d="M290 513q87 0 151 -44t83 -114l-122 -48q-11 35 -41 56t-68 21q-55 0 -86.5 -36t-31.5 -99t32 -98t86 -35q39 0 69.5 20.5t41.5 54.5l120 -45q-23 -73 -87 -116t-147 -43q-58 0 -105.5 19t-81.5 53.5t-52.5 82.5t-18.5 107t18.5 108t52.5 83.5t81.5 53.5t105.5 19z
M340 558l-60 105l-61 -105h-105l96 178h111h28l96 -178h-105z" />
    <glyph glyph-name="Cdotaccent" unicode="&#x10a;" horiz-adv-x="756" 
d="M568 487q-18 58 -62.5 88t-107.5 30q-48 0 -85.5 -17t-64 -47.5t-40.5 -74.5t-14 -98q0 -109 55 -171t148 -62q66 0 116 31.5t70 82.5l141 -60q-37 -96 -127 -149q-88 -52 -201 -52q-81 0 -147 27t-113 76.5t-73 119.5t-26 155q0 86 26 156.5t73.5 121t114 78.5t147.5 28
q117 0 202 -59q84 -58 111 -156zM320 873q0 33 23 56t55 23t55.5 -23.5t23.5 -55.5t-23.5 -55t-55.5 -23t-55 22.5t-23 55.5z" />
    <glyph glyph-name="cdotaccent" unicode="&#x10b;" horiz-adv-x="556" 
d="M290 513q87 0 151 -44t83 -114l-122 -48q-11 35 -41 56t-68 21q-55 0 -86.5 -36t-31.5 -99t32 -98t86 -35q39 0 69.5 20.5t41.5 54.5l120 -45q-23 -73 -87 -116t-147 -43q-58 0 -105.5 19t-81.5 53.5t-52.5 82.5t-18.5 107t18.5 108t52.5 83.5t81.5 53.5t105.5 19z
M201 643q0 33 23 56t55 23t55.5 -23.5t23.5 -55.5t-23.5 -55t-55.5 -23t-55 22.5t-23 55.5z" />
    <glyph glyph-name="Ccaron" unicode="&#x10c;" horiz-adv-x="756" 
d="M568 487q-18 58 -62.5 88t-107.5 30q-48 0 -85.5 -17t-64 -47.5t-40.5 -74.5t-14 -98q0 -109 55 -171t148 -62q66 0 116 31.5t70 82.5l141 -60q-37 -96 -127 -149q-88 -52 -201 -52q-81 0 -147 27t-113 76.5t-73 119.5t-26 155q0 86 26 156.5t73.5 121t114 78.5t147.5 28
q117 0 202 -59q84 -58 111 -156zM565 966l-96 -178h-112h-28l-95 178h105l60 -105l61 105h105z" />
    <glyph glyph-name="ccaron" unicode="&#x10d;" horiz-adv-x="556" 
d="M290 513q87 0 151 -44t83 -114l-122 -48q-11 35 -41 56t-68 21q-55 0 -86.5 -36t-31.5 -99t32 -98t86 -35q39 0 69.5 20.5t41.5 54.5l120 -45q-23 -73 -87 -116t-147 -43q-58 0 -105.5 19t-81.5 53.5t-52.5 82.5t-18.5 107t18.5 108t52.5 83.5t81.5 53.5t105.5 19z
M446 736l-96 -178h-112h-28l-95 178h105l60 -105l61 105h105z" />
    <glyph glyph-name="Dcaron" unicode="&#x10e;" horiz-adv-x="753" 
d="M716 367q1 -80 -27 -147.5t-78.5 -117t-118.5 -76.5t-146 -26h-268v737h268q77 1 144.5 -27t118 -78t79.5 -118t28 -147zM558 367q0 51 -15.5 93.5t-43.5 72.5t-67.5 47t-87.5 17h-117v-459h117q49 0 88.5 16.5t67.5 46.5t43 72.5t15 93.5zM459 966l-96 -178h-112h-28
l-95 178h105l60 -105l61 105h105z" />
    <glyph glyph-name="dcaron" unicode="&#x10f;" horiz-adv-x="765" 
d="M722 504h-66l-21 193q-3 30 14.5 47t41.5 17t40.5 -17t12.5 -47zM585 131q0 -27 3 -74q3 -48 7 -57h-143q-2 10 -4 24t-4 31q-25 -32 -67 -50t-93 -18q-55 0 -101 16.5t-79.5 49.5t-52.5 82t-19 114q0 60 19.5 108.5t53 83t79.5 53.5t100 19q48 0 90.5 -14t67.5 -42v293
h143v-619zM438 252q0 61 -36.5 97t-93.5 36q-58 0 -95 -35t-37 -98q0 -61 37.5 -98.5t94.5 -37.5t93.5 37.5t36.5 98.5z" />
    <glyph glyph-name="Dcroat" unicode="&#x110;" horiz-adv-x="771" 
d="M716 367q1 -80 -27 -147.5t-78.5 -117t-118.5 -76.5t-146 -26h-268v308h-67v122h67v307h268q77 1 144.5 -27t118 -78t79.5 -118t28 -147zM558 367q0 51 -15.5 93.5t-43.5 72.5t-67.5 47t-87.5 17h-117v-167h89v-122h-89v-170h117q49 0 88.5 16.5t67.5 46.5t43 72.5
t15 93.5z" />
    <glyph glyph-name="dcroat" unicode="&#x111;" horiz-adv-x="649" 
d="M584 562v-431q0 -27 3 -74q3 -46 6 -57h-142q-2 8 -3.5 22t-3.5 34q-24 -33 -66.5 -51t-93.5 -18q-55 0 -101 16.5t-79.5 49.5t-52.5 82t-19 114q0 60 19.5 108.5t54 83t81 53.5t101.5 19q45 0 86.5 -15t67.5 -45v109h-166v108h166v80h142v-80h67v-108h-67zM438 251
q0 61 -37 97.5t-94 36.5t-94 -36.5t-37 -97.5q0 -63 37 -99t94 -36t94 36t37 99z" />
    <glyph glyph-name="Emacron" unicode="&#x112;" horiz-adv-x="598" 
d="M542 140v-140h-464v737h464v-142h-315v-157h280v-132h-280v-166h315zM470 895v-89h-322v89h322z" />
    <glyph glyph-name="emacron" unicode="&#x113;" horiz-adv-x="565" 
d="M534 200h-369q6 -48 39.5 -70t79.5 -22q80 0 112 65l119 -46q-27 -66 -88.5 -103t-142.5 -37q-55 0 -101.5 19t-80 53.5t-52 82.5t-18.5 107t18.5 107.5t52 83.5t80.5 54t103 19t102 -19t78.5 -53.5t50 -83.5t17.5 -108v-49zM389 298q-4 49 -32 73.5t-74 24.5
q-97 0 -115 -98h221zM447 665v-89h-322v89h322z" />
    <glyph glyph-name="Ebreve" unicode="&#x114;" horiz-adv-x="598" 
d="M542 140v-140h-464v737h464v-142h-315v-157h280v-132h-280v-166h315zM495 967q0 -36 -14 -68.5t-39 -57t-58.5 -39t-72.5 -14.5q-40 0 -74 14t-59 38.5t-39 57t-14 69.5h104q0 -37 23 -57t59 -20q35 0 58 20t23 57h103z" />
    <glyph glyph-name="ebreve" unicode="&#x115;" horiz-adv-x="565" 
d="M534 200h-369q6 -48 39.5 -70t79.5 -22q80 0 112 65l119 -46q-27 -66 -88.5 -103t-142.5 -37q-55 0 -101.5 19t-80 53.5t-52 82.5t-18.5 107t18.5 107.5t52 83.5t80.5 54t103 19t102 -19t78.5 -53.5t50 -83.5t17.5 -108v-49zM389 298q-4 49 -32 73.5t-74 24.5
q-97 0 -115 -98h221zM471 737q0 -36 -14 -68.5t-39 -57t-58.5 -39t-72.5 -14.5q-40 0 -74 14t-59 38.5t-39 57t-14 69.5h104q0 -37 23 -57t59 -20q35 0 58 20t23 57h103z" />
    <glyph glyph-name="Edotaccent" unicode="&#x116;" horiz-adv-x="598" 
d="M542 140v-140h-464v737h464v-142h-315v-157h280v-132h-280v-166h315zM231 873q0 33 23 56t55 23t55.5 -23.5t23.5 -55.5t-23.5 -55t-55.5 -23t-55 22.5t-23 55.5z" />
    <glyph glyph-name="edotaccent" unicode="&#x117;" horiz-adv-x="565" 
d="M534 200h-369q6 -48 39.5 -70t79.5 -22q80 0 112 65l119 -46q-27 -66 -88.5 -103t-142.5 -37q-55 0 -101.5 19t-80 53.5t-52 82.5t-18.5 107t18.5 107.5t52 83.5t80.5 54t103 19t102 -19t78.5 -53.5t50 -83.5t17.5 -108v-49zM389 298q-4 49 -32 73.5t-74 24.5
q-97 0 -115 -98h221zM207 643q0 33 23 56t55 23t55.5 -23.5t23.5 -55.5t-23.5 -55t-55.5 -23t-55 22.5t-23 55.5z" />
    <glyph glyph-name="Eogonek" unicode="&#x118;" horiz-adv-x="598" 
d="M542 140v-140h-464v737h464v-142h-315v-157h280v-132h-280v-166h315zM541 0q-38 -13 -57 -34.5t-19 -43.5q0 -17 11.5 -28t30.5 -11q13 0 28 6v-92q-29 -10 -58 -10q-49 0 -78 30t-29 72q0 35 21.5 65t64.5 46h85z" />
    <glyph glyph-name="eogonek" unicode="&#x119;" horiz-adv-x="565" 
d="M534 200h-369q6 -48 39.5 -70t79.5 -22q80 0 112 65l119 -46q-21 -52 -66 -87t-105 -47q-34 -13 -51 -34t-17 -41q0 -17 11.5 -28t30.5 -11q13 0 28 6v-92q-35 -11 -58 -11q-49 0 -78 30t-29 72q0 32 17.5 60t52.5 45q-49 5 -89 26t-69 55t-45 79.5t-16 99.5
q0 59 18.5 107.5t52 83.5t80.5 54t103 19t102 -19t78.5 -53.5t50 -83.5t17.5 -108v-49zM389 298q-4 49 -32 73.5t-74 24.5q-97 0 -115 -98h221z" />
    <glyph glyph-name="Ecaron" unicode="&#x11a;" horiz-adv-x="598" 
d="M542 140v-140h-464v737h464v-142h-315v-157h280v-132h-280v-166h315zM475 966l-96 -178h-112h-28l-95 178h105l60 -105l61 105h105z" />
    <glyph glyph-name="ecaron" unicode="&#x11b;" horiz-adv-x="565" 
d="M534 200h-369q6 -48 39.5 -70t79.5 -22q80 0 112 65l119 -46q-27 -66 -88.5 -103t-142.5 -37q-55 0 -101.5 19t-80 53.5t-52 82.5t-18.5 107t18.5 107.5t52 83.5t80.5 54t103 19t102 -19t78.5 -53.5t50 -83.5t17.5 -108v-49zM389 298q-4 49 -32 73.5t-74 24.5
q-97 0 -115 -98h221zM452 736l-96 -178h-112h-28l-95 178h105l60 -105l61 105h105z" />
    <glyph glyph-name="Gcircumflex" unicode="&#x11c;" horiz-adv-x="787" 
d="M730 431v-431h-128l-8 72q-33 -42 -91 -62.5t-122 -20.5q-77 -1 -140.5 27.5t-109 79.5t-70.5 120t-24 150q-1 83 25.5 153.5t74.5 122.5t115.5 80.5t149.5 27.5q118 0 206 -56q87 -56 119 -148l-134 -55q-23 61 -73 90t-116 29q-99 0 -158 -68q-58 -67 -58 -179
q0 -57 15 -100.5t42.5 -73.5t66 -45.5t85.5 -15.5q71 0 126 34q56 35 68 116v22h-206v131h345zM445 788l-60 105l-61 -105h-105l96 178h111h28l96 -178h-105z" />
    <glyph glyph-name="gcircumflex" unicode="&#x11d;" horiz-adv-x="562" 
d="M218 587h-105l96 150h112h27l96 -150h-105l-60 89zM527 454q-38 0 -60 -19q39 -49 39 -121q0 -90 -62 -146q-61 -54 -166 -54q-46 0 -91 14q-19 0 -31.5 -10t-12.5 -27q0 -13 12.5 -23.5t39.5 -10.5h170q85 0 132 -40t47 -113q0 -89 -81 -126q-81 -38 -199 -38
q-256 0 -256 128q0 35 18 62t50 40q-48 35 -48 98q0 29 16 62t55 50q-54 51 -54 133q0 45 17 82t47.5 63t73.5 40.5t95 14.5q65 0 116 -22q17 35 51 56t80 21q16 0 21 -1v-114q-4 1 -19 1zM367 312q0 36 -25 62.5t-67 26.5q-40 0 -66 -24.5t-26 -62.5t25.5 -63t67.5 -25
t66.5 24.5t24.5 61.5zM172 -58l-17 1q-25 -12 -25 -36q0 -29 33 -38.5t109 -9.5q69 0 101.5 8.5t32.5 36.5q0 38 -67 38h-167z" />
    <glyph glyph-name="Gbreve" unicode="&#x11e;" horiz-adv-x="787" 
d="M730 431v-431h-128l-8 72q-33 -42 -91 -62.5t-122 -20.5q-77 -1 -140.5 27.5t-109 79.5t-70.5 120t-24 150q-1 83 25.5 153.5t74.5 122.5t115.5 80.5t149.5 27.5q118 0 206 -56q87 -56 119 -148l-134 -55q-23 61 -73 90t-116 29q-99 0 -158 -68q-58 -67 -58 -179
q0 -57 15 -100.5t42.5 -73.5t66 -45.5t85.5 -15.5q71 0 126 34q56 35 68 116v22h-206v131h345zM569 967q0 -36 -14 -68.5t-39 -57t-58.5 -39t-72.5 -14.5q-40 0 -74 14t-59 38.5t-39 57t-14 69.5h104q0 -37 23 -57t59 -20q35 0 58 20t23 57h103z" />
    <glyph glyph-name="gbreve" unicode="&#x11f;" horiz-adv-x="562" 
d="M527 454q-38 0 -60 -19q39 -49 39 -121q0 -90 -62 -146q-61 -54 -166 -54q-46 0 -91 14q-19 0 -31.5 -10t-12.5 -27q0 -13 12.5 -23.5t39.5 -10.5h170q85 0 132 -40t47 -113q0 -89 -81 -126q-81 -38 -199 -38q-256 0 -256 128q0 35 18 62t50 40q-48 35 -48 98q0 29 16 62
t55 50q-54 51 -54 133q0 45 17 82t47.5 63t73.5 40.5t95 14.5q65 0 116 -22q17 35 51 56t80 21q16 0 21 -1v-114q-4 1 -19 1zM367 312q0 36 -25 62.5t-67 26.5q-40 0 -66 -24.5t-26 -62.5t25.5 -63t67.5 -25t66.5 24.5t24.5 61.5zM172 -58l-17 1q-25 -12 -25 -36
q0 -29 33 -38.5t109 -9.5q69 0 101.5 8.5t32.5 36.5q0 38 -67 38h-167zM463 737q0 -36 -14 -68.5t-39 -57t-58.5 -39t-72.5 -14.5q-40 0 -74 14t-59 38.5t-39 57t-14 69.5h104q0 -37 23 -57t59 -20q35 0 58 20t23 57h103z" />
    <glyph glyph-name="Gdotaccent" unicode="&#x120;" horiz-adv-x="787" 
d="M730 431v-431h-128l-8 72q-33 -42 -91 -62.5t-122 -20.5q-77 -1 -140.5 27.5t-109 79.5t-70.5 120t-24 150q-1 83 25.5 153.5t74.5 122.5t115.5 80.5t149.5 27.5q118 0 206 -56q87 -56 119 -148l-134 -55q-23 61 -73 90t-116 29q-99 0 -158 -68q-58 -67 -58 -179
q0 -57 15 -100.5t42.5 -73.5t66 -45.5t85.5 -15.5q71 0 126 34q56 35 68 116v22h-206v131h345zM306 873q0 33 23 56t55 23t55.5 -23.5t23.5 -55.5t-23.5 -55t-55.5 -23t-55 22.5t-23 55.5z" />
    <glyph glyph-name="gdotaccent" unicode="&#x121;" horiz-adv-x="562" 
d="M527 454q-38 0 -60 -19q39 -49 39 -121q0 -90 -62 -146q-61 -54 -166 -54q-46 0 -91 14q-19 0 -31.5 -10t-12.5 -27q0 -13 12.5 -23.5t39.5 -10.5h170q85 0 132 -40t47 -113q0 -89 -81 -126q-81 -38 -199 -38q-256 0 -256 128q0 35 18 62t50 40q-48 35 -48 98q0 29 16 62
t55 50q-54 51 -54 133q0 45 17 82t47.5 63t73.5 40.5t95 14.5q65 0 116 -22q17 35 51 56t80 21q16 0 21 -1v-114q-4 1 -19 1zM367 312q0 36 -25 62.5t-67 26.5q-40 0 -66 -24.5t-26 -62.5t25.5 -63t67.5 -25t66.5 24.5t24.5 61.5zM172 -58l-17 1q-25 -12 -25 -36
q0 -29 33 -38.5t109 -9.5q69 0 101.5 8.5t32.5 36.5q0 38 -67 38h-167zM199 643q0 33 23 56t55 23t55.5 -23.5t23.5 -55.5t-23.5 -55t-55.5 -23t-55 22.5t-23 55.5z" />
    <glyph glyph-name="Gcommaaccent" unicode="&#x122;" horiz-adv-x="787" 
d="M730 431v-431h-128l-8 72q-33 -42 -91 -62.5t-122 -20.5q-77 -1 -140.5 27.5t-109 79.5t-70.5 120t-24 150q-1 83 25.5 153.5t74.5 122.5t115.5 80.5t149.5 27.5q118 0 206 -56q87 -56 119 -148l-134 -55q-23 61 -73 90t-116 29q-99 0 -158 -68q-58 -67 -58 -179
q0 -57 15 -100.5t42.5 -73.5t66 -45.5t85.5 -15.5q71 0 126 34q56 35 68 116v22h-206v131h345zM479 -132q0 -52 -32 -87q-31 -36 -79 -36v35q26 0 42 16t15 36q-8 -4 -23 -4q-25 0 -40.5 16t-15.5 44q0 29 18 47t46 18q29 0 49 -21t20 -64z" />
    <glyph glyph-name="gcommaaccent" unicode="&#x123;" horiz-adv-x="562" 
d="M527 454q-38 0 -60 -19q39 -49 39 -121q0 -90 -62 -146q-61 -54 -166 -54q-46 0 -91 14q-19 0 -31.5 -10t-12.5 -27q0 -13 12.5 -23.5t39.5 -10.5h170q85 0 132 -40t47 -113q0 -89 -81 -126q-81 -38 -199 -38q-256 0 -256 128q0 35 18 62t50 40q-48 35 -48 98q0 29 16 62
t55 50q-54 51 -54 133q0 45 17 82t47.5 63t73.5 40.5t95 14.5q65 0 116 -22q17 35 51 56t80 21q16 0 21 -1v-114q-4 1 -19 1zM367 312q0 36 -25 62.5t-67 26.5q-40 0 -66 -24.5t-26 -62.5t25.5 -63t67.5 -25t66.5 24.5t24.5 61.5zM172 -58l-17 1q-25 -12 -25 -36
q0 -29 33 -38.5t109 -9.5q69 0 101.5 8.5t32.5 36.5q0 38 -67 38h-167zM226 558l89 177h130l-115 -177h-104z" />
    <glyph glyph-name="Hbar" unicode="&#x126;" horiz-adv-x="746" 
d="M742 531h-73v-531h-150v305l-292 2v-307h-149v531h-75v126h75v80h149v-80h292v80h150v-80h73v-126zM519 531h-292v-92l292 -1v93z" />
    <glyph glyph-name="hbar" unicode="&#x127;" horiz-adv-x="594" 
d="M541 306v-306h-142v273q0 66 -30 88q-31 23 -66 23q-38 0 -73 -24q-34 -24 -34 -87v-273h-142v577h-50v83h50v90h143v-90h169v-83h-169v-120q22 26 58.5 41t78.5 15q102 0 154.5 -55t52.5 -152z" />
    <glyph glyph-name="Itilde" unicode="&#x128;" horiz-adv-x="305" 
d="M78 0v737h149v-737h-149zM-33 845q0 57 30.5 87.5t73.5 30.5q23 0 43 -8t44 -22q23 -12 35 -17t25 -5q15 0 23.5 9t8.5 24q0 9 -1 12h88q3 -18 3 -33q0 -57 -31 -85.5t-76 -28.5q-24 0 -44.5 8t-47.5 22q-19 10 -31 15t-23 5q-18 0 -25 -13.5t-5 -35.5l-87 -1
q-3 20 -3 36z" />
    <glyph glyph-name="itilde" unicode="&#x129;" horiz-adv-x="252" 
d="M197 498v-498h-142v498h142zM-60 615q0 57 30.5 87.5t73.5 30.5q23 0 43 -8t44 -22q23 -12 35 -17t25 -5q15 0 23.5 9t8.5 24q0 9 -1 12h88q3 -18 3 -33q0 -57 -31 -85.5t-76 -28.5q-24 0 -44.5 8t-47.5 22q-19 10 -31 15t-23 5q-18 0 -25 -13.5t-5 -35.5l-87 -1
q-3 20 -3 36z" />
    <glyph glyph-name="Imacron" unicode="&#x12a;" horiz-adv-x="305" 
d="M78 0v737h149v-737h-149zM314 895v-89h-322v89h322z" />
    <glyph glyph-name="imacron" unicode="&#x12b;" horiz-adv-x="252" 
d="M197 498v-498h-142v498h142zM287 665v-89h-322v89h322z" />
    <glyph glyph-name="Iogonek" unicode="&#x12e;" horiz-adv-x="305" 
d="M78 0v737h149v-737h-149zM227 0q-38 -13 -57 -34.5t-19 -43.5q0 -17 11.5 -28t30.5 -11q13 0 28 6v-92q-29 -10 -58 -10q-49 0 -78 30t-29 72q0 35 21.5 65t64.5 46h85z" />
    <glyph glyph-name="iogonek" unicode="&#x12f;" horiz-adv-x="252" 
d="M197 498v-498h-142v498h142zM198 0q-38 -13 -57 -34.5t-19 -43.5q0 -17 11.5 -28t30.5 -11q13 0 28 6v-92q-29 -10 -58 -10q-49 0 -78 30t-29 72q0 35 21.5 65t64.5 46h85zM48 643q0 33 23 56t55 23t55.5 -23.5t23.5 -55.5t-23.5 -55t-55.5 -23t-55 22.5t-23 55.5z" />
    <glyph glyph-name="Idotaccent" unicode="&#x130;" horiz-adv-x="305" 
d="M78 0v737h149v-737h-149zM74 873q0 33 23 56t55 23t55.5 -23.5t23.5 -55.5t-23.5 -55t-55.5 -23t-55 22.5t-23 55.5z" />
    <glyph glyph-name="dotlessi" unicode="&#x131;" horiz-adv-x="252" 
d="M197 498v-498h-142v498h142z" />
    <glyph glyph-name="Jcircumflex" unicode="&#x134;" horiz-adv-x="565" 
d="M494 737v-532q0 -47 -17 -87t-47.5 -69.5t-74.5 -46t-98 -16.5q-57 0 -101.5 16t-74.5 45.5t-45.5 70.5t-15.5 91v26h144v-26q0 -36 23.5 -60t66.5 -24q45 0 67.5 23.5t22.5 65.5v523h150zM480 788l-60 105l-61 -105h-105l96 178h111h28l96 -178h-105z" />
    <glyph glyph-name="jcircumflex" unicode="&#x135;" horiz-adv-x="283" 
d="M-34 -113q21 -7 43 -7q31 0 49 18t18 52l-1 547h147v-569q0 -82 -48.5 -130.5t-135.5 -48.5q-46 0 -100 15zM209 558l-60 105l-61 -105h-105l96 178h111h28l96 -178h-105z" />
    <glyph glyph-name="Kcommaaccent" unicode="&#x136;" horiz-adv-x="702" 
d="M404 368l279 -368h-194l-178 249l-83 -108v-144h-150v740h150v-360l270 360h194zM427 -120q0 -52 -32 -87q-31 -36 -79 -36v35q26 0 42 16t15 36q-8 -4 -23 -4q-25 0 -40.5 16t-15.5 44q0 29 18 47t46 18q29 0 49 -21t20 -64z" />
    <glyph glyph-name="kcommaaccent" unicode="&#x137;" horiz-adv-x="552" 
d="M54 0v750h143v-434l172 182h178l-218 -230l203 -268h-174l-123 169l-38 -41v-128h-143zM344 -120q0 -52 -32 -87q-31 -36 -79 -36v35q26 0 42 16t15 36q-8 -4 -23 -4q-25 0 -40.5 16t-15.5 44q0 29 18 47t46 18q29 0 49 -21t20 -64z" />
    <glyph glyph-name="Lacute" unicode="&#x139;" horiz-adv-x="546" 
d="M520 134v-134h-418h-24v737h151v-603h291zM101 770l90 177h129l-115 -177h-104z" />
    <glyph glyph-name="lacute" unicode="&#x13a;" horiz-adv-x="246" 
d="M54 750h143v-750h-143v750zM72 783l89 177h130l-115 -177h-104z" />
    <glyph glyph-name="Lcommaaccent" unicode="&#x13b;" horiz-adv-x="546" 
d="M520 134v-134h-418h-24v737h151v-603h291zM382 -120q0 -52 -32 -87q-31 -36 -79 -36v35q26 0 42 16t15 36q-8 -4 -23 -4q-25 0 -40.5 16t-15.5 44q0 29 18 47t46 18q29 0 49 -21t20 -64z" />
    <glyph glyph-name="lcommaaccent" unicode="&#x13c;" horiz-adv-x="246" 
d="M54 750h143v-750h-143v750zM194 -133q0 -52 -32 -87q-31 -36 -79 -36v35q26 0 42 16t15 36q-8 -4 -23 -4q-25 0 -40.5 16t-15.5 44q0 29 18 47t46 18q29 0 49 -21t20 -64z" />
    <glyph glyph-name="Lcaron" unicode="&#x13d;" horiz-adv-x="546" 
d="M520 134v-134h-418h-24v737h151v-603h291zM457 665q0 -51 -32 -88q-32 -35 -79 -35v35q26 0 42 16t15 36q-8 -4 -23 -4q-25 0 -40.5 16t-15.5 44q0 29 18 47t46 18q29 0 49 -21t20 -64z" />
    <glyph glyph-name="lcaron" unicode="&#x13e;" horiz-adv-x="246" 
d="M54 750h143v-750h-143v750z" />
    <glyph glyph-name="Ldot" unicode="&#x13f;" horiz-adv-x="546" 
d="M520 134v-134h-418h-24v737h151v-603h291zM305 394q0 20 7.5 37.5t21 31t31 21t37.5 7.5t37 -8t30.5 -21t21 -30.5t7.5 -37.5q0 -38 -29 -67q-28 -28 -67 -28q-41 0 -69 28t-28 67z" />
    <glyph glyph-name="ldot" unicode="&#x140;" horiz-adv-x="489" 
d="M54 750h143v-750h-143v750zM269 387q0 21 8 39t22 31.5t32 21.5t39 8q20 0 38 -8t31.5 -22t21.5 -32t8 -38t-8 -38t-21.5 -31.5t-31.5 -21.5t-38 -8q-40 0 -71 29q-30 30 -30 70z" />
    <glyph glyph-name="Lslash" unicode="&#x141;" horiz-adv-x="547" 
d="M520 134v-134h-418h-24v313l-62 -30v113l62 30v311h151v-239l124 59v-113l-124 -59v-251h291z" />
    <glyph glyph-name="lslash" unicode="&#x142;" horiz-adv-x="285" 
d="M265 413l-51 -24v-389h-143v321l-51 -25v100l51 24v330h143v-261l51 24v-100z" />
    <glyph glyph-name="Nacute" unicode="&#x143;" horiz-adv-x="774" 
d="M697 737v-737h-148l-323 499v-499h-148v737h148l323 -500v500h148zM339 788l90 177h129l-115 -177h-104z" />
    <glyph glyph-name="nacute" unicode="&#x144;" horiz-adv-x="592" 
d="M539 0h-142v274q0 65 -30 87q-29 23 -64 23q-39 0 -74 -24q-33 -22 -33 -86v-274h-142v498h135l4 -45q21 28 58.5 44t82.5 16q100 0 152.5 -54.5t52.5 -151.5v-307zM252 558l90 177h129l-115 -177h-104z" />
    <glyph glyph-name="Ncommaaccent" unicode="&#x145;" horiz-adv-x="774" 
d="M697 737v-737h-148l-323 499v-499h-148v737h148l323 -500v500h148zM462 -120q0 -52 -32 -87q-31 -36 -79 -36v35q26 0 42 16t15 36q-8 -4 -23 -4q-25 0 -40.5 16t-15.5 44q0 29 18 47t46 18q29 0 49 -21t20 -64z" />
    <glyph glyph-name="ncommaaccent" unicode="&#x146;" horiz-adv-x="592" 
d="M539 0h-142v274q0 65 -30 87q-29 23 -64 23q-39 0 -74 -24q-33 -22 -33 -86v-274h-142v498h135l4 -45q21 28 58.5 44t82.5 16q100 0 152.5 -54.5t52.5 -151.5v-307zM366 -120q0 -52 -32 -87q-31 -36 -79 -36v35q26 0 42 16t15 36q-8 -4 -23 -4q-25 0 -40.5 16t-15.5 44
q0 29 18 47t46 18q29 0 49 -21t20 -64z" />
    <glyph glyph-name="Ncaron" unicode="&#x147;" horiz-adv-x="774" 
d="M697 737v-737h-148l-323 499v-499h-148v737h148l323 -500v500h148zM558 966l-96 -178h-112h-28l-95 178h105l60 -105l61 105h105z" />
    <glyph glyph-name="ncaron" unicode="&#x148;" horiz-adv-x="592" 
d="M539 0h-142v274q0 65 -30 87q-29 23 -64 23q-39 0 -74 -24q-33 -22 -33 -86v-274h-142v498h135l4 -45q21 28 58.5 44t82.5 16q100 0 152.5 -54.5t52.5 -151.5v-307zM471 736l-96 -178h-112h-28l-95 178h105l60 -105l61 105h105z" />
    <glyph glyph-name="Eng" unicode="&#x14a;" horiz-adv-x="773" 
d="M78 737h148l322 -498v498h148v-802q0 -47 -16 -79.5t-41.5 -53.5t-58 -30.5t-65.5 -9.5q-28 0 -55 7v116q12 -3 27 -3q32 0 53.5 17t21.5 59v42h-14l-322 497v-497h-148v737z" />
    <glyph glyph-name="eng" unicode="&#x14b;" horiz-adv-x="614" 
d="M552 305v-341q0 -87 -46 -124q-45 -39 -107 -39q-33 0 -60 11v109q15 -4 23 -4q22 0 36.5 12t14.5 33v312q0 66 -30 88q-29 22 -68 22t-74 -24q-34 -22 -34 -86v-274h-139v498h132l4 -47q44 60 142 60q83 0 145 -47q61 -46 61 -159z" />
    <glyph glyph-name="Omacron" unicode="&#x14c;" horiz-adv-x="785" 
d="M392 750q81 0 147 -28.5t113.5 -79t73.5 -120.5t26 -153q1 -82 -25 -152.5t-74 -121.5t-115 -79.5t-147 -27.5q-79 -1 -145.5 27.5t-114 79.5t-73.5 121t-25 152q-1 82 25 152.5t74 122t114.5 80t145.5 27.5zM393 134q94 0 148 63t54 172q0 111 -54 173.5t-148 62.5
t-148 -62.5t-54 -173.5t54 -173t148 -62zM554 895v-89h-322v89h322z" />
    <glyph glyph-name="omacron" unicode="&#x14d;" horiz-adv-x="588" 
d="M295 512q59 0 107 -19t82.5 -53.5t53.5 -83t19 -106.5t-19 -106.5t-53.5 -83t-82.5 -53.5t-107 -19q-60 0 -108.5 19t-83 53.5t-53 83t-18.5 106.5t18.5 106.5t53 83t83 53.5t108.5 19zM295 115q54 0 86 37.5t32 98.5q0 60 -32 97t-86 37q-55 0 -87.5 -37t-32.5 -97
q0 -61 33 -98.5t87 -37.5zM456 665v-89h-322v89h322z" />
    <glyph glyph-name="Ohungarumlaut" unicode="&#x150;" horiz-adv-x="785" 
d="M392 750q81 0 147 -28.5t113.5 -79t73.5 -120.5t26 -153q1 -82 -25 -152.5t-74 -121.5t-115 -79.5t-147 -27.5q-79 -1 -145.5 27.5t-114 79.5t-73.5 121t-25 152q-1 82 25 152.5t74 122t114.5 80t145.5 27.5zM393 134q94 0 148 63t54 172q0 111 -54 173.5t-148 62.5
t-148 -62.5t-54 -173.5t54 -173t148 -62zM269 784l89 177h130l-115 -177h-104zM423 784l116 177h130l-142 -177h-104z" />
    <glyph glyph-name="ohungarumlaut" unicode="&#x151;" horiz-adv-x="588" 
d="M295 512q59 0 107 -19t82.5 -53.5t53.5 -83t19 -106.5t-19 -106.5t-53.5 -83t-82.5 -53.5t-107 -19q-60 0 -108.5 19t-83 53.5t-53 83t-18.5 106.5t18.5 106.5t53 83t83 53.5t108.5 19zM295 115q54 0 86 37.5t32 98.5q0 60 -32 97t-86 37q-55 0 -87.5 -37t-32.5 -97
q0 -61 33 -98.5t87 -37.5zM166 555l89 177h130l-115 -177h-104zM320 555l116 177h130l-142 -177h-104z" />
    <glyph glyph-name="OE" unicode="&#x152;" horiz-adv-x="1120" 
d="M749 595v-155l280 -1v-134h-280v-164h315v-141h-464v67q-15 -17 -37.5 -31.5t-50.5 -25t-60 -16.5t-65 -6q-79 -1 -145 27.5t-112.5 79.5t-72 121.5t-24.5 152.5q-1 81 25.5 151.5t74.5 121.5t114.5 80t146.5 28q60 0 114.5 -19t91.5 -53v59h464v-142h-315zM597 369
q0 56 -15.5 99.5t-42.5 74t-64 46.5t-81 16q-43 0 -80.5 -16t-64.5 -46.5t-42.5 -74t-15.5 -98.5q0 -56 15.5 -100t42.5 -74.5t64.5 -46.5t81.5 -16t81 16t64 46.5t42 74.5t15 99z" />
    <glyph glyph-name="oe" unicode="&#x153;" horiz-adv-x="945" 
d="M911 196h-354q9 -46 41 -66.5t74 -20.5q76 0 116 63l105 -57q-28 -58 -87.5 -92.5t-137.5 -34.5q-61 0 -112 23.5t-79 62.5q-29 -42 -79 -64t-110 -22q-55 0 -102 19t-80.5 53.5t-52.5 83t-19 106.5t19 106.5t52.5 83t80.5 53.5t102 19q64 0 112 -22.5t77 -62.5
q29 42 78.5 64.5t110.5 22.5q55 0 100 -18.5t77.5 -53t50 -83t17.5 -109.5v-54zM767 297q-2 45 -31 73t-72 28q-45 0 -73.5 -28t-34.5 -73h211zM415 251q0 60 -32 97t-86 37t-86.5 -37t-32.5 -97q0 -61 32.5 -98.5t86.5 -37.5t86 37.5t32 98.5z" />
    <glyph glyph-name="Racute" unicode="&#x154;" horiz-adv-x="681" 
d="M643 0h-167l-113 266h-136v-266h-149v737h284q138 -1 207 -61t69 -175q0 -75 -32.5 -129.5t-92.5 -80.5zM480 501q0 46 -28.5 74.5t-89.5 28.5h-135v-208h135q60 0 89 28.5t29 76.5zM259 788l90 177h129l-115 -177h-104z" />
    <glyph glyph-name="racute" unicode="&#x155;" horiz-adv-x="406" 
d="M327 505q28 0 59 -7v-131q-27 7 -56 7q-63 0 -97.5 -39t-34.5 -109v-226h-145v497h133l8 -56q15 32 51 48t82 16zM68 559l90 177h129l-115 -177h-104z" />
    <glyph glyph-name="Rcommaaccent" unicode="&#x156;" horiz-adv-x="681" 
d="M643 0h-167l-113 266h-136v-266h-149v737h284q138 -1 207 -61t69 -175q0 -75 -32.5 -129.5t-92.5 -80.5zM480 501q0 46 -28.5 74.5t-89.5 28.5h-135v-208h135q60 0 89 28.5t29 76.5zM423 -120q0 -52 -32 -87q-31 -36 -79 -36v35q26 0 42 16t15 36q-8 -4 -23 -4
q-25 0 -40.5 16t-15.5 44q0 29 18 47t46 18q29 0 49 -21t20 -64z" />
    <glyph glyph-name="rcommaaccent" unicode="&#x157;" horiz-adv-x="406" 
d="M327 505q28 0 59 -7v-131q-27 7 -56 7q-63 0 -97.5 -39t-34.5 -109v-226h-145v497h133l8 -56q15 32 51 48t82 16zM196 -120q0 -52 -32 -87q-31 -36 -79 -36v35q26 0 42 16t15 36q-8 -4 -23 -4q-25 0 -40.5 16t-15.5 44q0 29 18 47t46 18q29 0 49 -21t20 -64z" />
    <glyph glyph-name="Rcaron" unicode="&#x158;" horiz-adv-x="681" 
d="M643 0h-167l-113 266h-136v-266h-149v737h284q138 -1 207 -61t69 -175q0 -75 -32.5 -129.5t-92.5 -80.5zM480 501q0 46 -28.5 74.5t-89.5 28.5h-135v-208h135q60 0 89 28.5t29 76.5zM478 966l-96 -178h-112h-28l-95 178h105l60 -105l61 105h105z" />
    <glyph glyph-name="rcaron" unicode="&#x159;" horiz-adv-x="406" 
d="M327 505q28 0 59 -7v-131q-27 7 -56 7q-63 0 -97.5 -39t-34.5 -109v-226h-145v497h133l8 -56q15 32 51 48t82 16zM286 737l-96 -178h-112h-28l-95 178h105l60 -105l61 105h105z" />
    <glyph glyph-name="Sacute" unicode="&#x15a;" horiz-adv-x="609" 
d="M302 750q105 0 172.5 -50t83.5 -135l-141 -37q-9 42 -40.5 63.5t-77.5 21.5q-51 0 -78 -22.5t-27 -59.5q0 -59 76 -78l116 -29q100 -25 145.5 -79.5t45.5 -132.5q0 -51 -19 -92.5t-54.5 -71t-85 -45.5t-110.5 -16q-112 0 -189 53q-75 53 -89 142l141 36q7 -45 45.5 -69
t96.5 -24q55 0 85 21t30 58q0 58 -74 78l-118 28q-99 24 -145 80.5t-46 134.5q0 51 18 92.5t52 71t81.5 45.5t105.5 16zM250 788l90 177h129l-115 -177h-104z" />
    <glyph glyph-name="sacute" unicode="&#x15b;" horiz-adv-x="475" 
d="M237 99q29 0 46.5 11.5t17.5 33.5q0 31 -43 41l-65 18q-79 21 -113 58t-34 91q0 35 13 64.5t38 51t60.5 33.5t80.5 12q78 0 130 -34.5t65 -97.5l-128 -30q-3 23 -20 36t-43 13q-25 0 -41 -12t-16 -33q0 -16 12 -27t40 -19l63 -16q143 -38 143 -150q0 -72 -53.5 -114
t-150.5 -42q-94 0 -146 39t-61 105l130 22q2 -25 21.5 -39.5t53.5 -14.5zM188 561l90 177h129l-115 -177h-104z" />
    <glyph glyph-name="Scircumflex" unicode="&#x15c;" horiz-adv-x="609" 
d="M302 750q105 0 172.5 -50t83.5 -135l-141 -37q-9 42 -40.5 63.5t-77.5 21.5q-51 0 -78 -22.5t-27 -59.5q0 -59 76 -78l116 -29q100 -25 145.5 -79.5t45.5 -132.5q0 -51 -19 -92.5t-54.5 -71t-85 -45.5t-110.5 -16q-112 0 -189 53q-75 53 -89 142l141 36q7 -45 45.5 -69
t96.5 -24q55 0 85 21t30 58q0 58 -74 78l-118 28q-99 24 -145 80.5t-46 134.5q0 51 18 92.5t52 71t81.5 45.5t105.5 16zM363 788l-60 105l-61 -105h-105l96 178h111h28l96 -178h-105z" />
    <glyph glyph-name="scircumflex" unicode="&#x15d;" horiz-adv-x="475" 
d="M237 99q29 0 46.5 11.5t17.5 33.5q0 31 -43 41l-65 18q-79 21 -113 58t-34 91q0 35 13 64.5t38 51t60.5 33.5t80.5 12q78 0 130 -34.5t65 -97.5l-128 -30q-3 23 -20 36t-43 13q-25 0 -41 -12t-16 -33q0 -16 12 -27t40 -19l63 -16q143 -38 143 -150q0 -72 -53.5 -114
t-150.5 -42q-94 0 -146 39t-61 105l130 22q2 -25 21.5 -39.5t53.5 -14.5zM301 561l-60 105l-61 -105h-105l96 178h111h28l96 -178h-105z" />
    <glyph glyph-name="Scedilla" unicode="&#x15e;" horiz-adv-x="609" 
d="M338 -12l-26 -24h33q36 0 57.5 -23.5t21.5 -59.5q0 -39 -21.5 -61.5t-57.5 -22.5h-113v61h91q11 0 18.5 6t7.5 17q0 12 -7.5 17.5t-18.5 5.5h-91v62l23 24q-93 12 -152.5 63t-72.5 129l141 36q7 -45 45.5 -69t96.5 -24q55 0 85 21t30 58q0 58 -74 78l-118 28
q-99 24 -145 80.5t-46 134.5q0 51 18 92.5t52 71t81.5 45.5t105.5 16q105 0 172.5 -50t83.5 -135l-141 -37q-9 42 -40.5 63.5t-77.5 21.5q-51 0 -78 -22.5t-27 -59.5q0 -59 76 -78l116 -29q100 -25 145.5 -79.5t45.5 -132.5q0 -94 -65 -156q-63 -60 -174 -68z" />
    <glyph glyph-name="scedilla" unicode="&#x15f;" horiz-adv-x="475" 
d="M280 -11l-32 -30h33q36 0 57.5 -23.5t21.5 -59.5q0 -39 -21.5 -61.5t-57.5 -22.5h-113v61h91q11 0 18.5 6t7.5 17q0 12 -7.5 17.5t-18.5 5.5h-91v62l27 29q-72 9 -113 46.5t-50 94.5l130 22q2 -25 21.5 -39.5t53.5 -14.5q29 0 46.5 11.5t17.5 33.5q0 31 -43 41l-65 18
q-79 21 -113 58t-34 91q0 35 13 64.5t38 51t60.5 33.5t80.5 12q78 0 130 -34.5t65 -97.5l-128 -30q-3 23 -20 36t-43 13q-25 0 -41 -12t-16 -33q0 -16 12 -27t40 -19l63 -16q143 -38 143 -150q0 -63 -42.5 -103.5t-120.5 -50.5z" />
    <glyph glyph-name="Scaron" unicode="&#x160;" horiz-adv-x="609" 
d="M302 750q105 0 172.5 -50t83.5 -135l-141 -37q-9 42 -40.5 63.5t-77.5 21.5q-51 0 -78 -22.5t-27 -59.5q0 -59 76 -78l116 -29q100 -25 145.5 -79.5t45.5 -132.5q0 -51 -19 -92.5t-54.5 -71t-85 -45.5t-110.5 -16q-112 0 -189 53q-75 53 -89 142l141 36q7 -45 45.5 -69
t96.5 -24q55 0 85 21t30 58q0 58 -74 78l-118 28q-99 24 -145 80.5t-46 134.5q0 51 18 92.5t52 71t81.5 45.5t105.5 16zM469 966l-96 -178h-112h-28l-95 178h105l60 -105l61 105h105z" />
    <glyph glyph-name="scaron" unicode="&#x161;" horiz-adv-x="475" 
d="M237 99q29 0 46.5 11.5t17.5 33.5q0 31 -43 41l-65 18q-79 21 -113 58t-34 91q0 35 13 64.5t38 51t60.5 33.5t80.5 12q78 0 130 -34.5t65 -97.5l-128 -30q-3 23 -20 36t-43 13q-25 0 -41 -12t-16 -33q0 -16 12 -27t40 -19l63 -16q143 -38 143 -150q0 -72 -53.5 -114
t-150.5 -42q-94 0 -146 39t-61 105l130 22q2 -25 21.5 -39.5t53.5 -14.5zM406 739l-96 -178h-112h-28l-95 178h105l60 -105l61 105h105z" />
    <glyph glyph-name="uni0162" unicode="&#x162;" horiz-adv-x="593" 
d="M575 595h-204v-595h-149v595h-204v142h557v-142zM221 -146h91q11 0 18.5 6t7.5 17q0 12 -7.5 17.5t-18.5 5.5h-91v62l59 62l54 -1v-32l-33 -31h33q36 0 57.5 -23.5t21.5 -59.5q0 -39 -21.5 -61.5t-57.5 -22.5h-113v61z" />
    <glyph glyph-name="uni0163" unicode="&#x163;" horiz-adv-x="362" 
d="M346 380h-94v-380h-141v380h-95v118h95v154h141v-154h94v-118zM105 -138h91q11 0 18.5 6t7.5 17q0 12 -7.5 17.5t-18.5 5.5h-91v62l59 62l54 -1v-32l-33 -31h33q36 0 57.5 -23.5t21.5 -59.5q0 -39 -21.5 -61.5t-57.5 -22.5h-113v61z" />
    <glyph glyph-name="Tcaron" unicode="&#x164;" horiz-adv-x="593" 
d="M575 595h-204v-595h-149v595h-204v142h557v-142zM463 966l-96 -178h-112h-28l-95 178h105l60 -105l61 105h105z" />
    <glyph glyph-name="tcaron" unicode="&#x165;" horiz-adv-x="378" 
d="M392 716q0 -8 -1 -11l-21 -160h-67l-21 160q-4 30 13.5 47t42.5 17q22 0 38 -14t16 -39zM247 498h95v-122h-95v-376h-141v376h-94v122h94v154h141v-154z" />
    <glyph glyph-name="Tbar" unicode="&#x166;" horiz-adv-x="593" 
d="M371 595v-163h142v-127h-142v-305h-149v305h-141v127h141v163h-204v142h557v-142h-204z" />
    <glyph glyph-name="tbar" unicode="&#x167;" horiz-adv-x="362" 
d="M252 380v-54h87v-109h-87v-217h-141v217h-96v109h96v54h-95v118h95v154h141v-154h94v-118h-94z" />
    <glyph glyph-name="Utilde" unicode="&#x168;" horiz-adv-x="752" 
d="M72 737h149v-459q0 -70 42.5 -109t111.5 -39q65 0 111 41q45 41 45 107v459h149v-464q1 -67 -23 -120t-66 -90t-98 -56.5t-118 -18.5q-61 -1 -116.5 18.5t-97.5 56.5t-66 90.5t-23 119.5v464zM190 845q0 57 30.5 87.5t73.5 30.5q23 0 43 -8t44 -22q23 -12 35 -17t25 -5
q15 0 23.5 9t8.5 24q0 9 -1 12h88q3 -18 3 -33q0 -57 -31 -85.5t-76 -28.5q-24 0 -44.5 8t-47.5 22q-19 10 -31 15t-23 5q-18 0 -25 -13.5t-5 -35.5l-87 -1q-3 20 -3 36z" />
    <glyph glyph-name="utilde" unicode="&#x169;" horiz-adv-x="604" 
d="M410 0q-6 18 -9 46q-44 -59 -139 -59q-86 0 -148 47q-61 46 -61 160v304h143v-274q0 -65 30 -88q31 -22 67 -22q38 0 71 24q34 24 34 86v274h142v-406q0 -19 3 -47t8 -45h-141zM111 615q0 57 30.5 87.5t73.5 30.5q23 0 43 -8t44 -22q23 -12 35 -17t25 -5q15 0 23.5 9
t8.5 24q0 9 -1 12h88q3 -18 3 -33q0 -57 -31 -85.5t-76 -28.5q-24 0 -44.5 8t-47.5 22q-19 10 -31 15t-23 5q-18 0 -25 -13.5t-5 -35.5l-87 -1q-3 20 -3 36z" />
    <glyph glyph-name="Umacron" unicode="&#x16a;" horiz-adv-x="752" 
d="M72 737h149v-459q0 -70 42.5 -109t111.5 -39q65 0 111 41q45 41 45 107v459h149v-464q1 -67 -23 -120t-66 -90t-98 -56.5t-118 -18.5q-61 -1 -116.5 18.5t-97.5 56.5t-66 90.5t-23 119.5v464zM537 895v-89h-322v89h322z" />
    <glyph glyph-name="umacron" unicode="&#x16b;" horiz-adv-x="604" 
d="M410 0q-6 18 -9 46q-44 -59 -139 -59q-86 0 -148 47q-61 46 -61 160v304h143v-274q0 -65 30 -88q31 -22 67 -22q38 0 71 24q34 24 34 86v274h142v-406q0 -19 3 -47t8 -45h-141zM458 665v-89h-322v89h322z" />
    <glyph glyph-name="Uring" unicode="&#x16e;" horiz-adv-x="752" 
d="M72 737h149v-459q0 -70 42.5 -109t111.5 -39q65 0 111 41q45 41 45 107v459h149v-464q1 -67 -23 -120t-66 -90t-98 -56.5t-118 -18.5q-61 -1 -116.5 18.5t-97.5 56.5t-66 90.5t-23 119.5v464zM242 907q0 27 10.5 52t29 43.5t43 29.5t51.5 11t51.5 -11t43 -29.5t29 -43.5
t10.5 -52t-10.5 -51.5t-29 -43t-43 -29.5t-51.5 -11q-28 0 -52.5 10.5t-42.5 29t-28.5 43t-10.5 52.5zM432 909q0 23 -16 39t-40 16t-40 -16t-16 -39q0 -25 16 -41.5t40 -16.5t40 16.5t16 41.5z" />
    <glyph glyph-name="uring" unicode="&#x16f;" horiz-adv-x="604" 
d="M410 0q-6 18 -9 46q-44 -59 -139 -59q-86 0 -148 47q-61 46 -61 160v304h143v-274q0 -65 30 -88q31 -22 67 -22q38 0 71 24q34 24 34 86v274h142v-406q0 -19 3 -47t8 -45h-141zM163 677q0 27 10.5 52t29 43.5t43 29.5t51.5 11t51.5 -11t43 -29.5t29 -43.5t10.5 -52
t-10.5 -51.5t-29 -43t-43 -29.5t-51.5 -11q-28 0 -52.5 10.5t-42.5 29t-28.5 43t-10.5 52.5zM353 679q0 23 -16 39t-40 16t-40 -16t-16 -39q0 -25 16 -41.5t40 -16.5t40 16.5t16 41.5z" />
    <glyph glyph-name="Uhungarumlaut" unicode="&#x170;" horiz-adv-x="752" 
d="M72 737h149v-459q0 -70 42.5 -109t111.5 -39q65 0 111 41q45 41 45 107v459h149v-464q1 -67 -23 -120t-66 -90t-98 -56.5t-118 -18.5q-61 -1 -116.5 18.5t-97.5 56.5t-66 90.5t-23 119.5v464zM247 788l89 177h130l-115 -177h-104zM401 788l116 177h130l-142 -177h-104z
" />
    <glyph glyph-name="uhungarumlaut" unicode="&#x171;" horiz-adv-x="604" 
d="M410 0q-6 18 -9 46q-44 -59 -139 -59q-86 0 -148 47q-61 46 -61 160v304h143v-274q0 -65 30 -88q31 -22 67 -22q38 0 71 24q34 24 34 86v274h142v-406q0 -19 3 -47t8 -45h-141zM168 558l89 177h130l-115 -177h-104zM322 558l116 177h130l-142 -177h-104z" />
    <glyph glyph-name="Uogonek" unicode="&#x172;" horiz-adv-x="752" 
d="M680 737v-464q0 -115 -68 -189q-67 -73 -174 -91q-35 -13 -52.5 -34t-17.5 -42q0 -17 11.5 -28t30.5 -11q13 0 28 6v-92q-29 -10 -58 -10q-49 0 -78 30t-29 72q0 32 18 60t54 45q-57 4 -107 25.5t-86.5 58t-58 87t-21.5 113.5v464h149v-459q0 -70 42.5 -109t111.5 -39
q65 0 111 41q45 41 45 107v459h149z" />
    <glyph glyph-name="uogonek" unicode="&#x173;" horiz-adv-x="604" 
d="M473 -78q0 -17 11.5 -28t30.5 -11q13 0 28 6v-92q-29 -10 -58 -10q-49 0 -78 30t-29 72q0 35 21.5 65t64.5 46h-54q-6 18 -9 46q-44 -59 -139 -59q-86 0 -148 47q-61 46 -61 160v304h143v-274q0 -65 30 -88q31 -22 67 -22q38 0 71 24q34 24 34 86v274h142v-406
q0 -19 3 -47t8 -45h-2q-38 -13 -57 -34.5t-19 -43.5z" />
    <glyph glyph-name="Wcircumflex" unicode="&#x174;" horiz-adv-x="1048" 
d="M1037 737l-224 -737h-145l-143 468l-147 -468h-146l-221 737h165l131 -476l136 476h166l132 -478l136 478h160zM582 788l-60 105l-61 -105h-105l96 178h111h28l96 -178h-105z" />
    <glyph glyph-name="wcircumflex" unicode="&#x175;" horiz-adv-x="828" 
d="M816 498l-175 -498h-132l-95 287l-97 -287h-139l-166 498h155l83 -291l93 291h145l88 -296l89 296h151zM478 557l-60 105l-61 -105h-105l96 178h111h28l96 -178h-105z" />
    <glyph glyph-name="Ycircumflex" unicode="&#x176;" horiz-adv-x="670" 
d="M177 737l161 -302l161 302h162l-250 -448v-289h-150v289l-252 448h168zM398 788l-60 105l-61 -105h-105l96 178h111h28l96 -178h-105z" />
    <glyph glyph-name="ycircumflex" unicode="&#x177;" horiz-adv-x="577" 
d="M567 498l-242 -616q-49 -132 -173 -132q-51 0 -122 24l39 129q37 -22 70 -22q52 0 70 52l14 39l-212 526h150l130 -344l126 344h150zM350 558l-60 105l-61 -105h-105l96 178h111h28l96 -178h-105z" />
    <glyph glyph-name="Ydieresis" unicode="&#x178;" horiz-adv-x="670" 
d="M177 737l161 -302l161 302h162l-250 -448v-289h-150v289l-252 448h168zM149 873q0 33 23.5 56t56.5 23q32 0 55 -23.5t23 -55.5t-23 -55t-55 -23q-33 0 -56.5 23t-23.5 55zM368 873q0 33 23.5 56t56.5 23q32 0 55.5 -23.5t23.5 -55.5t-23.5 -55t-55.5 -23q-33 0 -56.5 23
t-23.5 55z" />
    <glyph glyph-name="Zacute" unicode="&#x179;" horiz-adv-x="575" 
d="M536 594l-335 -451h330v-143h-494v143l333 450l-333 -1v145h499v-143zM234 788l90 177h129l-115 -177h-104z" />
    <glyph glyph-name="zacute" unicode="&#x17a;" horiz-adv-x="482" 
d="M36 127l232 245h-232v126h411v-127l-238 -244h238v-127h-411v127zM189 558l90 177h129l-115 -177h-104z" />
    <glyph glyph-name="Zdotaccent" unicode="&#x17b;" horiz-adv-x="575" 
d="M536 594l-335 -451h330v-143h-494v143l333 450l-333 -1v145h499v-143zM208 873q0 33 23 56t55 23t55.5 -23.5t23.5 -55.5t-23.5 -55t-55.5 -23t-55 22.5t-23 55.5z" />
    <glyph glyph-name="zdotaccent" unicode="&#x17c;" horiz-adv-x="482" 
d="M36 127l232 245h-232v126h411v-127l-238 -244h238v-127h-411v127zM163 643q0 33 23 56t55 23t55.5 -23.5t23.5 -55.5t-23.5 -55t-55.5 -23t-55 22.5t-23 55.5z" />
    <glyph glyph-name="Zcaron" unicode="&#x17d;" horiz-adv-x="575" 
d="M536 594l-335 -451h330v-143h-494v143l333 450l-333 -1v145h499v-143zM453 966l-96 -178h-112h-28l-95 178h105l60 -105l61 105h105z" />
    <glyph glyph-name="zcaron" unicode="&#x17e;" horiz-adv-x="482" 
d="M36 127l232 245h-232v126h411v-127l-238 -244h238v-127h-411v127zM407 736l-96 -178h-112h-28l-95 178h105l60 -105l61 105h105z" />
    <glyph glyph-name="florin" unicode="&#x192;" horiz-adv-x="644" 
d="M423 497h151v-115h-167l-1 -7h1l-56 -401q-11 -85 -65 -130.5t-150 -45.5h-75l-1 129h78q30 0 49 15t23 45l52 376l2 19h-142v115h158l7 50q13 91 73 146q61 55 148 55h75l1 -129h-84q-30 0 -47 -16.5t-23 -55.5z" />
    <glyph glyph-name="Aringacute" unicode="&#x1fa;" horiz-adv-x="695" 
d="M414 951h-104l90 177h129zM472 161h-251l-56 -161h-155l250 699q-18 18 -28.5 43t-10.5 53q0 27 10.5 51.5t29 43t42.5 29.5t51 11t51.5 -11t43 -29.5t29 -43t10.5 -51.5q0 -31 -13 -58.5t-37 -46.5l247 -690h-158zM298 797q0 -25 16 -41.5t40 -16.5t40 16.5t16 41.5
q0 23 -16 39t-40 16t-40 -16t-16 -39zM429 286l-82 242l-83 -242h165z" />
    <glyph glyph-name="aringacute" unicode="&#x1fb;" horiz-adv-x="534" 
d="M331 725h-99l85 154h123zM359 0q-2 10 -3.5 21.5t-3.5 25.5q-19 -27 -55.5 -43.5t-87.5 -16.5q-39 0 -72 11.5t-57 32.5t-37.5 51t-13.5 68q0 75 48 115.5t133 40.5h138v17q0 39 -24.5 57.5t-66.5 18.5q-78 0 -113 -66l-103 58q41 78 125 107q-20 32 -20 73
q0 27 10.5 51.5t29 43t42.5 29.5t51 11t51.5 -11t43 -29.5t29 -43t10.5 -51.5q0 -44 -27 -82q101 -48 101 -190v-184q0 -39 3 -71t7 -44h-138zM223 573q0 -25 16 -41.5t40 -16.5t40 16.5t16 41.5q0 23 -16 39t-40 16t-40 -16t-16 -39zM349 210h-105q-34 0 -52 -15.5
t-18 -42.5q0 -59 76 -59q37 0 68 23q31 22 31 85v9z" />
    <glyph glyph-name="AEacute" unicode="&#x1fc;" horiz-adv-x="963" 
d="M905 0l-324 1v-1h-141v170h-196l-64 -170h-170l295 735h154h122h325l-1 -141h-324v-153l291 -1l-1 -136h-290v-162l325 -1zM440 298v296l-35 1l-112 -297h147zM519 788l90 177h129l-115 -177h-104z" />
    <glyph glyph-name="aeacute" unicode="&#x1fd;" horiz-adv-x="896" 
d="M856 197h-358q9 -42 40.5 -65t76.5 -23q37 0 68 17t49 46l106 -57q-29 -60 -90 -93.5t-136 -33.5q-60 0 -107 21.5t-74 59.5q-27 -39 -75 -60t-108 -21q-93 0 -148.5 43t-55.5 121q0 69 43.5 111t115.5 42h109q41 0 41 32q0 17 -7.5 28t-19 18.5t-26.5 10.5t-30 3
q-37 0 -68 -18.5t-49 -51.5l-103 59q35 60 93.5 94t124.5 34q57 0 101 -19.5t68 -54.5q30 36 75.5 55t99.5 19q55 0 100 -18.5t77 -51.5t49.5 -79.5t17.5 -103.5v-64zM712 298q-2 43 -31.5 71.5t-74.5 28.5q-43 0 -72.5 -27.5t-36.5 -72.5h215zM354 208h-101
q-32 0 -49 -16.5t-17 -40.5q0 -26 20 -41.5t55 -15.5q45 0 68.5 24.5t23.5 69.5v20zM398 558l90 177h129l-115 -177h-104z" />
    <glyph glyph-name="Oslashacute" unicode="&#x1fe;" horiz-adv-x="799" 
d="M745 370q1 -82 -25 -152.5t-74 -121.5t-115 -79.5t-147 -27.5q-69 0 -131 22l-19 -31h-146l59 94q-58 51 -89.5 126.5t-31.5 168.5q-1 82 25 152t74 121.5t114.5 80t145.5 27.5q89 0 161 -34l27 43h140l-70 -113q49 -51 75.5 -121.5t26.5 -154.5zM468 591q-36 15 -82 15
q-94 0 -148 -62.5t-54 -173.5q0 -101 46 -162zM588 370q0 82 -30 137l-225 -366q26 -6 53 -6q94 0 148 63t54 172zM333 774l90 177h129l-115 -177h-104z" />
    <glyph glyph-name="oslashacute" unicode="&#x1ff;" horiz-adv-x="588" 
d="M557 250q0 -58 -19 -106.5t-53.5 -83t-82.5 -53.5t-107 -19q-47 0 -88 12l-31 -50h-128l64 103q-80 72 -80 197q0 58 18.5 106.5t53 83t83 53.5t108.5 19q52 0 95 -15l29 46h121l-61 -99q37 -35 57.5 -84.5t20.5 -109.5zM319 383q-8 1 -14 1.5t-10 0.5q-55 0 -87.5 -37
t-32.5 -97q0 -45 16 -73zM413 251q0 37 -12 65l-123 -200l17 -1q54 0 86 37.5t32 98.5zM242 558l90 177h129l-115 -177h-104z" />
    <glyph glyph-name="Scommaaccent" unicode="&#x218;" horiz-adv-x="609" 
d="M302 750q105 0 172.5 -50t83.5 -135l-141 -37q-9 42 -40.5 63.5t-77.5 21.5q-51 0 -78 -22.5t-27 -59.5q0 -59 76 -78l116 -29q100 -25 145.5 -79.5t45.5 -132.5q0 -51 -19 -92.5t-54.5 -71t-85 -45.5t-110.5 -16q-112 0 -189 53q-75 53 -89 142l141 36q7 -45 45.5 -69
t96.5 -24q55 0 85 21t30 58q0 58 -74 78l-118 28q-99 24 -145 80.5t-46 134.5q0 51 18 92.5t52 71t81.5 45.5t105.5 16zM377 -116q0 -52 -32 -87q-31 -36 -79 -36v35q26 0 42 16t15 36q-8 -4 -23 -4q-25 0 -40.5 16t-15.5 44q0 29 18 47t46 18q29 0 49 -21t20 -64z" />
    <glyph glyph-name="scommaaccent" unicode="&#x219;" horiz-adv-x="475" 
d="M237 99q29 0 46.5 11.5t17.5 33.5q0 31 -43 41l-65 18q-79 21 -113 58t-34 91q0 35 13 64.5t38 51t60.5 33.5t80.5 12q78 0 130 -34.5t65 -97.5l-128 -30q-3 23 -20 36t-43 13q-25 0 -41 -12t-16 -33q0 -16 12 -27t40 -19l63 -16q143 -38 143 -150q0 -72 -53.5 -114
t-150.5 -42q-94 0 -146 39t-61 105l130 22q2 -25 21.5 -39.5t53.5 -14.5zM313 -121q0 -52 -32 -87q-31 -36 -79 -36v35q26 0 42 16t15 36q-8 -4 -23 -4q-25 0 -40.5 16t-15.5 44q0 29 18 47t46 18q29 0 49 -21t20 -64z" />
    <glyph glyph-name="uni021A" unicode="&#x21a;" horiz-adv-x="593" 
d="M575 595h-204v-595h-149v595h-204v142h557v-142zM366 -120q0 -52 -32 -87q-31 -36 -79 -36v35q26 0 42 16t15 36q-8 -4 -23 -4q-25 0 -40.5 16t-15.5 44q0 29 18 47t46 18q29 0 49 -21t20 -64z" />
    <glyph glyph-name="uni021B" unicode="&#x21b;" horiz-adv-x="362" 
d="M346 380h-94v-380h-141v380h-95v118h95v154h141v-154h94v-118zM250 -112q0 -52 -32 -87q-31 -36 -79 -36v35q26 0 42 16t15 36q-8 -4 -23 -4q-25 0 -40.5 16t-15.5 44q0 29 18 47t46 18q29 0 49 -21t20 -64z" />
    <glyph glyph-name="uni0237" unicode="&#x237;" horiz-adv-x="283" 
d="M-34 -113q21 -7 43 -7q31 0 49 18t18 52l-1 547h147v-569q0 -82 -48.5 -130.5t-135.5 -48.5q-46 0 -100 15z" />
    <glyph glyph-name="circumflex" unicode="&#x2c6;" horiz-adv-x="409" 
d="M266 770l-60 105l-61 -105h-105l96 178h111h28l96 -178h-105z" />
    <glyph glyph-name="caron" unicode="&#x2c7;" horiz-adv-x="404" 
d="M364 948l-96 -178h-112h-28l-95 178h105l60 -105l61 105h105z" />
    <glyph glyph-name="breve" unicode="&#x2d8;" horiz-adv-x="413" 
d="M206 770q-39 0 -73 14t-59 37.5t-39.5 55.5t-14.5 68h104q1 -35 24 -54t58 -19q34 0 57 19t24 54h103q-1 -36 -15.5 -68t-39 -55.5t-58 -37.5t-71.5 -14z" />
    <glyph glyph-name="dotaccent" unicode="&#x2d9;" horiz-adv-x="198" 
d="M20 855q0 33 23.5 56t56.5 23q32 0 55 -23.5t23 -55.5t-23 -55t-55 -23q-33 0 -56.5 23t-23.5 55z" />
    <glyph glyph-name="ring" unicode="&#x2da;" horiz-adv-x="298" 
d="M11 889q0 27 10.5 52t29 43.5t43 29.5t51.5 11t51 -11t42.5 -29.5t29 -43.5t10.5 -52t-10.5 -51.5t-29 -43t-42.5 -29.5t-51 -11q-28 0 -52.5 10.5t-42.5 29t-28.5 43t-10.5 52.5zM201 891q0 23 -16 39t-40 16t-40 -16t-16 -39q0 -25 16 -41.5t40 -16.5t40 16.5t16 41.5z
" />
    <glyph glyph-name="ogonek" unicode="&#x2db;" horiz-adv-x="553" 
d="M347 0q-38 -13 -57 -34.5t-19 -43.5q0 -17 11.5 -28t30.5 -11q13 0 28 6v-92q-29 -10 -58 -10q-49 0 -78 30t-29 72q0 35 21.5 65t64.5 46h85z" />
    <glyph glyph-name="tilde" unicode="&#x2dc;" horiz-adv-x="433" 
d="M26 827q0 57 30.5 87.5t73.5 30.5q23 0 43 -8t44 -22q23 -12 35 -17t25 -5q15 0 23.5 9t8.5 24q0 9 -1 12h88q3 -18 3 -33q0 -57 -31 -85.5t-76 -28.5q-24 0 -44.5 8t-47.5 22q-19 10 -31 15t-23 5q-18 0 -25 -13.5t-5 -35.5l-87 -1q-3 20 -3 36z" />
    <glyph glyph-name="hungarumlaut" unicode="&#x2dd;" horiz-adv-x="460" 
d="M38 770l89 177h130l-115 -177h-104zM192 770l116 177h130l-142 -177h-104z" />
    <glyph glyph-name="gravecomb" unicode="&#x300;" 
d="M-254 948h130l89 -178h-104z" />
    <glyph glyph-name="acutecomb" unicode="&#x301;" 
d="M-225 770l90 177h129l-115 -177h-104z" />
    <glyph glyph-name="uni0302" unicode="&#x302;" 
d="M-145 770l-60 105l-61 -105h-105l96 178h111h28l96 -178h-105z" />
    <glyph glyph-name="tildecomb" unicode="&#x303;" 
d="M-402 827q0 57 30.5 87.5t73.5 30.5q23 0 43 -8t44 -22q23 -12 35 -17t25 -5q15 0 23.5 9t8.5 24q0 9 -1 12h88q3 -18 3 -33q0 -57 -31 -85.5t-76 -28.5q-24 0 -44.5 8t-47.5 22q-19 10 -31 15t-23 5q-18 0 -25 -13.5t-5 -35.5l-87 -1q-3 20 -3 36z" />
    <glyph glyph-name="uni0304" unicode="&#x304;" 
d="M-21 907v-89h-322v89h322z" />
    <glyph glyph-name="uni0306" unicode="&#x306;" 
d="M-21 949q0 -36 -14 -68.5t-39 -57t-58.5 -39t-72.5 -14.5q-40 0 -74 14t-59 38.5t-39 57t-14 69.5h104q0 -37 23 -57t59 -20q35 0 58 20t23 57h103z" />
    <glyph glyph-name="uni0307" unicode="&#x307;" 
d="M-354 855q0 33 23 56t55 23t55.5 -23.5t23.5 -55.5t-23.5 -55t-55.5 -23t-55 22.5t-23 55.5z" />
    <glyph glyph-name="uni0308" unicode="&#x308;" 
d="M-370 855q0 33 23 56t56 23q32 0 55.5 -23t23.5 -56q0 -32 -23.5 -55t-55.5 -23q-33 0 -56 23t-23 55zM-164 855q0 33 23 56t55 23t55.5 -23.5t23.5 -55.5t-23.5 -55t-55.5 -23t-55 22.5t-23 55.5z" />
    <glyph glyph-name="uni030A" unicode="&#x30a;" 
d="M-279 889q0 27 10.5 52t29 43.5t43 29.5t51.5 11t51.5 -11t43 -29.5t29 -43.5t10.5 -52t-10.5 -51.5t-29 -43t-43 -29.5t-51.5 -11q-28 0 -52.5 10.5t-42.5 29t-28.5 43t-10.5 52.5zM-89 891q0 23 -16 39t-40 16t-40 -16t-16 -39q0 -25 16 -41.5t40 -16.5t40 16.5
t16 41.5z" />
    <glyph glyph-name="uni030B" unicode="&#x30b;" 
d="M-436 770l89 177h130l-115 -177h-104zM-285 770l118 177h130l-144 -177h-104z" />
    <glyph glyph-name="uni030C" unicode="&#x30c;" 
d="M-35 948l-96 -178h-112h-28l-95 178h105l60 -105l61 105h105z" />
    <glyph glyph-name="uni0312" unicode="&#x312;" 
d="M-40 852q0 -29 -18 -47t-47 -18t-49 20.5t-20 63.5q0 27 8.5 49.5t23.5 39t35 26t44 9.5v-35q-26 0 -41.5 -16.5t-14.5 -36.5q8 5 22 5q25 0 41 -16.5t16 -43.5z" />
    <glyph glyph-name="uni0326" unicode="&#x326;" 
d="M-45 -119q0 -52 -32 -87q-32 -36 -79 -36v35q26 0 42 16t15 36q-8 -4 -23 -4q-25 0 -40.5 16t-15.5 44q0 29 18 47t46 18q29 0 49 -21t20 -64z" />
    <glyph glyph-name="uni0327" unicode="&#x327;" 
d="M-251 -138h91q11 0 18.5 6t7.5 17q0 12 -7.5 17.5t-18.5 5.5h-91v62l59 62l54 -1v-32l-33 -31h33q36 0 57.5 -23.5t21.5 -59.5q0 -39 -21.5 -61.5t-57.5 -22.5h-113v61z" />
    <glyph glyph-name="uni0338" unicode="&#x338;" 
d="M-542 -44l371 593h121l-364 -593h-128z" />
    <glyph glyph-name="uni03A9" unicode="&#x3a9;" horiz-adv-x="664" 
d="M611 105v-105h-240v105q51 21 77.5 63t26.5 94q0 60 -38.5 96.5t-98.5 36.5t-98.5 -37t-38.5 -97q0 -55 28 -96.5t76 -59.5v-105h-241v105h86q-72 72 -72 171q0 48 19 91.5t53 75.5t82.5 51t106.5 19q59 0 107 -19t82 -51.5t52 -75.5t18 -90q0 -98 -72 -172h85z" />
    <glyph glyph-name="pi" unicode="&#x3c0;" horiz-adv-x="670" 
d="M631 382h-96q1 -38 1 -92.5v-125.5q0 -24 11 -29.5t37 -5.5l47 -1v-128l-127 1q-55 0 -83 39t-28 102v240h-151v-382h-140v382h-88v115h228h293h96v-115z" />
    <glyph glyph-name="Wgrave" unicode="&#x1e80;" horiz-adv-x="1048" 
d="M1037 737l-224 -737h-145l-143 468l-147 -468h-146l-221 737h165l131 -476l136 476h166l132 -478l136 478h160zM354 965h130l90 -177h-104z" />
    <glyph glyph-name="wgrave" unicode="&#x1e81;" horiz-adv-x="828" 
d="M816 498l-175 -498h-132l-95 287l-97 -287h-139l-166 498h155l83 -291l93 291h145l88 -296l89 296h151zM249 734h130l90 -177h-104z" />
    <glyph glyph-name="Wacute" unicode="&#x1e82;" horiz-adv-x="1048" 
d="M1037 737l-224 -737h-145l-143 468l-147 -468h-146l-221 737h165l131 -476l136 476h166l132 -478l136 478h160zM469 788l89 177h130l-115 -177h-104z" />
    <glyph glyph-name="wacute" unicode="&#x1e83;" horiz-adv-x="828" 
d="M816 498l-175 -498h-132l-95 287l-97 -287h-139l-166 498h155l83 -291l93 291h145l88 -296l89 296h151zM365 557l89 177h130l-115 -177h-104z" />
    <glyph glyph-name="Wdieresis" unicode="&#x1e84;" horiz-adv-x="1048" 
d="M1037 737l-224 -737h-145l-143 468l-147 -468h-146l-221 737h165l131 -476l136 476h166l132 -478l136 478h160zM333 873q0 33 23.5 56t56.5 23q32 0 55 -23.5t23 -55.5t-23 -55t-55 -23q-33 0 -56.5 23t-23.5 55zM552 873q0 33 23.5 56t56.5 23q32 0 55.5 -23.5
t23.5 -55.5t-23.5 -55t-55.5 -23q-33 0 -56.5 23t-23.5 55z" />
    <glyph glyph-name="wdieresis" unicode="&#x1e85;" horiz-adv-x="828" 
d="M816 498l-175 -498h-132l-95 287l-97 -287h-139l-166 498h155l83 -291l93 291h145l88 -296l89 296h151zM229 642q0 33 23.5 56t56.5 23q32 0 55 -23.5t23 -55.5t-23 -55t-55 -23q-33 0 -56.5 23t-23.5 55zM448 642q0 33 23.5 56t56.5 23q32 0 55.5 -23.5t23.5 -55.5
t-23.5 -55t-55.5 -23q-33 0 -56.5 23t-23.5 55z" />
    <glyph glyph-name="Ygrave" unicode="&#x1ef2;" horiz-adv-x="670" 
d="M177 737l161 -302l161 302h162l-250 -448v-289h-150v289l-252 448h168zM170 965h130l90 -177h-104z" />
    <glyph glyph-name="ygrave" unicode="&#x1ef3;" horiz-adv-x="577" 
d="M567 498l-242 -616q-49 -132 -173 -132q-51 0 -122 24l39 129q37 -22 70 -22q52 0 70 52l14 39l-212 526h150l130 -344l126 344h150zM121 735h130l90 -177h-104z" />
    <glyph glyph-name="endash" unicode="&#x2013;" horiz-adv-x="940" 
d="M872 332v-126h-804v126h804z" />
    <glyph glyph-name="emdash" unicode="&#x2014;" horiz-adv-x="1153" 
d="M1082 332v-126h-1011v126h1011z" />
    <glyph glyph-name="quoteleft" unicode="&#x2018;" horiz-adv-x="300" 
d="M234 558q0 -36 -22.5 -58.5t-58.5 -22.5q-37 0 -62 25.5t-25 79.5q0 32 10.5 59.5t29 48.5t44 33t54.5 12v-43q-30 0 -49.5 -19.5t-19.5 -43.5q9 4 24 4q34 0 54.5 -20t20.5 -55z" />
    <glyph glyph-name="quoteright" unicode="&#x2019;" horiz-adv-x="300" 
d="M234 620q0 -31 -10.5 -59t-29.5 -49t-44.5 -33t-54.5 -12v43q31 0 50.5 20t19.5 44q-13 -5 -25 -5q-33 0 -53.5 20.5t-20.5 55.5t22.5 58t57.5 23q37 0 62.5 -26t25.5 -80z" />
    <glyph glyph-name="quotesinglbase" unicode="&#x201a;" horiz-adv-x="275" 
d="M230 39q0 -32 -10.5 -60t-29 -49t-44 -33t-54.5 -12v43q31 1 50.5 21t18.5 44q-15 -5 -28 -5q-31 0 -50.5 20t-19.5 55q0 36 22 58.5t58 22.5q37 0 62 -25.5t25 -79.5z" />
    <glyph glyph-name="quotedblleft" unicode="&#x201c;" horiz-adv-x="492" 
d="M234 558q0 -36 -22.5 -58.5t-58.5 -22.5q-37 0 -62 25.5t-25 79.5q0 32 10.5 59.5t29 48.5t44 33t54.5 12v-43q-30 0 -50 -20t-19 -44q13 5 24 5q34 0 54.5 -20t20.5 -55zM426 558q0 -36 -22.5 -58.5t-57.5 -22.5q-37 0 -62.5 25.5t-25.5 79.5q0 32 10.5 59.5t29.5 48
t44 32.5t55 12v-43q-31 0 -50.5 -19t-19.5 -43q9 4 24 4q34 0 54.5 -20t20.5 -55z" />
    <glyph glyph-name="quotedblright" unicode="&#x201d;" horiz-adv-x="492" 
d="M234 620q0 -31 -10.5 -59t-29.5 -49t-44.5 -33t-54.5 -12v43q31 0 50.5 19.5t19.5 44.5q-8 -5 -24 -5q-33 0 -54 20.5t-21 55.5t22.5 58t57.5 23q37 0 62.5 -26t25.5 -80zM426 620q0 -31 -10.5 -59t-29 -49t-44 -33t-54.5 -12v43q30 0 50 20t19 44q-13 -5 -24 -5
q-33 0 -54 20.5t-21 55.5t22.5 58t58.5 23q37 0 62 -26t25 -80z" />
    <glyph glyph-name="quotedblbase" unicode="&#x201e;" horiz-adv-x="492" 
d="M234 39q0 -32 -10.5 -60t-29.5 -49t-44.5 -33t-54.5 -12v43q31 1 51 21t19 44q-13 -5 -26 -5q-32 0 -52.5 20t-20.5 55q0 36 22.5 58.5t57.5 22.5q37 0 62.5 -25.5t25.5 -79.5zM426 39q0 -32 -10.5 -60t-29 -49t-44 -33t-54.5 -12v43q31 1 50.5 21t18.5 44q-12 -5 -28 -5
q-31 0 -51 20.5t-20 54.5q0 36 22.5 58.5t58.5 22.5q37 0 62 -25.5t25 -79.5z" />
    <glyph glyph-name="dagger" unicode="&#x2020;" horiz-adv-x="347" 
d="M327 525h-111v-261h-85v261h-111v85h111v100h85v-100h111v-85z" />
    <glyph glyph-name="daggerdbl" unicode="&#x2021;" horiz-adv-x="350" 
d="M330 367h-109v-103h-85v103h-113v85h113v70h-116v85h116v103h85v-103h106v-85h-106v-70h109v-85z" />
    <glyph glyph-name="bullet" unicode="&#x2022;" horiz-adv-x="456" 
d="M62 272q0 34 13.5 64t36.5 52.5t53.5 36t63.5 13.5t63 -13.5t52.5 -36.5t36 -53t13.5 -63q0 -34 -13.5 -63.5t-36.5 -52t-52.5 -35.5t-62.5 -13t-63.5 13t-53.5 35.5t-36.5 52t-13.5 63.5z" />
    <glyph glyph-name="ellipsis" unicode="&#x2026;" horiz-adv-x="840" 
d="M61 69q0 36 25.5 61.5t62.5 25.5q36 0 62 -25.5t26 -61.5q0 -35 -26.5 -60.5t-61.5 -25.5q-37 0 -62.5 25.5t-25.5 60.5zM333 69q0 36 25.5 61.5t62.5 25.5q35 0 61.5 -25.5t26.5 -61.5q0 -35 -26.5 -60.5t-61.5 -25.5q-37 0 -62.5 25.5t-25.5 60.5zM604 69
q0 36 25.5 61.5t62.5 25.5q36 0 62 -25.5t26 -61.5q0 -35 -26.5 -60.5t-61.5 -25.5q-37 0 -62.5 25.5t-25.5 60.5z" />
    <glyph glyph-name="perthousand" unicode="&#x2030;" horiz-adv-x="1314" 
d="M42 554q0 45 12 81.5t33.5 62.5t52.5 40t68 14q76 1 121.5 -53t45.5 -145q0 -45 -11.5 -81.5t-33.5 -62.5t-52.5 -40t-68.5 -14q-76 -1 -121.5 53t-45.5 145zM820 735l-560 -735h-140l560 735h140zM209 449q34 2 52.5 29t18.5 76q0 91 -61 102v-1q-2 1 -11 1q-8 0 -11 -1
v1q-29 -5 -45.5 -31t-16.5 -71q0 -48 19.5 -75.5t54.5 -29.5zM899 181q0 -45 -12 -81.5t-33.5 -62.5t-52.5 -40t-69 -14q-74 -1 -121 53q-46 55 -46 145q0 45 12 82t33.5 63t52.5 40t69 14q75 1 121 -54t46 -145zM1274 181q0 -45 -12 -81.5t-33.5 -62.5t-52.5 -40t-69 -14
t-69 14t-53 40t-34 62.5t-12 81.5q0 90 46 145t121 54q38 1 68.5 -13t53 -40.5t34.5 -63.5t12 -82zM1178 181q0 45 -16 71.5t-45 30.5q-8 0 -11 1q-2 -1 -11 -1q-61 -11 -61 -102q0 -49 19 -76t53 -28q35 1 53.5 28t18.5 76zM804 181q0 45 -16 71.5t-45 30.5q-8 0 -11 1
q-3 -1 -11 -1q-29 -4 -45.5 -30.5t-16.5 -71.5q0 -49 19 -76t54 -28q35 1 53.5 28t18.5 76z" />
    <glyph glyph-name="minute" unicode="&#x2032;" horiz-adv-x="195" 
d="M132 483h-68l-23 189q-3 33 13.5 51t40.5 18t41.5 -14t17.5 -44l-1 -11z" />
    <glyph glyph-name="guilsinglleft" unicode="&#x2039;" horiz-adv-x="466" 
d="M244 249l218 -249h-185l-218 249l218 249h185z" />
    <glyph glyph-name="guilsinglright" unicode="&#x203a;" horiz-adv-x="479" 
d="M438 249l-218 -249h-184l218 249l-218 249h184z" />
    <glyph glyph-name="uni2042" unicode="&#x2042;" horiz-adv-x="955" 
d="M555 397l-41 58q-18 25 -27.5 46t-11.5 25q-9 -29 -35 -71l-44 -58l-59 40l42 62q14 17 27.5 32t27.5 27q-48 5 -79 16l-69 25l26 67l66 -22q39 -16 72 -37q-1 5 -5 28.5t-4 52.5v72h72v-72q0 -40 -9 -81q24 18 72 37l67 22l25 -67l-69 -25q-31 -11 -79 -16
q14 -13 27.5 -27.5t26.5 -31.5l40 -62zM334 178q-16 -7 -36 -11t-43 -6q14 -12 27.5 -26.5t27.5 -32.5l40 -61l-59 -41l-41 59q-15 18 -23 34t-16 37q-9 -32 -36 -71l-44 -59l-59 41l42 61q14 18 28 33t28 26q-23 2 -43 6t-37 11l-68 24l26 68l66 -22q19 -8 36.5 -17
t34.5 -20q-1 5 -5 28.5t-4 51.5v73h72v-73q0 -47 -9 -80q29 20 73 37l67 22l25 -68zM879 41l-59 -41l-41 59q-15 18 -23 34t-16 37q-8 -29 -36 -71l-44 -59l-59 41l42 61q14 17 27.5 32t27.5 27q-23 2 -42.5 6t-36.5 11l-68 24l26 68l66 -22q19 -8 36.5 -17t34.5 -20
q-1 5 -5 28.5t-4 51.5v73h72v-73q0 -39 -9 -80q29 20 73 37l66 22l26 -68l-70 -24q-16 -7 -36 -11t-43 -6q14 -12 27.5 -26.5t27.5 -32.5z" />
    <glyph glyph-name="fraction" unicode="&#x2044;" horiz-adv-x="181" 
d="M-241 0l541 710h122l-541 -710h-122z" />
    <glyph glyph-name="uni2070" unicode="&#x2070;" horiz-adv-x="513" 
d="M257 292h-1q-51 0 -91 19t-68 52.5t-42.5 79.5t-14.5 100q0 55 15 101t43 79.5t68 52t90 18.5h1h1q51 0 90.5 -19t67.5 -52.5t42.5 -79.5t14.5 -100q0 -112 -57 -181q-57 -68 -158 -70h-1zM371 543q0 70 -29.5 111.5t-84.5 41.5q-57 0 -86 -42t-29 -111t29 -111.5
t86 -42.5t85.5 42.5t28.5 111.5z" />
    <glyph glyph-name="uni2074" unicode="&#x2074;" horiz-adv-x="466" 
d="M426 388h-62v-88h-92v88h-232v92l232 304h92v-304h62v-92zM272 480v159l-120 -159h120z" />
    <glyph glyph-name="uni2075" unicode="&#x2075;" horiz-adv-x="432" 
d="M392 463q0 -35 -14 -66t-38.5 -54.5t-57 -37t-68.5 -13.5t-68 13.5t-55.5 37t-37 54.5t-13.5 66h92q0 -33 23.5 -55.5t58.5 -22.5q34 0 59 23t26 55q1 45 -23 70.5t-67 25.5q-24 0 -44.5 -12.5t-25.5 -28.5l-84 22l61 244h260v-93h-188l-19 -67q26 14 56 14q76 0 121 -49
q46 -49 46 -126z" />
    <glyph glyph-name="uni2076" unicode="&#x2076;" horiz-adv-x="465" 
d="M425 472q0 -39 -14 -72.5t-39.5 -58t-60 -38t-76.5 -13.5q-100 0 -148 70q-47 71 -47 176q0 113 52 186q53 74 157 74q54 0 97.5 -21t69.5 -63l-78 -47q-36 38 -89 38q-49 -1 -79.5 -28.5t-35.5 -75.5q41 47 112 47q34 0 66 -11.5t57 -34t40.5 -54.5t15.5 -74zM333 470
q0 42 -27.5 65.5t-65.5 23.5q-40 0 -66.5 -23.5t-26.5 -65.5t27 -65.5t66 -23.5t66 23.5t27 65.5z" />
    <glyph glyph-name="uni2077" unicode="&#x2077;" horiz-adv-x="422" 
d="M382 784v-94q-170 -128 -170 -390h-96q0 247 149 390h-225v94h342z" />
    <glyph glyph-name="uni2078" unicode="&#x2078;" horiz-adv-x="432" 
d="M220 292q-40 0 -73 10t-57 29t-37 45t-13 57q0 42 24 77t64 48q-31 14 -48.5 42.5t-17.5 64.5q0 30 11.5 53.5t32.5 40.5t49.5 26t61.5 9t61.5 -9.5t49 -26.5t32 -40.5t11.5 -52.5q-1 -37 -19.5 -65.5t-49.5 -41.5q42 -12 66 -48t24 -79q2 -62 -48 -101q-50 -38 -124 -38
zM217 594q32 0 52 16.5t20 42.5q0 27 -21.5 42.5t-52.5 15.5t-52.5 -16t-21.5 -44q0 -24 22 -40.5t54 -16.5zM300 449q0 30 -25 47.5t-60 17.5q-36 0 -60 -19t-24 -49q1 -30 25.5 -49.5t59.5 -19.5q36 0 60 21t24 51z" />
    <glyph glyph-name="uni2079" unicode="&#x2079;" horiz-adv-x="465" 
d="M216 290q-54 0 -97.5 21t-69.5 63l78 46q18 -18 38.5 -27t49.5 -10q51 0 80.5 27t35.5 78q-41 -47 -108 -47q-34 0 -67 11.5t-59 33t-41.5 54t-15.5 74.5q0 40 14 73.5t39 57.5t60 37.5t77 13.5q100 0 147 -71q48 -70 48 -178q0 -111 -53 -185q-52 -72 -156 -72zM319 616
q0 42 -27.5 66t-66.5 24q-40 0 -66.5 -24t-26.5 -66t28 -65.5t66 -23.5q39 0 66 23.5t27 65.5z" />
    <glyph glyph-name="uni2080" unicode="&#x2080;" horiz-adv-x="513" 
d="M257 -108h-1q-51 0 -91 19t-68 52.5t-42.5 79.5t-14.5 100q0 55 15 101t43 79.5t68 52t90 18.5h1h1q51 0 90.5 -19t67.5 -52.5t42.5 -79.5t14.5 -100q0 -112 -57 -181q-57 -68 -158 -70h-1zM371 143q0 70 -29.5 111.5t-84.5 41.5q-57 0 -86 -42t-29 -111t29 -111.5
t86 -42.5t85.5 42.5t28.5 111.5z" />
    <glyph glyph-name="uni2081" unicode="&#x2081;" horiz-adv-x="314" 
d="M232 385v-485h-93v391l-99 -42v92l99 44h93z" />
    <glyph glyph-name="uni2082" unicode="&#x2082;" horiz-adv-x="425" 
d="M49 -6l207 169q20 16 28 31.5t8 32.5q0 35 -21.5 55.5t-57.5 20.5q-33 0 -55.5 -18.5t-25.5 -55.5h-92q4 78 51 121.5t120 43.5q39 0 71.5 -13t55 -35.5t35 -52.5t12.5 -65q0 -81 -72 -138l-126 -98l187 1v-92l-325 -1v94z" />
    <glyph glyph-name="uni2083" unicode="&#x2083;" horiz-adv-x="424" 
d="M384 61q0 -36 -13.5 -67t-37 -53.5t-54.5 -35.5t-67 -13q-37 0 -68.5 13t-54.5 35.5t-36 52.5t-13 64h92q2 -31 23 -52.5t57 -21.5q33 0 56 22t23 56q0 37 -22.5 60t-59.5 23q-18 1 -40 -9l-34 73l1 1l88 82l-165 1v92h313v-79l-95 -90q49 -18 78 -58.5t29 -95.5z" />
    <glyph glyph-name="uni2084" unicode="&#x2084;" horiz-adv-x="466" 
d="M426 -12h-62v-88h-92v88h-232v92l232 304h92v-304h62v-92zM272 80v159l-120 -159h120z" />
    <glyph glyph-name="uni2085" unicode="&#x2085;" horiz-adv-x="432" 
d="M392 63q0 -35 -14 -66t-38.5 -54.5t-57 -37t-68.5 -13.5t-68 13.5t-55.5 36.5t-37 54.5t-13.5 66.5h92q0 -33 23.5 -55.5t58.5 -22.5q34 0 59 23t26 55q1 45 -23 70.5t-67 25.5q-24 0 -44.5 -12.5t-25.5 -28.5l-84 22l61 244h260v-93h-188l-19 -67q26 14 56 14
q76 0 121 -49q46 -49 46 -126z" />
    <glyph glyph-name="uni2086" unicode="&#x2086;" horiz-adv-x="465" 
d="M425 72q0 -39 -14 -72.5t-39.5 -58t-60 -38t-76.5 -13.5q-100 0 -148 71q-47 71 -47 175q0 113 52 186q53 74 157 74q54 0 97.5 -21t69.5 -63l-78 -47q-36 38 -89 38q-49 -1 -79.5 -28.5t-35.5 -75.5q41 47 112 47q34 0 66 -11.5t57 -34t40.5 -54.5t15.5 -74zM333 70
q0 42 -27.5 65.5t-65.5 23.5q-40 0 -66.5 -23.5t-26.5 -65.5t27 -65.5t66 -23.5t66 23.5t27 65.5z" />
    <glyph glyph-name="uni2087" unicode="&#x2087;" horiz-adv-x="422" 
d="M382 384v-94q-170 -128 -170 -390h-96q0 247 149 390h-225v94h342z" />
    <glyph glyph-name="uni2088" unicode="&#x2088;" horiz-adv-x="432" 
d="M392 30q2 -60 -48 -99q-48 -39 -126 -39q-81 0 -129.5 38t-48.5 102q0 43 23 77.5t65 48.5q-31 14 -48.5 42.5t-17.5 64.5q0 60 43 94.5t112 34.5q33 0 61.5 -9t49 -25.5t32 -40t11.5 -52.5q0 -38 -18 -67t-51 -42q43 -13 67 -49.5t23 -78.5zM141 254q0 -27 21 -43.5
t55 -16.5q31 0 51.5 16.5t20.5 41.5q0 27 -20 43t-53 16t-54 -15.5t-21 -41.5zM300 45q0 32 -23 50.5t-60 18.5t-61.5 -19t-24.5 -50q1 -31 25 -49.5t61 -18.5t60 18.5t23 49.5z" />
    <glyph glyph-name="uni2089" unicode="&#x2089;" horiz-adv-x="465" 
d="M216 -110q-54 0 -97.5 21t-69.5 63l78 46q18 -18 38.5 -27t49.5 -10q51 0 80.5 27t35.5 78q-41 -47 -108 -47q-34 0 -67 11.5t-59 33t-41.5 54t-15.5 74.5q0 40 14 73.5t39 57.5t60 37.5t77 13.5q100 0 147 -71q48 -70 48 -178q0 -111 -53 -184q-52 -73 -156 -73z
M319 216q0 42 -27.5 66t-66.5 24q-40 0 -66.5 -24t-26.5 -66t28 -65.5t66 -23.5q39 0 66 23.5t27 65.5z" />
    <glyph glyph-name="Euro" unicode="&#x20ac;" horiz-adv-x="772" 
d="M712 65q-46 -37 -105 -57t-122 -20q-109 0 -200 59q-90 60 -135 158h-90v132h56l-1 28l1 30h-56v131h89q43 100 134 162q91 61 202 61q99 0 196 -52l-64 -116q-37 19 -67 27.5t-65 8.5q-55 0 -102.5 -24t-80.5 -67h246l-36 -131h-262q-1 -5 -1 -12.5v-17.5v-16.5t1 -11.5
h247l-33 -132h-159q33 -40 79.5 -63t100.5 -23q40 0 77.5 12.5t65.5 35.5z" />
    <glyph glyph-name="uni2116" unicode="&#x2116;" horiz-adv-x="1377" 
d="M1257 487q1 -50 -19 -93t-54.5 -74.5t-79 -49t-91.5 -16.5q-46 -1 -90.5 17t-79 50t-55.5 75t-20 91q0 51 20 94.5t54 75t78.5 49.5t92.5 18t92 -18t78 -49.5t54 -75t20 -94.5zM572 710h121v-710h-121l-331 504v-504h-121v710h121l331 -504v504zM1137 487q0 52 -33.5 87
t-90.5 35t-91 -35t-34 -87q0 -22 9.5 -44t26 -39t39.5 -27.5t50 -10.5q28 0 50.5 10.5t39 27.5t25.5 39t9 44zM869 185h289v-96h-289v96z" />
    <glyph glyph-name="uni2117" unicode="&#x2117;" horiz-adv-x="532" 
d="M492 499q1 -46 -17 -88t-48.5 -73t-72 -49t-86.5 -17q-47 0 -88.5 18t-72.5 48.5t-49 72t-18 88.5q0 46 18 87t49 71.5t72.5 48.5t88.5 18q46 0 87 -18t71.5 -48.5t48 -71.5t17.5 -87zM443 499q0 37 -14 69t-37.5 55.5t-55.5 37t-68 13.5q-37 0 -69.5 -13.5t-56.5 -37
t-37.5 -55.5t-13.5 -69t13.5 -69.5t37 -56t56 -37t70.5 -13.5q36 0 68 13.5t55.5 37.5t37.5 56t14 69zM351 539v-8q-2 -30 -23 -45.5t-57 -13.5h-21v-77h-46v204h46h21q37 2 57.5 -12t22.5 -42v-6zM300 534v4q-1 16 -29 16h-21v-39h35v-1q13 3 15 17v3z" />
    <glyph glyph-name="trademark" unicode="&#x2122;" horiz-adv-x="654" 
d="M40 737h223v-58h-85v-227h-54v227h-84v58zM594 737v-285h-54v156l-67 -156h-58l-65 153v-153h-54v285h54l94 -219l96 219h54z" />
    <glyph glyph-name="estimated" unicode="&#x212e;" horiz-adv-x="752" 
d="M377 710q73 0 133 -22.5t103.5 -65.5t67.5 -103.5t24 -137.5q1 -5 1 -27v-15.5t-1 -10.5h-558v-180q39 -57 101 -87t141 -30q78 0 142 36.5t96 96.5l38 -14q-37 -75 -110.5 -117t-167.5 -42q-75 0 -137.5 26t-107.5 73t-70 112t-25 144q0 80 24.5 147t68 115t104.5 75
t133 27zM147 364h459v200q-37 51 -96 78.5t-129 27.5q-75 0 -135 -33t-99 -91v-182z" />
    <glyph glyph-name="oneeighth" unicode="&#x215b;" horiz-adv-x="774" 
d="M32 676l80 34v-84l-80 -30v80zM193 710v-367h-81v367h81zM24 0l541 710h122l-541 -710h-122zM478 101q0 27 13.5 51.5t35.5 38.5q-38 29 -38 74q0 20 8.5 39t24.5 34t38.5 24t49.5 9q52 0 85 -29t35 -71q2 -23 -7 -44t-30 -36q21 -14 35 -38.5t14 -49.5q0 -22 -9.5 -42
t-27 -36t-41.5 -25.5t-54 -9.5q-29 0 -53 9.5t-41 25t-27 35.5t-11 41zM658 261q0 14 -12.5 24t-35.5 10t-35 -9.5t-12 -23.5q-1 -15 11.5 -26t35.5 -11q22 0 35 10.5t13 25.5zM665 110q0 17 -14.5 29.5t-40.5 12.5q-27 0 -41.5 -13t-13.5 -31q0 -18 14.5 -30.5t40.5 -12.5
t40.5 13t14.5 32z" />
    <glyph glyph-name="threeeighths" unicode="&#x215c;" horiz-adv-x="832" 
d="M291 467q0 -55 -38 -93q-37 -37 -92 -37q-28 0 -53 10.5t-42.5 29t-26.5 43.5t-7 54h79l-1 -10q0 -22 14 -35t37 -13q21 0 35.5 14.5t14.5 36.5q0 27 -17 41q-13 12 -34 12q-16 0 -33 -9l-29 62l3 3l51 53h-106v81h230v-68l-57 -58q29 -14 47 -38q25 -34 25 -79zM82 0
l541 710h122l-541 -710h-122zM536 101q0 27 13.5 51.5t35.5 38.5q-38 29 -38 74q0 20 8.5 39t24.5 34t38.5 24t49.5 9q52 0 85 -29t35 -71q2 -23 -7 -44t-30 -36q21 -14 35 -38.5t14 -49.5q0 -22 -9.5 -42t-27 -36t-41.5 -25.5t-54 -9.5q-29 0 -53 9.5t-41 25t-27 35.5
t-11 41zM716 261q0 14 -12.5 24t-35.5 10t-35 -9.5t-12 -23.5q-1 -15 11.5 -26t35.5 -11q22 0 35 10.5t13 25.5zM723 110q0 17 -14.5 29.5t-40.5 12.5q-27 0 -41.5 -13t-13.5 -31q0 -18 14.5 -30.5t40.5 -12.5t40.5 13t14.5 32z" />
    <glyph glyph-name="fiveeighths" unicode="&#x215d;" horiz-adv-x="840" 
d="M113 480q-1 -3 -1 -10q0 -22 15 -36.5t38 -14.5t39 15.5t16 37.5q0 28 -16 44t-43 16q-14 0 -27.5 -7t-17.5 -16l-73 19l45 182h199v-80h-136l-9 -30q11 4 29 4q57 0 92.5 -37t35.5 -97q0 -27 -10.5 -50.5t-29 -41t-43 -28t-51.5 -10.5q-29 0 -54 11t-43 30t-27.5 44.5
t-8.5 54.5h81zM90 0l541 710h122l-541 -710h-122zM544 101q0 27 13.5 51.5t35.5 38.5q-38 29 -38 74q0 20 8.5 39t24.5 34t38.5 24t49.5 9q52 0 85 -29t35 -71q2 -23 -7 -44t-30 -36q21 -14 35 -38.5t14 -49.5q0 -22 -9.5 -42t-27 -36t-41.5 -25.5t-54 -9.5q-29 0 -53 9.5
t-41 25t-27 35.5t-11 41zM724 261q0 14 -12.5 24t-35.5 10t-35 -9.5t-12 -23.5q-1 -15 11.5 -26t35.5 -11q22 0 35 10.5t13 25.5zM731 110q0 17 -14.5 29.5t-40.5 12.5q-27 0 -41.5 -13t-13.5 -31q0 -18 14.5 -30.5t40.5 -12.5t40.5 13t14.5 32z" />
    <glyph glyph-name="seveneighths" unicode="&#x215e;" horiz-adv-x="792" 
d="M302 710v-84q-63 -45 -92 -104q-28 -58 -33 -99q-2 -20 -3.5 -40.5t-1.5 -40.5h-84q0 40 3 76q4 37 27 97q22 59 74 111h-160v84h270zM42 0l541 710h122l-541 -710h-122zM495 101q0 27 13.5 51.5t35.5 38.5q-38 29 -38 74q0 20 8.5 39t24.5 34t38.5 24t49.5 9
q52 0 85 -29t35 -71q2 -23 -7 -44t-30 -36q21 -14 35 -38.5t14 -49.5q0 -22 -9.5 -42t-27 -36t-41.5 -25.5t-54 -9.5q-29 0 -53 9.5t-41 25t-27 35.5t-11 41zM675 261q0 14 -12.5 24t-35.5 10t-35 -9.5t-12 -23.5q-1 -15 11.5 -26t35.5 -11q22 0 35 10.5t13 25.5zM682 110
q0 17 -14.5 29.5t-40.5 12.5q-27 0 -41.5 -13t-13.5 -31q0 -18 14.5 -30.5t40.5 -12.5t40.5 13t14.5 32z" />
    <glyph glyph-name="arrowleft" unicode="&#x2190;" horiz-adv-x="998" 
d="M60 294l369 370l76 -75l-240 -241h673v-106h-673l240 -239l-76 -76z" />
    <glyph glyph-name="arrowup" unicode="&#x2191;" horiz-adv-x="858" 
d="M429 852l369 -368l-76 -75l-240 239v-648h-106v648l-240 -239l-76 75z" />
    <glyph glyph-name="arrowright" unicode="&#x2192;" horiz-adv-x="997" 
d="M937 307l-368 -367l-76 75l240 240h-673v105l673 1l-240 240l76 74z" />
    <glyph glyph-name="arrowdown" unicode="&#x2193;" horiz-adv-x="856" 
d="M427 -121l-367 368l76 77l239 -240v677h106v-678l241 241l74 -77z" />
    <glyph glyph-name="arrowboth" unicode="&#x2194;" horiz-adv-x="1157" 
d="M800 134l99 92h-405h-236l99 -93v-150l-297 297l297 295v-152l-97 -91l233 1v1l93 -1l88 1v-1l223 -1l-97 91v152l297 -295l-297 -297v151z" />
    <glyph glyph-name="arrowupdn" unicode="&#x2195;" horiz-adv-x="712" 
d="M501 107h151l-297 -297l-295 297h151l92 -97l-1 234h-1l1 90l-1 90h1l1 224l-92 -97h-151l295 296l297 -296h-151l-92 98v-405v-235z" />
    <glyph glyph-name="uni2196" unicode="&#x2196;" horiz-adv-x="834" 
d="M535 634h-256l462 -489l-108 -71l-393 413l-3 -306l-172 72v438l470 -1v-56z" />
    <glyph glyph-name="uni2197" unicode="&#x2197;" horiz-adv-x="858" 
d="M798 737v-521h-108v339l-555 -555l-75 75l555 555h-339v107h522z" />
    <glyph glyph-name="uni2198" unicode="&#x2198;" horiz-adv-x="856" 
d="M796 0l-521 1v107h339l-554 554l75 75l554 -554v339h107v-522z" />
    <glyph glyph-name="uni2199" unicode="&#x2199;" horiz-adv-x="859" 
d="M60 0l1 520h107v-338l556 556l75 -74l-556 -558h339l-1 -106h-521z" />
    <glyph glyph-name="partialdiff" unicode="&#x2202;" horiz-adv-x="648" 
d="M602 309q0 -82 -23.5 -142.5t-63 -100t-91 -59t-108.5 -20.5q-56 0 -105.5 18t-87 52.5t-59 85.5t-21.5 116q0 63 20.5 113t56 85.5t82.5 54t100 18.5q34 0 67.5 -8.5t58.5 -27.5q-25 60 -72.5 123t-117.5 120h183q46 -47 80 -99.5t56.5 -107.5t33.5 -111t11 -110z
M472 266q0 32 -11.5 60t-32 49t-48.5 33t-61 12t-61.5 -12t-49.5 -33t-32.5 -49t-11.5 -60t11.5 -60t32.5 -49t49.5 -33t61.5 -12t61 12t48.5 33t32 49t11.5 60z" />
    <glyph glyph-name="emptyset" unicode="&#x2205;" horiz-adv-x="840" 
d="M720 563q57 -91 51 -210q-4 -80 -31.5 -148t-74 -117.5t-109 -77.5t-137.5 -28q-69 0 -128.5 24t-107.5 69l-79 -71l-64 69l83 76q-55 91 -55 204q-1 78 26 146t74 118.5t111.5 79t138.5 27.5q69 0 131.5 -23t110.5 -65l77 70l63 -70zM560 545q-59 50 -142 50
q-48 0 -87.5 -17.5t-68 -49.5t-44 -76.5t-15.5 -98.5q0 -62 21 -112zM279 162q56 -52 140 -52q50 0 90 17.5t68.5 49t43.5 76.5t15 100q0 60 -21 115z" />
    <glyph glyph-name="uni2206" unicode="&#x2206;" horiz-adv-x="715" 
d="M655 120v-120h-595v120l232 590h131zM190 120h334l-167 420z" />
    <glyph glyph-name="product" unicode="&#x220f;" horiz-adv-x="694" 
d="M556 498v-290q0 -37 18.5 -55.5t48.5 -18.5q12 0 29 4v-134q-28 -6 -58 -6q-39 0 -72 11t-57 33t-37.5 56t-13.5 80v320h-137v-498h-143v498h-90v143h233h279h96v-143h-96z" />
    <glyph glyph-name="summation" unicode="&#x2211;" horiz-adv-x="578" 
d="M47 150l217 223l-217 215v149h482v-150h-296l206 -214l-209 -223h299v-150h-482v150z" />
    <glyph glyph-name="minus" unicode="&#x2212;" horiz-adv-x="538" 
d="M462 380v-120h-385v120h385z" />
    <glyph glyph-name="radical" unicode="&#x221a;" horiz-adv-x="746" 
d="M724 736v-129h-167l-242 -607h-129l-186 497h130l122 -328l223 567h249z" />
    <glyph glyph-name="infinity" unicode="&#x221e;" horiz-adv-x="914" 
d="M255 503q63 0 113 -26.5t89 -89.5q39 63 89 89.5t113 26.5q44 0 83 -16.5t68 -45.5t45.5 -67.5t16.5 -83.5q0 -44 -16.5 -83t-45.5 -68t-68 -45.5t-83 -16.5q-63 0 -113 27t-89 88q-39 -61 -89 -88t-113 -27q-44 0 -83 16.5t-68 45.5t-45.5 68t-16.5 83q0 45 16.5 83.5
t45.5 67.5t68 45.5t83 16.5zM254 206q34 0 66 19t50 65q-18 46 -49.5 64.5t-66.5 18.5q-34 0 -58 -23.5t-24 -59.5t24 -60t58 -24zM660 206q34 0 58 24t24 60t-24 59.5t-58 23.5q-35 0 -66.5 -18.5t-49.5 -64.5q18 -46 50 -65t66 -19z" />
    <glyph glyph-name="integral" unicode="&#x222b;" horiz-adv-x="445" 
d="M415 750v-130h-62q-30 0 -44.5 -16.5t-14.5 -54.5v-186v-174q0 -45 -14 -82.5t-39 -63.5t-60.5 -40.5t-77.5 -14.5h-73v129h62q30 0 44.5 16.5t14.5 55.5v186v174q0 45 14 82t39 63.5t60.5 41t77.5 14.5h73z" />
    <glyph glyph-name="approxequal" unicode="&#x2248;" horiz-adv-x="474" 
d="M434 395q0 -57 -32 -91t-83 -34q-28 0 -51 11.5t-52 31.5q-23 16 -37 23.5t-28 7.5q-39 0 -42 -40h-69q0 54 32 87.5t83 33.5q27 0 50 -11t52 -32q22 -16 37 -23.5t30 -7.5q20 0 30 11t12 33h68zM434 220q0 -57 -32 -90.5t-83 -33.5q-28 0 -51 11.5t-52 31.5
q-23 16 -37 23.5t-28 7.5q-39 0 -42 -41h-69q0 54 32 88t83 34q27 0 50 -11t52 -32q22 -16 37 -23.5t30 -7.5q20 0 30 11t12 32h68z" />
    <glyph glyph-name="notequal" unicode="&#x2260;" horiz-adv-x="615" 
d="M404 401l-67 -123h220v-120h-286l-52 -96h-134l53 96h-80v120h146l67 123h-213v120h278l60 110h133l-60 -110h88v-120h-153z" />
    <glyph glyph-name="lessequal" unicode="&#x2264;" horiz-adv-x="548" 
d="M36 493l471 158v-157l-239 -77l239 -77v-156l-471 158v151zM36 156h471v-156h-471v156z" />
    <glyph glyph-name="greaterequal" unicode="&#x2265;" horiz-adv-x="593" 
d="M526 454v-129l-455 -154v133l259 85l-259 85v133zM71 133h455v-133h-455v133z" />
    <glyph glyph-name="filledbox" unicode="&#x25a0;" horiz-adv-x="830" 
d="M770 710v-710h-710v710h710z" />
    <glyph glyph-name="uni25A1" unicode="&#x25a1;" horiz-adv-x="830" 
d="M770 710v-710h-710v710h710zM165 105h500v500h-500v-500z" />
    <glyph glyph-name="triagup" unicode="&#x25b2;" horiz-adv-x="966" 
d="M906 0h-846l423 710z" />
    <glyph glyph-name="uni25B3" unicode="&#x25b3;" horiz-adv-x="966" 
d="M60 4l424 710l422 -710h-846zM483 529l-260 -436h520z" />
    <glyph glyph-name="lozenge" unicode="&#x25ca;" horiz-adv-x="656" 
d="M596 355l-201 -355h-135l-200 355l200 355h135zM452 355l-124 230l-125 -230l125 -230z" />
    <glyph glyph-name="circle" unicode="&#x25cb;" horiz-adv-x="895" 
d="M60 333q-2 78 29 149t84.5 124t124.5 84.5t149 29.5q78 2 149 -29.5t124.5 -84.5t85 -124t29.5 -149q2 -78 -29 -149t-84.5 -124.5t-125 -84.5t-149.5 -29q-78 -2 -149 29t-124.5 84.5t-84.5 124.5t-29 149zM740 333q2 59 -22 112.5t-64.5 94t-94 64t-112.5 22.5
q-59 2 -112.5 -22t-93.5 -64.5t-63.5 -94t-22.5 -112.5q-1 -59 22.5 -112.5t63.5 -94t93.5 -64t112.5 -22.5q59 -1 112.5 22.5t94 64t64 94t22.5 112.5z" />
    <glyph glyph-name="uni25CF" unicode="&#x25cf;" horiz-adv-x="895" 
d="M60 333q-2 78 29 149t84.5 124t124.5 84.5t149 29.5q78 2 149 -29.5t124.5 -84.5t85 -124t29.5 -149q2 -78 -29 -149t-84.5 -124.5t-125 -84.5t-149.5 -29q-78 -2 -149 29t-124.5 84.5t-84.5 124.5t-29 149z" />
    <glyph glyph-name="uni262E" unicode="&#x262e;" horiz-adv-x="895" 
d="M835 333q2 -78 -29 -149t-84.5 -124.5t-125 -84.5t-149.5 -29q-78 -2 -149 29t-124.5 84.5t-84.5 124.5t-29 149q-2 78 29 149t84.5 124t124.5 84.5t149 29.5q78 2 149 -29.5t124.5 -84.5t85 -124t29.5 -149zM155 333q0 -58 23 -113l227 158v244q-52 -7 -98 -33
t-79.5 -64.5t-53 -88t-19.5 -103.5zM490 378l227 -158q23 55 23 113q0 54 -19.5 103.5t-53 88t-79 64.5t-98.5 33v-244zM405 274l-183 -127q34 -42 81.5 -69t101.5 -34v230zM490 274v-230q54 7 101.5 34t81.5 69z" />
    <glyph glyph-name="smileface" unicode="&#x263a;" horiz-adv-x="895" 
d="M60 334q-2 77 29 147.5t85 124t125.5 84.5t151.5 29q78 2 148 -29t123.5 -84.5t84 -124t28.5 -147.5q2 -79 -29 -150.5t-83.5 -125t-123 -84.5t-148.5 -29q-80 -2 -151.5 28.5t-125.5 84t-85 125t-29 151.5zM751 334q1 62 -22.5 117t-65 96.5t-96.5 65t-116 22.5
q-63 1 -119 -22.5t-97.5 -64.5t-65 -96t-22.5 -118q-1 -63 22.5 -118.5t64.5 -96.5t97 -64t120 -22q61 -1 116 22.5t96.5 65t65 96.5t22.5 117zM270 423q0 24 18 42.5t43 18.5q24 0 42 -18.5t18 -42.5t-18 -43t-42 -19q-25 0 -43 19t-18 43zM513 419q0 25 18 43.5t44 18.5
q24 0 41.5 -19t17.5 -43t-17.5 -42.5t-41.5 -18.5q-26 0 -44 18.5t-18 42.5zM358 301q-1 -3 -1 -12q0 -38 27 -65t67 -27q21 0 39.5 8t31 22.5t19.5 33.5t5 40h75q2 -37 -11 -69.5t-36 -57t-54.5 -38.5t-68.5 -14t-68.5 14.5t-54.5 39t-35.5 57t-11.5 68.5h77z" />
    <glyph glyph-name="uni2713" unicode="&#x2713;" horiz-adv-x="692" 
d="M119 326l133 -142l301 364l89 -77l-386 -464l-217 234z" />
    <glyph glyph-name="uni2776" unicode="&#x2776;" horiz-adv-x="812" 
d="M50 348q-1 72 27 137t77.5 114t114.5 78t137 27q72 2 137 -27t114 -78t78 -114t27 -137q2 -72 -27 -137.5t-78 -115t-114 -78t-137 -26.5q-72 -2 -137.5 26.5t-114.5 78t-77 115t-27 137.5zM454 553h-72l-77 -40v-76l71 34v-315h78v397z" />
    <glyph glyph-name="uni2777" unicode="&#x2777;" horiz-adv-x="812" 
d="M762 348q2 -72 -27 -137.5t-78 -115t-114 -78t-137 -26.5q-72 -2 -137.5 26.5t-114.5 78t-77 115t-27 137.5q-1 72 27.5 137t77.5 114t114 78t136 27q72 2 137.5 -27t114.5 -78t78 -114t27 -137zM411 255l59 55q34 33 48.5 56.5t14.5 55.5q0 57 -35.5 90.5t-92.5 33.5
q-29 0 -53 -10.5t-41.5 -28.5t-26 -42.5t-7.5 -53.5h77q1 54 51 56q23 0 36 -12.5t13 -34.5q0 -12 -6 -22.5t-21 -24.5l-139 -133v-64l237 1v79z" />
    <glyph glyph-name="uni2778" unicode="&#x2778;" horiz-adv-x="812" 
d="M50 348q-1 72 27 137t77.5 114t114.5 78t137 27q72 2 137 -27t114 -78t78 -114t27 -137q2 -72 -27 -137.5t-78 -115t-114 -78t-137 -26.5q-72 -2 -137.5 26.5t-114.5 78t-77 115t-27 137.5zM411 157q57 0 93 34.5t36 91.5q0 46 -24 76.5t-63 41.5l71 72v58h-229v-80h106
l-53 -58v-54h53q27 1 44.5 -13t17.5 -43q0 -24 -15 -38.5t-37 -14.5q-27 0 -41 16.5t-14 46.5h-74q-2 -28 7 -53t26.5 -43.5t42.5 -29t53 -10.5z" />
    <glyph glyph-name="uni2779" unicode="&#x2779;" horiz-adv-x="812" 
d="M50 348q-1 72 27 137t77.5 114t114.5 78t137 27q72 2 137 -27t114 -78t78 -114t27 -137q2 -72 -27 -137.5t-78 -115t-114 -78t-137 -26.5q-72 -2 -137.5 26.5t-114.5 78t-77 115t-27 137.5zM485 156v71h60v76h-60v250h-75l-180 -250v-76h176v-71h79zM406 422v-119h-90z
" />
    <glyph glyph-name="uni277A" unicode="&#x277a;" horiz-adv-x="812" 
d="M50 348q-1 72 27 137t77.5 114t114.5 78t137 27q72 2 137 -27t114 -78t78 -114t27 -137q2 -72 -27 -137.5t-78 -115t-114 -78t-137 -26.5q-72 -2 -137.5 26.5t-114.5 78t-77 115t-27 137.5zM364 470h156v78h-218l-38 -224l68 -10q9 17 27 27.5t39 10.5q30 0 48.5 -18.5
t18.5 -48.5t-18 -48.5t-47 -18.5q-60 0 -69 63l-75 -19q7 -57 45.5 -89.5t96.5 -32.5q63 0 106 41q42 42 42 104q0 30 -10.5 56.5t-29 46t-43.5 31t-54 11.5q-31 0 -54 -14z" />
    <glyph glyph-name="uni277B" unicode="&#x277b;" horiz-adv-x="812" 
d="M50 348q-1 72 27.5 137t77.5 114t114 78t136 27q72 2 137.5 -27t114.5 -78t78 -114t27 -137q2 -72 -27 -137.5t-78 -115t-114 -78t-137 -26.5q-72 -2 -137.5 26.5t-114.5 78t-77 115t-27 137.5zM402 481q55 0 75 -41l73 25q-18 45 -56 69t-87 24q-79 0 -122.5 -54
t-43.5 -153q0 -97 41 -152.5t111 -55.5q32 0 59.5 11.5t47.5 31.5t32 48t12 61q0 59 -41 98q-40 40 -102 40q-53 0 -80 -30q2 37 25 57.5t56 20.5zM328 289q0 29 19.5 48t48.5 19t48 -19t19 -48q0 -31 -18.5 -50t-48.5 -19t-49 19t-19 50z" />
    <glyph glyph-name="uni277C" unicode="&#x277c;" horiz-adv-x="812" 
d="M50 348q-1 72 27 137t77.5 114t114.5 78t137 27q72 2 137 -27t114 -78t78 -114t27 -137q2 -72 -27 -137.5t-78 -115t-114 -78t-137 -26.5q-72 -2 -137.5 26.5t-114.5 78t-77 115t-27 137.5zM406 156q16 187 137 312v64h-256v-72h159q-54 -72 -83 -145.5t-37 -158.5h80z
" />
    <glyph glyph-name="uni277D" unicode="&#x277d;" horiz-adv-x="812" 
d="M50 348q-1 72 27 137t77.5 114t114.5 78t137 27q72 2 137 -27t114 -78t78 -114t27 -137q2 -72 -27 -137.5t-78 -115t-114 -78t-137 -26.5q-72 -2 -137.5 26.5t-114.5 78t-77 115t-27 137.5zM553 277q0 31 -13.5 58t-35.5 40q13 13 21 32t8 39q0 51 -35.5 81.5t-93.5 30.5
q-60 0 -95.5 -31t-35.5 -82q0 -18 8 -37t20 -33q-22 -13 -35 -41t-13 -59q0 -60 41 -95t110 -35t109 36t40 96zM354 442q0 17 14 28t36 11t35.5 -11t13.5 -28t-13.5 -27.5t-35.5 -10.5t-36 10.5t-14 27.5zM334 279q0 26 19 42t51 16q31 0 50.5 -16t19.5 -42q0 -25 -19.5 -41
t-50.5 -16t-50.5 15.5t-19.5 41.5z" />
    <glyph glyph-name="uni277E" unicode="&#x277e;" horiz-adv-x="812" 
d="M50 348q-1 72 27 137t77.5 114t114.5 78t137 27q72 2 137 -27t114 -78t78 -114t27 -137q2 -72 -27 -137.5t-78 -115t-114 -78t-137 -26.5q-72 -2 -137.5 26.5t-114.5 78t-77 115t-27 137.5zM403 221q-56 0 -76 41l-75 -26q18 -42 57 -66.5t90 -24.5q75 0 117 50.5
t42 147.5v17.5t-1 12.5q-5 87 -44.5 136t-109.5 49q-32 0 -59 -11t-46.5 -31t-30.5 -47t-11 -59q0 -60 40 -100t100 -40q50 0 84 31q-2 -35 -22 -57t-55 -23zM469 413q0 -30 -19.5 -48.5t-49.5 -18.5q-28 0 -46.5 18.5t-18.5 47.5q0 31 19 50t50 19q28 0 46.5 -19t18.5 -49z
" />
    <glyph glyph-name="uni2780" unicode="&#x2780;" horiz-adv-x="875" 
d="M50 333q-2 78 29 149t84.5 124t124.5 84.5t149 29.5q78 2 149 -29.5t124.5 -84.5t85 -124t29.5 -149q2 -78 -29 -149t-84.5 -124.5t-125 -84.5t-149.5 -29q-78 -2 -149 29t-124.5 84.5t-84.5 124.5t-29 149zM730 333q2 59 -22 112.5t-64.5 94t-94 64t-112.5 22.5
q-59 2 -112.5 -22t-93.5 -64.5t-63.5 -94t-22.5 -112.5q-1 -59 22.5 -112.5t63.5 -94t93.5 -64t112.5 -22.5q59 -1 112.5 22.5t94 64t64 94t22.5 112.5zM337 471l76 39v-81l-76 -39v81zM413 510h82v-367h-82v367z" />
    <glyph glyph-name="uni2781" unicode="&#x2781;" horiz-adv-x="875" 
d="M825 333q2 -78 -29 -149t-84.5 -124.5t-125 -84.5t-149.5 -29q-78 -2 -149 29t-124.5 84.5t-84.5 124.5t-29 149q-2 78 29 149t84.5 124t124.5 84.5t149 29.5q78 2 149 -29.5t124.5 -84.5t85 -124t29.5 -149zM730 333q2 59 -22 112.5t-64.5 94t-94 64t-112.5 22.5
q-59 2 -112.5 -22t-93.5 -64.5t-63.5 -94t-22.5 -112.5q-1 -59 22.5 -112.5t63.5 -94t93.5 -64t112.5 -22.5q59 -1 112.5 22.5t94 64t64 94t22.5 112.5zM455 233l114 1v-80l-238 -1v65l140 132q15 15 21 25t6 21q0 22 -13 35t-36 14q-50 -2 -51 -56h-78q-1 29 8 53.5
t26 42.5t41.5 28.5t53.5 10.5q57 0 92.5 -33.5t35.5 -90.5q0 -32 -14.5 -55.5t-49.5 -56.5z" />
    <glyph glyph-name="uni2782" unicode="&#x2782;" horiz-adv-x="875" 
d="M825 333q2 -78 -29 -149t-84.5 -124.5t-125 -84.5t-149.5 -29q-78 -2 -149 29t-124.5 84.5t-84.5 124.5t-29 149q-2 78 29 149t84.5 124t124.5 84.5t149 29.5q78 2 149 -29.5t124.5 -84.5t85 -124t29.5 -149zM730 333q2 59 -22 112.5t-64.5 94t-94 64t-112.5 22.5
q-59 2 -112.5 -22t-93.5 -64.5t-63.5 -94t-22.5 -112.5q-1 -59 22.5 -112.5t63.5 -94t93.5 -64t112.5 -22.5q59 -1 112.5 22.5t94 64t64 94t22.5 112.5zM569 258q0 -57 -36.5 -91.5t-93.5 -34.5q-28 0 -53 10.5t-42.5 29t-26.5 43.5t-7 53h74q0 -62 55 -62q22 0 37.5 14.5
t15.5 37.5q0 30 -17.5 43.5t-45.5 13.5h-53v53l54 58h-106v81h228v-59l-71 -72q39 -11 63.5 -41.5t24.5 -76.5z" />
    <glyph glyph-name="uni2783" unicode="&#x2783;" horiz-adv-x="875" 
d="M825 333q2 -78 -29 -149t-84.5 -124.5t-125 -84.5t-149.5 -29q-78 -2 -149 29t-124.5 84.5t-84.5 124.5t-29 149q-2 78 29 149t84.5 124t124.5 84.5t149 29.5q78 2 149 -29.5t124.5 -84.5t85 -124t29.5 -149zM730 333q2 59 -22 112.5t-64.5 94t-94 64t-112.5 22.5
q-59 2 -112.5 -22t-93.5 -64.5t-63.5 -94t-22.5 -112.5q-1 -59 22.5 -112.5t63.5 -94t93.5 -64t112.5 -22.5q59 -1 112.5 22.5t94 64t64 94t22.5 112.5zM522 298h44v-79h-44v-65h-81v65l-168 1v79l168 223h81v-224zM441 298v95l-70 -94z" />
    <glyph glyph-name="uni2784" unicode="&#x2784;" horiz-adv-x="875" 
d="M50 333q-2 78 29 149t84.5 124t124.5 84.5t149 29.5q78 2 149 -29.5t124.5 -84.5t85 -124t29.5 -149q2 -78 -29 -149t-84.5 -124.5t-125 -84.5t-149.5 -29q-78 -2 -149 29t-124.5 84.5t-84.5 124.5t-29 149zM730 333q2 59 -22 112.5t-64.5 94t-94 64t-112.5 22.5
q-59 2 -112.5 -22t-93.5 -64.5t-63.5 -94t-22.5 -112.5q-1 -59 22.5 -112.5t63.5 -94t93.5 -64t112.5 -22.5q59 -1 112.5 22.5t94 64t64 94t22.5 112.5zM379 280l-1 -9q0 -22 15 -37t38 -15q24 0 39.5 16t15.5 40q0 26 -15.5 41.5t-42.5 15.5q-15 0 -28 -7t-17 -16l-73 19
l45 182h199v-80h-137l-8 -30q11 4 29 4q57 0 92.5 -37t35.5 -97q0 -27 -10.5 -50.5t-29 -41t-43 -28t-52.5 -10.5q-29 0 -54 11t-43 30t-27 44.5t-8 54.5h80z" />
    <glyph glyph-name="uni2785" unicode="&#x2785;" horiz-adv-x="875" 
d="M50 333q-2 78 29 149t84.5 124t124.5 84.5t149 29.5q78 2 149 -29.5t124.5 -84.5t85 -124t29.5 -149q2 -78 -29 -149t-84.5 -124.5t-125 -84.5t-149.5 -29q-78 -2 -149 29t-124.5 84.5t-84.5 124.5t-29 149zM730 333q2 59 -22 112.5t-64.5 94t-94 64t-112.5 22.5
q-59 2 -112.5 -22t-93.5 -64.5t-63.5 -94t-22.5 -112.5q-1 -59 22.5 -112.5t63.5 -94t93.5 -64t112.5 -22.5q59 -1 112.5 22.5t94 64t64 94t22.5 112.5zM433 516q85 0 129 -68l-59 -38q-21 32 -64 32q-24 0 -46.5 -17t-28.5 -48q25 34 78 34q55 0 86 -39q33 -39 33 -92
q0 -27 -9.5 -52t-27 -44t-42.5 -30.5t-57 -11.5q-68 2 -105 52q-36 53 -36 126q0 52 20 104q17 39 50.5 65t78.5 27zM423 215q27 0 44 19.5t15 51.5q-4 22 -19.5 36t-36.5 14q-21 1 -37.5 -14.5t-18.5 -39.5q-1 -30 13.5 -48.5t39.5 -18.5z" />
    <glyph glyph-name="uni2786" unicode="&#x2786;" horiz-adv-x="875" 
d="M825 333q2 -78 -29 -149t-84.5 -124.5t-125 -84.5t-149.5 -29q-78 -2 -149 29t-124.5 84.5t-84.5 124.5t-29 149q-2 78 29 149t84.5 124t124.5 84.5t149 29.5q78 2 149 -29.5t124.5 -84.5t85 -124t29.5 -149zM730 333q2 59 -22 112.5t-64.5 94t-94 64t-112.5 22.5
q-59 2 -112.5 -22t-93.5 -64.5t-63.5 -94t-22.5 -112.5q-1 -59 22.5 -112.5t63.5 -94t93.5 -64t112.5 -22.5q59 -1 112.5 22.5t94 64t64 94t22.5 112.5zM303 510h269v-84q-63 -45 -92 -104t-33 -98q-2 -20 -3 -40t-1 -42h-85q0 38 3 75q5 38 27 98q24 60 75 111h-160v84z
" />
    <glyph glyph-name="uni2787" unicode="&#x2787;" horiz-adv-x="875" 
d="M50 333q-2 78 29 149t84.5 124t124.5 84.5t149 29.5q78 2 149 -29.5t124.5 -84.5t85 -124t29.5 -149q2 -78 -29 -149t-84.5 -124.5t-125 -84.5t-149.5 -29q-78 -2 -149 29t-124.5 84.5t-84.5 124.5t-29 149zM730 333q2 59 -22 112.5t-64.5 94t-94 64t-112.5 22.5
q-59 2 -112.5 -22t-93.5 -64.5t-63.5 -94t-22.5 -112.5q-1 -59 22.5 -112.5t63.5 -94t93.5 -64t112.5 -22.5q59 -1 112.5 22.5t94 64t64 94t22.5 112.5zM302 255q0 26 13.5 50t35.5 38q-38 30 -38 73q0 21 9 40t24.5 33.5t38 23.5t49.5 9t49 -9t38 -24t24.5 -33.5t8.5 -38.5
q0 -45 -39 -74q22 -14 35.5 -37.5t13.5 -48.5q0 -22 -9.5 -43t-26.5 -36.5t-41 -25t-54 -9.5t-53.5 9.5t-40.5 25t-26.5 35.5t-10.5 42zM480 414q0 14 -13 24t-34 10q-22 0 -34 -10.5t-13 -24.5q0 -14 12.5 -24.5t34.5 -10.5q23 0 35.5 11t11.5 25zM487 261q0 18 -14 30.5
t-40 12.5t-40 -13t-14 -31q1 -17 15 -30t39 -13q26 0 40 13t14 31z" />
    <glyph glyph-name="uni2788" unicode="&#x2788;" horiz-adv-x="875" 
d="M50 333q-2 78 29 149t84.5 124t124.5 84.5t149 29.5q78 2 149 -29.5t124.5 -84.5t85 -124t29.5 -149q2 -78 -29 -149t-84.5 -124.5t-125 -84.5t-149.5 -29q-78 -2 -149 29t-124.5 84.5t-84.5 124.5t-29 149zM730 333q2 59 -22 112.5t-64.5 94t-94 64t-112.5 22.5
q-59 2 -112.5 -22t-93.5 -64.5t-63.5 -94t-22.5 -112.5q-1 -59 22.5 -112.5t63.5 -94t93.5 -64t112.5 -22.5q59 -1 112.5 22.5t94 64t64 94t22.5 112.5zM425 248q-22 0 -44 8.5t-39.5 24.5t-28 39.5t-10.5 53.5t10.5 55.5t28.5 44t42.5 29t52.5 10.5q51 0 87 -30.5t46 -84.5
q7 -32 7 -72q0 -41 -9.5 -75.5t-28 -59.5t-46 -39t-63.5 -14q-38 0 -71 18t-54 52l63 37q20 -30 58 -30q26 0 47.5 16.5t28.5 50.5q-11 -17 -33 -25.5t-44 -8.5zM439 441q-24 0 -42 -16.5t-18 -45.5q0 -30 17 -46t40 -16q24 0 40.5 16.5t17.5 44.5q-2 26 -16 43.5t-39 19.5z
" />
    <glyph glyph-name="DegarismLogo" horiz-adv-x="1528" 
d="M731 275h229v-267h-82l-10 80h-9q0 -3 -7 -18t-23.5 -30.5t-44.5 -28t-71 -11.5q-95 0 -155 64q-60 65 -60 189q0 65 19.5 113.5t52 80.5t75 48t88.5 16q37 0 73.5 -10.5t67 -32.5t52.5 -55t29 -78h-113q-10 36 -37.5 57.5t-69.5 21.5q-63 0 -94.5 -44.5t-31.5 -112.5
q0 -34 7.5 -63.5t23 -51t39 -33.5t54.5 -12q43 0 73 23t38 60h-113v95zM997 457q0 22 16 38t39 16t38.5 -15.5t15.5 -38.5t-16 -39t-38 -16t-38.5 16.5t-16.5 38.5zM1135 457q0 22 16 38t39 16t38.5 -15.5t15.5 -38.5t-16 -39t-38 -16t-38.5 16.5t-16.5 38.5zM1276 511h84
v-21h-30v-85h-25v85h-29v21zM1488 511v-106h-25v91l-15 -91h-35l-14 91v-91h-25v106h44l12 -88l14 88h44zM464 257q0 -124 -61 -186.5t-169 -62.5h-194v498h194q108 0 169 -62.5t61 -186.5zM354 257q0 96 -42 127q-40 31 -78 31h-66q-25 2 -42.5 12t-19.5 12l-8 -8
q3 -3 11.5 -11t18.5 -19q15 -13 18.5 -29t3.5 -27v-177q0 -25 -10 -39.5t-12 -16.5l-30 -30l8 -7q3 3 22.5 13.5t47.5 10.5h58q39 0 79 30q41 32 41 128zM1210 345q18 0 34 -3v-89q-4 1 -18 1q-49 0 -76.5 -25.5t-27.5 -80.5v-140h-108v257q0 49 -7 77h109q2 -10 2.5 -20
t1.5 -20q22 43 90 43z" />
    <glyph glyph-name="G.ss01" horiz-adv-x="794" 
d="M739 404v-101q1 -61 -23 -118.5t-68.5 -102t-108 -70.5t-142.5 -24q-81 0 -147.5 27t-114 77t-73 120t-25.5 156t26 156.5t73 120.5t113.5 77t148.5 27q115 0 199.5 -53t126.5 -149l-147 -56q-24 54 -70 82.5t-109 28.5q-93 0 -148.5 -61.5t-55.5 -172.5t55.5 -172
t148.5 -61q69 0 119 35t61 102h-192v132h353z" />
    <glyph glyph-name="a.ss01" horiz-adv-x="651" 
d="M443 0q-2 10 -4 23t-4 30q-22 -31 -64 -48.5t-93 -17.5q-55 0 -100.5 19t-78 53t-50 81.5t-17.5 104.5q0 60 17.5 109.5t50 84.5t79 54.5t103.5 19.5q52 0 92.5 -16.5t63.5 -45.5l5 47h132v-378q0 -24 3 -66t7 -54h-142zM430 251q0 32 -10.5 56.5t-28 42t-40.5 26.5
t-49 9q-25 0 -48 -9t-40.5 -26.5t-27.5 -42t-10 -56.5t10.5 -57t28 -42.5t40 -26.5t47.5 -9t48 9.5t41 27t28.5 42.5t10.5 56z" />
    <glyph glyph-name="ampersand.ss02" horiz-adv-x="733" 
d="M713 0q-74 0 -110 10q-37 10 -68 44q-85 -65 -207 -65q-64 0 -115 15.5t-86 44t-54 69t-19 90.5q0 40 10.5 73t31 60.5t49.5 52t65 48.5q-32 42 -47.5 74.5t-15.5 69.5q0 34 13 63.5t37 52t57 35.5t73 13q76 0 123 -44t47 -111q0 -91 -106 -170l130 -157q9 29 9 63v13.5
t-1 9.5h125q3 -114 -38 -200q18 -23 39.5 -26t57.5 -3v-125zM278 586q0 -11 9.5 -28t34.5 -48q57 41 57 76q0 22 -13.5 35.5t-36.5 13.5t-37 -13t-14 -36zM283 354q-46 -30 -71 -61.5t-25 -73.5q0 -26 11 -46t29.5 -33.5t43 -20.5t51.5 -7q34 0 67 11.5t60 33.5z" />
    <glyph glyph-name="at.ss04" horiz-adv-x="969" 
d="M919 391q0 -60 -16.5 -112t-45.5 -90t-68 -59.5t-83 -21.5q-46 0 -79.5 23t-42.5 61q-18 -32 -58 -54t-91 -22q-66 0 -105.5 37.5t-40.5 97.5q0 64 46 104t127 40h127q3 17 3 32q0 77 -90 77q-48 0 -78 -20t-50 -58l-58 21q29 63 79 90t107 27q73 0 115 -37t42 -106
q0 -17 -3 -35l-19 -130q-1 -7 -1.5 -12t-0.5 -8q0 -34 18.5 -55t52.5 -21q32 0 59.5 19t47 51t30.5 73.5t11 85.5q1 65 -24 122t-69 99.5t-104.5 66.5t-129.5 23q-77 2 -148.5 -28t-127 -81t-91 -118.5t-40.5 -141.5q-1 -12 -1.5 -21t-0.5 -15q-1 -70 26 -132t75.5 -108.5
t115.5 -73t145 -24.5q79 0 154 26t135 75l35 -48q-69 -54 -157 -82.5t-179 -28.5q-93 -1 -170.5 30t-132.5 85t-85 126t-29 154v22t1 15q5 88 44.5 166.5t103.5 137t147.5 92.5t177.5 32q86 1 159 -27t125.5 -78t82 -117.5t27.5 -145.5zM483 336q-69 0 -97.5 -24.5
t-28.5 -60.5t24.5 -54.5t64.5 -18.5q119 0 136 158h-99z" />
    <glyph glyph-name="bracketleftsuperior" horiz-adv-x="208" 
d="M203 215h-162v668h162v-71h-76v-527h76v-70z" />
    <glyph glyph-name="bracketrightsuperior" horiz-adv-x="203" 
d="M76 285v527h-76v71h162v-668h-162v70h76z" />
    <glyph glyph-name="eight.dnom" horiz-adv-x="328" 
d="M32 101q0 27 13.5 51.5t35.5 38.5q-38 29 -38 74q0 20 8.5 39t24.5 34t38.5 24t49.5 9q52 0 85 -29t35 -71q2 -23 -7 -44t-30 -36q21 -14 35 -38.5t14 -49.5q0 -22 -9.5 -42t-27 -36t-41.5 -25.5t-54 -9.5q-29 0 -53 9.5t-41 25t-27 35.5t-11 41zM212 261q0 14 -12.5 24
t-35.5 10t-35 -9.5t-12 -23.5q-1 -15 11.5 -26t35.5 -11q22 0 35 10.5t13 25.5zM219 110q0 17 -14.5 29.5t-40.5 12.5q-27 0 -41.5 -13t-13.5 -31q0 -18 14.5 -30.5t40.5 -12.5t40.5 13t14.5 32z" />
    <glyph glyph-name="eight.numr" horiz-adv-x="326" 
d="M32 449q0 25 13.5 49t35.5 38q-19 14 -28.5 34t-9.5 40t8.5 39t24.5 33.5t38.5 23.5t49.5 9t49 -9t38 -23.5t24.5 -33t8.5 -38.5q0 -21 -9.5 -41t-29.5 -34q22 -14 35.5 -37.5t13.5 -48.5q0 -22 -9.5 -42t-26.5 -36t-41 -25.5t-54 -9.5q-29 0 -53 9t-41 24t-27 35.5
t-10 43.5zM210 608q0 14 -13 24t-34 10q-22 0 -34 -10.5t-13 -24.5q0 -15 12.5 -25.5t34.5 -10.5q23 0 35.5 11t11.5 26zM217 455q0 17 -14.5 30t-39.5 13q-26 0 -40 -13.5t-14 -30.5q1 -18 15 -30.5t39 -12.5q26 0 40 13t14 31z" />
    <glyph glyph-name="eight.tf" horiz-adv-x="648" 
d="M594 202q0 -48 -20 -87.5t-56 -67.5t-85.5 -43.5t-109.5 -15.5q-59 0 -108.5 15.5t-85.5 43.5t-56 67.5t-20 87.5q0 66 34.5 118t97.5 73q-46 20 -71 61.5t-25 96.5q0 47 18 84t49.5 62.5t74.5 39t93 13.5t92.5 -13.5t74 -39t49.5 -62t18 -82.5q0 -57 -26 -99.5
t-74 -61.5q66 -19 101 -71.5t35 -118.5zM215 534q0 -38 29 -62.5t78 -24.5t78 24t29 63q0 42 -29 66t-78 24q-48 0 -77.5 -25t-29.5 -65zM446 222q0 48 -34.5 75t-88.5 27t-88.5 -26.5t-34.5 -74.5q0 -49 34.5 -76.5t88.5 -27.5t88.5 27t34.5 76z" />
    <glyph glyph-name="five.dnom" horiz-adv-x="337" 
d="M114 132q-1 -3 -1 -10q0 -22 15.5 -36.5t38.5 -14.5q24 0 40 16t16 40q0 28 -16 43.5t-44 15.5q-14 0 -28 -7.5t-18 -16.5l-75 20l46 186h204v-82h-139l-9 -30q17 4 29 4q58 0 94.5 -38.5t36.5 -98.5q0 -28 -10.5 -52.5t-29 -42.5t-43.5 -28.5t-54 -10.5q-30 0 -55.5 11
t-43.5 30.5t-27.5 45.5t-8.5 56h82z" />
    <glyph glyph-name="five.numr" horiz-adv-x="331" 
d="M113 480q-1 -3 -1 -10q0 -22 15 -36.5t38 -14.5t39 15.5t16 37.5q0 28 -16 44t-43 16q-14 0 -27.5 -7t-17.5 -16l-73 19l45 182h199v-80h-136l-9 -30q11 4 29 4q57 0 92.5 -37t35.5 -97q0 -27 -10.5 -50.5t-29 -41t-43 -28t-51.5 -10.5q-29 0 -54 11t-43 30t-27.5 44.5
t-8.5 54.5h81z" />
    <glyph glyph-name="five.tf" horiz-adv-x="660" 
d="M616 253q0 -58 -20.5 -107t-57.5 -84t-88 -54.5t-113 -19.5q-60 0 -110.5 19t-87 53.5t-57.5 83t-21 106.5h148q0 -60 36.5 -95t94.5 -35q25 0 48 9.5t40.5 26.5t28 42t10.5 55q0 63 -36.5 99.5t-90.5 36.5q-40 0 -72 -17t-50 -45l-137 18l95 392h387v-143h-273l-30 -108
q44 24 108 24q57 0 103 -20t78 -54.5t49.5 -81.5t17.5 -101z" />
    <glyph glyph-name="four.dnom" horiz-adv-x="365" 
d="M333 57h-47v-66h-81v66l-173 1v82l173 228h81v-229h47v-82zM205 140v97l-72 -97h72z" />
    <glyph glyph-name="four.numr" horiz-adv-x="358" 
d="M326 407h-45v-65h-81v65l-168 1v79l168 223h81v-223h45v-80zM200 487v94l-70 -94h70z" />
    <glyph glyph-name="four.ss03" horiz-adv-x="696" 
d="M671 133h-95v-133h-140v133l-382 1v141l382 -1v306l-216 -305h-166l325 462h168h29v-463h95v-141z" />
    <glyph glyph-name="four.tf" horiz-adv-x="665" 
d="M617 133h-93v-133h-142v133l-342 1v131l285 472h168l-288 -472l177 -1v169h142v-169h93v-131z" />
    <glyph glyph-name="g.ss02" horiz-adv-x="637" 
d="M575 497v-476q0 -65 -19 -115.5t-54 -85t-84.5 -52.5t-109.5 -18q-100 0 -167 46.5t-96 128.5l126 46q12 -45 48.5 -68.5t90.5 -23.5q63 0 94 34t31 97v55q-23 -27 -64.5 -42.5t-93.5 -15.5q-55 0 -100 18.5t-77 51.5t-49.5 79.5t-17.5 102.5q0 57 18 104t50 80.5t77 52
t100 18.5q54 0 97 -16.5t66 -46.5l6 46h128zM432 262q0 57 -36 92.5t-93 35.5t-91.5 -35.5t-34.5 -92.5q0 -58 34.5 -94.5t91.5 -36.5t93 36.5t36 94.5z" />
    <glyph glyph-name="i.loclTRK" horiz-adv-x="252" 
d="M197 498v-498h-142v498h142zM48 643q0 33 23 56t55 23t55.5 -23.5t23.5 -55.5t-23.5 -55t-55.5 -23t-55 22.5t-23 55.5z" />
    <glyph glyph-name="i.ss04" horiz-adv-x="288" 
d="M240 654l-96 -96l-96 96l96 95zM215 498v-498h-143v498h143z" />
    <glyph glyph-name="nine.dnom" horiz-adv-x="344" 
d="M159 100q-23 0 -45.5 8.5t-40.5 25t-29.5 40.5t-11.5 56q0 60 39 100q39 41 97 41q52 0 89 -32t47 -86q4 -21 6 -40.5t2 -36.5q0 -40 -9.5 -74.5t-28 -59.5t-46 -39.5t-63.5 -14.5q-39 0 -73 18t-57 53l63 39q11 -16 28.5 -25t34.5 -9q26 0 47.5 18.5t26.5 52.5
q-11 -17 -32.5 -26t-43.5 -9zM168 297q-23 0 -40.5 -16.5t-18.5 -45.5q0 -30 16 -46.5t39 -18.5q27 -1 44.5 16.5t17.5 47.5q-1 27 -16.5 45t-41.5 18z" />
    <glyph glyph-name="nine.numr" horiz-adv-x="339" 
d="M155 448q-22 0 -44.5 8.5t-39.5 24.5t-28 40t-11 55q0 58 38 98q39 39 96 39q51 0 87 -30.5t46 -84.5q4 -17 5.5 -35.5t1.5 -37.5q0 -41 -9.5 -75.5t-27.5 -59t-45.5 -38.5t-63.5 -14q-38 0 -70.5 18t-53.5 52l62 37q20 -30 58 -30q26 0 47.5 16.5t28.5 50.5
q-11 -17 -33 -25.5t-44 -8.5zM168 641q-23 0 -41 -17t-19 -45q0 -30 17.5 -46t40.5 -16q24 0 40.5 16.5t16.5 44.5q-1 26 -15.5 43.5t-39.5 19.5z" />
    <glyph glyph-name="nine.tf" horiz-adv-x="691" 
d="M640 375q0 -78 -19.5 -148.5t-61 -124t-105 -85t-151.5 -30.5q-72 0 -130 22.5t-97 61.5l88 103q35 -28 70 -39t77 -11q40 0 73 13t57.5 37t38.5 57.5t17 73.5q-26 -38 -72.5 -59t-106.5 -21q-57 0 -105 18t-83 51t-55 79.5t-20 103.5q-1 57 19.5 107.5t57.5 87.5t88 58
t111 20q80 1 138 -30t96 -82.5t56.5 -120t18.5 -142.5zM470 481q0 66 -38.5 102t-95.5 36q-56 0 -95 -36t-39 -102q0 -63 39 -98.5t96 -35.5t95 35.5t38 98.5z" />
    <glyph glyph-name="one.dnom" horiz-adv-x="225" 
d="M32 334l80 33v-84l-80 -30v81zM193 367v-367h-81v367h81z" />
    <glyph glyph-name="one.numr" horiz-adv-x="225" 
d="M32 676l80 34v-84l-80 -30v80zM193 710v-367h-81v367h81z" />
    <glyph glyph-name="one.tf" horiz-adv-x="591" 
d="M538 123v-123h-293h-158v123h158v463l-141 -75v143l141 83h146v-614h147z" />
    <glyph glyph-name="registered.ss01" horiz-adv-x="532" 
d="M492 499q1 -46 -17 -88t-48.5 -73t-72 -49t-86.5 -17q-47 0 -88.5 18t-72.5 48.5t-49 72t-18 88.5q0 46 18 87t49 71.5t72.5 48.5t88.5 18q46 0 87 -18t71.5 -48.5t48 -71.5t17.5 -87zM443 499q0 37 -14 69t-37.5 55.5t-55.5 37t-68 13.5q-37 0 -69.5 -13.5t-56.5 -37
t-37.5 -55.5t-13.5 -69t13.5 -69.5t37 -56t56 -37t70.5 -13.5q36 0 68 13.5t55.5 37.5t37.5 56t14 69zM351 396h-54l-33 77h-19v-77h-47v204h47h21q36 2 56.5 -12t22.5 -42q1 -1 1 -6q0 -6 -1 -8q-2 -35 -31 -51zM245 516h35q14 2 15 16v2v5q-2 17 -29 17h-21v-40z" />
    <glyph glyph-name="seven.dnom" horiz-adv-x="334" 
d="M302 368v-84q-63 -45 -92 -104q-28 -58 -33 -99q-2 -20 -3.5 -40.5t-1.5 -40.5h-84q0 39 3 76q5 38 27 96t74 112h-160v84h270z" />
    <glyph glyph-name="seven.numr" horiz-adv-x="334" 
d="M302 710v-84q-63 -45 -92 -104q-28 -58 -33 -99q-2 -20 -3.5 -40.5t-1.5 -40.5h-84q0 40 3 76q4 37 27 97q22 59 74 111h-160v84h270z" />
    <glyph glyph-name="seven.tf" horiz-adv-x="600" 
d="M555 735v-145q-120 -90 -177 -211q-57 -120 -69 -211q-12 -90 -12 -168h-145q0 73 9 158q5 43 19.5 94.5t39.5 112.5q49 122 155 225h-340v145h520z" />
    <glyph glyph-name="six.dnom" horiz-adv-x="353" 
d="M316 131q0 -27 -9.5 -52.5t-27.5 -45t-43.5 -31.5t-58.5 -12q-71 0 -109 54q-36 54 -36 134q0 83 42 138t119 55q83 0 128 -59l-62 -44q-19 27 -64 27q-31 0 -51 -16t-28 -41q14 13 34 19.5t41 6.5q29 0 52 -10.5t39 -29t25 -42.5t9 -51zM230 122q0 28 -16 45t-41 17
t-40 -17t-15 -45t15 -44t40 -16q24 0 40.5 16t16.5 44z" />
    <glyph glyph-name="six.numr" horiz-adv-x="352" 
d="M316 475q0 -27 -9.5 -52.5t-27.5 -45t-43.5 -31.5t-58.5 -12q-71 0 -109 53q-36 54 -36 134q0 82 41 138q42 55 118 55q45 0 77.5 -16t51.5 -43l-61 -43q-11 14 -28 20.5t-36 6.5q-31 0 -51 -16.5t-28 -41.5q26 26 75 26q29 0 52 -10.5t39 -28.5t25 -42t9 -51zM230 466
q0 28 -16 45t-41 17t-40 -17t-15 -45t15 -44t40 -16q24 0 40.5 16t16.5 44z" />
    <glyph glyph-name="six.tf" horiz-adv-x="680" 
d="M633 260q0 -58 -20.5 -107.5t-57 -86.5t-87.5 -58t-112 -21q-80 0 -138.5 30.5t-96.5 82t-56 119.5t-18 143q0 78 19.5 148.5t61 124t105.5 85t152 30.5q69 0 128 -21.5t99 -61.5l-89 -103q-30 23 -70 36.5t-77 13.5q-78 0 -130 -50q-51 -50 -56 -131q26 38 73 58.5
t107 20.5q56 0 104 -18t83.5 -51t55.5 -79.5t20 -103.5zM485 256q0 63 -38 99t-95 36q-28 0 -53 -9.5t-43 -26.5t-28.5 -42t-10.5 -57t10.5 -57.5t28.5 -43t42.5 -27t52.5 -9.5t52.5 9.5t42.5 27t28.5 43t10.5 57.5z" />
    <glyph glyph-name="t.ss03" horiz-adv-x="396" 
d="M359 0q-49 -12 -95 -12q-81 0 -128.5 42.5t-47.5 136.5v209h-76v122h76v154h141v-154h113v-122h-113v-180q-1 -82 62 -82q22 0 51 10z" />
    <glyph glyph-name="three.dnom" horiz-adv-x="330" 
d="M298 125q0 -56 -39 -94q-40 -38 -97 -38q-29 0 -53.5 11t-42.5 29.5t-27 44t-7 54.5h80q-1 -2 -1 -10q0 -21 14 -35t37 -14t38.5 14.5t15.5 38.5q0 23 -15.5 37t-37.5 14q-17 0 -35 -9l-28 62v1l54 57h-108v80h233v-69l-58 -58q33 -15 55 -46t22 -70z" />
    <glyph glyph-name="three.numr" horiz-adv-x="323" 
d="M291 467q0 -55 -38 -93q-37 -37 -92 -37q-28 0 -53 10.5t-42.5 29t-26.5 43.5t-7 54h79l-1 -10q0 -22 14 -35t37 -13q21 0 35.5 14.5t14.5 36.5q0 27 -17 41q-13 12 -34 12q-16 0 -33 -9l-29 62l3 3l51 53h-106v81h230v-68l-57 -58q29 -14 47 -38q25 -34 25 -79z" />
    <glyph glyph-name="three.tf" horiz-adv-x="615" 
d="M563 235q0 -56 -20.5 -102t-56 -78.5t-84 -50t-104.5 -17.5q-55 0 -102.5 17t-83 49.5t-56 79t-20.5 106.5h147q0 -57 32 -88.5t86 -31.5q51 0 83 31.5t32 85.5q0 51 -31 83t-94 33q-8 1 -20.5 1h-29.5h-58v96l164 156h-277v132h475v-122l-155 -147q78 -24 125.5 -83.5
t47.5 -149.5z" />
    <glyph glyph-name="two.dnom" horiz-adv-x="326" 
d="M41 80l127 107q24 21 32.5 31.5t9.5 26.5q0 21 -13 34.5t-36 13.5q-22 -1 -35.5 -13.5t-13.5 -34.5l1 -10h-81q-1 29 7.5 53.5t26.5 43t43.5 29t56.5 10.5q60 0 93.5 -34t33.5 -88q0 -38 -18 -64t-48 -51l-67 -55l130 1v-80l-249 -1v81z" />
    <glyph glyph-name="two.numr" horiz-adv-x="326" 
d="M41 422l127 107q24 21 32.5 31.5t9.5 27.5q0 21 -13 34t-36 13q-22 0 -35.5 -12.5t-13.5 -34.5l1 -10h-81q-1 28 7.5 52.5t26.5 43t43.5 29.5t57.5 11q58 -1 92 -35.5t34 -86.5q0 -38 -17.5 -64.5t-48.5 -51.5l-67 -55l130 1v-80h-249v80z" />
    <glyph glyph-name="two.tf" horiz-adv-x="614" 
d="M277 133h275v-131l-483 -2v138l271 237q46 42 61.5 72t15.5 59q0 54 -32 83t-77 29q-48 0 -80 -32t-32 -86h-147q0 58 19 104.5t53 79t82 50t105 17.5q62 0 110 -19.5t80.5 -52.5t49.5 -78t17 -96q-1 -41 -10 -72t-25.5 -57t-40 -50.5t-53.5 -52.5z" />
    <glyph glyph-name="zero.dnom" horiz-adv-x="383" 
d="M350 177q0 -87 -43.5 -138t-116.5 -51q-36 0 -65 13.5t-50 38.5t-32 60t-11 77q0 87 43.5 138.5t115.5 50.5q72 1 115.5 -50t43.5 -139zM267 177q0 45 -17 72t-47 32l-12 1l-11 -1q-30 -5 -47.5 -32t-17.5 -72q0 -49 20.5 -77t56.5 -29q35 1 55 29t20 77z" />
    <glyph glyph-name="zero.numr" horiz-adv-x="386" 
d="M354 534q0 -43 -11.5 -78.5t-32.5 -60.5t-50.5 -38.5t-65.5 -13.5t-66 13.5t-51.5 38.5t-33 60.5t-11.5 78.5t11.5 78.5t32.5 60.5t51 38.5t66 13.5t66 -13.5t51 -38.5t32.5 -60t11.5 -79zM269 534q0 46 -17 73t-47 32q-3 1 -12 1q-8 0 -11 -1q-31 -5 -48.5 -32.5
t-17.5 -72.5q0 -49 21 -77.5t56 -29.5q36 1 56 28.5t20 78.5z" />
    <glyph glyph-name="zero.tf" horiz-adv-x="723" 
d="M362 750q75 0 134.5 -28t101 -78.5t63.5 -121t22 -156.5q0 -85 -23 -154.5t-65.5 -119.5t-101.5 -77.5t-131 -27.5q-75 0 -134.5 27t-101 77t-63.5 120t-22 156q0 84 23.5 154.5t65.5 121.5t101 79t131 28zM362 118q82 0 127.5 64t45.5 185q0 124 -45 187.5t-126 63.5
q-84 0 -130 -63t-46 -188q0 -121 46 -184.5t128 -64.5z" />
    </font>
</defs>
</svg>
